<svg width="23" height="24" viewBox="0 0 23 24" fill="none" xmlns="http://www.w3.org/2000/svg">
<g clip-path="url(#clip0_138_1584)">
<path d="M22.7974 7.0695L15.822 14L22.7974 20.9305C22.9235 20.6669 23 20.3756 23 20.0645V7.93555C23 7.62437 22.9235 7.33305 22.7974 7.0695ZM20.9785 5.91406H2.02147C1.7103 5.91406 1.41898 5.99056 1.15542 6.11666L10.0708 14.9871C10.859 15.7754 12.1409 15.7754 12.9292 14.9871L21.8445 6.11666C21.581 5.99056 21.2897 5.91406 20.9785 5.91406ZM0.202582 7.0695C0.0764867 7.33305 -1.52588e-05 7.62437 -1.52588e-05 7.93555V20.0645C-1.52588e-05 20.3756 0.0764867 20.667 0.202582 20.9305L7.17801 14L0.202582 7.0695Z" fill="#EFEFEF"/>
<path d="M14.8691 14.9526L13.8821 15.9397C12.5686 17.2532 10.4313 17.2532 9.11787 15.9397L8.13085 14.9526L1.15543 21.8831C1.41898 22.0092 1.7103 22.0857 2.02147 22.0857H20.9785C21.2897 22.0857 21.581 22.0092 21.8446 21.8831L14.8691 14.9526Z" fill="#EFEFEF"/>
</g>
<defs>
<clipPath id="clip0_138_1584">
<rect width="23" height="23" fill="white" transform="translate(0 0.5)"/>
</clipPath>
</defs>
</svg>
