<svg width="23" height="24" viewBox="0 0 23 24" fill="none" xmlns="http://www.w3.org/2000/svg">
<g clip-path="url(#clip0_138_1574)">
<path d="M11.5 0.5C6.90692 0.5 3.17023 4.23669 3.17023 8.82968C3.17023 14.5297 10.6245 22.8977 10.9419 23.2512C11.24 23.5832 11.7605 23.5826 12.058 23.2512C12.3754 22.8977 19.8297 14.5297 19.8297 8.82968C19.8296 4.23669 16.0929 0.5 11.5 0.5ZM11.5 13.0206C9.18909 13.0206 7.3091 11.1406 7.3091 8.82968C7.3091 6.51881 9.18913 4.63883 11.5 4.63883C13.8108 4.63883 15.6908 6.51886 15.6908 8.82973C15.6908 11.1406 13.8108 13.0206 11.5 13.0206Z" fill="#EFEFEF"/>
</g>
<defs>
<clipPath id="clip0_138_1574">
<rect width="23" height="23" fill="white" transform="translate(0 0.5)"/>
</clipPath>
</defs>
</svg>
