<svg width="23" height="24" viewBox="0 0 23 24" fill="none" xmlns="http://www.w3.org/2000/svg">
<g clip-path="url(#clip0_138_1554)">
<path fill-rule="evenodd" clip-rule="evenodd" d="M12.4401 2.65626C11.9439 2.65626 11.5417 2.25403 11.5417 1.75782C11.5417 1.26161 11.9439 0.859382 12.4401 0.859382C15.0506 0.859382 17.6611 1.8553 19.6528 3.84709C20.6259 4.82014 21.3628 5.94755 21.8631 7.15532C22.376 8.39317 22.6402 9.71989 22.6406 11.0598C22.6406 11.556 22.2383 11.9582 21.7421 11.9582C21.2459 11.9582 20.8437 11.556 20.8437 11.0598C20.8437 9.95858 20.6313 8.86145 20.2067 7.8362C19.7992 6.85232 19.1912 5.9263 18.3825 5.11757C16.7416 3.47671 14.5909 2.65626 12.4401 2.65626ZM9.51573 13.9842C8.52633 12.9966 7.64941 11.9034 6.90398 10.7247C6.63179 10.2942 6.63467 9.77705 6.91143 9.34966L7.97514 7.70732C8.20208 7.35675 8.24539 6.95676 8.09867 6.56585L6.26896 1.68918C5.9824 0.925462 5.07556 0.623273 4.38812 1.06247L1.83544 2.69345C0.67048 3.43781 0.129621 4.77585 0.450543 6.12059C1.43824 10.2595 3.59251 13.9842 6.56998 16.93C9.51573 19.9075 13.2404 22.0617 17.3794 23.0494C18.7241 23.3703 20.0622 22.8295 20.8065 21.6645L22.4375 19.1118C22.8767 18.4244 22.5745 17.5175 21.8108 17.231L16.9341 15.4012C16.5432 15.2545 16.1432 15.2978 15.7927 15.5248L14.1503 16.5885C13.7229 16.8653 13.2058 16.8681 12.7753 16.596C11.5966 15.8505 10.5033 14.9736 9.51573 13.9842ZM12.4401 9.93607C12.5921 9.93607 12.74 9.96392 12.8745 10.0196C13.0008 10.0719 13.1233 10.1536 13.2349 10.2651C13.3464 10.3766 13.4281 10.4992 13.4804 10.6254C13.5361 10.7599 13.5639 10.9078 13.5639 11.0598C13.5639 11.556 13.9661 11.9582 14.4624 11.9582C14.9586 11.9582 15.3608 11.556 15.3608 11.0598C15.3608 10.6845 15.2861 10.305 15.1369 9.94456C14.9918 9.5944 14.7811 9.27047 14.5053 8.99465C14.2295 8.71882 13.9056 8.50814 13.5554 8.36309C13.1949 8.21381 12.8155 8.13915 12.4401 8.13915C11.9439 8.13915 11.5417 8.54138 11.5417 9.03759C11.5417 9.5338 11.944 9.93607 12.4401 9.93607ZM12.4401 6.29268C13.0612 6.29268 13.6836 6.41393 14.2691 6.65646C14.8242 6.88637 15.3485 7.23119 15.8086 7.69137C16.2687 8.15151 16.6136 8.67579 16.8435 9.23084C17.0837 9.81071 17.2073 10.4322 17.2073 11.0598C17.2073 11.554 17.608 11.9547 18.1022 11.9547C18.5965 11.9547 18.9972 11.5541 18.9972 11.0598C18.9972 10.2043 18.8315 9.35016 18.5 8.55001C18.1773 7.77102 17.7035 7.04535 17.0791 6.42094C16.4547 5.79648 15.729 5.32264 14.95 5.00001C14.1499 4.66858 13.2956 4.50286 12.4402 4.50286C11.946 4.50286 11.5453 4.90356 11.5453 5.39779C11.5453 5.89202 11.9459 6.29268 12.4401 6.29268Z" fill="#EFEFEF"/>
</g>
<defs>
<clipPath id="clip0_138_1554">
<rect width="23" height="23" fill="white" transform="translate(0 0.5)"/>
</clipPath>
</defs>
</svg>
