<svg width="35" height="35" viewBox="0 0 35 35" fill="none" xmlns="http://www.w3.org/2000/svg">
<path d="M17.5 0C7.82776 0 0 7.82688 0 17.5C0 27.1721 7.82688 35 17.5 35C27.1722 35 35 27.1731 35 17.5C35 7.82776 27.1731 0 17.5 0ZM17.5 32.5581C9.19693 32.5581 2.44187 25.8031 2.44187 17.5C2.44187 9.19687 9.19693 2.44187 17.5 2.44187C25.8031 2.44187 32.5581 9.19687 32.5581 17.5C32.5581 25.8031 25.8031 32.5581 17.5 32.5581Z" fill="#EFEFEF"/>
<path d="M16.8796 24.1849C15.57 24.1849 14.51 25.2757 14.51 26.5846C14.51 27.8624 15.5389 28.9844 16.8796 28.9844C18.2203 28.9844 19.2802 27.8624 19.2802 26.5846C19.2802 25.2757 18.189 24.1849 16.8796 24.1849ZM17.2848 6.01562C13.0756 6.01562 11.1426 8.50895 11.1426 10.1918C11.1426 11.4073 12.1715 11.9683 13.0133 11.9683C14.697 11.9683 14.0111 9.56847 17.1913 9.56847C18.7502 9.56847 19.9974 10.2542 19.9974 11.6878C19.9974 13.3706 18.2513 14.3368 17.2225 15.2094C16.3182 15.9884 15.1335 17.2662 15.1335 19.9465C15.1335 21.567 15.57 22.0345 16.8483 22.0345C18.376 22.0345 18.6878 21.3489 18.6878 20.7567C18.6878 19.1361 18.719 18.2012 20.4338 16.8611C21.2757 16.2066 23.9258 14.0873 23.9258 11.1578C23.9258 8.22835 21.2757 6.01562 17.2848 6.01562Z" fill="#EFEFEF"/>
</svg>
