<svg width="24" height="21" viewBox="0 0 24 21" fill="none" xmlns="http://www.w3.org/2000/svg">
<path d="M23.9563 9.82222L22.3695 17.8222C22.2193 18.5772 21.8145 19.2564 21.2239 19.7446C20.6334 20.2327 19.8934 20.4996 19.1298 20.5H3.30583C2.42907 20.5 1.58822 20.1488 0.968256 19.5237C0.348292 18.8986 0 18.0507 0 17.1667V3.83333C0 2.94928 0.348292 2.10143 0.968256 1.47631C1.58822 0.85119 2.42907 0.5 3.30583 0.5H7.71361C7.92963 0.501701 8.14039 0.567386 8.31968 0.688889L11.35 2.72222H17.6311C18.5079 2.72222 19.3487 3.07341 19.9687 3.69853C20.5886 4.32365 20.9369 5.1715 20.9369 6.05556H18.7331C18.7331 5.76087 18.617 5.47826 18.4103 5.26988C18.2036 5.06151 17.9234 4.94444 17.6311 4.94444H11.0194C10.8034 4.94274 10.5927 4.87706 10.4134 4.75556L7.38303 2.72222H3.30583C3.01358 2.72222 2.73329 2.83929 2.52664 3.04766C2.31999 3.25603 2.20389 3.53865 2.20389 3.83333V17.1667C2.20389 17.4614 2.31999 17.744 2.52664 17.9523C2.73329 18.1607 3.01358 18.2778 3.30583 18.2778H3.50418L5.17914 9.84444C5.32932 9.08949 5.73409 8.41024 6.32466 7.9221C6.91524 7.43396 7.65521 7.16703 8.41885 7.16667H21.7965C22.123 7.16585 22.4456 7.23819 22.741 7.37847C23.0364 7.51874 23.2971 7.72345 23.5045 7.97778C23.7103 8.23243 23.8576 8.52993 23.9357 8.84886C24.0138 9.1678 24.0209 9.50023 23.9563 9.82222Z" fill="#EFEFEF"/>
</svg>
