<svg width="50" height="50" viewBox="0 0 50 50" fill="none" xmlns="http://www.w3.org/2000/svg">
<circle cx="25" cy="25" r="25" fill="#242424"/>
<path d="M24.431 10C26.6935 10 28.8461 10.5264 30.7777 11.4679C31.0807 11.6067 31.3856 11.7728 31.6875 11.9391L30.363 13.1304L28.3774 11.0529L24.956 14.0996L22.9412 11.911L16.6498 17.5897L20.6778 22.0493L19.1053 23.434L23.0793 27.8937L21.5067 29.2777L27.1913 35.6211L30.5558 32.5186L33.4821 35.8434C32.9021 36.2867 32.2675 36.7308 31.5785 37.1179C29.481 38.3088 27.0524 39 24.4589 39C16.4836 39 10.0001 32.492 10.0001 24.4875C9.97193 16.5372 16.4566 10 24.431 10ZM21.7816 23.6005L25.2309 20.498L28.3221 23.9603L24.872 27.0626L21.7816 23.6005ZM24.2381 29.5838L27.6594 26.4538L30.7777 29.9158L27.3283 33.0185L24.2381 29.5838ZM19.3272 17.7008L22.7755 14.5983L25.866 18.0606L22.4165 21.163L19.3272 17.7008ZM25.6449 16.0383L28.2113 13.7117L30.5297 16.2879L27.9633 18.642L25.6449 16.0383ZM30.2259 26.7026L32.7915 24.3758L35.1098 26.9789L32.5432 29.3071L30.2259 26.7026ZM32.4883 31.9383L35.0548 29.6111L37.3713 32.1871L34.8057 34.5409L32.4883 31.9383ZM33.537 19.9717L35.2476 18.4203L36.7923 20.1383L35.082 21.6891L33.537 19.9717ZM31.3295 14.8473L33.0402 13.2687L34.5861 15.0135L32.8741 16.5647L31.3295 14.8473ZM35.7167 25.0965L37.4272 23.5453L39 25.2627L37.2622 26.8135L35.7167 25.0965ZM28.0183 21.2461L30.5848 18.9194L32.9021 21.4949L30.3367 23.8221L28.0183 21.2461Z" fill="#57C7FF"/>
</svg>
