<svg width="127" height="65" viewBox="0 0 127 65" fill="none" xmlns="http://www.w3.org/2000/svg">
<path d="M18.2476 11.4007H17.9641V8.3596C17.9641 7.86086 17.5785 7.44727 17.1135 7.44727C16.6486 7.44727 16.263 7.86086 16.263 8.3596V11.4007H15.9795C14.1763 11.4007 13.1443 12.5077 13.1443 14.4418V21.7405C13.1443 23.6747 14.1763 24.7816 15.9795 24.7816H16.263V32.6886C16.263 33.1873 16.6486 33.6009 17.1135 33.6009C17.5785 33.6009 17.9641 33.1873 17.9641 32.6886V24.7816H18.2476C20.0507 24.7816 21.0827 23.6747 21.0827 21.7405V14.4418C21.0827 12.5077 20.0507 11.4007 18.2476 11.4007ZM30.7222 16.2665H30.4387V8.3596C30.4387 7.86086 30.0531 7.44727 29.5881 7.44727C29.1232 7.44727 28.7376 7.86086 28.7376 8.3596V16.2665H28.4541C26.6509 16.2665 25.619 17.3735 25.619 19.3076V26.6063C25.619 28.5405 26.6509 29.6474 28.4541 29.6474H28.7376V32.6886C28.7376 33.1873 29.1232 33.6009 29.5881 33.6009C30.0531 33.6009 30.4387 33.1873 30.4387 32.6886V29.6474H30.7222C32.5253 29.6474 33.5573 28.5405 33.5573 26.6063V19.3076C33.5573 17.3735 32.5253 16.2665 30.7222 16.2665Z" fill="#57C7FF"/>
<path d="M0 20.5235C0 16.6293 1.06001 13.121 3.18003 9.99861C5.3348 6.87624 8.25418 4.43798 11.9381 2.68384C15.6569 0.894614 19.7753 0 24.2933 0C29.9583 0 34.8413 1.38577 38.9423 4.15732C43.0781 6.89378 45.928 10.7354 47.4919 15.682L38.3168 15.7347C37.6564 13.9454 36.5269 12.4193 34.9282 11.1563C33.3642 9.85828 31.6265 8.8935 29.715 8.26201C27.8035 7.59544 26.0137 7.26215 24.3455 7.26215C21.8432 7.26215 19.4103 7.78839 17.047 8.84088C14.6837 9.85828 12.7375 11.3844 11.2083 13.4192C9.71386 15.4189 8.96664 17.787 8.96664 20.5235C8.96664 23.295 9.67911 25.6806 11.104 27.6804C12.529 29.645 14.4057 31.1536 16.7343 32.2061C19.0976 33.2235 21.6346 33.7322 24.3455 33.7322C27.0216 33.7322 29.6455 33.013 32.2174 31.5746C34.8239 30.1362 36.7876 28.0838 38.1082 25.4175H47.4919C45.8237 30.3993 42.9391 34.2409 38.8381 36.9422C34.7718 39.6436 29.9236 40.9943 24.2933 40.9943C19.81 40.9943 15.709 40.0997 11.9903 38.3105C8.27155 36.5212 5.3348 34.0654 3.18003 30.9431C1.06001 27.8207 0 24.3475 0 20.5235Z" fill="#57C7FF"/>
<path d="M69.362 9.99861C73.9495 9.99861 78.0506 10.8406 81.665 12.5246C85.3142 14.2086 87.1388 17.1731 87.1388 21.4181V39.9418H79.5276L78.7457 34.9425C78.1896 35.995 77.1469 36.9422 75.6178 37.7842C74.0886 38.6262 72.264 39.2928 70.1439 39.7839C68.0239 40.24 65.8518 40.4681 63.6275 40.4681C60.9514 40.4681 58.1363 39.9067 55.1822 38.7841C52.228 37.6264 50.751 35.153 50.751 31.3641C50.751 27.7856 51.95 25.4175 54.348 24.2598C56.7461 23.067 59.2137 22.4706 61.7507 22.4706C67.4157 22.4706 71.3256 22.4355 73.4804 22.3653C75.6699 22.2601 77.0948 22.0671 77.7551 21.7864C78.4502 21.4707 78.8152 20.9445 78.8499 20.2077V19.6815C78.8152 18.4185 77.842 17.366 75.9305 16.524C74.0191 15.682 71.8121 15.261 69.3098 15.261C66.5642 15.226 64.2357 15.6469 62.3242 16.524C60.4127 17.366 59.4569 18.7342 59.4569 20.6287H51.0638C51.0638 17.9273 52.0369 15.7873 53.9831 14.2086C55.9641 12.6298 58.3274 11.5423 61.073 10.9459C63.8534 10.3144 66.6164 9.99861 69.362 9.99861ZM67.5373 34.0479C71.7079 34.0479 74.6273 33.1708 76.2955 31.4167C77.9637 29.6625 78.7978 27.6102 78.7978 25.2596C77.0948 26.2771 74.0712 26.7858 69.7269 26.7858C67.1551 26.7858 65.1393 26.8735 63.6796 27.0489C62.2547 27.2243 61.1947 27.5576 60.4996 28.0487C59.8045 28.5048 59.4396 29.1889 59.4048 30.1011C59.4743 31.3641 60.1173 32.3464 61.3337 33.048C62.5501 33.7146 64.618 34.0479 67.5373 34.0479Z" fill="#57C7FF"/>
<path d="M127 26.2595C126.93 28.7855 126.322 31.1711 125.175 33.4164C124.063 35.6266 122.465 37.4334 120.379 38.8367C118.329 40.2049 115.931 40.8891 113.185 40.8891C107.207 40.8891 102.655 39.4331 99.5266 36.5212V49.9404H91.1856V11.2616H98.4319L99.2138 15.3137C102.411 12.1562 107.068 10.595 113.185 10.6301C115.861 10.6301 118.224 11.2967 120.275 12.6298C122.36 13.963 123.994 15.7873 125.175 18.1027C126.357 20.4182 126.965 23.0143 127 25.8911V26.2595ZM108.754 35.4161C110.804 35.4161 112.542 34.9425 113.967 33.9953C115.427 33.048 116.522 31.8552 117.251 30.4168C117.981 28.9433 118.364 27.4699 118.398 25.9964C118.364 24.2773 117.999 22.6635 117.304 21.155C116.643 19.6464 115.583 18.4185 114.123 17.4713C112.699 16.524 110.909 16.0504 108.754 16.0504C106.947 16.0504 105.348 16.5065 103.958 17.4186C102.568 18.2957 101.473 19.471 100.674 20.9445C99.9089 22.4179 99.5266 23.9616 99.5266 25.5754V25.628C99.5266 27.4523 99.9089 29.1188 100.674 30.6273C101.438 32.1008 102.516 33.2761 103.906 34.1531C105.331 34.9951 106.947 35.4161 108.754 35.4161Z" fill="#57C7FF"/>
<path d="M24.0249 47.2568V50.4277H10.4441V53.9249H22.0848V56.9792H10.4441V64.5099H6.54071V47.2568H24.0249Z" fill="#EFEFEF"/>
<path d="M29.513 64.5099H25.8175V47.2568H29.513V64.5099Z" fill="#EFEFEF"/>
<path d="M39.7453 51.267C41.3005 51.267 42.7017 51.5623 43.949 52.153C45.2116 52.7436 46.197 53.5674 46.9053 54.6244C47.6136 55.6658 47.9678 56.8393 47.9678 58.1449C47.9678 59.435 47.6136 60.6086 46.9053 61.6655C46.197 62.7069 45.2116 63.5229 43.949 64.1136C42.7017 64.7042 41.3005 64.9996 39.7453 64.9996C38.2518 64.9996 36.8506 64.7042 35.5417 64.1136C34.2329 63.5074 33.1859 62.6836 32.4006 61.6422C31.6153 60.5852 31.2227 59.4195 31.2227 58.1449C31.2227 56.8548 31.6153 55.6891 32.4006 54.6477C33.1859 53.5907 34.2252 52.7669 35.5186 52.1763C36.8275 51.5701 38.2364 51.267 39.7453 51.267ZM39.7684 62.4815C41.0311 62.4815 42.1012 62.124 42.9789 61.409C43.8566 60.694 44.2954 59.606 44.2954 58.1449C44.2954 56.6839 43.8566 55.5958 42.9789 54.8808C42.1012 54.1503 41.0311 53.785 39.7684 53.785C38.9678 53.785 38.1979 53.9405 37.4588 54.2513C36.7351 54.5622 36.1346 55.044 35.6572 55.6969C35.1953 56.3497 34.9643 57.1657 34.9643 58.1449C34.9643 59.1242 35.1953 59.9402 35.6572 60.593C36.1346 61.2458 36.7351 61.7277 37.4588 62.0385C38.1979 62.3339 38.9678 62.4815 39.7684 62.4815Z" fill="#EFEFEF"/>
<path d="M64.6943 60.8728L68.5515 51.8033H72.732L66.5652 64.5099H62.9852L60.0057 55.6736L57.0031 64.5099H53.4462L47.2794 51.8033H51.4368L55.294 60.8961L57.8115 51.8033H62.1537L64.6943 60.8728Z" fill="#EFEFEF"/>
</svg>
