<svg width="50" height="50" viewBox="0 0 50 50" fill="none" xmlns="http://www.w3.org/2000/svg">
<circle cx="25" cy="25" r="25" fill="#242424"/>
<path d="M36 22.9579C35.8796 22.2231 35.2173 21.7333 34.3141 21.7333C34.0131 21.7333 33.7723 21.7333 33.4712 21.7333C32.9293 21.672 32.8089 21.8557 32.8089 22.2844C32.8089 24.4274 32.8089 26.5093 32.8089 28.6523C32.8089 29.7545 31.7251 30.9179 30.4607 31.1628C26.4869 32.0812 22.5131 32.9385 18.5393 33.8569C18.1178 33.9794 17.6361 33.9794 17.1544 33.9794C16.9738 33.9794 16.6728 33.8569 16.6126 33.6732C16.5524 33.5508 16.733 33.3059 16.8534 33.1834C17.034 33.0609 17.2749 32.9385 17.5157 32.816C18.2382 32.5711 19.0209 32.3262 19.7434 32.0812C22.6937 31.1016 25.644 30.1219 28.5942 29.0809C29.9189 28.6523 30.6414 27.7339 30.6414 26.5705C30.7016 22.8967 30.6414 19.1616 30.6414 15.4878C30.6414 14.8755 30.3403 14.3856 29.678 14.1407C28.8953 13.8345 28.1728 14.0795 27.5105 14.3856C23.2958 16.4062 19.1414 18.4268 14.9267 20.4474C13.7225 21.0597 13 21.917 13 23.1416C13 26.6317 13 30.1219 13 33.612C13 33.7957 13 33.9794 13.0602 34.1019C13.4817 35.2652 14.5654 36 16.0105 36C18.9607 36 21.911 36 24.8613 36C27.8115 36 30.7016 36 33.6518 36C34.3141 36 34.856 35.8775 35.3377 35.4489C35.9398 34.9591 35.9398 34.2855 35.9398 33.6732C35.9398 30.6608 36 22.9579 36 22.9579ZM23.7173 21.8557C24.0183 21.0598 24.6806 20.5699 25.644 20.4474C26.3063 20.3862 26.8482 20.7536 26.9686 21.3659C27.089 22.2844 26.0052 23.3865 24.8613 23.3865C23.9581 23.3865 23.4162 22.713 23.7173 21.8557Z" fill="#57C7FF"/>
</svg>
