<svg width="50" height="50" viewBox="0 0 50 50" fill="none" xmlns="http://www.w3.org/2000/svg">
<circle cx="25" cy="25" r="25" fill="#242424"/>
<path d="M32.5746 16.6484C32.5688 16.9506 32.5429 17.252 32.4973 17.5505C31.8849 21.5498 28.5327 24.5009 24.5829 24.5009H20.658C20.2565 24.5009 19.9144 24.8 19.8519 25.2067L18.6203 33.2013L17.8489 38.2166C17.8339 38.3135 17.8395 38.4126 17.8655 38.5071C17.8915 38.6015 17.9371 38.6891 17.9993 38.7637C18.0616 38.8383 18.1388 38.8982 18.2258 38.9393C18.3129 38.9803 18.4075 39.0015 18.5033 39.0015H22.7635C22.9579 39.0013 23.1458 38.9302 23.2936 38.8008C23.4413 38.6715 23.5392 38.4924 23.5696 38.2958L24.6917 31.0069C24.7221 30.8102 24.8201 30.631 24.968 30.5016C25.1159 30.3723 25.304 30.3012 25.4985 30.3012H28.0067C31.9568 30.3012 35.3086 27.35 35.9211 23.3508C36.356 20.5123 34.9602 17.9294 32.5746 16.6484Z" fill="#EFEFEF"/>
<path d="M17.1574 10C16.7559 10 16.4137 10.2991 16.3513 10.7051L13.0082 32.4151C12.9448 32.8272 13.2558 33.1999 13.6633 33.1999H18.6207L19.8517 25.2053L21.1911 16.5053C21.2215 16.3087 21.3193 16.1296 21.4671 16.0003C21.6148 15.8709 21.8028 15.7997 21.9972 15.7996H29.0992C30.3916 15.7996 31.5705 16.1084 32.5744 16.6471C32.6431 13.0061 29.7095 10 25.6761 10H17.1574Z" fill="#57C7FF"/>
</svg>
