<svg width="50" height="50" viewBox="0 0 50 50" fill="none" xmlns="http://www.w3.org/2000/svg">
<circle cx="25" cy="25" r="25" fill="#242424"/>
<path d="M13 16.3135L16.4357 22.5907V26.4197L13.004 32.6846L13 16.3135Z" fill="#EFEFEF"/>
<path d="M26.192 20.3054L29.4114 18.2885L36.0001 18.2822L26.192 24.4239V20.3054Z" fill="#57C7FF"/>
<path d="M26.1737 16.2753L26.1919 24.5862L22.7481 22.4233V10L26.1737 16.2753Z" fill="#57C7FF"/>
<path d="M35.9999 18.2821L29.411 18.2884L26.1737 16.2753L22.7481 10L35.9999 18.2821Z" fill="#EFEFEF"/>
<path d="M26.1918 32.7185V28.6863L22.748 26.5645L22.7499 39.0001L26.1918 32.7185Z" fill="#57C7FF"/>
<path d="M29.4031 30.7208L16.4355 22.5907L13 16.3135L35.9859 30.7126L29.4031 30.7208Z" fill="#EFEFEF"/>
<path d="M22.75 38.9993L26.1914 32.7177L29.4028 30.7192L35.9855 30.7109L22.75 38.9993Z" fill="#EFEFEF"/>
<path d="M13.004 32.6823L22.7762 26.5634L19.4908 24.5029L16.4357 26.4174L13.004 32.6823Z" fill="#57C7FF"/>
</svg>
