<svg width="108" height="55" viewBox="0 0 108 55" fill="none" xmlns="http://www.w3.org/2000/svg">
<path d="M15.5178 9.64729H15.2767V7.07404C15.2767 6.65203 14.9488 6.30206 14.5534 6.30206C14.158 6.30206 13.8302 6.65203 13.8302 7.07404V9.64729H13.5891C12.0557 9.64729 11.1781 10.584 11.1781 12.2205V18.3964C11.1781 20.033 12.0557 20.9696 13.5891 20.9696H13.8302V27.6601C13.8302 28.0821 14.158 28.4321 14.5534 28.4321C14.9488 28.4321 15.2767 28.0821 15.2767 27.6601V20.9696H15.5178C17.0512 20.9696 17.9288 20.033 17.9288 18.3964V12.2205C17.9288 10.584 17.0512 9.64729 15.5178 9.64729ZM26.1262 13.7645H25.8851V7.07404C25.8851 6.65203 25.5572 6.30206 25.1618 6.30206C24.7664 6.30206 24.4385 6.65203 24.4385 7.07404V13.7645H24.1974C22.664 13.7645 21.7864 14.7012 21.7864 16.3378V22.5136C21.7864 24.1502 22.664 25.0868 24.1974 25.0868H24.4385V27.6601C24.4385 28.0821 24.7664 28.4321 25.1618 28.4321C25.5572 28.4321 25.8851 28.0821 25.8851 27.6601V25.0868H26.1262C27.6595 25.0868 28.5371 24.1502 28.5371 22.5136V16.3378C28.5371 14.7012 27.6595 13.7645 26.1262 13.7645Z" fill="#57C7FF"/>
<path d="M0 17.366C0 14.0709 0.901426 11.1024 2.70428 8.46036C4.53668 5.81836 7.0193 3.75521 10.1521 2.27094C13.3145 0.756981 16.8168 0 20.6589 0C25.4764 0 29.6288 1.17258 33.1163 3.51773C36.6334 5.8332 39.0569 9.08376 40.3868 13.2694L32.5843 13.3139C32.0228 11.8 31.0622 10.5087 29.7027 9.43998C28.3727 8.34162 26.895 7.52527 25.2695 6.99093C23.644 6.42691 22.1219 6.1449 20.7032 6.1449C18.5753 6.1449 16.5064 6.59018 14.4967 7.48074C12.487 8.34162 10.8319 9.63294 9.53147 11.3547C8.26061 13.0468 7.62518 15.0505 7.62518 17.366C7.62518 19.7112 8.23105 21.7298 9.4428 23.4218C10.6546 25.0842 12.2505 26.3607 14.2307 27.2513C16.2404 28.1122 18.398 28.5426 20.7032 28.5426C22.979 28.5426 25.2104 27.934 27.3974 26.7169C29.6141 25.4998 31.2839 23.7632 32.407 21.5071H40.3868C38.9682 25.7225 36.5151 28.973 33.0276 31.2588C29.5697 33.5446 25.4468 34.6875 20.6589 34.6875C16.8463 34.6875 13.3588 33.9305 10.1965 32.4165C7.03408 30.9026 4.53668 28.8246 2.70428 26.1826C0.901426 23.5406 0 20.6017 0 17.366Z" fill="#57C7FF"/>
<path d="M58.985 8.46036C62.8862 8.46036 66.3737 9.17282 69.4474 10.5977C72.5507 12.0226 74.1023 14.531 74.1023 18.123V33.7969H67.6298L66.9648 29.5667C66.4919 30.4573 65.6053 31.2588 64.3049 31.9713C63.0044 32.6837 61.4528 33.2477 59.65 33.6633C57.8471 34.0492 55.9999 34.2422 54.1084 34.2422C51.8327 34.2422 49.4387 33.7672 46.9266 32.8173C44.4144 31.8377 43.1583 29.7449 43.1583 26.5388C43.1583 23.5109 44.1779 21.5071 46.2172 20.5275C48.2565 19.5182 50.3549 19.0136 52.5124 19.0136C57.3299 19.0136 60.6548 18.9839 62.4872 18.9245C64.3492 18.8354 65.5609 18.6722 66.1225 18.4347C66.7136 18.1675 67.0239 17.7222 67.0535 17.0988V16.6536C67.0239 15.5849 66.1964 14.6943 64.5709 13.9819C62.9453 13.2694 61.0686 12.9132 58.9406 12.9132C56.6058 12.8835 54.6256 13.2397 53.0001 13.9819C51.3746 14.6943 50.5618 15.852 50.5618 17.4551H43.4243C43.4243 15.1693 44.2518 13.3585 45.9069 12.0226C47.5915 10.6868 49.6013 9.76653 51.9361 9.26187C54.3005 8.72753 56.6501 8.46036 58.985 8.46036ZM57.4333 28.8098C60.9799 28.8098 63.4625 28.0676 64.8812 26.5833C66.2998 25.0991 67.0091 23.3625 67.0091 21.3735C65.561 22.2344 62.9897 22.6649 59.2953 22.6649C57.1082 22.6649 55.394 22.7391 54.1527 22.8875C52.941 23.0359 52.0396 23.3179 51.4485 23.7335C50.8574 24.1195 50.547 24.6983 50.5175 25.4701C50.5766 26.5388 51.1234 27.37 52.1578 27.9637C53.1922 28.5277 54.9507 28.8098 57.4333 28.8098Z" fill="#57C7FF"/>
<path d="M108 22.2196C107.941 24.3569 107.424 26.3756 106.448 28.2754C105.503 30.1456 104.143 31.6744 102.37 32.8618C100.626 34.0196 98.5867 34.5984 96.2519 34.5984C91.1685 34.5984 87.2968 33.3665 84.6368 30.9026V42.2573H77.5436V9.52904H83.7058L84.3708 12.9577C87.0899 10.286 91.0502 8.96502 96.2519 8.9947C98.5276 8.9947 100.537 9.55873 102.281 10.6868C104.054 11.8148 105.443 13.3585 106.448 15.3177C107.453 17.277 107.97 19.4737 108 21.9079V22.2196ZM92.4837 29.9675C94.2274 29.9675 95.7051 29.5667 96.9169 28.7652C98.1582 27.9637 99.0892 26.9544 99.7098 25.7373C100.33 24.4905 100.656 23.2437 100.685 21.9969C100.656 20.5424 100.345 19.1768 99.7542 17.9003C99.1926 16.6239 98.2912 15.5849 97.0499 14.7834C95.8381 13.9819 94.3161 13.5811 92.4837 13.5811C90.9468 13.5811 89.5873 13.967 88.4051 14.7388C87.2229 15.481 86.2919 16.4754 85.6121 17.7222C84.9619 18.969 84.6368 20.2752 84.6368 21.6407V21.6852C84.6368 23.2289 84.9619 24.639 85.6121 25.9154C86.2623 27.1622 87.1785 28.1567 88.3607 28.8988C89.5725 29.6113 90.9468 29.9675 92.4837 29.9675Z" fill="#57C7FF"/>
<path d="M20.4307 39.9869V42.6699H8.88159V45.6291H18.7808V48.2135H8.88159V54.5857H5.56221V39.9869H20.4307Z" fill="#EFEFEF"/>
<path d="M25.0977 54.5857H21.955V39.9869H25.0977V54.5857Z" fill="#EFEFEF"/>
<path d="M33.7992 43.3801C35.1217 43.3801 36.3133 43.63 37.374 44.1298C38.4477 44.6296 39.2857 45.3266 39.888 46.221C40.4904 47.1021 40.7915 48.0951 40.7915 49.1999C40.7915 50.2915 40.4904 51.2845 39.888 52.1788C39.2857 53.06 38.4477 53.7505 37.374 54.2503C36.3133 54.7501 35.1217 54.9999 33.7992 54.9999C32.5291 54.9999 31.3375 54.7501 30.2245 54.2503C29.1115 53.7374 28.2211 53.0403 27.5533 52.1591C26.8855 51.2648 26.5516 50.2784 26.5516 49.1999C26.5516 48.1083 26.8855 47.1219 27.5533 46.2407C28.2211 45.3463 29.105 44.6493 30.2049 44.1495C31.3179 43.6366 32.516 43.3801 33.7992 43.3801ZM33.8189 52.8693C34.8926 52.8693 35.8026 52.5668 36.549 51.9618C37.2954 51.3568 37.6686 50.4362 37.6686 49.1999C37.6686 47.9636 37.2954 47.043 36.549 46.438C35.8026 45.8198 34.8926 45.5107 33.8189 45.5107C33.138 45.5107 32.4833 45.6423 31.8547 45.9053C31.2393 46.1683 30.7286 46.5761 30.3227 47.1284C29.9299 47.6808 29.7335 48.3713 29.7335 49.1999C29.7335 50.0285 29.9299 50.719 30.3227 51.2713C30.7286 51.8237 31.2393 52.2314 31.8547 52.4945C32.4833 52.7444 33.138 52.8693 33.8189 52.8693Z" fill="#EFEFEF"/>
<path d="M55.0157 51.5081L58.2958 43.8339H61.8509L56.6066 54.5857H53.5622L51.0285 47.1087L48.4751 54.5857H45.4504L40.2061 43.8339H43.7416L47.0217 51.5278L49.1626 43.8339H52.8552L55.0157 51.5081Z" fill="#EFEFEF"/>
</svg>
