<svg width="316" height="289" viewBox="0 0 316 289" fill="none" xmlns="http://www.w3.org/2000/svg">
<rect x="13" y="159.144" width="200" height="117.857" rx="5.16985" fill="#111415"/>
<path d="M39.1881 183.23H36.7501V180.755H39.1927C39.5235 180.755 39.8407 180.885 40.0746 181.117C40.3085 181.349 40.44 181.664 40.44 181.992C40.44 182.321 40.3085 182.636 40.0746 182.868C39.8407 183.1 39.5235 183.23 39.1927 183.23H39.1881ZM39.784 184.95H36.7501V187.425H39.7886C40.1194 187.425 40.4367 187.295 40.6706 187.063C40.9045 186.831 41.0359 186.516 41.0359 186.188C41.0359 185.859 40.9045 185.544 40.6706 185.312C40.4367 185.08 40.1194 184.95 39.7886 184.95H39.784ZM49.6849 184.09C49.6849 186.357 49.0075 188.573 47.7385 190.458C46.4695 192.343 44.6658 193.812 42.5555 194.68C40.4452 195.547 38.1231 195.774 35.8829 195.332C33.6426 194.889 31.5848 193.798 29.9696 192.195C28.3545 190.592 27.2546 188.55 26.809 186.326C26.3633 184.103 26.592 181.798 27.4661 179.704C28.3403 177.609 29.8205 175.819 31.7197 174.56C33.6189 173.3 35.8518 172.628 38.136 172.628C39.6526 172.628 41.1543 172.924 42.5555 173.5C43.9567 174.076 45.2298 174.921 46.3023 175.985C47.3747 177.049 48.2254 178.313 48.8058 179.704C49.3861 181.094 49.6849 182.585 49.6849 184.09ZM42.7382 186.188C42.7378 185.721 42.6263 185.262 42.413 184.847C42.1996 184.431 41.8904 184.072 41.5105 183.798C41.8217 183.402 42.0259 182.935 42.1038 182.439C42.1818 181.943 42.1309 181.436 41.956 180.965C41.7811 180.495 41.488 180.076 41.1045 179.749C40.7209 179.423 40.2596 179.198 39.7643 179.098V178.359C39.7643 178.131 39.6731 177.912 39.5107 177.751C39.3482 177.59 39.1279 177.499 38.8982 177.499C38.6685 177.499 38.4481 177.59 38.2857 177.751C38.1233 177.912 38.032 178.131 38.032 178.359V179.035H37.3495V178.359C37.3495 178.131 37.2582 177.912 37.0958 177.751C36.9333 177.59 36.713 177.499 36.4833 177.499C36.2536 177.499 36.0333 177.59 35.8708 177.751C35.7084 177.912 35.6171 178.131 35.6171 178.359V179.035H34.3999C34.1702 179.035 33.9498 179.126 33.7874 179.287C33.625 179.448 33.5337 179.667 33.5337 179.895C33.5337 180.123 33.625 180.342 33.7874 180.503C33.9498 180.664 34.1702 180.755 34.3999 180.755H35.0177V187.425H34.3999C34.1702 187.425 33.9498 187.516 33.7874 187.677C33.625 187.838 33.5337 188.057 33.5337 188.285C33.5337 188.513 33.625 188.732 33.7874 188.893C33.9498 189.054 34.1702 189.145 34.3999 189.145H35.6171V189.821C35.6171 190.049 35.7084 190.268 35.8708 190.429C36.0333 190.59 36.2536 190.681 36.4833 190.681C36.713 190.681 36.9333 190.59 37.0958 190.429C37.2582 190.268 37.3495 190.049 37.3495 189.821V189.145H38.032V189.821C38.032 190.049 38.1233 190.268 38.2857 190.429C38.4481 190.59 38.6685 190.681 38.8982 190.681C39.1279 190.681 39.3482 190.59 39.5107 190.429C39.6731 190.268 39.7643 190.049 39.7643 189.821V189.145H39.784C40.5707 189.141 41.3236 188.827 41.8775 188.273C42.4314 187.718 42.741 186.968 42.7382 186.188Z" fill="#57C7FF"/>
<path d="M65.6707 183.155C66.2186 183.265 66.6327 183.456 66.9131 183.728C67.1936 183.993 67.3338 184.375 67.3338 184.873V184.912C67.3338 185.475 67.1903 185.902 66.9033 186.194C66.6229 186.485 66.2349 186.679 65.7392 186.776C65.2501 186.867 64.6012 186.919 63.7925 186.932H63.3131L58.637 186.922V179.737H64.2425C64.999 179.744 65.6022 179.899 66.0522 180.203C66.5022 180.507 66.7272 180.938 66.7272 181.495V181.533C66.7272 181.954 66.6392 182.297 66.4631 182.563C66.287 182.828 66.0229 183.025 65.6707 183.155ZM65.1033 181.757C65.1033 181.485 65.0446 181.291 64.9272 181.174C64.8099 181.051 64.6566 180.977 64.4675 180.951C64.2783 180.918 64.0044 180.902 63.6457 180.902H60.2316V182.611L62.7653 182.64H62.6675H63.6457C64.0109 182.64 64.2816 182.63 64.4577 182.611C64.6403 182.585 64.7936 182.511 64.9175 182.388C65.0414 182.258 65.1033 182.048 65.1033 181.757ZM63.9588 185.689C64.3827 185.689 64.699 185.673 64.9077 185.64C65.1229 185.608 65.2925 185.524 65.4164 185.388C65.5403 185.245 65.6022 185.016 65.6022 184.699C65.6022 184.394 65.5403 184.174 65.4164 184.038C65.2925 183.902 65.1229 183.821 64.9077 183.796C64.699 183.763 64.3827 183.747 63.9588 183.747H60.2316V185.669C61.7577 185.669 62.8533 185.676 63.5185 185.689H63.9588Z" fill="#EFEFEF"/>
<path d="M67.5755 181.106V179.737H75.7733L67.5755 181.106ZM75.7733 179.737V181.135H72.5255V186.922H70.8722V181.135H67.5755V179.737H75.7733Z" fill="#EFEFEF"/>
<path d="M75.9717 183.339C75.9717 182.621 76.1706 181.974 76.5685 181.397C76.9728 180.821 77.5206 180.372 78.2119 180.048C78.9098 179.718 79.6826 179.553 80.5304 179.553C81.5935 179.553 82.5098 179.808 83.2793 180.32C84.0554 180.825 84.5902 181.533 84.8837 182.446L83.1619 182.456C83.038 182.126 82.8261 181.844 82.5261 181.611C82.2326 181.372 81.9065 181.194 81.5478 181.077C81.1891 180.954 80.8533 180.893 80.5402 180.893C80.0706 180.893 79.6141 180.99 79.1706 181.184C78.7272 181.372 78.3619 181.653 78.075 182.029C77.7946 182.397 77.6543 182.834 77.6543 183.339C77.6543 183.851 77.788 184.291 78.0554 184.66C78.3228 185.022 78.675 185.3 79.1119 185.495C79.5554 185.682 80.0315 185.776 80.5402 185.776C81.0424 185.776 81.5348 185.644 82.0174 185.378C82.5065 185.113 82.875 184.734 83.1228 184.242H84.8837C84.5706 185.161 84.0293 185.87 83.2598 186.368C82.4967 186.867 81.5869 187.116 80.5304 187.116C79.6891 187.116 78.9196 186.951 78.2217 186.621C77.5239 186.291 76.9728 185.838 76.5685 185.262C76.1706 184.686 75.9717 184.045 75.9717 183.339Z" fill="#EFEFEF"/>
<path d="M29.4142 256.648H31.1066V257.628H29.4142V259.308H28.4262V257.628H26.7338V256.648H28.4262V254.968H29.4142V256.648Z" fill="#EFEFEF" fill-opacity="0.5"/>
<path d="M36.1306 253.075C37.9306 253.068 39.1371 253.431 39.7501 254.162C40.3632 254.894 40.6697 255.745 40.6697 256.716C40.6697 257.661 40.3599 258.525 39.7404 259.308C39.1208 260.085 37.9175 260.473 36.1306 260.473C34.8784 260.473 33.9099 260.263 33.2251 259.842C32.5469 259.421 32.0969 258.933 31.8751 258.376C31.6534 257.813 31.5523 257.259 31.5719 256.716C31.5719 255.777 31.8817 254.936 32.5012 254.191C33.1273 253.447 34.3371 253.075 36.1306 253.075ZM36.1404 259.269C36.8512 259.269 37.4284 259.149 37.8719 258.91C38.3154 258.664 38.6317 258.347 38.8208 257.958C39.0099 257.57 39.0947 257.149 39.0751 256.696C39.0947 256.263 39.0099 255.861 38.8208 255.492C38.6317 255.123 38.3154 254.826 37.8719 254.599C37.4284 254.366 36.8512 254.25 36.1404 254.25C35.436 254.25 34.8621 254.366 34.4186 254.599C33.9817 254.826 33.6686 255.123 33.4795 255.492C33.2969 255.861 33.2121 256.263 33.2251 256.696C33.2121 257.149 33.2969 257.57 33.4795 257.958C33.6686 258.347 33.9817 258.664 34.4186 258.91C34.8621 259.149 35.436 259.269 36.1404 259.269Z" fill="#EFEFEF" fill-opacity="0.5"/>
<path d="M41.3456 260.279V258.774H43.0184V260.279L42.2261 261.23H41.3456L42.138 260.279H41.3456Z" fill="#EFEFEF" fill-opacity="0.5"/>
<path d="M50.4942 257.9H51.5214V259.192H50.4942V260.279H48.8898V259.192H43.7442V257.9L48.8898 253.094H50.4942V257.9ZM48.8898 254.648L45.6127 257.9H48.8898V254.648Z" fill="#EFEFEF" fill-opacity="0.5"/>
<path d="M53.8503 260.279H52.1873L58.546 253.483H60.209L53.8503 260.279ZM54.2808 256.628C54.0003 256.628 53.7394 256.56 53.4981 256.424C53.2568 256.282 53.0644 256.091 52.921 255.852C52.784 255.612 52.7155 255.353 52.7155 255.075C52.7155 254.797 52.784 254.538 52.921 254.298C53.0644 254.059 53.2568 253.871 53.4981 253.735C53.7394 253.593 54.0003 253.521 54.2808 253.521C54.5612 253.521 54.8221 253.593 55.0634 253.735C55.3047 253.871 55.4938 254.059 55.6307 254.298C55.7742 254.538 55.846 254.797 55.846 255.075C55.846 255.353 55.7742 255.612 55.6307 255.852C55.4938 256.091 55.3047 256.282 55.0634 256.424C54.8221 256.56 54.5612 256.628 54.2808 256.628ZM54.2808 255.696C54.4503 255.696 54.5971 255.635 54.721 255.512C54.8449 255.389 54.9068 255.243 54.9068 255.075C54.9068 254.907 54.8449 254.761 54.721 254.638C54.5971 254.515 54.4503 254.454 54.2808 254.454C54.1112 254.454 53.9644 254.515 53.8405 254.638C53.7166 254.761 53.6547 254.907 53.6547 255.075C53.6547 255.243 53.7166 255.389 53.8405 255.512C53.9644 255.635 54.1112 255.696 54.2808 255.696ZM58.1155 260.221C57.8351 260.221 57.5742 260.153 57.3329 260.017C57.0916 259.874 56.8992 259.683 56.7557 259.444C56.6188 259.204 56.5503 258.946 56.5503 258.667C56.5503 258.389 56.6188 258.13 56.7557 257.891C56.8992 257.651 57.0916 257.463 57.3329 257.327C57.5742 257.185 57.8351 257.114 58.1155 257.114C58.396 257.114 58.6568 257.185 58.8981 257.327C59.1394 257.463 59.3286 257.651 59.4655 257.891C59.609 258.13 59.6808 258.389 59.6808 258.667C59.6808 258.946 59.609 259.204 59.4655 259.444C59.3286 259.683 59.1394 259.874 58.8981 260.017C58.6568 260.153 58.396 260.221 58.1155 260.221ZM58.1155 259.279C58.2851 259.279 58.4286 259.217 58.546 259.094C58.6699 258.971 58.7318 258.829 58.7318 258.667C58.7318 258.499 58.6699 258.357 58.546 258.24C58.4286 258.117 58.2851 258.056 58.1155 258.056C57.9525 258.056 57.809 258.117 57.6851 258.24C57.5612 258.357 57.4992 258.499 57.4992 258.667C57.4992 258.829 57.5612 258.971 57.6851 259.094C57.809 259.217 57.9525 259.279 58.1155 259.279Z" fill="#EFEFEF" fill-opacity="0.5"/>
<path d="M36.9135 222.979C38.4566 222.992 39.7622 223.077 40.8305 223.234C41.912 223.391 42.8154 223.751 43.5407 224.314C44.2661 224.864 44.6288 225.688 44.6288 226.788C44.6288 228.634 43.8572 229.923 42.3142 230.656C40.7712 231.389 38.9709 231.788 36.9135 231.854V234.092H34.5594V231.814C32.6075 231.657 30.8996 231.193 29.4357 230.42C27.985 229.635 27.2596 228.372 27.2596 226.631L30.7414 226.572C30.7414 228.103 32.0141 228.987 34.5594 229.223V225.433C33.0428 225.407 31.7701 225.302 30.7414 225.119C29.7127 224.923 28.8752 224.537 28.229 223.961C27.5828 223.372 27.2596 222.514 27.2596 221.389C27.2596 219.648 27.9784 218.424 29.4159 217.717C30.8667 217.01 32.5812 216.605 34.5594 216.5V214.242H36.9135V216.48C38.8918 216.559 40.6722 216.984 42.2549 217.756C43.8375 218.516 44.6288 219.831 44.6288 221.703H41.1668C41.1668 220.865 40.725 220.256 39.8414 219.877C38.9578 219.484 37.9818 219.236 36.9135 219.131V222.979ZM30.6622 221.33C30.6622 222.298 31.9613 222.842 34.5594 222.959V219.15C33.5043 219.255 32.5878 219.478 31.8096 219.818C31.0447 220.145 30.6622 220.649 30.6622 221.33ZM41.2262 226.847C41.2262 226.297 40.8173 225.931 39.9996 225.747C39.182 225.564 38.1533 225.459 36.9135 225.433V229.262C38.1269 229.223 39.1424 229.013 39.9601 228.634C40.7909 228.254 41.213 227.665 41.2262 226.867V226.847Z" fill="#EFEFEF"/>
<path d="M63.981 222.665C63.9941 222.874 64.0007 223.175 64.0007 223.568C64.0007 226.696 63.0775 228.856 61.2312 230.047C59.3848 231.238 57.1625 231.834 54.5644 231.834C52.0982 231.834 50.1199 231.448 48.6296 230.675C47.1394 229.89 46.3942 228.699 46.3942 227.102L49.599 227.161C49.599 227.986 50.0738 228.588 51.0233 228.967C51.9861 229.334 53.1599 229.511 54.5446 229.497C55.5338 229.524 56.4636 229.399 57.334 229.124C58.2176 228.836 58.9562 228.365 59.5497 227.711C60.1431 227.043 60.4926 226.186 60.5981 225.139C59.609 225.806 58.4484 226.225 57.1164 226.395C55.7844 226.552 54.4325 226.631 53.061 226.631C51.6234 226.631 50.3705 226.435 49.3023 226.042C48.2472 225.649 47.4361 225.093 46.869 224.373C46.3019 223.653 46.0183 222.809 46.0183 221.84V221.801C46.0183 220.623 46.4008 219.641 47.1657 218.856C47.9307 218.071 48.9528 217.495 50.232 217.128C51.5245 216.749 52.9686 216.559 54.5644 216.559C57.4395 216.559 59.6552 217.05 61.2114 218.031C62.7676 219 63.6908 220.544 63.981 222.665ZM55.0194 224.628C58.5803 224.628 60.3541 223.843 60.341 222.272C60.341 221.304 59.9783 220.59 59.2529 220.132C58.5275 219.674 57.7956 219.406 57.057 219.327C56.3317 219.236 55.4942 219.183 54.5446 219.17C53.0939 219.17 51.8608 219.379 50.8453 219.798C49.843 220.204 49.3418 220.845 49.3418 221.722C49.3418 222.547 49.5792 223.175 50.054 223.607C50.542 224.026 51.1816 224.301 51.9729 224.432C52.7774 224.563 53.7929 224.628 55.0194 224.628Z" fill="#EFEFEF"/>
<path d="M83.3988 226.611C83.3988 227.789 83.0164 228.771 82.2514 229.556C81.4865 230.342 80.4578 230.924 79.1653 231.304C77.8861 231.67 76.4419 231.854 74.833 231.854C71.9711 231.854 69.7554 231.369 68.186 230.401C66.6298 229.419 65.7132 227.868 65.4362 225.747C65.4098 225.329 65.3966 225.021 65.3966 224.825C65.3966 221.696 66.3198 219.543 68.1662 218.365C70.0126 217.174 72.2348 216.578 74.833 216.578C77.2992 216.578 79.2774 216.971 80.7677 217.756C82.258 218.529 83.0032 219.707 83.0032 221.291L79.8182 221.251C79.8182 220.427 79.3368 219.831 78.374 219.465C77.4245 219.085 76.2573 218.902 74.8725 218.915C73.8834 218.889 72.947 219.02 72.0634 219.308C71.193 219.582 70.4544 220.054 69.8477 220.721C69.2543 221.376 68.9114 222.226 68.819 223.274C69.518 222.802 70.3555 222.455 71.3314 222.233C72.3074 222.01 73.1778 221.88 73.9427 221.84C74.7077 221.801 75.5121 221.781 76.3562 221.781C77.7937 221.781 79.0401 221.978 80.0951 222.37C81.1634 222.763 81.9811 223.319 82.5482 224.039C83.1153 224.759 83.3988 225.603 83.3988 226.572V226.611ZM74.8725 229.242C76.3232 229.242 77.5498 229.039 78.5521 228.634C79.5676 228.215 80.0753 227.567 80.0753 226.69C80.0753 225.865 79.8314 225.243 79.3434 224.825C78.8554 224.393 78.2026 224.111 77.3849 223.98C76.5804 223.849 75.5583 223.784 74.3186 223.784C70.8105 223.784 69.063 224.569 69.0762 226.14C69.0762 227.109 69.4389 227.822 70.1643 228.28C70.8896 228.738 71.615 229.013 72.3403 229.105C73.0789 229.183 73.923 229.229 74.8725 229.242Z" fill="#EFEFEF"/>
<path d="M98.8762 216.893L90.9632 231.422H87.7584L94.3065 219.386H84.7119V216.893H98.8762Z" fill="#EFEFEF"/>
<path d="M99.7448 228.378H103.147V231.422H99.7448V228.378Z" fill="#EFEFEF"/>
<path d="M121.035 226.356C120.982 228.424 120.118 229.857 118.443 230.656C116.768 231.441 114.889 231.834 112.805 231.834C111.697 231.834 110.537 231.67 109.323 231.343C108.11 231.016 107.068 230.46 106.198 229.674C105.34 228.889 104.912 227.861 104.912 226.592L108.156 226.572C108.156 227.475 108.591 228.156 109.462 228.614C110.332 229.072 111.394 229.334 112.647 229.399C114.032 229.439 115.205 229.216 116.168 228.732C117.144 228.234 117.632 227.429 117.632 226.317C117.619 225.296 117.23 224.51 116.465 223.961C115.7 223.411 114.46 223.136 112.746 223.136C112.02 223.136 111.295 223.228 110.57 223.411C109.857 223.594 109.264 223.863 108.789 224.216C108.328 224.569 108.097 225.001 108.097 225.512V225.61L104.971 225.669V216.893H120.342V219.15H108.097V222.567C109.271 221.611 111.282 221.133 114.13 221.133C115.476 221.133 116.669 221.343 117.711 221.762C118.753 222.167 119.564 222.763 120.144 223.548C120.738 224.334 121.035 225.263 121.035 226.336V226.356Z" fill="#EFEFEF"/>
<path d="M138.885 226.356C138.833 228.424 137.969 229.857 136.294 230.656C134.619 231.441 132.74 231.834 130.656 231.834C129.548 231.834 128.387 231.67 127.174 231.343C125.961 231.016 124.919 230.46 124.048 229.674C123.191 228.889 122.763 227.861 122.763 226.592L126.007 226.572C126.007 227.475 126.442 228.156 127.313 228.614C128.183 229.072 129.245 229.334 130.498 229.399C131.882 229.439 133.056 229.216 134.019 228.732C134.995 228.234 135.483 227.429 135.483 226.317C135.47 225.296 135.08 224.51 134.316 223.961C133.551 223.411 132.311 223.136 130.596 223.136C129.871 223.136 129.146 223.228 128.42 223.411C127.708 223.594 127.115 223.863 126.64 224.216C126.178 224.569 125.948 225.001 125.948 225.512V225.61L122.822 225.669V216.893H138.193V219.15H125.948V222.567C127.121 221.611 129.133 221.133 131.981 221.133C133.326 221.133 134.52 221.343 135.562 221.762C136.604 222.167 137.415 222.763 137.995 223.548C138.589 224.334 138.885 225.263 138.885 226.336V226.356Z" fill="#EFEFEF"/>
<path d="M158.18 222.665C158.193 222.874 158.2 223.175 158.2 223.568C158.2 226.696 157.277 228.856 155.43 230.047C153.584 231.238 151.362 231.834 148.764 231.834C146.297 231.834 144.319 231.448 142.829 230.675C141.339 229.89 140.593 228.699 140.593 227.102L143.798 227.161C143.798 227.986 144.273 228.588 145.223 228.967C146.185 229.334 147.359 229.511 148.744 229.497C149.733 229.524 150.663 229.399 151.533 229.124C152.417 228.836 153.155 228.365 153.749 227.711C154.342 227.043 154.692 226.186 154.797 225.139C153.808 225.806 152.648 226.225 151.316 226.395C149.984 226.552 148.632 226.631 147.26 226.631C145.823 226.631 144.57 226.435 143.501 226.042C142.446 225.649 141.635 225.093 141.068 224.373C140.501 223.653 140.218 222.809 140.218 221.84V221.801C140.218 220.623 140.6 219.641 141.365 218.856C142.13 218.071 143.152 217.495 144.431 217.128C145.724 216.749 147.168 216.559 148.764 216.559C151.639 216.559 153.854 217.05 155.411 218.031C156.967 219 157.89 220.544 158.18 222.665ZM149.219 224.628C152.78 224.628 154.553 223.843 154.54 222.272C154.54 221.304 154.177 220.59 153.452 220.132C152.727 219.674 151.995 219.406 151.256 219.327C150.531 219.236 149.693 219.183 148.744 219.17C147.293 219.17 146.06 219.379 145.045 219.798C144.042 220.204 143.541 220.845 143.541 221.722C143.541 222.547 143.778 223.175 144.253 223.607C144.741 224.026 145.381 224.301 146.172 224.432C146.977 224.563 147.992 224.628 149.219 224.628Z" fill="#EFEFEF"/>
<path d="M159.576 231.422V228.378H162.959V231.422L161.357 233.346H159.576L161.178 231.422H159.576Z" fill="#EFEFEF"/>
<path d="M170.975 216.893V231.422H167.73V221.428H164.427V219.366C165.653 219.366 166.556 219.216 167.137 218.915C167.73 218.614 168.093 218.293 168.225 217.953C168.37 217.599 168.442 217.246 168.442 216.893H170.975Z" fill="#EFEFEF"/>
<path d="M181.892 216.853C185.532 216.84 187.972 217.573 189.211 219.052C190.451 220.531 191.071 222.253 191.071 224.216C191.071 226.127 190.444 227.874 189.191 229.458C187.939 231.029 185.505 231.814 181.892 231.814C179.359 231.814 177.401 231.389 176.016 230.538C174.645 229.687 173.735 228.699 173.286 227.573C172.838 226.435 172.633 225.315 172.673 224.216C172.673 222.318 173.299 220.616 174.552 219.111C175.818 217.606 178.265 216.853 181.892 216.853ZM181.911 229.38C183.349 229.38 184.516 229.137 185.413 228.653C186.31 228.156 186.949 227.514 187.332 226.729C187.714 225.944 187.886 225.093 187.846 224.177C187.886 223.3 187.714 222.488 187.332 221.742C186.949 220.996 186.31 220.394 185.413 219.936C184.516 219.465 183.349 219.229 181.911 219.229C180.487 219.229 179.327 219.465 178.43 219.936C177.546 220.394 176.913 220.996 176.531 221.742C176.161 222.488 175.99 223.3 176.016 224.177C175.99 225.093 176.161 225.944 176.531 226.729C176.913 227.514 177.546 228.156 178.43 228.653C179.327 229.137 180.487 229.38 181.911 229.38Z" fill="#EFEFEF"/>
<g filter="url(#filter0_d_229_126)">
<rect x="79" y="84.2344" width="188.04" height="103.874" rx="3.31579" fill="#57C7FF"/>
</g>
<path d="M92.0343 102.169C92.0343 102.42 91.9528 102.63 91.7897 102.798C91.6266 102.966 91.4074 103.09 91.1318 103.171C90.8591 103.25 90.5512 103.289 90.2082 103.289C89.5981 103.289 89.1258 103.185 88.7912 102.978C88.4595 102.769 88.2641 102.437 88.205 101.984C88.1994 101.895 88.1966 101.829 88.1966 101.787C88.1966 101.119 88.3934 100.659 88.787 100.407C89.1806 100.153 89.6544 100.025 90.2082 100.025C90.734 100.025 91.1557 100.109 91.4734 100.277C91.7911 100.442 91.95 100.694 91.95 101.032L91.271 101.024C91.271 100.847 91.1684 100.72 90.9631 100.642C90.7607 100.561 90.5119 100.522 90.2167 100.525C90.0058 100.519 89.8062 100.547 89.6178 100.608C89.4323 100.667 89.2748 100.768 89.1455 100.91C89.019 101.05 88.9459 101.232 88.9262 101.456C89.0752 101.355 89.2537 101.281 89.4618 101.233C89.6698 101.186 89.8554 101.158 90.0185 101.149C90.1815 101.141 90.353 101.137 90.533 101.137C90.8394 101.137 91.1051 101.179 91.33 101.263C91.5578 101.347 91.7321 101.465 91.853 101.619C91.9739 101.773 92.0343 101.953 92.0343 102.16V102.169ZM90.2167 102.731C90.5259 102.731 90.7874 102.687 91.0011 102.601C91.2176 102.511 91.3258 102.373 91.3258 102.186C91.3258 102.009 91.2738 101.877 91.1698 101.787C91.0658 101.695 90.9266 101.635 90.7523 101.607C90.5808 101.579 90.3629 101.565 90.0986 101.565C89.3507 101.565 88.9782 101.733 88.981 102.068C88.981 102.275 89.0583 102.427 89.213 102.525C89.3676 102.623 89.5222 102.682 89.6769 102.701C89.8343 102.718 90.0142 102.728 90.2167 102.731Z" fill="#111415"/>
<path d="M94.2964 100.084C95.0723 100.081 95.5925 100.238 95.8567 100.554C96.121 100.87 96.2532 101.238 96.2532 101.657C96.2532 102.065 96.1196 102.439 95.8525 102.777C95.5854 103.112 95.0667 103.28 94.2964 103.28C93.7565 103.28 93.339 103.189 93.0438 103.008C92.7514 102.826 92.5574 102.615 92.4618 102.374C92.3663 102.131 92.3227 101.892 92.3311 101.657C92.3311 101.252 92.4647 100.888 92.7317 100.566C93.0017 100.245 93.5232 100.084 94.2964 100.084ZM94.3006 102.76C94.607 102.76 94.8558 102.708 95.047 102.605C95.2382 102.499 95.3746 102.362 95.4561 102.194C95.5376 102.026 95.5742 101.844 95.5658 101.649C95.5742 101.461 95.5376 101.288 95.4561 101.129C95.3746 100.969 95.2382 100.841 95.047 100.743C94.8558 100.642 94.607 100.592 94.3006 100.592C93.9969 100.592 93.7495 100.642 93.5583 100.743C93.37 100.841 93.235 100.969 93.1535 101.129C93.0748 101.288 93.0382 101.461 93.0438 101.649C93.0382 101.844 93.0748 102.026 93.1535 102.194C93.235 102.362 93.37 102.499 93.5583 102.605C93.7495 102.708 93.9969 102.76 94.3006 102.76Z" fill="#111415"/>
<path d="M98.4971 100.084C99.2731 100.081 99.7933 100.238 100.058 100.554C100.322 100.87 100.454 101.238 100.454 101.657C100.454 102.065 100.32 102.439 100.053 102.777C99.7862 103.112 99.2675 103.28 98.4971 103.28C97.9573 103.28 97.5398 103.189 97.2446 103.008C96.9522 102.826 96.7582 102.615 96.6626 102.374C96.567 102.131 96.5235 101.892 96.5319 101.657C96.5319 101.252 96.6654 100.888 96.9325 100.566C97.2024 100.245 97.724 100.084 98.4971 100.084ZM98.5014 102.76C98.8078 102.76 99.0566 102.708 99.2478 102.605C99.439 102.499 99.5754 102.362 99.6569 102.194C99.7384 102.026 99.775 101.844 99.7665 101.649C99.775 101.461 99.7384 101.288 99.6569 101.129C99.5754 100.969 99.439 100.841 99.2478 100.743C99.0566 100.642 98.8078 100.592 98.5014 100.592C98.1977 100.592 97.9503 100.642 97.7591 100.743C97.5708 100.841 97.4358 100.969 97.3543 101.129C97.2755 101.288 97.239 101.461 97.2446 101.649C97.239 101.844 97.2755 102.026 97.3543 102.194C97.4358 102.362 97.5708 102.499 97.7591 102.605C97.9503 102.708 98.1977 102.76 98.5014 102.76Z" fill="#111415"/>
<path d="M91.7054 114.204C91.6941 114.646 91.51 114.952 91.1529 115.123C90.7958 115.29 90.3952 115.374 89.951 115.374C89.7148 115.374 89.4674 115.339 89.2087 115.269C88.9501 115.2 88.728 115.081 88.5424 114.913C88.3597 114.745 88.2683 114.526 88.2683 114.254L88.9599 114.25C88.9599 114.443 89.0527 114.589 89.2383 114.686C89.4238 114.784 89.6502 114.84 89.9173 114.854C90.2125 114.863 90.4627 114.815 90.6679 114.712C90.876 114.605 90.98 114.433 90.98 114.196C90.9772 113.978 90.8943 113.81 90.7312 113.692C90.5681 113.575 90.3038 113.516 89.9383 113.516C89.7837 113.516 89.6291 113.536 89.4744 113.575C89.3226 113.614 89.1961 113.671 89.0949 113.747C88.9965 113.822 88.9473 113.915 88.9473 114.024V114.045L88.281 114.057V112.182H91.5578V112.665H88.9473V113.395C89.1975 113.19 89.6263 113.088 90.2335 113.088C90.5203 113.088 90.7748 113.133 90.9969 113.223C91.219 113.309 91.3919 113.436 91.5156 113.604C91.6421 113.772 91.7054 113.971 91.7054 114.2V114.204Z" fill="#111415"/>
<path d="M93.9504 112.174C94.7264 112.171 95.2465 112.328 95.5108 112.644C95.7751 112.96 95.9072 113.327 95.9072 113.747C95.9072 114.155 95.7737 114.528 95.5066 114.867C95.2395 115.202 94.7208 115.37 93.9504 115.37C93.4106 115.37 92.9931 115.279 92.6979 115.097C92.4055 114.916 92.2115 114.705 92.1159 114.464C92.0203 114.221 91.9767 113.982 91.9852 113.747C91.9852 113.341 92.1187 112.978 92.3858 112.656C92.6557 112.335 93.1772 112.174 93.9504 112.174ZM93.9546 114.85C94.2611 114.85 94.5099 114.798 94.7011 114.695C94.8923 114.589 95.0286 114.452 95.1102 114.284C95.1917 114.116 95.2282 113.934 95.2198 113.738C95.2282 113.551 95.1917 113.378 95.1102 113.218C95.0286 113.059 94.8923 112.93 94.7011 112.832C94.5099 112.732 94.2611 112.681 93.9546 112.681C93.651 112.681 93.4036 112.732 93.2124 112.832C93.024 112.93 92.8891 113.059 92.8075 113.218C92.7288 113.378 92.6923 113.551 92.6979 113.738C92.6923 113.934 92.7288 114.116 92.8075 114.284C92.8891 114.452 93.024 114.589 93.2124 114.695C93.4036 114.798 93.651 114.85 93.9546 114.85Z" fill="#111415"/>
<path d="M98.1512 112.174C98.9272 112.171 99.4473 112.328 99.7116 112.644C99.9759 112.96 100.108 113.327 100.108 113.747C100.108 114.155 99.9745 114.528 99.7074 114.867C99.4403 115.202 98.9216 115.37 98.1512 115.37C97.6114 115.37 97.1939 115.279 96.8987 115.097C96.6063 114.916 96.4123 114.705 96.3167 114.464C96.2211 114.221 96.1775 113.982 96.186 113.747C96.186 113.341 96.3195 112.978 96.5866 112.656C96.8565 112.335 97.378 112.174 98.1512 112.174ZM98.1554 114.85C98.4619 114.85 98.7107 114.798 98.9019 114.695C99.0931 114.589 99.2294 114.452 99.3109 114.284C99.3925 114.116 99.429 113.934 99.4206 113.738C99.429 113.551 99.3925 113.378 99.3109 113.218C99.2294 113.059 99.0931 112.93 98.9019 112.832C98.7107 112.732 98.4619 112.681 98.1554 112.681C97.8518 112.681 97.6044 112.732 97.4132 112.832C97.2248 112.93 97.0899 113.059 97.0083 113.218C96.9296 113.378 96.893 113.551 96.8987 113.738C96.893 113.934 96.9296 114.116 97.0083 114.284C97.0899 114.452 97.2248 114.589 97.4132 114.695C97.6044 114.798 97.8518 114.85 98.1554 114.85Z" fill="#111415"/>
<path d="M91.115 126.348H91.5578V126.906H91.115V127.376H90.4233V126.906H88.205V126.348L90.4233 124.272H91.115V126.348ZM90.4233 124.943L89.0105 126.348H90.4233V124.943Z" fill="#111415"/>
<path d="M93.8227 124.264C94.5987 124.261 95.1188 124.418 95.3831 124.734C95.6474 125.05 95.7795 125.417 95.7795 125.837C95.7795 126.245 95.646 126.618 95.3789 126.957C95.1118 127.292 94.5931 127.46 93.8227 127.46C93.2829 127.46 92.8654 127.369 92.5702 127.187C92.2778 127.006 92.0838 126.794 91.9882 126.554C91.8926 126.311 91.8491 126.072 91.8575 125.837C91.8575 125.431 91.991 125.068 92.2581 124.746C92.528 124.425 93.0496 124.264 93.8227 124.264ZM93.827 126.94C94.1334 126.94 94.3822 126.888 94.5734 126.785C94.7646 126.678 94.9009 126.541 94.9825 126.374C95.064 126.206 95.1006 126.024 95.0921 125.828C95.1006 125.641 95.064 125.468 94.9825 125.308C94.9009 125.149 94.7646 125.02 94.5734 124.922C94.3822 124.822 94.1334 124.771 93.827 124.771C93.5233 124.771 93.2759 124.822 93.0847 124.922C92.8963 125.02 92.7614 125.149 92.6799 125.308C92.6011 125.468 92.5646 125.641 92.5702 125.828C92.5646 126.024 92.6011 126.206 92.6799 126.374C92.7614 126.541 92.8963 126.678 93.0847 126.785C93.2759 126.888 93.5233 126.94 93.827 126.94Z" fill="#111415"/>
<path d="M98.0235 124.264C98.7995 124.261 99.3196 124.418 99.5839 124.734C99.8482 125.05 99.9803 125.417 99.9803 125.837C99.9803 126.245 99.8468 126.618 99.5797 126.957C99.3126 127.292 98.7939 127.46 98.0235 127.46C97.4837 127.46 97.0662 127.369 96.771 127.187C96.4786 127.006 96.2846 126.794 96.189 126.554C96.0934 126.311 96.0498 126.072 96.0583 125.837C96.0583 125.431 96.1918 125.068 96.4589 124.746C96.7288 124.425 97.2504 124.264 98.0235 124.264ZM98.0277 126.94C98.3342 126.94 98.583 126.888 98.7742 126.785C98.9654 126.678 99.1017 126.541 99.1833 126.374C99.2648 126.206 99.3014 126.024 99.2929 125.828C99.3014 125.641 99.2648 125.468 99.1833 125.308C99.1017 125.149 98.9654 125.02 98.7742 124.922C98.583 124.822 98.3342 124.771 98.0277 124.771C97.7241 124.771 97.4767 124.822 97.2855 124.922C97.0971 125.02 96.9622 125.149 96.8806 125.308C96.8019 125.468 96.7654 125.641 96.771 125.828C96.7654 126.024 96.8019 126.206 96.8806 126.374C96.9622 126.541 97.0971 126.678 97.2855 126.785C97.4767 126.888 97.7241 126.94 98.0277 126.94Z" fill="#111415"/>
<path d="M92.0765 138.438C92.0737 138.827 91.8966 139.111 91.5451 139.29C91.1937 139.469 90.7354 139.558 90.1703 139.558C89.7542 139.558 89.3985 139.506 89.1033 139.403C88.8081 139.299 88.5832 139.15 88.4286 138.954C88.2767 138.758 88.2008 138.525 88.2008 138.254H88.8925C88.8925 138.516 89.0162 138.709 89.2636 138.832C89.511 138.956 89.8132 139.017 90.1703 139.017C90.4964 139.02 90.7748 138.975 91.0053 138.883C91.2358 138.788 91.3525 138.638 91.3553 138.434C91.3525 138.347 91.33 138.283 91.2879 138.241C91.2485 138.196 91.1613 138.164 91.0264 138.145C90.8914 138.122 90.682 138.111 90.398 138.111H89.6178V137.591H90.398C90.5948 137.591 90.7551 137.584 90.8788 137.57C91.0053 137.553 91.1079 137.52 91.1866 137.469C91.2654 137.419 91.3047 137.342 91.3047 137.239C91.3047 137.096 91.1951 136.99 90.9758 136.92C90.7565 136.85 90.488 136.812 90.1703 136.807C89.8132 136.804 89.511 136.843 89.2636 136.924C89.0162 137.002 88.8925 137.13 88.8925 137.306H88.2008C88.2008 136.903 88.4047 136.63 88.8123 136.488C89.2228 136.342 89.6755 136.27 90.1703 136.27C90.4711 136.27 90.7509 136.289 91.0095 136.328C91.271 136.365 91.5001 136.451 91.6969 136.588C91.8937 136.725 91.9921 136.928 91.9921 137.197C91.9921 137.493 91.8642 137.696 91.6084 137.805C91.9092 137.914 92.0652 138.122 92.0765 138.43V138.438Z" fill="#111415"/>
<path d="M94.3664 136.354C95.1423 136.351 95.6625 136.507 95.9268 136.823C96.191 137.139 96.3232 137.507 96.3232 137.926C96.3232 138.335 96.1896 138.708 95.9225 139.046C95.6554 139.382 95.1367 139.55 94.3664 139.55C93.8266 139.55 93.409 139.459 93.1138 139.277C92.8214 139.095 92.6274 138.884 92.5319 138.644C92.4363 138.4 92.3927 138.161 92.4011 137.926C92.4011 137.521 92.5347 137.157 92.8018 136.836C93.0717 136.514 93.5932 136.354 94.3664 136.354ZM94.3706 139.03C94.677 139.03 94.9259 138.978 95.117 138.874C95.3082 138.768 95.4446 138.631 95.5261 138.463C95.6076 138.296 95.6442 138.114 95.6358 137.918C95.6442 137.731 95.6076 137.557 95.5261 137.398C95.4446 137.239 95.3082 137.11 95.117 137.012C94.9259 136.911 94.677 136.861 94.3706 136.861C94.0669 136.861 93.8195 136.911 93.6283 137.012C93.44 137.11 93.305 137.239 93.2235 137.398C93.1448 137.557 93.1082 137.731 93.1138 137.918C93.1082 138.114 93.1448 138.296 93.2235 138.463C93.305 138.631 93.44 138.768 93.6283 138.874C93.8195 138.978 94.0669 139.03 94.3706 139.03Z" fill="#111415"/>
<path d="M98.5672 136.354C99.3431 136.351 99.8633 136.507 100.128 136.823C100.392 137.139 100.524 137.507 100.524 137.926C100.524 138.335 100.39 138.708 100.123 139.046C99.8562 139.382 99.3375 139.55 98.5672 139.55C98.0273 139.55 97.6098 139.459 97.3146 139.277C97.0222 139.095 96.8282 138.884 96.7326 138.644C96.6371 138.4 96.5935 138.161 96.6019 137.926C96.6019 137.521 96.7355 137.157 97.0026 136.836C97.2725 136.514 97.794 136.354 98.5672 136.354ZM98.5714 139.03C98.8778 139.03 99.1266 138.978 99.3178 138.874C99.509 138.768 99.6454 138.631 99.7269 138.463C99.8084 138.296 99.845 138.114 99.8366 137.918C99.845 137.731 99.8084 137.557 99.7269 137.398C99.6454 137.239 99.509 137.11 99.3178 137.012C99.1266 136.911 98.8778 136.861 98.5714 136.861C98.2677 136.861 98.0203 136.911 97.8291 137.012C97.6408 137.11 97.5058 137.239 97.4243 137.398C97.3456 137.557 97.309 137.731 97.3146 137.918C97.309 138.114 97.3456 138.296 97.4243 138.463C97.5058 138.631 97.6408 138.768 97.8291 138.874C98.0203 138.978 98.2677 139.03 98.5714 139.03Z" fill="#111415"/>
<path d="M92.0428 150.989V151.556H88.2008V151.283C88.2008 150.919 88.2669 150.643 88.399 150.453C88.5312 150.26 88.6928 150.128 88.884 150.058C89.078 149.988 89.3367 149.927 89.66 149.874C89.7584 149.86 89.9285 149.837 90.1703 149.807C90.4149 149.779 90.6075 149.752 90.7481 149.727C90.8914 149.702 91.0095 149.663 91.1023 149.609C91.1979 149.554 91.2457 149.478 91.2457 149.383C91.2457 149.21 91.1304 149.082 90.8999 149.001C90.6721 148.92 90.3924 148.881 90.0606 148.884C89.7429 148.884 89.473 148.933 89.2509 149.031C89.0288 149.126 88.9178 149.277 88.9178 149.484L88.2008 149.479C88.2008 149.194 88.302 148.969 88.5045 148.804C88.7097 148.636 88.9529 148.52 89.2341 148.456C89.5152 148.392 89.7893 148.359 90.0564 148.359C90.5456 148.359 90.9856 148.428 91.3764 148.565C91.77 148.699 91.9668 148.972 91.9668 149.383C91.9668 149.604 91.8741 149.779 91.6885 149.907C91.5058 150.036 91.2991 150.127 91.0686 150.18C90.8408 150.233 90.5709 150.281 90.2588 150.322C90.1351 150.336 90.0424 150.349 89.9805 150.36C89.7556 150.383 89.5588 150.429 89.3901 150.499C89.2242 150.569 89.0963 150.648 89.0063 150.738C88.9192 150.824 88.8756 150.908 88.8756 150.989H92.0428Z" fill="#111415"/>
<path d="M94.2634 148.443C95.0394 148.441 95.5595 148.597 95.8238 148.913C96.0881 149.229 96.2202 149.597 96.2202 150.016C96.2202 150.425 96.0867 150.798 95.8196 151.136C95.5525 151.472 95.0338 151.64 94.2634 151.64C93.7236 151.64 93.3061 151.549 93.0109 151.367C92.7185 151.185 92.5245 150.974 92.4289 150.734C92.3333 150.49 92.2897 150.251 92.2982 150.016C92.2982 149.611 92.4317 149.247 92.6988 148.926C92.9687 148.604 93.4902 148.443 94.2634 148.443ZM94.2676 151.119C94.5741 151.119 94.8229 151.068 95.0141 150.964C95.2053 150.858 95.3416 150.721 95.4232 150.553C95.5047 150.385 95.5412 150.204 95.5328 150.008C95.5412 149.821 95.5047 149.647 95.4232 149.488C95.3416 149.328 95.2053 149.2 95.0141 149.102C94.8229 149.001 94.5741 148.951 94.2676 148.951C93.964 148.951 93.7166 149.001 93.5254 149.102C93.337 149.2 93.2021 149.328 93.1205 149.488C93.0418 149.647 93.0053 149.821 93.0109 150.008C93.0053 150.204 93.0418 150.385 93.1205 150.553C93.2021 150.721 93.337 150.858 93.5254 150.964C93.7166 151.068 93.964 151.119 94.2676 151.119Z" fill="#111415"/>
<path d="M98.4642 148.443C99.2402 148.441 99.7603 148.597 100.025 148.913C100.289 149.229 100.421 149.597 100.421 150.016C100.421 150.425 100.287 150.798 100.02 151.136C99.7533 151.472 99.2346 151.64 98.4642 151.64C97.9244 151.64 97.5069 151.549 97.2117 151.367C96.9193 151.185 96.7253 150.974 96.6297 150.734C96.5341 150.49 96.4905 150.251 96.499 150.016C96.499 149.611 96.6325 149.247 96.8996 148.926C97.1695 148.604 97.691 148.443 98.4642 148.443ZM98.4684 151.119C98.7749 151.119 99.0237 151.068 99.2149 150.964C99.4061 150.858 99.5424 150.721 99.6239 150.553C99.7055 150.385 99.742 150.204 99.7336 150.008C99.742 149.821 99.7055 149.647 99.6239 149.488C99.5424 149.328 99.4061 149.2 99.2149 149.102C99.0237 149.001 98.7749 148.951 98.4684 148.951C98.1648 148.951 97.9174 149.001 97.7262 149.102C97.5378 149.2 97.4029 149.328 97.3213 149.488C97.2426 149.647 97.206 149.821 97.2117 150.008C97.206 150.204 97.2426 150.385 97.3213 150.553C97.4029 150.721 97.5378 150.858 97.7262 150.964C97.9174 151.068 98.1648 151.119 98.4684 151.119Z" fill="#111415"/>
<path d="M89.601 160.542V163.645H88.9093V161.511H88.205V161.07C88.4665 161.07 88.6591 161.038 88.7828 160.974C88.9093 160.909 88.9866 160.841 89.0148 160.768C89.0457 160.693 89.0611 160.617 89.0611 160.542H89.601Z" fill="#111415"/>
<path d="M91.9283 160.533C92.7042 160.53 93.2244 160.687 93.4886 161.003C93.7529 161.319 93.8851 161.687 93.8851 162.106C93.8851 162.514 93.7515 162.888 93.4844 163.226C93.2173 163.562 92.6986 163.729 91.9283 163.729C91.3884 163.729 90.9709 163.638 90.6757 163.457C90.3833 163.275 90.1893 163.064 90.0937 162.823C89.9982 162.58 89.9546 162.341 89.963 162.106C89.963 161.701 90.0966 161.337 90.3637 161.016C90.6336 160.694 91.1551 160.533 91.9283 160.533ZM91.9325 163.209C92.2389 163.209 92.4878 163.158 92.6789 163.054C92.8701 162.948 93.0065 162.811 93.088 162.643C93.1695 162.475 93.2061 162.293 93.1977 162.098C93.2061 161.91 93.1695 161.737 93.088 161.578C93.0065 161.418 92.8701 161.29 92.6789 161.192C92.4878 161.091 92.2389 161.041 91.9325 161.041C91.6288 161.041 91.3814 161.091 91.1902 161.192C91.0019 161.29 90.8669 161.418 90.7854 161.578C90.7067 161.737 90.6701 161.91 90.6757 162.098C90.6701 162.293 90.7067 162.475 90.7854 162.643C90.8669 162.811 91.0019 162.948 91.1902 163.054C91.3814 163.158 91.6288 163.209 91.9325 163.209Z" fill="#111415"/>
<path d="M96.1291 160.533C96.905 160.53 97.4252 160.687 97.6894 161.003C97.9537 161.319 98.0859 161.687 98.0859 162.106C98.0859 162.514 97.9523 162.888 97.6852 163.226C97.4181 163.562 96.8994 163.729 96.1291 163.729C95.5892 163.729 95.1717 163.638 94.8765 163.457C94.5841 163.275 94.3901 163.064 94.2945 162.823C94.1989 162.58 94.1554 162.341 94.1638 162.106C94.1638 161.701 94.2974 161.337 94.5644 161.016C94.8344 160.694 95.3559 160.533 96.1291 160.533ZM96.1333 163.209C96.4397 163.209 96.6885 163.158 96.8797 163.054C97.0709 162.948 97.2073 162.811 97.2888 162.643C97.3703 162.475 97.4069 162.293 97.3984 162.098C97.4069 161.91 97.3703 161.737 97.2888 161.578C97.2073 161.418 97.0709 161.29 96.8797 161.192C96.6885 161.091 96.4397 161.041 96.1333 161.041C95.8296 161.041 95.5822 161.091 95.391 161.192C95.2027 161.29 95.0677 161.418 94.9862 161.578C94.9075 161.737 94.8709 161.91 94.8765 162.098C94.8709 162.293 94.9075 162.475 94.9862 162.643C95.0677 162.811 95.2027 162.948 95.391 163.054C95.5822 163.158 95.8296 163.209 96.1333 163.209Z" fill="#111415"/>
<path d="M90.145 172.623C90.921 172.62 91.4411 172.777 91.7054 173.093C91.9697 173.409 92.1018 173.776 92.1018 174.196C92.1018 174.604 91.9682 174.977 91.7012 175.316C91.4341 175.651 90.9153 175.819 90.145 175.819C89.6052 175.819 89.1877 175.728 88.8925 175.547C88.6001 175.365 88.4061 175.154 88.3105 174.913C88.2149 174.67 88.1713 174.431 88.1797 174.196C88.1797 173.79 88.3133 173.427 88.5804 173.105C88.8503 172.784 89.3718 172.623 90.145 172.623ZM90.1492 175.299C90.4557 175.299 90.7045 175.247 90.8957 175.144C91.0868 175.038 91.2232 174.901 91.3047 174.733C91.3863 174.565 91.4228 174.383 91.4144 174.188C91.4228 174 91.3863 173.827 91.3047 173.667C91.2232 173.508 91.0868 173.379 90.8957 173.282C90.7045 173.181 90.4557 173.131 90.1492 173.131C89.8456 173.131 89.5981 173.181 89.407 173.282C89.2186 173.379 89.0836 173.508 89.0021 173.667C88.9234 173.827 88.8868 174 88.8925 174.188C88.8868 174.383 88.9234 174.565 89.0021 174.733C89.0836 174.901 89.2186 175.038 89.407 175.144C89.5981 175.247 89.8456 175.299 90.1492 175.299Z" fill="#111415"/>
<rect x="110.009" y="148.385" width="10.4191" height="29.361" rx="1.89474" fill="#111415"/>
<rect x="123.653" y="156.033" width="10.4191" height="21.7123" rx="1.89474" fill="#111415"/>
<rect x="137.297" y="135.062" width="10.4191" height="42.6844" rx="1.89474" fill="#111415"/>
<rect x="150.942" y="152.579" width="10.4191" height="25.1666" rx="1.89474" fill="#111415"/>
<rect x="164.586" y="162.941" width="10.4191" height="14.8039" rx="1.89474" fill="#111415"/>
<rect x="178.23" y="135.062" width="10.4191" height="42.6844" rx="1.89474" fill="#111415"/>
<rect x="191.874" y="144.437" width="10.4191" height="33.3087" rx="1.89474" fill="#111415"/>
<rect x="205.518" y="163.929" width="10.4191" height="13.8169" rx="1.89474" fill="#111415"/>
<rect x="219.162" y="154.8" width="10.4191" height="22.946" rx="1.89474" fill="#111415"/>
<rect x="232.806" y="161.215" width="10.4191" height="16.531" rx="1.89474" fill="#111415"/>
<rect x="246.45" y="135.062" width="10.4191" height="42.6844" rx="1.89474" fill="#111415"/>
<g filter="url(#filter1_d_229_126)">
<rect x="13" y="13" width="152" height="123.492" rx="5.7306" fill="#111415"/>
</g>
<path d="M95.264 36.7983H88.8157C88.0245 36.7983 87.3831 36.1569 87.3831 35.3656V25.3672C87.3831 24.576 88.0245 23.9346 88.8157 23.9346H107.78C108.571 23.9346 109.213 24.576 109.213 25.3672V35.3656C109.213 36.1569 108.571 36.7983 107.78 36.7983H101.17C100.646 36.7983 100.163 37.085 99.9121 37.5456L98.4687 40.1955C98.3602 40.3948 98.074 40.3948 97.9655 40.1955L96.5221 37.5456C96.2711 37.085 95.7885 36.7983 95.264 36.7983Z" fill="#57C7FF"/>
<path d="M92.2211 31.071H92.758V31.4408H92.2211V31.9746H91.8492V31.4408H91.3124V31.071H91.8492V30.5371H92.2211V31.071Z" fill="#111415"/>
<path d="M95.8904 31.7238V32.2962H92.8859V31.9907C92.8859 31.7163 92.9506 31.5062 93.08 31.3604C93.2093 31.2125 93.3527 31.1139 93.5101 31.0645C93.6697 31.0131 93.8648 30.9691 94.0955 30.9327C94.186 30.9177 94.2852 30.9048 94.393 30.8941C94.5353 30.8769 94.6463 30.8609 94.7261 30.8459C94.808 30.8308 94.876 30.8073 94.9299 30.7751C94.9838 30.7408 95.0107 30.6958 95.0107 30.64C95.0107 30.5457 94.9449 30.4771 94.8134 30.4342C94.6819 30.3892 94.5224 30.3667 94.3348 30.3667C94.1558 30.3688 94.0038 30.3978 93.8788 30.4535C93.7537 30.5071 93.6912 30.5907 93.6912 30.7044H92.8859C92.8859 30.3742 93.0358 30.1491 93.3355 30.029C93.6352 29.9068 93.9683 29.8457 94.3348 29.8457C94.725 29.8457 95.0711 29.8972 95.3729 30.0001C95.6769 30.103 95.8289 30.3184 95.8289 30.6465C95.8289 30.818 95.7718 30.9552 95.6575 31.0581C95.5432 31.1589 95.4139 31.2307 95.2694 31.2736C95.1271 31.3165 94.9676 31.3529 94.7908 31.3829L94.6873 31.4022C94.6765 31.4022 94.642 31.4076 94.5838 31.4183C94.2971 31.459 94.0599 31.503 93.8723 31.5501C93.6869 31.5952 93.5942 31.6531 93.5942 31.7238H95.8904Z" fill="#111415"/>
<path d="M99.0131 31.5083C99.011 31.8063 98.8751 32.024 98.6056 32.1612C98.3361 32.2984 97.9847 32.367 97.5513 32.367C97.0619 32.367 96.6878 32.2844 96.4291 32.1194C96.1704 31.9521 96.041 31.7013 96.041 31.3668H96.7978C96.7978 31.5319 96.8711 31.6531 97.0177 31.7302C97.1643 31.8053 97.3422 31.8417 97.5513 31.8396C97.7346 31.8439 97.8898 31.8192 98.017 31.7656C98.1464 31.712 98.2121 31.6263 98.2143 31.5083C98.2121 31.4483 98.196 31.4033 98.1658 31.3733C98.1356 31.3411 98.086 31.3197 98.017 31.309C97.948 31.2961 97.851 31.2897 97.726 31.2897H97.1277V30.8266H97.726C97.8963 30.8266 98.0181 30.8051 98.0914 30.7622C98.1647 30.7194 98.2014 30.6668 98.2014 30.6047C98.2014 30.5253 98.1378 30.4674 98.0106 30.431C97.8855 30.3924 97.7324 30.372 97.5513 30.3699C97.3422 30.3699 97.1643 30.3924 97.0177 30.4374C96.8711 30.4803 96.7978 30.5478 96.7978 30.64H96.041C96.041 30.3313 96.1973 30.1223 96.51 30.0129C96.8247 29.9014 97.1719 29.8457 97.5513 29.8457C97.782 29.8457 97.9965 29.8607 98.1949 29.8907C98.3954 29.9186 98.5711 29.9851 98.722 30.0901C98.873 30.1952 98.9484 30.3506 98.9484 30.5564C98.9484 30.7665 98.8191 30.9102 98.5603 30.9874C98.8406 31.071 98.9916 31.2425 99.0131 31.5019V31.5083Z" fill="#111415"/>
<path d="M100.713 29.8843C101.713 29.88 102.214 30.2841 102.214 31.0967C102.214 31.414 102.112 31.7013 101.91 31.9586C101.709 32.2137 101.31 32.3413 100.713 32.3413C100.293 32.3413 99.967 32.2716 99.7364 32.1322C99.5057 31.9929 99.3515 31.8299 99.2739 31.6434C99.1984 31.4569 99.1639 31.2746 99.1704 31.0967C99.1704 30.788 99.2771 30.5093 99.4906 30.2606C99.704 30.0097 100.111 29.8843 100.713 29.8843ZM100.716 31.7592C100.904 31.7592 101.056 31.7281 101.172 31.6659C101.291 31.6016 101.375 31.5201 101.425 31.4215C101.474 31.3207 101.497 31.2114 101.492 31.0935C101.497 30.982 101.474 30.8791 101.425 30.7848C101.375 30.6904 101.291 30.6132 101.172 30.5532C101.056 30.4932 100.904 30.4632 100.716 30.4632C100.531 30.4632 100.38 30.4932 100.263 30.5532C100.147 30.6132 100.064 30.6904 100.014 30.7848C99.9649 30.8791 99.9423 30.982 99.9466 31.0935C99.9423 31.2114 99.9649 31.3207 100.014 31.4215C100.064 31.5201 100.147 31.6016 100.263 31.6659C100.38 31.7281 100.531 31.7592 100.716 31.7592Z" fill="#111415"/>
<path d="M103.878 29.8843C104.878 29.88 105.378 30.2841 105.378 31.0967C105.378 31.414 105.277 31.7013 105.074 31.9586C104.874 32.2137 104.475 32.3413 103.878 32.3413C103.457 32.3413 103.132 32.2716 102.901 32.1322C102.67 31.9929 102.516 31.8299 102.438 31.6434C102.363 31.4569 102.328 31.2746 102.335 31.0967C102.335 30.788 102.442 30.5093 102.655 30.2606C102.869 30.0097 103.276 29.8843 103.878 29.8843ZM103.881 31.7592C104.068 31.7592 104.22 31.7281 104.337 31.6659C104.455 31.6016 104.539 31.5201 104.589 31.4215C104.639 31.3207 104.661 31.2114 104.657 31.0935C104.661 30.982 104.639 30.8791 104.589 30.7848C104.539 30.6904 104.455 30.6132 104.337 30.5532C104.22 30.4932 104.068 30.4632 103.881 30.4632C103.695 30.4632 103.544 30.4932 103.428 30.5532C103.312 30.6132 103.229 30.6904 103.179 30.7848C103.129 30.8791 103.107 30.982 103.111 31.0935C103.107 31.2114 103.129 31.3207 103.179 31.4215C103.229 31.5201 103.312 31.6016 103.428 31.6659C103.544 31.7281 103.695 31.7592 103.881 31.7592Z" fill="#111415"/>
<path d="M68.9489 47.4627C53.6801 69.1832 24.5887 71.207 13 70.2958V116.927H164.838V62.8992C132.66 75.1198 112.609 60.9697 101.613 50.6787L101.5 50.5731C91.5165 41.2291 80.5478 30.9629 68.9489 47.4627Z" fill="url(#paint0_linear_229_126)"/>
<mask id="mask0_229_126" style="mask-type:alpha" maskUnits="userSpaceOnUse" x="13" y="13" width="152" height="124">
<rect x="13" y="13" width="152" height="123.492" rx="5.7306" fill="#111415"/>
</mask>
<g mask="url(#mask0_229_126)">
<path d="M10.7363 70.3923C22.6582 71.3062 52.5862 69.2762 68.294 47.4894C80.2713 30.8769 91.5955 41.3147 101.897 50.7152C113.209 61.0376 133.837 75.2309 166.941 62.973" stroke="#57C7FF" stroke-width="1.43265"/>
<path d="M11.7063 64.9732C22.4083 55.1131 50.6467 35.4838 91.9712 71.0821C109.514 86.1938 143.606 84.5862 166.94 71.0822" stroke="#EFEFEF" stroke-width="1.43265"/>
</g>
<ellipse cx="97.8935" cy="47.2498" rx="3.39574" ry="3.37673" fill="#57C7FF"/>
<path d="M26.3744 120.059V122.205C26.3744 122.43 26.321 122.651 26.2143 122.866C26.1076 123.082 25.9249 123.263 25.6661 123.411C25.4074 123.556 25.0646 123.628 24.6377 123.628C24.2334 123.628 23.8987 123.543 23.6335 123.373C23.3683 123.202 23.1743 123.003 23.0514 122.774C22.9285 122.543 22.8671 122.335 22.8671 122.152H23.6626C23.6626 122.297 23.7031 122.434 23.7839 122.562C23.8648 122.688 23.9796 122.791 24.1283 122.871C24.2803 122.948 24.455 122.987 24.6523 122.987C24.8463 122.987 25.0129 122.95 25.1519 122.876C25.291 122.799 25.3945 122.7 25.4624 122.581C25.5335 122.459 25.5691 122.334 25.5691 122.205V120.059H26.3744Z" fill="#EFEFEF"/>
<path d="M28.5067 120.883C28.9335 120.883 29.3152 120.961 29.6515 121.115C29.9911 121.269 30.1609 121.541 30.1609 121.93V123.628H29.4526L29.3798 123.17C29.3281 123.266 29.2311 123.353 29.0888 123.43C28.9465 123.508 28.7767 123.569 28.5794 123.614C28.3821 123.656 28.18 123.677 27.973 123.677C27.724 123.677 27.4621 123.625 27.1872 123.522C26.9123 123.416 26.7748 123.189 26.7748 122.842C26.7748 122.514 26.8864 122.297 27.1095 122.191C27.3327 122.081 27.5623 122.027 27.7984 122.027C28.3255 122.027 28.6894 122.024 28.8899 122.017C29.0936 122.007 29.2262 121.99 29.2877 121.964C29.3524 121.935 29.3863 121.887 29.3895 121.819V121.771C29.3863 121.655 29.2958 121.559 29.1179 121.482C28.94 121.404 28.7347 121.366 28.5018 121.366C28.2463 121.363 28.0296 121.401 27.8518 121.482C27.6739 121.559 27.585 121.684 27.585 121.858H26.8039C26.8039 121.61 26.8945 121.414 27.0756 121.269C27.2599 121.125 27.4798 121.025 27.7353 120.97C27.9941 120.912 28.2512 120.883 28.5067 120.883ZM28.3369 123.088C28.725 123.088 28.9966 123.008 29.1518 122.847C29.3071 122.686 29.3847 122.498 29.3847 122.282C29.2262 122.376 28.9449 122.422 28.5406 122.422C28.3013 122.422 28.1137 122.43 27.9779 122.446C27.8453 122.463 27.7467 122.493 27.682 122.538C27.6173 122.58 27.5833 122.643 27.5801 122.726C27.5866 122.842 27.6464 122.932 27.7596 122.996C27.8728 123.057 28.0652 123.088 28.3369 123.088Z" fill="#EFEFEF"/>
<path d="M32.4827 120.912C32.8514 120.912 33.1392 121.038 33.3462 121.289C33.5532 121.536 33.6567 121.954 33.6567 122.543V123.628H32.8805V122.557C32.8805 122.352 32.8643 122.171 32.832 122.017C32.7996 121.863 32.7269 121.732 32.6137 121.626C32.5037 121.517 32.3372 121.462 32.114 121.462C31.8844 121.462 31.7098 121.517 31.5901 121.626C31.4737 121.732 31.3977 121.864 31.3621 122.022C31.3298 122.179 31.3136 122.364 31.3136 122.577V123.628H30.5374V120.999H31.3136V121.347C31.5691 121.057 31.9588 120.912 32.4827 120.912Z" fill="#EFEFEF"/>
<path d="M50.5683 120.059V120.715H47.7158V121.438H50.1608V122.07H47.7158V123.628H46.896V120.059H50.5683Z" fill="#EFEFEF"/>
<path d="M53.9001 122.374H51.2078C51.2175 122.528 51.2612 122.672 51.3388 122.803C51.4164 122.932 51.528 123.037 51.6735 123.117C51.819 123.197 51.9953 123.238 52.2023 123.238C52.3737 123.238 52.5305 123.207 52.6728 123.146C52.8151 123.085 52.9267 123.006 53.0075 122.91C53.0884 122.81 53.1288 122.705 53.1288 122.596H53.9001C53.9001 122.792 53.8322 122.977 53.6964 123.151C53.5638 123.321 53.3681 123.459 53.1094 123.566C52.8507 123.672 52.5451 123.725 52.1926 123.725C51.8724 123.725 51.5765 123.665 51.3048 123.546C51.0364 123.427 50.8213 123.26 50.6596 123.045C50.5012 122.826 50.4219 122.577 50.4219 122.297C50.4219 122.014 50.4995 121.765 50.6548 121.549C50.81 121.33 51.0218 121.163 51.2903 121.047C51.5619 120.929 51.8627 120.869 52.1926 120.869C52.5321 120.869 52.8297 120.927 53.0852 121.043C53.3407 121.158 53.5395 121.322 53.6818 121.535C53.8241 121.744 53.8969 121.99 53.9001 122.273V122.297V122.374ZM52.2023 121.356C51.9468 121.356 51.743 121.413 51.591 121.525C51.439 121.634 51.3307 121.782 51.266 121.969H53.09C53.0447 121.782 52.951 121.634 52.8087 121.525C52.6664 121.413 52.4642 121.356 52.2023 121.356Z" fill="#EFEFEF"/>
<path d="M57.5415 122.258C57.5382 122.522 57.4816 122.763 57.3717 122.982C57.265 123.197 57.1146 123.368 56.9205 123.493C56.7265 123.615 56.505 123.677 56.2559 123.677C55.6609 123.68 55.2243 123.558 54.9462 123.31L54.8831 123.614H54.2088V120.063H54.985V121.298C55.276 121.031 55.6997 120.898 56.2559 120.898C56.5114 120.898 56.7362 120.961 56.9302 121.086C57.1243 121.212 57.273 121.377 57.3765 121.583C57.4833 121.789 57.5382 122.007 57.5415 122.239V122.258ZM55.8436 123.18C56.0376 123.18 56.201 123.135 56.3336 123.045C56.4694 122.955 56.5696 122.839 56.6343 122.697C56.7022 122.556 56.7378 122.408 56.741 122.253C56.7378 122.118 56.7022 121.987 56.6343 121.858C56.5696 121.726 56.4694 121.617 56.3336 121.53C56.1977 121.443 56.0344 121.4 55.8436 121.4C55.6754 121.4 55.525 121.44 55.3925 121.52C55.2631 121.597 55.1628 121.705 55.0917 121.843C55.0205 121.979 54.985 122.13 54.985 122.297V122.302C54.985 122.45 55.0205 122.591 55.0917 122.726C55.1661 122.861 55.2679 122.971 55.3973 123.054C55.5267 123.138 55.6754 123.18 55.8436 123.18Z" fill="#EFEFEF"/>
<path d="M75.5577 120.059V123.628H74.7379V121.395L73.6415 123.628H72.8217L71.6478 121.361V123.628H70.8279V120.059H71.8175L73.2243 122.808L74.5729 120.059H75.5577Z" fill="#EFEFEF"/>
<path d="M77.6922 120.883C78.1191 120.883 78.5007 120.961 78.8371 121.115C79.1766 121.269 79.3464 121.541 79.3464 121.93V123.628H78.6382L78.5654 123.17C78.5137 123.266 78.4166 123.353 78.2743 123.43C78.132 123.508 77.9623 123.569 77.765 123.614C77.5677 123.656 77.3656 123.677 77.1586 123.677C76.9096 123.677 76.6476 123.625 76.3727 123.522C76.0978 123.416 75.9604 123.189 75.9604 122.842C75.9604 122.514 76.072 122.297 76.2951 122.191C76.5183 122.081 76.7479 122.027 76.984 122.027C77.5111 122.027 77.8749 122.024 78.0754 122.017C78.2792 122.007 78.4118 121.99 78.4732 121.964C78.5379 121.935 78.5719 121.887 78.5751 121.819V121.771C78.5719 121.655 78.4813 121.559 78.3034 121.482C78.1256 121.404 77.9202 121.366 77.6874 121.366C77.4319 121.363 77.2152 121.401 77.0373 121.482C76.8595 121.559 76.7705 121.684 76.7705 121.858H75.9895C75.9895 121.61 76.08 121.414 76.2612 121.269C76.4455 121.125 76.6654 121.025 76.9209 120.97C77.1796 120.912 77.4367 120.883 77.6922 120.883ZM77.5224 123.088C77.9105 123.088 78.1822 123.008 78.3374 122.847C78.4926 122.686 78.5703 122.498 78.5703 122.282C78.4118 122.376 78.1304 122.422 77.7262 122.422C77.4869 122.422 77.2993 122.43 77.1634 122.446C77.0309 122.463 76.9322 122.493 76.8675 122.538C76.8029 122.58 76.7689 122.643 76.7657 122.726C76.7721 122.842 76.832 122.932 76.9452 122.996C77.0583 123.057 77.2508 123.088 77.5224 123.088Z" fill="#EFEFEF"/>
<path d="M80.4895 121.419C80.732 121.165 81.1152 121.012 81.6392 120.961V121.626H81.0716C80.8969 121.626 80.7676 121.67 80.6835 121.757C80.6026 121.84 80.5509 121.943 80.5283 122.065C80.5089 122.188 80.4992 122.344 80.4992 122.533V123.628H79.723V120.999H80.3973L80.4895 121.419Z" fill="#EFEFEF"/>
<path d="M99.2665 123.628H98.4127L98.0004 122.871H95.7349L95.3226 123.628H94.4688L96.414 120.059H97.3212L99.2665 123.628ZM96.87 120.792L96.0939 122.21H97.6414L96.87 120.792Z" fill="#57C7FF"/>
<path d="M102.757 122.374C102.751 122.606 102.694 122.824 102.587 123.03C102.484 123.233 102.335 123.398 102.141 123.527C101.95 123.652 101.727 123.715 101.472 123.715C100.915 123.715 100.492 123.582 100.201 123.315V124.545H99.4244V120.999H100.099L100.172 121.371C100.469 121.081 100.902 120.938 101.472 120.941C101.721 120.941 101.941 121.002 102.131 121.125C102.325 121.247 102.477 121.414 102.587 121.626C102.697 121.839 102.754 122.077 102.757 122.34V122.374ZM101.059 123.213C101.25 123.213 101.412 123.17 101.544 123.083C101.68 122.996 101.782 122.887 101.85 122.755C101.918 122.62 101.953 122.485 101.957 122.35C101.953 122.192 101.92 122.044 101.855 121.906C101.793 121.768 101.695 121.655 101.559 121.568C101.426 121.482 101.26 121.438 101.059 121.438C100.891 121.438 100.742 121.48 100.613 121.564C100.484 121.644 100.382 121.752 100.307 121.887C100.236 122.022 100.201 122.163 100.201 122.311V122.316C100.201 122.483 100.236 122.636 100.307 122.774C100.378 122.91 100.479 123.017 100.608 123.098C100.741 123.175 100.891 123.213 101.059 123.213Z" fill="#57C7FF"/>
<path d="M103.853 121.419C104.095 121.165 104.479 121.012 105.003 120.961V121.626H104.435C104.26 121.626 104.131 121.67 104.047 121.757C103.966 121.84 103.914 121.943 103.892 122.065C103.872 122.188 103.863 122.344 103.863 122.533V123.628H103.086V120.999H103.761L103.853 121.419Z" fill="#57C7FF"/>
<path d="M122.775 120.059V123.628H121.955V121.395L120.859 123.628H120.039L118.865 121.361V123.628H118.045V120.059H119.035L120.441 122.808L121.79 120.059H122.775Z" fill="#EFEFEF"/>
<path d="M124.909 120.883C125.336 120.883 125.718 120.961 126.054 121.115C126.394 121.269 126.563 121.541 126.563 121.93V123.628H125.855L125.782 123.17C125.731 123.266 125.634 123.353 125.491 123.43C125.349 123.508 125.179 123.569 124.982 123.614C124.785 123.656 124.583 123.677 124.376 123.677C124.127 123.677 123.865 123.625 123.59 123.522C123.315 123.416 123.177 123.189 123.177 122.842C123.177 122.514 123.289 122.297 123.512 122.191C123.735 122.081 123.965 122.027 124.201 122.027C124.728 122.027 125.092 122.024 125.292 122.017C125.496 122.007 125.629 121.99 125.69 121.964C125.755 121.935 125.789 121.887 125.792 121.819V121.771C125.789 121.655 125.698 121.559 125.52 121.482C125.343 121.404 125.137 121.366 124.904 121.366C124.649 121.363 124.432 121.401 124.254 121.482C124.076 121.559 123.988 121.684 123.988 121.858H123.207C123.207 121.61 123.297 121.414 123.478 121.269C123.663 121.125 123.882 121.025 124.138 120.97C124.397 120.912 124.654 120.883 124.909 120.883ZM124.739 123.088C125.128 123.088 125.399 123.008 125.554 122.847C125.71 122.686 125.787 122.498 125.787 122.282C125.629 122.376 125.347 122.422 124.943 122.422C124.704 122.422 124.516 122.43 124.38 122.446C124.248 122.463 124.149 122.493 124.085 122.538C124.02 122.58 123.986 122.643 123.983 122.726C123.989 122.842 124.049 122.932 124.162 122.996C124.275 123.057 124.468 123.088 124.739 123.088Z" fill="#EFEFEF"/>
<path d="M130.382 120.999L128.805 124.222C128.718 124.389 128.558 124.498 128.325 124.55C128.095 124.601 127.825 124.627 127.515 124.627V123.937C127.676 123.937 127.788 123.923 127.849 123.894C127.914 123.868 127.946 123.831 127.946 123.783C127.946 123.757 127.938 123.725 127.922 123.686C127.906 123.651 127.895 123.627 127.888 123.614L126.525 120.999H127.379L128.49 123.329L129.528 120.999H130.382Z" fill="#EFEFEF"/>
<path d="M147.004 120.059V122.205C147.004 122.43 146.951 122.651 146.844 122.866C146.737 123.082 146.555 123.263 146.296 123.411C146.037 123.556 145.694 123.628 145.268 123.628C144.863 123.628 144.529 123.543 144.263 123.373C143.998 123.202 143.804 123.003 143.681 122.774C143.558 122.543 143.497 122.335 143.497 122.152H144.292C144.292 122.297 144.333 122.434 144.414 122.562C144.495 122.688 144.609 122.791 144.758 122.871C144.91 122.948 145.085 122.987 145.282 122.987C145.476 122.987 145.643 122.95 145.782 122.876C145.921 122.799 146.024 122.7 146.092 122.581C146.163 122.459 146.199 122.334 146.199 122.205V120.059H147.004Z" fill="#EFEFEF"/>
<path d="M149.796 120.999H150.572V123.628H149.796V123.281C149.541 123.57 149.151 123.715 148.627 123.715C148.258 123.715 147.971 123.591 147.764 123.344C147.557 123.093 147.453 122.673 147.453 122.085V120.999H148.229V122.07C148.229 122.276 148.245 122.456 148.278 122.61C148.31 122.765 148.381 122.897 148.491 123.006C148.604 123.112 148.773 123.165 148.996 123.165C149.319 123.165 149.533 123.061 149.636 122.852C149.743 122.639 149.796 122.371 149.796 122.046V120.999Z" fill="#EFEFEF"/>
<path d="M152.895 120.912C153.263 120.912 153.551 121.038 153.758 121.289C153.965 121.536 154.069 121.954 154.069 122.543V123.628H153.292V122.557C153.292 122.352 153.276 122.171 153.244 122.017C153.212 121.863 153.139 121.732 153.026 121.626C152.916 121.517 152.749 121.462 152.526 121.462C152.296 121.462 152.122 121.517 152.002 121.626C151.886 121.732 151.81 121.864 151.774 122.022C151.742 122.179 151.725 122.364 151.725 122.577V123.628H150.949V120.999H151.725V121.347C151.981 121.057 152.371 120.912 152.895 120.912Z" fill="#EFEFEF"/>
<g filter="url(#filter2_d_229_126)">
<rect x="212" y="48.2783" width="88.908" height="60.4206" rx="6.67964" fill="#111415"/>
</g>
<path d="M232.044 65.9291C234.232 65.9213 235.699 66.3595 236.445 67.2438C237.19 68.1282 237.563 69.1572 237.563 70.3311C237.563 71.4737 237.186 72.5184 236.433 73.4653C235.679 74.4044 234.216 74.874 232.044 74.874C230.521 74.874 229.343 74.6197 228.511 74.111C227.686 73.6023 227.139 73.0115 226.869 72.3384C226.6 71.6576 226.477 70.9885 226.501 70.3311C226.501 69.1964 226.877 68.179 227.631 67.2791C228.392 66.3791 229.863 65.9291 232.044 65.9291ZM232.055 73.4184C232.92 73.4184 233.622 73.2736 234.161 72.9841C234.7 72.6867 235.085 72.3032 235.315 71.8337C235.545 71.3641 235.648 70.8554 235.624 70.3076C235.648 69.7833 235.545 69.2981 235.315 68.852C235.085 68.406 234.7 68.046 234.161 67.7721C233.622 67.4904 232.92 67.3495 232.055 67.3495C231.199 67.3495 230.501 67.4904 229.962 67.7721C229.431 68.046 229.05 68.406 228.82 68.852C228.598 69.2981 228.495 69.7833 228.511 70.3076C228.495 70.8554 228.598 71.3641 228.82 71.8337C229.05 72.3032 229.431 72.6867 229.962 72.9841C230.501 73.2736 231.199 73.4184 232.055 73.4184Z" fill="#EFEFEF"/>
<path d="M238.373 72.8197H240.419V74.6392H238.373V72.8197Z" fill="#EFEFEF"/>
<path d="M246.773 65.9291C248.961 65.9213 250.428 66.3595 251.174 67.2438C251.919 68.1282 252.292 69.1572 252.292 70.3311C252.292 71.4737 251.915 72.5184 251.162 73.4653C250.408 74.4044 248.945 74.874 246.773 74.874C245.25 74.874 244.073 74.6197 243.24 74.111C242.415 73.6023 241.868 73.0115 241.598 72.3384C241.329 71.6576 241.206 70.9885 241.23 70.3311C241.23 69.1964 241.606 68.179 242.36 67.2791C243.121 66.3791 244.592 65.9291 246.773 65.9291ZM246.785 73.4184C247.649 73.4184 248.351 73.2736 248.89 72.9841C249.429 72.6867 249.814 72.3032 250.044 71.8337C250.274 71.3641 250.377 70.8554 250.353 70.3076C250.377 69.7833 250.274 69.2981 250.044 68.852C249.814 68.406 249.429 68.046 248.89 67.7721C248.351 67.4904 247.649 67.3495 246.785 67.3495C245.928 67.3495 245.23 67.4904 244.691 67.7721C244.16 68.046 243.779 68.406 243.549 68.852C243.327 69.2981 243.224 69.7833 243.24 70.3076C243.224 70.8554 243.327 71.3641 243.549 71.8337C243.779 72.3032 244.16 72.6867 244.691 72.9841C245.23 73.2736 245.928 73.4184 246.785 73.4184Z" fill="#EFEFEF"/>
<path d="M263.974 73.0545V74.6392H253.137V73.8762C253.137 72.8588 253.324 72.0841 253.697 71.5519C254.069 71.012 254.525 70.6441 255.064 70.4485C255.612 70.2529 256.341 70.0807 257.253 69.932C257.531 69.8929 258.01 69.8303 258.692 69.7442C259.382 69.6659 259.925 69.5916 260.322 69.5211C260.726 69.4507 261.059 69.3412 261.321 69.1925C261.591 69.0359 261.725 68.8247 261.725 68.5586C261.725 68.0734 261.4 67.7173 260.75 67.4904C260.108 67.2634 259.319 67.1538 258.383 67.1617C257.487 67.1617 256.726 67.2986 256.099 67.5725C255.473 67.8386 255.16 68.2612 255.16 68.8403L253.137 68.8286C253.137 68.0303 253.423 67.4004 253.994 66.9386C254.573 66.4691 255.259 66.1443 256.052 65.9643C256.845 65.7843 257.618 65.6943 258.371 65.6943C259.751 65.6943 260.992 65.8861 262.094 66.2695C263.204 66.6452 263.759 67.4082 263.759 68.5586C263.759 69.1768 263.498 69.6659 262.974 70.0259C262.459 70.3859 261.876 70.6402 261.226 70.7889C260.584 70.9376 259.822 71.0707 258.942 71.188C258.593 71.2272 258.332 71.2624 258.157 71.2937C257.523 71.3563 256.968 71.4854 256.492 71.6811C256.024 71.8767 255.663 72.0997 255.409 72.3502C255.164 72.5928 255.041 72.8275 255.041 73.0545H263.974Z" fill="#EFEFEF"/>
<path d="M275.685 71.7632C275.677 72.851 275.177 73.6453 274.186 74.1462C273.195 74.647 271.902 74.8975 270.308 74.8975C269.135 74.8975 268.132 74.7527 267.299 74.4631C266.466 74.1736 265.832 73.7549 265.396 73.2071C264.968 72.6593 264.753 72.0058 264.753 71.2467H266.704C266.704 71.9824 267.053 72.5223 267.751 72.8667C268.449 73.211 269.301 73.3832 270.308 73.3832C271.228 73.391 272.013 73.2658 272.663 73.0075C273.314 72.7415 273.643 72.3228 273.651 71.7515C273.643 71.5089 273.579 71.3289 273.46 71.2115C273.349 71.0863 273.104 70.9963 272.723 70.9415C272.342 70.8789 271.752 70.8476 270.951 70.8476H268.75V69.392H270.951C271.506 69.392 271.958 69.3725 272.307 69.3333C272.663 69.2864 272.953 69.1925 273.175 69.0516C273.397 68.9107 273.508 68.6955 273.508 68.406C273.508 68.0069 273.199 67.7095 272.58 67.5138C271.962 67.3182 271.204 67.2125 270.308 67.1969C269.301 67.1891 268.449 67.2986 267.751 67.5256C267.053 67.7447 266.704 68.1008 266.704 68.5938H264.753C264.753 67.4669 265.328 66.7039 266.478 66.3047C267.636 65.8978 268.913 65.6943 270.308 65.6943C271.157 65.6943 271.946 65.7491 272.675 65.8587C273.413 65.9604 274.059 66.203 274.614 66.5865C275.169 66.9699 275.447 67.5373 275.447 68.2886C275.447 69.1181 275.086 69.6855 274.364 69.9907C275.213 70.2959 275.653 70.8789 275.685 71.7398V71.7632Z" fill="#EFEFEF"/>
<path d="M278.587 74.6392H276.565L284.296 66.4221H286.318L278.587 74.6392ZM279.11 70.2255C278.769 70.2255 278.452 70.1433 278.159 69.979C277.865 69.8068 277.631 69.5759 277.457 69.2864C277.29 68.9968 277.207 68.6838 277.207 68.3473C277.207 68.0108 277.29 67.6977 277.457 67.4082C277.631 67.1186 277.865 66.8917 278.159 66.7273C278.452 66.5552 278.769 66.4691 279.11 66.4691C279.451 66.4691 279.768 66.5552 280.062 66.7273C280.355 66.8917 280.585 67.1186 280.752 67.4082C280.926 67.6977 281.013 68.0108 281.013 68.3473C281.013 68.6838 280.926 68.9968 280.752 69.2864C280.585 69.5759 280.355 69.8068 280.062 69.979C279.768 70.1433 279.451 70.2255 279.11 70.2255ZM279.11 69.0986C279.316 69.0986 279.495 69.0242 279.645 68.8755C279.796 68.7268 279.871 68.5507 279.871 68.3473C279.871 68.1438 279.796 67.9677 279.645 67.819C279.495 67.6703 279.316 67.596 279.11 67.596C278.904 67.596 278.726 67.6703 278.575 67.819C278.424 67.9677 278.349 68.1438 278.349 68.3473C278.349 68.5507 278.424 68.7268 278.575 68.8755C278.726 69.0242 278.904 69.0986 279.11 69.0986ZM283.773 74.5688C283.432 74.5688 283.115 74.4866 282.821 74.3223C282.528 74.1501 282.294 73.9192 282.12 73.6297C281.953 73.3401 281.87 73.0271 281.87 72.6906C281.87 72.3541 281.953 72.0411 282.12 71.7515C282.294 71.4619 282.528 71.235 282.821 71.0707C283.115 70.8985 283.432 70.8124 283.773 70.8124C284.114 70.8124 284.431 70.8985 284.725 71.0707C285.018 71.235 285.248 71.4619 285.414 71.7515C285.589 72.0411 285.676 72.3541 285.676 72.6906C285.676 73.0271 285.589 73.3401 285.414 73.6297C285.248 73.9192 285.018 74.1501 284.725 74.3223C284.431 74.4866 284.114 74.5688 283.773 74.5688ZM283.773 73.4301C283.979 73.4301 284.154 73.3558 284.296 73.2071C284.447 73.0584 284.522 72.8862 284.522 72.6906C284.522 72.4871 284.447 72.315 284.296 72.1741C284.154 72.0254 283.979 71.9511 283.773 71.9511C283.575 71.9511 283.4 72.0254 283.25 72.1741C283.099 72.315 283.024 72.4871 283.024 72.6906C283.024 72.8862 283.099 73.0584 283.25 73.2071C283.4 73.3558 283.575 73.4301 283.773 73.4301Z" fill="#EFEFEF"/>
<path d="M233.754 87.5513V92.4112H232.63V89.3705L231.126 92.4112H230.001L228.391 89.3245V92.4112H227.266V87.5513H228.624L230.553 91.2947L232.403 87.5513H233.754Z" fill="#57C7FF"/>
<path d="M240.655 92.4112H239.484L238.919 91.3801H235.811L235.245 92.4112H234.074L236.742 87.5513H237.987L240.655 92.4112ZM237.368 88.5495L236.303 90.4804H238.426L237.368 88.5495Z" fill="#57C7FF"/>
<path d="M243.042 89.7776L246.123 92.4112H244.572L242.097 90.2242V92.4112H240.972V87.5513H242.097V89.3705L244.446 87.5513H246.023L243.042 89.7776Z" fill="#57C7FF"/>
<path d="M250.923 90.3359H247.569V91.5377L251.482 91.518V92.4112H246.444V87.5513H251.482L251.488 88.4444H247.569V89.4493H250.923V90.3359Z" fill="#57C7FF"/>
<path d="M256.337 92.3981L254.973 90.8284H253.209V92.3981H252.104V87.5381H255.585C255.998 87.5381 256.361 87.606 256.676 87.7417C256.996 87.8774 257.242 88.0679 257.415 88.3131C257.592 88.5539 257.681 88.8341 257.681 89.1537V89.18C257.681 89.5959 257.557 89.9396 257.309 90.2111C257.065 90.4825 256.725 90.6642 256.29 90.7562L257.721 92.3981H256.337ZM256.55 89.2063C256.55 88.9567 256.501 88.775 256.403 88.6612C256.31 88.5473 256.191 88.4773 256.044 88.451C255.898 88.4247 255.691 88.4116 255.425 88.4116C255.305 88.4116 255.203 88.4138 255.119 88.4182C254.52 88.4313 253.884 88.4379 253.209 88.4379V89.955H255.425C255.691 89.955 255.898 89.944 256.044 89.9221C256.191 89.8958 256.31 89.8302 256.403 89.7251C256.501 89.6156 256.55 89.4427 256.55 89.2063Z" fill="#57C7FF"/>
<g filter="url(#filter3_d_229_126)">
<rect x="182" y="213.078" width="119" height="42.0566" rx="3.50968" fill="#57C7FF"/>
</g>
<path d="M195.064 238.976C195.883 238.983 196.576 239.027 197.143 239.11C197.717 239.192 198.197 239.381 198.582 239.676C198.967 239.965 199.159 240.397 199.159 240.974C199.159 241.942 198.75 242.619 197.931 243.003C197.112 243.388 196.156 243.597 195.064 243.631V244.805H193.815V243.611C192.779 243.528 191.872 243.285 191.095 242.879C190.325 242.467 189.94 241.805 189.94 240.892L191.788 240.861C191.788 241.664 192.464 242.128 193.815 242.251V240.263C193.01 240.25 192.334 240.195 191.788 240.099C191.242 239.996 190.798 239.793 190.455 239.491C190.112 239.182 189.94 238.732 189.94 238.142C189.94 237.228 190.322 236.586 191.085 236.216C191.855 235.845 192.765 235.632 193.815 235.577V234.393H195.064V235.567C196.114 235.608 197.059 235.831 197.899 236.236C198.739 236.634 199.159 237.325 199.159 238.306H197.322C197.322 237.867 197.087 237.548 196.618 237.349C196.149 237.143 195.631 237.012 195.064 236.957V238.976ZM191.746 238.111C191.746 238.619 192.436 238.904 193.815 238.966V236.968C193.255 237.022 192.768 237.139 192.355 237.318C191.949 237.489 191.746 237.754 191.746 238.111ZM197.353 241.005C197.353 240.717 197.136 240.524 196.702 240.428C196.268 240.332 195.722 240.277 195.064 240.263V242.272C195.708 242.251 196.247 242.141 196.681 241.942C197.122 241.743 197.346 241.434 197.353 241.015V241.005Z" fill="#111415"/>
<path d="M209.431 238.811C209.438 238.921 209.441 239.079 209.441 239.285C209.441 240.926 208.951 242.059 207.971 242.684C206.991 243.309 205.812 243.621 204.433 243.621C203.124 243.621 202.074 243.418 201.283 243.013C200.492 242.601 200.096 241.977 200.096 241.139L201.797 241.17C201.797 241.602 202.049 241.918 202.553 242.117C203.064 242.31 203.687 242.402 204.422 242.395C204.947 242.409 205.441 242.344 205.903 242.2C206.372 242.049 206.764 241.801 207.079 241.458C207.394 241.108 207.579 240.658 207.635 240.109C207.11 240.459 206.494 240.679 205.787 240.768C205.08 240.85 204.363 240.892 203.635 240.892C202.872 240.892 202.207 240.789 201.64 240.583C201.08 240.377 200.649 240.085 200.348 239.707C200.047 239.33 199.897 238.887 199.897 238.379V238.358C199.897 237.74 200.1 237.225 200.506 236.813C200.912 236.401 201.454 236.099 202.133 235.907C202.819 235.708 203.586 235.608 204.433 235.608C205.959 235.608 207.135 235.865 207.961 236.38C208.787 236.889 209.277 237.699 209.431 238.811ZM204.674 239.841C206.564 239.841 207.506 239.429 207.499 238.605C207.499 238.097 207.306 237.723 206.921 237.482C206.536 237.242 206.148 237.101 205.756 237.06C205.371 237.012 204.926 236.985 204.422 236.978C203.652 236.978 202.998 237.088 202.459 237.307C201.927 237.52 201.661 237.857 201.661 238.317C201.661 238.749 201.787 239.079 202.039 239.306C202.298 239.525 202.637 239.669 203.057 239.738C203.484 239.807 204.023 239.841 204.674 239.841Z" fill="#111415"/>
<path d="M217.298 235.783L213.098 243.405H211.397L214.873 237.091H209.78V235.783H217.298Z" fill="#111415"/>
<path d="M222.006 235.762C223.938 235.756 225.233 236.14 225.891 236.916C226.549 237.692 226.878 238.595 226.878 239.625C226.878 240.627 226.545 241.544 225.88 242.375C225.215 243.199 223.924 243.611 222.006 243.611C220.662 243.611 219.622 243.388 218.887 242.941C218.159 242.495 217.676 241.977 217.438 241.386C217.2 240.789 217.092 240.202 217.113 239.625C217.113 238.629 217.445 237.737 218.11 236.947C218.782 236.157 220.081 235.762 222.006 235.762ZM222.016 242.334C222.779 242.334 223.399 242.207 223.875 241.952C224.351 241.692 224.69 241.355 224.893 240.943C225.096 240.531 225.187 240.085 225.166 239.604C225.187 239.144 225.096 238.718 224.893 238.327C224.69 237.936 224.351 237.62 223.875 237.379C223.399 237.132 222.779 237.009 222.016 237.009C221.26 237.009 220.644 237.132 220.168 237.379C219.699 237.62 219.363 237.936 219.16 238.327C218.964 238.718 218.873 239.144 218.887 239.604C218.873 240.085 218.964 240.531 219.16 240.943C219.363 241.355 219.699 241.692 220.168 241.952C220.644 242.207 221.26 242.334 222.016 242.334Z" fill="#111415"/>
<path d="M227.593 241.808H229.399V243.405H227.593V241.808Z" fill="#111415"/>
<path d="M238.326 239.223C238.809 239.36 239.173 239.58 239.418 239.882C239.67 240.178 239.796 240.579 239.796 241.087C239.796 242.104 239.344 242.787 238.441 243.137C237.538 243.487 236.485 243.662 235.281 243.662H234.945C234.147 243.662 233.408 243.611 232.729 243.508C232.057 243.412 231.459 243.175 230.934 242.797C230.409 242.419 230.146 241.853 230.146 241.098C230.139 240.555 230.255 240.136 230.493 239.841C230.738 239.539 231.109 239.323 231.606 239.192C230.829 238.945 230.44 238.444 230.44 237.688C230.44 237.036 230.734 236.556 231.322 236.247C231.917 235.931 232.516 235.738 233.118 235.67C233.72 235.594 234.318 235.553 234.913 235.546C235.522 235.546 236.145 235.584 236.782 235.659C237.426 235.728 238.039 235.92 238.62 236.236C239.208 236.545 239.502 237.026 239.502 237.678C239.502 238.475 239.11 238.99 238.326 239.223ZM234.903 236.659C234.133 236.652 233.478 236.731 232.939 236.895C232.407 237.06 232.141 237.325 232.141 237.688C232.141 238.059 232.414 238.327 232.96 238.492C233.506 238.65 234.168 238.722 234.945 238.708C235.736 238.722 236.404 238.65 236.95 238.492C237.503 238.327 237.78 238.059 237.78 237.688C237.78 237.325 237.5 237.06 236.94 236.895C236.38 236.731 235.701 236.652 234.903 236.659ZM234.924 242.395C235.813 242.409 236.565 242.313 237.181 242.107C237.797 241.894 238.105 241.554 238.105 241.087C238.105 240.614 237.797 240.274 237.181 240.068C236.565 239.855 235.816 239.755 234.934 239.769C234.052 239.755 233.307 239.855 232.698 240.068C232.089 240.274 231.784 240.614 231.784 241.087C231.784 241.554 232.089 241.894 232.698 242.107C233.307 242.313 234.049 242.409 234.924 242.395Z" fill="#111415"/>
<path d="M250.151 242.014V243.405H240.585V242.735C240.585 241.843 240.75 241.163 241.079 240.696C241.408 240.222 241.81 239.899 242.286 239.728C242.769 239.556 243.413 239.405 244.218 239.275C244.463 239.24 244.887 239.185 245.489 239.11C246.098 239.041 246.577 238.976 246.927 238.914C247.284 238.852 247.578 238.756 247.809 238.626C248.047 238.488 248.166 238.303 248.166 238.07C248.166 237.644 247.879 237.331 247.305 237.132C246.738 236.933 246.042 236.837 245.216 236.844C244.425 236.844 243.753 236.964 243.2 237.204C242.647 237.438 242.37 237.809 242.37 238.317L240.585 238.306C240.585 237.606 240.837 237.053 241.341 236.648C241.852 236.236 242.458 235.951 243.158 235.793C243.858 235.635 244.54 235.556 245.205 235.556C246.423 235.556 247.519 235.725 248.492 236.061C249.472 236.391 249.962 237.06 249.962 238.07C249.962 238.612 249.731 239.041 249.269 239.357C248.814 239.673 248.299 239.896 247.725 240.026C247.158 240.157 246.486 240.274 245.709 240.377C245.401 240.411 245.17 240.442 245.016 240.469C244.456 240.524 243.966 240.638 243.546 240.809C243.133 240.981 242.815 241.177 242.591 241.396C242.374 241.609 242.265 241.815 242.265 242.014H250.151Z" fill="#111415"/>
<path d="M258.998 239.223C259.481 239.36 259.845 239.58 260.09 239.882C260.342 240.178 260.468 240.579 260.468 241.087C260.468 242.104 260.016 242.787 259.113 243.137C258.21 243.487 257.157 243.662 255.953 243.662H255.617C254.819 243.662 254.08 243.611 253.401 243.508C252.729 243.412 252.131 243.175 251.606 242.797C251.081 242.419 250.818 241.853 250.818 241.098C250.811 240.555 250.927 240.136 251.165 239.841C251.41 239.539 251.781 239.323 252.278 239.192C251.501 238.945 251.112 238.444 251.112 237.688C251.112 237.036 251.406 236.556 251.994 236.247C252.589 235.931 253.188 235.738 253.79 235.67C254.392 235.594 254.99 235.553 255.585 235.546C256.194 235.546 256.817 235.584 257.454 235.659C258.098 235.728 258.711 235.92 259.292 236.236C259.88 236.545 260.174 237.026 260.174 237.678C260.174 238.475 259.782 238.99 258.998 239.223ZM255.575 236.659C254.805 236.652 254.15 236.731 253.611 236.895C253.079 237.06 252.813 237.325 252.813 237.688C252.813 238.059 253.086 238.327 253.632 238.492C254.178 238.65 254.84 238.722 255.617 238.708C256.408 238.722 257.076 238.65 257.622 238.492C258.175 238.327 258.452 238.059 258.452 237.688C258.452 237.325 258.172 237.06 257.612 236.895C257.052 236.731 256.373 236.652 255.575 236.659ZM255.596 242.395C256.485 242.409 257.237 242.313 257.853 242.107C258.469 241.894 258.777 241.554 258.777 241.087C258.777 240.614 258.469 240.274 257.853 240.068C257.237 239.855 256.488 239.755 255.606 239.769C254.724 239.755 253.979 239.855 253.37 240.068C252.761 240.274 252.456 240.614 252.456 241.087C252.456 241.554 252.761 241.894 253.37 242.107C253.979 242.313 254.721 242.409 255.596 242.395Z" fill="#111415"/>
<path d="M261.236 243.405V241.808H263.032V243.405L262.181 244.414H261.236L262.087 243.405H261.236Z" fill="#111415"/>
<path d="M267.286 235.783V243.405H265.564V238.162H263.811V237.081C264.462 237.081 264.941 237.002 265.249 236.844C265.564 236.686 265.757 236.518 265.827 236.339C265.904 236.154 265.942 235.968 265.942 235.783H267.286Z" fill="#111415"/>
<path d="M275.496 240.881H276.598V242.251H275.496V243.405H273.774V242.251H268.251V240.881L273.774 235.783H275.496V240.881ZM273.774 237.431L270.256 240.881H273.774V237.431Z" fill="#111415"/>
<path d="M197.653 223.372V228.241H196.519V225.195L195.003 228.241H193.869L192.246 225.149V228.241H191.112V223.372H192.481L194.426 227.123L196.291 223.372H197.653Z" fill="#111415"/>
<path d="M203.134 224.655L200.954 229.051C200.833 229.279 200.612 229.428 200.29 229.498C199.972 229.569 199.599 229.604 199.17 229.604V228.663C199.393 228.663 199.547 228.643 199.632 228.603C199.722 228.568 199.767 228.518 199.767 228.452C199.767 228.417 199.755 228.373 199.733 228.32C199.711 228.272 199.695 228.239 199.686 228.222L197.801 224.655H198.982L200.518 227.834L201.953 224.655H203.134Z" fill="#111415"/>
<path d="M210.36 226.373C210.356 226.732 210.277 227.061 210.125 227.36C209.978 227.654 209.77 227.886 209.502 228.057C209.233 228.224 208.927 228.307 208.583 228.307C207.76 228.312 207.156 228.145 206.771 227.807L206.684 228.222H205.752V223.379H206.825V225.063C207.227 224.699 207.813 224.517 208.583 224.517C208.936 224.517 209.247 224.603 209.515 224.774C209.783 224.945 209.989 225.171 210.132 225.451C210.28 225.732 210.356 226.031 210.36 226.346V226.373ZM208.012 227.63C208.281 227.63 208.506 227.568 208.69 227.445C208.878 227.322 209.016 227.165 209.106 226.971C209.2 226.778 209.249 226.577 209.253 226.366C209.249 226.182 209.2 226.002 209.106 225.827C209.016 225.647 208.878 225.498 208.69 225.379C208.502 225.261 208.276 225.201 208.012 225.201C207.78 225.201 207.572 225.256 207.388 225.366C207.21 225.471 207.071 225.618 206.973 225.807C206.874 225.991 206.825 226.197 206.825 226.425V226.432C206.825 226.634 206.874 226.827 206.973 227.011C207.075 227.195 207.216 227.344 207.395 227.458C207.574 227.572 207.78 227.63 208.012 227.63Z" fill="#111415"/>
<path d="M213.111 224.497C213.701 224.497 214.229 224.603 214.694 224.813C215.163 225.024 215.398 225.394 215.398 225.925V228.241H214.419L214.318 227.616C214.247 227.748 214.112 227.866 213.916 227.972C213.719 228.077 213.484 228.16 213.211 228.222C212.938 228.279 212.659 228.307 212.373 228.307C212.028 228.307 211.666 228.237 211.286 228.097C210.906 227.952 210.716 227.643 210.716 227.169C210.716 226.721 210.87 226.425 211.179 226.281C211.487 226.131 211.805 226.057 212.131 226.057C212.86 226.057 213.363 226.052 213.641 226.044C213.922 226.031 214.106 226.006 214.191 225.971C214.28 225.932 214.327 225.866 214.332 225.774V225.708C214.327 225.55 214.202 225.419 213.956 225.313C213.71 225.208 213.426 225.155 213.104 225.155C212.751 225.151 212.451 225.204 212.205 225.313C211.959 225.419 211.836 225.59 211.836 225.827H210.756C210.756 225.489 210.881 225.221 211.132 225.024C211.387 224.826 211.691 224.69 212.044 224.616C212.402 224.537 212.757 224.497 213.111 224.497ZM212.876 227.504C213.413 227.504 213.788 227.395 214.003 227.175C214.218 226.956 214.325 226.699 214.325 226.406C214.106 226.533 213.717 226.596 213.158 226.596C212.827 226.596 212.567 226.607 212.379 226.629C212.196 226.651 212.06 226.693 211.97 226.754C211.881 226.811 211.834 226.897 211.829 227.011C211.838 227.169 211.921 227.292 212.078 227.379C212.234 227.463 212.5 227.504 212.876 227.504Z" fill="#111415"/>
<path d="M216.992 228.241H215.919V223.372H216.992V228.241Z" fill="#111415"/>
<path d="M219.917 224.497C220.508 224.497 221.035 224.603 221.5 224.813C221.97 225.024 222.205 225.394 222.205 225.925V228.241H221.225L221.125 227.616C221.053 227.748 220.919 227.866 220.722 227.972C220.525 228.077 220.291 228.16 220.018 228.222C219.745 228.279 219.466 228.307 219.179 228.307C218.835 228.307 218.473 228.237 218.093 228.097C217.712 227.952 217.522 227.643 217.522 227.169C217.522 226.721 217.677 226.425 217.985 226.281C218.294 226.131 218.611 226.057 218.938 226.057C219.667 226.057 220.17 226.052 220.447 226.044C220.729 226.031 220.912 226.006 220.997 225.971C221.087 225.932 221.134 225.866 221.138 225.774V225.708C221.134 225.55 221.008 225.419 220.762 225.313C220.517 225.208 220.233 225.155 219.911 225.155C219.557 225.151 219.258 225.204 219.012 225.313C218.766 225.419 218.643 225.59 218.643 225.827H217.563C217.563 225.489 217.688 225.221 217.938 225.024C218.193 224.826 218.497 224.69 218.851 224.616C219.208 224.537 219.564 224.497 219.917 224.497ZM219.682 227.504C220.219 227.504 220.595 227.395 220.809 227.175C221.024 226.956 221.131 226.699 221.131 226.406C220.912 226.533 220.523 226.596 219.964 226.596C219.633 226.596 219.374 226.607 219.186 226.629C219.003 226.651 218.866 226.693 218.777 226.754C218.687 226.811 218.64 226.897 218.636 227.011C218.645 227.169 218.728 227.292 218.884 227.379C219.041 227.463 219.307 227.504 219.682 227.504Z" fill="#111415"/>
<path d="M225.416 224.537C225.925 224.537 226.323 224.708 226.61 225.05C226.896 225.388 227.039 225.958 227.039 226.761V228.241H225.966V226.781C225.966 226.5 225.943 226.254 225.899 226.044C225.854 225.833 225.753 225.655 225.597 225.511C225.445 225.362 225.214 225.287 224.906 225.287C224.588 225.287 224.347 225.362 224.181 225.511C224.02 225.655 223.915 225.835 223.866 226.05C223.821 226.265 223.799 226.517 223.799 226.807V228.241H222.726V224.655H223.799V225.129C224.152 224.734 224.691 224.537 225.416 224.537Z" fill="#111415"/>
<path d="M227.427 226.458C227.427 226.09 227.534 225.759 227.749 225.465C227.964 225.166 228.256 224.934 228.628 224.767C228.999 224.6 229.41 224.517 229.862 224.517C230.515 224.517 231.029 224.655 231.405 224.932C231.785 225.204 232.049 225.576 232.196 226.05H231.116C231.058 225.822 230.915 225.629 230.687 225.471C230.463 225.309 230.195 225.228 229.882 225.228C229.457 225.232 229.124 225.348 228.883 225.576C228.641 225.805 228.52 226.099 228.52 226.458C228.52 226.664 228.569 226.864 228.668 227.057C228.771 227.246 228.925 227.399 229.131 227.518C229.336 227.636 229.587 227.693 229.882 227.689C230.2 227.689 230.47 227.61 230.694 227.452C230.917 227.29 231.056 227.097 231.11 226.873H232.19C232.15 227.136 232.02 227.386 231.801 227.623C231.582 227.855 231.3 228.044 230.955 228.189C230.616 228.329 230.251 228.399 229.862 228.399C229.424 228.399 229.019 228.316 228.648 228.149C228.277 227.978 227.979 227.746 227.756 227.452C227.536 227.154 227.427 226.822 227.427 226.458Z" fill="#111415"/>
<path d="M237.327 226.531H233.604C233.617 226.741 233.678 226.936 233.785 227.116C233.892 227.292 234.047 227.434 234.248 227.544C234.449 227.654 234.693 227.708 234.979 227.708C235.216 227.708 235.433 227.667 235.63 227.583C235.826 227.5 235.981 227.393 236.093 227.261C236.204 227.125 236.26 226.982 236.26 226.833H237.327C237.327 227.101 237.233 227.353 237.045 227.59C236.862 227.823 236.591 228.011 236.233 228.156C235.876 228.301 235.453 228.373 234.966 228.373C234.523 228.373 234.114 228.292 233.738 228.13C233.367 227.967 233.069 227.739 232.846 227.445C232.627 227.147 232.517 226.807 232.517 226.425C232.517 226.039 232.624 225.699 232.839 225.405C233.054 225.107 233.347 224.879 233.718 224.721C234.094 224.559 234.509 224.478 234.966 224.478C235.435 224.478 235.847 224.557 236.2 224.714C236.553 224.872 236.828 225.096 237.025 225.386C237.222 225.671 237.322 226.006 237.327 226.392V226.425V226.531ZM234.979 225.142C234.626 225.142 234.344 225.219 234.134 225.372C233.924 225.522 233.774 225.723 233.684 225.978H236.207C236.144 225.723 236.014 225.522 235.818 225.372C235.621 225.219 235.341 225.142 234.979 225.142Z" fill="#111415"/>
<defs>
<filter id="filter0_d_229_126" x="41.8158" y="80.2081" width="229.251" height="145.085" filterUnits="userSpaceOnUse" color-interpolation-filters="sRGB">
<feFlood flood-opacity="0" result="BackgroundImageFix"/>
<feColorMatrix in="SourceAlpha" type="matrix" values="0 0 0 0 0 0 0 0 0 0 0 0 0 0 0 0 0 0 127 0" result="hardAlpha"/>
<feMorphology radius="4.97368" operator="dilate" in="SourceAlpha" result="effect1_dropShadow_229_126"/>
<feOffset dx="-16.5789" dy="16.5789"/>
<feGaussianBlur stdDeviation="7.81579"/>
<feComposite in2="hardAlpha" operator="out"/>
<feColorMatrix type="matrix" values="0 0 0 0 0.0666667 0 0 0 0 0.0784314 0 0 0 0 0.0823529 0 0 0 0.53 0"/>
<feBlend mode="normal" in2="BackgroundImageFix" result="effect1_dropShadow_229_126"/>
<feBlend mode="normal" in="SourceGraphic" in2="effect1_dropShadow_229_126" result="shape"/>
</filter>
<filter id="filter1_d_229_126" x="0.106145" y="0.106145" width="194.98" height="166.471" filterUnits="userSpaceOnUse" color-interpolation-filters="sRGB">
<feFlood flood-opacity="0" result="BackgroundImageFix"/>
<feColorMatrix in="SourceAlpha" type="matrix" values="0 0 0 0 0 0 0 0 0 0 0 0 0 0 0 0 0 0 127 0" result="hardAlpha"/>
<feMorphology radius="2.57877" operator="dilate" in="SourceAlpha" result="effect1_dropShadow_229_126"/>
<feOffset dx="8.5959" dy="8.5959"/>
<feGaussianBlur stdDeviation="9.45549"/>
<feComposite in2="hardAlpha" operator="out"/>
<feColorMatrix type="matrix" values="0 0 0 0 0.0666667 0 0 0 0 0.0784314 0 0 0 0 0.0823529 0 0 0 0.53 0"/>
<feBlend mode="normal" in2="BackgroundImageFix" result="effect1_dropShadow_229_126"/>
<feBlend mode="normal" in="SourceGraphic" in2="effect1_dropShadow_229_126" result="shape"/>
</filter>
<filter id="filter2_d_229_126" x="181.506" y="35.2095" width="132.471" height="103.984" filterUnits="userSpaceOnUse" color-interpolation-filters="sRGB">
<feFlood flood-opacity="0" result="BackgroundImageFix"/>
<feColorMatrix in="SourceAlpha" type="matrix" values="0 0 0 0 0 0 0 0 0 0 0 0 0 0 0 0 0 0 127 0" result="hardAlpha"/>
<feMorphology radius="2.61377" operator="dilate" in="SourceAlpha" result="effect1_dropShadow_229_126"/>
<feOffset dx="-8.71258" dy="8.71258"/>
<feGaussianBlur stdDeviation="9.58383"/>
<feComposite in2="hardAlpha" operator="out"/>
<feColorMatrix type="matrix" values="0 0 0 0 0.0666667 0 0 0 0 0.0784314 0 0 0 0 0.0823529 0 0 0 0.53 0"/>
<feBlend mode="normal" in2="BackgroundImageFix" result="effect1_dropShadow_229_126"/>
<feBlend mode="normal" in="SourceGraphic" in2="effect1_dropShadow_229_126" result="shape"/>
</filter>
<filter id="filter3_d_229_126" x="148.498" y="198.72" width="166.859" height="89.916" filterUnits="userSpaceOnUse" color-interpolation-filters="sRGB">
<feFlood flood-opacity="0" result="BackgroundImageFix"/>
<feColorMatrix in="SourceAlpha" type="matrix" values="0 0 0 0 0 0 0 0 0 0 0 0 0 0 0 0 0 0 127 0" result="hardAlpha"/>
<feMorphology radius="2.87156" operator="dilate" in="SourceAlpha" result="effect1_dropShadow_229_126"/>
<feOffset dx="-9.57187" dy="9.57187"/>
<feGaussianBlur stdDeviation="10.5291"/>
<feComposite in2="hardAlpha" operator="out"/>
<feColorMatrix type="matrix" values="0 0 0 0 0.0666667 0 0 0 0 0.0784314 0 0 0 0 0.0823529 0 0 0 0.53 0"/>
<feBlend mode="normal" in2="BackgroundImageFix" result="effect1_dropShadow_229_126"/>
<feBlend mode="normal" in="SourceGraphic" in2="effect1_dropShadow_229_126" result="shape"/>
</filter>
<linearGradient id="paint0_linear_229_126" x1="89" y1="34.5991" x2="88.92" y2="116.927" gradientUnits="userSpaceOnUse">
<stop stop-color="#57C7FF" stop-opacity="0.4"/>
<stop offset="0.857032" stop-color="#57C7FF" stop-opacity="0"/>
</linearGradient>
</defs>
</svg>
