<svg width="675" height="539" viewBox="0 0 675 539" fill="none" xmlns="http://www.w3.org/2000/svg">
<rect y="286.902" width="393.421" height="233.098" rx="10.1562" fill="#111415"/>
<path d="M51.5145 334.542H46.7188V329.645H51.5236C52.1743 329.645 52.7984 329.903 53.2585 330.362C53.7187 330.821 53.9771 331.444 53.9771 332.093C53.9771 332.743 53.7187 333.365 53.2585 333.825C52.7984 334.284 52.1743 334.542 51.5236 334.542H51.5145ZM52.6868 337.942H46.7188V342.839H52.6959C53.3466 342.839 53.9706 342.581 54.4308 342.122C54.8909 341.663 55.1494 341.04 55.1494 340.391C55.1494 339.741 54.8909 339.118 54.4308 338.659C53.9706 338.2 53.3466 337.942 52.6959 337.942H52.6868ZM72.1628 336.242C72.1628 340.726 70.8305 345.109 68.3342 348.837C65.8379 352.565 62.2899 355.47 58.1387 357.186C53.9875 358.902 49.4197 359.351 45.0129 358.476C40.606 357.601 36.5581 355.442 33.3809 352.272C30.2038 349.101 28.0401 345.062 27.1635 340.665C26.2869 336.267 26.7368 331.709 28.4563 327.567C30.1758 323.424 33.0876 319.884 36.8235 317.393C40.5595 314.902 44.9517 313.572 49.4449 313.572C52.4283 313.572 55.3824 314.159 58.1387 315.298C60.895 316.437 63.3994 318.107 65.5089 320.212C67.6185 322.317 69.2919 324.816 70.4335 327.567C71.5752 330.317 72.1628 333.265 72.1628 336.242ZM58.498 340.391C58.4972 339.469 58.278 338.56 57.8583 337.738C57.4386 336.917 56.8304 336.206 56.0831 335.664C56.6951 334.882 57.0968 333.957 57.2502 332.977C57.4035 331.996 57.3035 330.993 56.9594 330.062C56.6154 329.131 56.0388 328.303 55.2843 327.657C54.5298 327.011 53.6224 326.568 52.6481 326.369V324.907C52.6481 324.456 52.4686 324.024 52.1491 323.705C51.8296 323.386 51.3962 323.207 50.9443 323.207C50.4924 323.207 50.059 323.386 49.7395 323.705C49.42 324.024 49.2405 324.456 49.2405 324.907V326.245H47.8978V324.907C47.8978 324.456 47.7183 324.024 47.3988 323.705C47.0793 323.386 46.6459 323.207 46.194 323.207C45.7421 323.207 45.3087 323.386 44.9892 323.705C44.6697 324.024 44.4901 324.456 44.4901 324.907V326.245H42.0957C41.6438 326.245 41.2104 326.424 40.8909 326.743C40.5713 327.061 40.3918 327.494 40.3918 327.945C40.3918 328.396 40.5713 328.828 40.8909 329.147C41.2104 329.466 41.6438 329.645 42.0957 329.645H43.3111V342.839H42.0957C41.6438 342.839 41.2104 343.018 40.8909 343.337C40.5713 343.656 40.3918 344.088 40.3918 344.539C40.3918 344.99 40.5713 345.422 40.8909 345.741C41.2104 346.06 41.6438 346.239 42.0957 346.239H44.4901V347.577C44.4901 348.028 44.6697 348.46 44.9892 348.779C45.3087 349.098 45.7421 349.277 46.194 349.277C46.6459 349.277 47.0793 349.098 47.3988 348.779C47.7183 348.46 47.8978 348.028 47.8978 347.577V346.239H49.2405V347.577C49.2405 348.028 49.42 348.46 49.7395 348.779C50.059 349.098 50.4924 349.277 50.9443 349.277C51.3962 349.277 51.8296 349.098 52.1491 348.779C52.4686 348.46 52.6481 348.028 52.6481 347.577V346.239H52.6868C54.2343 346.231 55.7154 345.611 56.805 344.515C57.8945 343.418 58.5035 341.935 58.498 340.391Z" fill="#57C7FF"/>
<path d="M103.609 334.392C104.686 334.61 105.501 334.987 106.053 335.525C106.604 336.05 106.88 336.805 106.88 337.791V337.868C106.88 338.982 106.598 339.826 106.033 340.403C105.482 340.979 104.718 341.363 103.743 341.555C102.781 341.734 101.505 341.836 99.914 341.862H98.971L89.7727 341.843V327.633H100.799C102.287 327.646 103.474 327.953 104.359 328.555C105.244 329.156 105.687 330.008 105.687 331.108V331.185C105.687 332.017 105.514 332.696 105.167 333.221C104.821 333.746 104.301 334.136 103.609 334.392ZM102.493 331.627C102.493 331.089 102.377 330.705 102.146 330.475C101.915 330.232 101.614 330.084 101.242 330.033C100.87 329.969 100.331 329.937 99.6253 329.937H92.9094V333.317L97.8934 333.374H97.701H99.6253C100.344 333.374 100.876 333.355 101.223 333.317C101.582 333.266 101.883 333.118 102.127 332.875C102.371 332.619 102.493 332.203 102.493 331.627ZM100.241 339.404C101.075 339.404 101.697 339.372 102.108 339.308C102.531 339.244 102.865 339.078 103.108 338.809C103.352 338.527 103.474 338.073 103.474 337.445C103.474 336.844 103.352 336.408 103.108 336.14C102.865 335.871 102.531 335.711 102.108 335.659C101.697 335.595 101.075 335.563 100.241 335.563H92.9094V339.366C95.9114 339.366 98.0666 339.378 99.3752 339.404H100.241Z" fill="#EFEFEF"/>
<path d="M107.356 330.34V327.633H123.482L107.356 330.34ZM123.482 327.633V330.398H117.093V341.843H113.841V330.398H107.356V327.633H123.482Z" fill="#EFEFEF"/>
<path d="M123.872 334.757C123.872 333.336 124.263 332.056 125.046 330.916C125.841 329.777 126.919 328.887 128.279 328.247C129.651 327.594 131.172 327.268 132.839 327.268C134.93 327.268 136.733 327.774 138.247 328.785C139.773 329.783 140.825 331.185 141.403 332.99L138.016 333.01C137.772 332.357 137.355 331.8 136.765 331.339C136.188 330.865 135.546 330.513 134.841 330.283C134.135 330.04 133.474 329.918 132.859 329.918C131.935 329.918 131.037 330.11 130.164 330.494C129.292 330.865 128.574 331.422 128.009 332.165C127.458 332.894 127.182 333.758 127.182 334.757C127.182 335.768 127.445 336.639 127.971 337.369C128.497 338.085 129.189 338.636 130.049 339.02C130.921 339.391 131.858 339.577 132.859 339.577C133.846 339.577 134.815 339.314 135.764 338.789C136.726 338.265 137.451 337.516 137.939 336.543H141.403C140.787 338.361 139.722 339.762 138.208 340.748C136.707 341.734 134.918 342.227 132.839 342.227C131.184 342.227 129.671 341.9 128.298 341.247C126.925 340.595 125.841 339.698 125.046 338.559C124.263 337.42 123.872 336.152 123.872 334.757Z" fill="#EFEFEF"/>
<path d="M32.2883 479.747H35.6174V481.687H32.2883V485.009H30.3447V481.687H27.0156V479.747H30.3447V476.425H32.2883V479.747Z" fill="#EFEFEF" fill-opacity="0.6"/>
<path d="M45.5001 472.681C49.0409 472.668 51.4143 473.385 52.6202 474.831C53.8261 476.278 54.4291 477.961 54.4291 479.882C54.4291 481.751 53.8197 483.46 52.601 485.009C51.3822 486.545 49.0153 487.313 45.5001 487.313C43.037 487.313 41.1319 486.897 39.7848 486.065C38.4506 485.233 37.5654 484.266 37.1292 483.165C36.6931 482.051 36.4942 480.957 36.5327 479.882C36.5327 478.025 37.1421 476.361 38.3608 474.889C39.5924 473.417 41.9722 472.681 45.5001 472.681ZM45.5194 484.932C46.9177 484.932 48.0531 484.695 48.9255 484.221C49.7978 483.735 50.42 483.108 50.7921 482.339C51.1641 481.571 51.3309 480.739 51.2924 479.843C51.3309 478.985 51.1641 478.192 50.7921 477.462C50.42 476.732 49.7978 476.143 48.9255 475.695C48.0531 475.235 46.9177 475.004 45.5194 475.004C44.1339 475.004 43.0049 475.235 42.1325 475.695C41.273 476.143 40.6572 476.732 40.2852 477.462C39.926 478.192 39.7592 478.985 39.7848 479.843C39.7592 480.739 39.926 481.571 40.2852 482.339C40.6572 483.108 41.273 483.735 42.1325 484.221C43.0049 484.695 44.1339 484.932 45.5194 484.932Z" fill="#EFEFEF" fill-opacity="0.6"/>
<path d="M55.7587 486.929V483.953H59.0493V486.929L57.4906 488.811H55.7587L57.3174 486.929H55.7587Z" fill="#EFEFEF" fill-opacity="0.6"/>
<path d="M73.7549 482.224H75.7754V484.778H73.7549V486.929H70.599V484.778H60.4769V482.224L70.599 472.719H73.7549V482.224ZM70.599 475.791L64.1524 482.224H70.599V475.791Z" fill="#EFEFEF" fill-opacity="0.6"/>
<path d="M80.3567 486.929H77.0854L89.5936 473.487H92.865L80.3567 486.929ZM81.2034 479.709C80.6518 479.709 80.1386 479.574 79.664 479.305C79.1893 479.024 78.8108 478.646 78.5286 478.173C78.2592 477.699 78.1245 477.187 78.1245 476.636C78.1245 476.086 78.2592 475.574 78.5286 475.1C78.8108 474.626 79.1893 474.255 79.664 473.986C80.1386 473.705 80.6518 473.564 81.2034 473.564C81.7551 473.564 82.2682 473.705 82.7429 473.986C83.2176 474.255 83.5896 474.626 83.859 475.1C84.1413 475.574 84.2824 476.086 84.2824 476.636C84.2824 477.187 84.1413 477.699 83.859 478.173C83.5896 478.646 83.2176 479.024 82.7429 479.305C82.2682 479.574 81.7551 479.709 81.2034 479.709ZM81.2034 477.865C81.537 477.865 81.8256 477.744 82.0694 477.5C82.3131 477.257 82.435 476.969 82.435 476.636C82.435 476.303 82.3131 476.015 82.0694 475.772C81.8256 475.529 81.537 475.407 81.2034 475.407C80.8699 475.407 80.5812 475.529 80.3375 475.772C80.0937 476.015 79.9719 476.303 79.9719 476.636C79.9719 476.969 80.0937 477.257 80.3375 477.5C80.5812 477.744 80.8699 477.865 81.2034 477.865ZM88.7469 486.814C88.1952 486.814 87.6821 486.679 87.2074 486.41C86.7327 486.129 86.3543 485.751 86.072 485.278C85.8026 484.804 85.6679 484.292 85.6679 483.741C85.6679 483.191 85.8026 482.679 86.072 482.205C86.3543 481.731 86.7327 481.36 87.2074 481.091C87.6821 480.81 88.1952 480.669 88.7469 480.669C89.2985 480.669 89.8117 480.81 90.2863 481.091C90.761 481.36 91.133 481.731 91.4025 482.205C91.6847 482.679 91.8258 483.191 91.8258 483.741C91.8258 484.292 91.6847 484.804 91.4025 485.278C91.133 485.751 90.761 486.129 90.2863 486.41C89.8117 486.679 89.2985 486.814 88.7469 486.814ZM88.7469 484.951C89.0804 484.951 89.3627 484.829 89.5936 484.586C89.8373 484.343 89.9592 484.061 89.9592 483.741C89.9592 483.408 89.8373 483.127 89.5936 482.896C89.3627 482.653 89.0804 482.532 88.7469 482.532C88.4261 482.532 88.1439 482.653 87.9002 482.896C87.6564 483.127 87.5345 483.408 87.5345 483.741C87.5345 484.061 87.6564 484.343 87.9002 484.586C88.1439 484.829 88.4261 484.951 88.7469 484.951Z" fill="#EFEFEF" fill-opacity="0.6"/>
<path d="M47.0403 413.157C50.0757 413.183 52.644 413.351 54.7454 413.662C56.8727 413.972 58.6498 414.684 60.0767 415.797C61.5035 416.885 62.217 418.516 62.217 420.69C62.217 424.34 60.6993 426.89 57.664 428.34C54.6287 429.79 51.0874 430.579 47.0403 430.709V435.136H42.4095V430.631C38.5699 430.321 35.2103 429.402 32.3307 427.874C29.4769 426.321 28.0501 423.823 28.0501 420.38L34.899 420.263C34.899 423.292 37.4025 425.039 42.4095 425.505V418.011C39.4261 417.959 36.9226 417.752 34.899 417.39C32.8755 417.001 31.2281 416.238 29.9569 415.098C28.6857 413.933 28.0501 412.238 28.0501 410.011C28.0501 406.568 29.464 404.148 32.2917 402.75C35.1455 401.352 38.5181 400.549 42.4095 400.342V395.877H47.0403V400.303C50.9318 400.459 54.4341 401.3 57.5472 402.828C60.6604 404.329 62.217 406.931 62.217 410.633H55.4069C55.4069 408.976 54.5379 407.772 52.7997 407.021C51.0615 406.245 49.1417 405.753 47.0403 405.546V413.157ZM34.7434 409.895C34.7434 411.811 37.2987 412.885 42.4095 413.118V405.585C40.3341 405.792 38.531 406.232 37.0004 406.905C35.4957 407.552 34.7434 408.549 34.7434 409.895ZM55.5237 420.807C55.5237 419.719 54.7195 418.995 53.111 418.632C51.5025 418.27 49.479 418.063 47.0403 418.011V425.583C49.4271 425.505 51.4247 425.091 53.0332 424.34C54.6676 423.59 55.4977 422.425 55.5237 420.846V420.807Z" fill="#EFEFEF"/>
<path d="M100.285 412.536C100.311 412.95 100.324 413.545 100.324 414.322C100.324 420.509 98.5077 424.781 94.8757 427.136C91.2436 429.492 86.8722 430.67 81.7615 430.67C76.9101 430.67 73.0187 429.906 70.0871 428.379C67.1556 426.826 65.6898 424.47 65.6898 421.312L71.9939 421.428C71.9939 423.059 72.9279 424.25 74.7958 425.001C76.6896 425.725 78.9985 426.075 81.7226 426.049C83.6683 426.101 85.4973 425.855 87.2095 425.311C88.9477 424.742 90.4005 423.81 91.5679 422.515C92.7354 421.195 93.4229 419.499 93.6304 417.428C91.6847 418.749 89.4017 419.577 86.7814 419.914C84.1612 420.224 81.502 420.38 78.804 420.38C75.9762 420.38 73.5116 419.991 71.4102 419.215C69.3348 418.438 67.7393 417.338 66.6237 415.914C65.5082 414.49 64.9504 412.82 64.9504 410.905V410.827C64.9504 408.497 65.7028 406.555 67.2075 405.002C68.7122 403.449 70.7227 402.31 73.2392 401.585C75.7816 400.834 78.6224 400.459 81.7615 400.459C87.417 400.459 91.7755 401.43 94.8367 403.371C97.898 405.287 99.714 408.342 100.285 412.536ZM82.6565 416.419C89.6611 416.419 93.1504 414.865 93.1245 411.759C93.1245 409.843 92.4111 408.432 90.9842 407.526C89.5573 406.62 88.1175 406.089 86.6647 405.934C85.2378 405.753 83.5905 405.649 81.7226 405.623C78.8688 405.623 76.4432 406.038 74.4455 406.866C72.4739 407.669 71.488 408.937 71.488 410.672C71.488 412.303 71.955 413.545 72.889 414.399C73.8489 415.228 75.1071 415.772 76.6637 416.03C78.2462 416.289 80.2438 416.419 82.6565 416.419Z" fill="#EFEFEF"/>
<path d="M138.482 420.341C138.482 422.671 137.729 424.612 136.225 426.166C134.72 427.719 132.696 428.871 130.154 429.622C127.638 430.346 124.797 430.709 121.632 430.709C116.002 430.709 111.644 429.751 108.557 427.835C105.495 425.894 103.692 422.826 103.147 418.632C103.096 417.804 103.07 417.195 103.07 416.807C103.07 410.62 104.886 406.361 108.518 404.031C112.15 401.676 116.521 400.498 121.632 400.498C126.483 400.498 130.375 401.274 133.306 402.828C136.238 404.355 137.703 406.685 137.703 409.817L131.438 409.74C131.438 408.109 130.491 406.931 128.597 406.206C126.73 405.455 124.434 405.093 121.71 405.119C119.764 405.067 117.922 405.326 116.184 405.895C114.472 406.439 113.019 407.371 111.825 408.691C110.658 409.986 109.983 411.668 109.802 413.739C111.177 412.807 112.824 412.121 114.744 411.681C116.664 411.241 118.376 410.982 119.881 410.905C121.385 410.827 122.968 410.788 124.628 410.788C127.456 410.788 129.908 411.176 131.983 411.953C134.084 412.73 135.693 413.83 136.808 415.254C137.924 416.678 138.482 418.347 138.482 420.263V420.341ZM121.71 425.544C124.563 425.544 126.976 425.143 128.948 424.34C130.945 423.512 131.944 422.231 131.944 420.496C131.944 418.865 131.464 417.635 130.504 416.807C129.544 415.953 128.26 415.396 126.652 415.137C125.069 414.878 123.059 414.749 120.62 414.749C113.719 414.749 110.282 416.302 110.308 419.409C110.308 421.324 111.021 422.735 112.448 423.641C113.875 424.548 115.302 425.091 116.729 425.272C118.181 425.428 119.842 425.518 121.71 425.544Z" fill="#EFEFEF"/>
<path d="M168.927 401.119L153.362 429.855H147.058L159.938 406.051H141.065V401.119H168.927Z" fill="#EFEFEF"/>
<path d="M170.636 423.836H177.329V429.855H170.636V423.836Z" fill="#EFEFEF"/>
<path d="M212.515 419.836C212.412 423.926 210.712 426.761 207.418 428.34C204.123 429.893 200.426 430.67 196.327 430.67C194.148 430.67 191.865 430.346 189.478 429.699C187.091 429.052 185.042 427.952 183.329 426.399C181.643 424.845 180.8 422.813 180.8 420.302L187.182 420.263C187.182 422.049 188.038 423.396 189.75 424.302C191.463 425.208 193.551 425.725 196.016 425.855C198.74 425.933 201.049 425.492 202.942 424.535C204.862 423.551 205.822 421.959 205.822 419.758C205.796 417.739 205.031 416.186 203.526 415.098C202.021 414.011 199.583 413.468 196.21 413.468C194.783 413.468 193.356 413.649 191.93 414.011C190.529 414.374 189.361 414.904 188.427 415.603C187.519 416.302 187.065 417.157 187.065 418.166V418.36L180.917 418.477V401.119H211.153V405.585H187.065V412.341C189.374 410.452 193.331 409.507 198.934 409.507C201.58 409.507 203.928 409.921 205.978 410.749C208.027 411.552 209.623 412.73 210.764 414.283C211.932 415.836 212.515 417.674 212.515 419.797V419.836Z" fill="#EFEFEF"/>
<path d="M247.63 419.836C247.526 423.926 245.827 426.761 242.532 428.34C239.237 429.893 235.54 430.67 231.441 430.67C229.262 430.67 226.979 430.346 224.592 429.699C222.205 429.052 220.156 427.952 218.444 426.399C216.757 424.845 215.914 422.813 215.914 420.302L222.296 420.263C222.296 422.049 223.152 423.396 224.865 424.302C226.577 425.208 228.665 425.725 231.13 425.855C233.854 425.933 236.163 425.492 238.057 424.535C239.976 423.551 240.936 421.959 240.936 419.758C240.91 417.739 240.145 416.186 238.64 415.098C237.136 414.011 234.697 413.468 231.324 413.468C229.898 413.468 228.471 413.649 227.044 414.011C225.643 414.374 224.475 414.904 223.542 415.603C222.634 416.302 222.18 417.157 222.18 418.166V418.36L216.031 418.477V401.119H246.268V405.585H222.18V412.341C224.488 410.452 228.445 409.507 234.048 409.507C236.695 409.507 239.042 409.921 241.092 410.749C243.141 411.552 244.737 412.73 245.878 414.283C247.046 415.836 247.63 417.674 247.63 419.797V419.836Z" fill="#EFEFEF"/>
<path d="M285.585 412.536C285.611 412.95 285.623 413.545 285.623 414.322C285.623 420.509 283.807 424.781 280.175 427.136C276.543 429.492 272.172 430.67 267.061 430.67C262.21 430.67 258.318 429.906 255.387 428.379C252.455 426.826 250.99 424.47 250.99 421.312L257.294 421.428C257.294 423.059 258.228 424.25 260.096 425.001C261.989 425.725 264.298 426.075 267.022 426.049C268.968 426.101 270.797 425.855 272.509 425.311C274.247 424.742 275.7 423.81 276.868 422.515C278.035 421.195 278.723 419.499 278.93 417.428C276.984 418.749 274.701 419.577 272.081 419.914C269.461 420.224 266.802 420.38 264.104 420.38C261.276 420.38 258.811 419.991 256.71 419.215C254.635 418.438 253.039 417.338 251.924 415.914C250.808 414.49 250.25 412.82 250.25 410.905V410.827C250.25 408.497 251.003 406.555 252.507 405.002C254.012 403.449 256.023 402.31 258.539 401.585C261.081 400.834 263.922 400.459 267.061 400.459C272.717 400.459 277.075 401.43 280.137 403.371C283.198 405.287 285.014 408.342 285.585 412.536ZM267.956 416.419C274.961 416.419 278.45 414.865 278.424 411.759C278.424 409.843 277.711 408.432 276.284 407.526C274.857 406.62 273.417 406.089 271.964 405.934C270.538 405.753 268.89 405.649 267.022 405.623C264.169 405.623 261.743 406.038 259.745 406.866C257.774 407.669 256.788 408.937 256.788 410.672C256.788 412.303 257.255 413.545 258.189 414.399C259.149 415.228 260.407 415.772 261.963 416.03C263.546 416.289 265.544 416.419 267.956 416.419Z" fill="#EFEFEF"/>
<path d="M288.33 429.855V423.836H294.985V429.855L291.833 433.66H288.33L291.483 429.855H288.33Z" fill="#EFEFEF"/>
<path d="M310.753 401.119V429.855H304.371V410.089H297.872V406.012C300.284 406.012 302.062 405.714 303.203 405.119C304.371 404.523 305.084 403.889 305.343 403.216C305.629 402.517 305.771 401.818 305.771 401.119H310.753Z" fill="#EFEFEF"/>
<path d="M332.228 401.041C339.388 401.015 344.187 402.465 346.626 405.39C349.065 408.316 350.284 411.72 350.284 415.603C350.284 419.383 349.052 422.839 346.587 425.971C344.122 429.078 339.336 430.631 332.228 430.631C327.246 430.631 323.394 429.79 320.67 428.107C317.972 426.424 316.182 424.47 315.3 422.244C314.418 419.991 314.016 417.778 314.093 415.603C314.093 411.85 315.326 408.484 317.79 405.507C320.281 402.53 325.093 401.041 332.228 401.041ZM332.266 425.816C335.094 425.816 337.39 425.337 339.154 424.379C340.918 423.396 342.177 422.127 342.929 420.574C343.681 419.02 344.019 417.338 343.941 415.526C344.019 413.791 343.681 412.186 342.929 410.71C342.177 409.235 340.918 408.044 339.154 407.138C337.39 406.206 335.094 405.74 332.266 405.74C329.465 405.74 327.182 406.206 325.417 407.138C323.679 408.044 322.434 409.235 321.682 410.71C320.955 412.186 320.618 413.791 320.67 415.526C320.618 417.338 320.955 419.02 321.682 420.574C322.434 422.127 323.679 423.396 325.417 424.379C327.182 425.337 329.465 425.816 332.266 425.816Z" fill="#EFEFEF"/>
<g filter="url(#filter0_d_2006_219)">
<rect x="158.224" y="141.282" width="405.181" height="224.564" rx="7.48355" fill="#57C7FF"/>
</g>
<path d="M186.309 180.054C186.309 180.598 186.134 181.051 185.782 181.414C185.431 181.777 184.958 182.046 184.365 182.221C183.777 182.39 183.114 182.475 182.375 182.475C181.06 182.475 180.042 182.251 179.321 181.804C178.607 181.351 178.185 180.634 178.058 179.655C178.046 179.461 178.04 179.319 178.04 179.229C178.04 177.784 178.464 176.789 179.312 176.245C180.16 175.695 181.181 175.42 182.375 175.42C183.508 175.42 184.416 175.602 185.101 175.964C185.785 176.321 186.128 176.865 186.128 177.597L184.665 177.578C184.665 177.198 184.444 176.922 184.001 176.753C183.565 176.578 183.029 176.493 182.393 176.499C181.938 176.487 181.508 176.548 181.102 176.681C180.703 176.808 180.363 177.025 180.085 177.334C179.812 177.636 179.655 178.029 179.612 178.512C179.933 178.295 180.318 178.135 180.766 178.032C181.215 177.929 181.614 177.869 181.966 177.85C182.317 177.832 182.687 177.823 183.074 177.823C183.735 177.823 184.307 177.914 184.792 178.095C185.283 178.277 185.658 178.534 185.919 178.866C186.179 179.199 186.309 179.588 186.309 180.036V180.054ZM182.393 181.269C183.059 181.269 183.623 181.175 184.083 180.988C184.55 180.794 184.783 180.495 184.783 180.09C184.783 179.709 184.671 179.422 184.447 179.229C184.222 179.029 183.923 178.899 183.547 178.839C183.177 178.778 182.708 178.748 182.138 178.748C180.527 178.748 179.724 179.111 179.73 179.836C179.73 180.284 179.897 180.613 180.23 180.825C180.563 181.036 180.896 181.163 181.23 181.206C181.569 181.242 181.957 181.263 182.393 181.269Z" fill="#111415"/>
<path d="M191.184 175.547C192.856 175.541 193.976 175.88 194.546 176.563C195.115 177.246 195.4 178.041 195.4 178.948C195.4 179.83 195.112 180.637 194.537 181.369C193.961 182.094 192.843 182.457 191.184 182.457C190.02 182.457 189.121 182.26 188.485 181.867C187.855 181.475 187.437 181.018 187.231 180.498C187.025 179.972 186.931 179.455 186.949 178.948C186.949 178.071 187.237 177.285 187.812 176.59C188.394 175.895 189.518 175.547 191.184 175.547ZM191.193 181.332C191.853 181.332 192.389 181.221 192.801 180.997C193.213 180.767 193.507 180.471 193.683 180.108C193.858 179.746 193.937 179.353 193.919 178.93C193.937 178.524 193.858 178.15 193.683 177.805C193.507 177.461 193.213 177.182 192.801 176.971C192.389 176.753 191.853 176.644 191.193 176.644C190.538 176.644 190.005 176.753 189.593 176.971C189.187 177.182 188.897 177.461 188.721 177.805C188.551 178.15 188.473 178.524 188.485 178.93C188.473 179.353 188.551 179.746 188.721 180.108C188.897 180.471 189.187 180.767 189.593 180.997C190.005 181.221 190.538 181.332 191.193 181.332Z" fill="#111415"/>
<path d="M200.235 175.547C201.907 175.541 203.028 175.88 203.597 176.563C204.167 177.246 204.452 178.041 204.452 178.948C204.452 179.83 204.164 180.637 203.588 181.369C203.013 182.094 201.895 182.457 200.235 182.457C199.072 182.457 198.172 182.26 197.536 181.867C196.906 181.475 196.488 181.018 196.282 180.498C196.076 179.972 195.982 179.455 196.001 178.948C196.001 178.071 196.288 177.285 196.864 176.59C197.445 175.895 198.569 175.547 200.235 175.547ZM200.244 181.332C200.905 181.332 201.441 181.221 201.853 180.997C202.265 180.767 202.559 180.471 202.734 180.108C202.91 179.746 202.989 179.353 202.97 178.93C202.989 178.524 202.91 178.15 202.734 177.805C202.559 177.461 202.265 177.182 201.853 176.971C201.441 176.753 200.905 176.644 200.244 176.644C199.59 176.644 199.057 176.753 198.645 176.971C198.239 177.182 197.948 177.461 197.773 177.805C197.603 178.15 197.524 178.524 197.536 178.93C197.524 179.353 197.603 179.746 197.773 180.108C197.948 180.471 198.239 180.767 198.645 180.997C199.057 181.221 199.59 181.332 200.244 181.332Z" fill="#111415"/>
<path d="M185.601 206.073C185.576 207.028 185.18 207.69 184.41 208.059C183.641 208.421 182.778 208.603 181.82 208.603C181.311 208.603 180.778 208.527 180.221 208.376C179.664 208.225 179.185 207.968 178.785 207.605C178.391 207.243 178.195 206.768 178.195 206.182L179.685 206.173C179.685 206.59 179.885 206.904 180.285 207.116C180.684 207.327 181.172 207.448 181.748 207.478C182.384 207.497 182.923 207.394 183.365 207.17C183.813 206.94 184.038 206.569 184.038 206.055C184.032 205.583 183.853 205.221 183.501 204.967C183.15 204.713 182.581 204.586 181.793 204.586C181.46 204.586 181.127 204.628 180.793 204.713C180.466 204.797 180.194 204.921 179.976 205.084C179.764 205.248 179.658 205.447 179.658 205.683V205.728L178.222 205.756V201.702H185.283V202.745H179.658V204.323C180.197 203.881 181.121 203.661 182.429 203.661C183.047 203.661 183.595 203.758 184.074 203.951C184.553 204.138 184.925 204.413 185.192 204.776C185.464 205.139 185.601 205.568 185.601 206.064V206.073Z" fill="#111415"/>
<path d="M190.438 201.684C192.11 201.678 193.231 202.017 193.8 202.7C194.37 203.383 194.655 204.178 194.655 205.084C194.655 205.967 194.367 206.774 193.791 207.506C193.216 208.231 192.098 208.594 190.438 208.594C189.275 208.594 188.375 208.397 187.739 208.004C187.109 207.611 186.691 207.155 186.485 206.635C186.279 206.109 186.185 205.592 186.203 205.084C186.203 204.208 186.491 203.422 187.067 202.727C187.648 202.032 188.772 201.684 190.438 201.684ZM190.447 207.469C191.108 207.469 191.644 207.358 192.056 207.134C192.468 206.904 192.761 206.608 192.937 206.245C193.113 205.882 193.192 205.49 193.173 205.066C193.192 204.661 193.113 204.287 192.937 203.942C192.761 203.597 192.468 203.319 192.056 203.108C191.644 202.89 191.108 202.781 190.447 202.781C189.793 202.781 189.26 202.89 188.848 203.108C188.442 203.319 188.151 203.597 187.975 203.942C187.806 204.287 187.727 204.661 187.739 205.066C187.727 205.49 187.806 205.882 187.975 206.245C188.151 206.608 188.442 206.904 188.848 207.134C189.26 207.358 189.793 207.469 190.447 207.469Z" fill="#111415"/>
<path d="M199.49 201.684C201.162 201.678 202.283 202.017 202.852 202.7C203.422 203.383 203.706 204.178 203.706 205.084C203.706 205.967 203.418 206.774 202.843 207.506C202.267 208.231 201.15 208.594 199.49 208.594C198.327 208.594 197.427 208.397 196.791 208.004C196.161 207.611 195.743 207.155 195.537 206.635C195.331 206.109 195.237 205.592 195.255 205.084C195.255 204.208 195.543 203.422 196.118 202.727C196.7 202.032 197.824 201.684 199.49 201.684ZM199.499 207.469C200.159 207.469 200.695 207.358 201.107 207.134C201.519 206.904 201.813 206.608 201.989 206.245C202.164 205.882 202.243 205.49 202.225 205.066C202.243 204.661 202.164 204.287 201.989 203.942C201.813 203.597 201.519 203.319 201.107 203.108C200.695 202.89 200.159 202.781 199.499 202.781C198.845 202.781 198.311 202.89 197.9 203.108C197.494 203.319 197.203 203.597 197.027 203.942C196.858 204.287 196.779 204.661 196.791 205.066C196.779 205.49 196.858 205.882 197.027 206.245C197.203 206.608 197.494 206.904 197.9 207.134C198.311 207.358 198.845 207.469 199.499 207.469Z" fill="#111415"/>
<path d="M184.328 232.328H185.283V233.534H184.328V234.549H182.838V233.534H178.058V232.328L182.838 227.839H184.328V232.328ZM182.838 229.29L179.794 232.328H182.838V229.29Z" fill="#111415"/>
<path d="M190.163 227.821C191.835 227.815 192.956 228.153 193.525 228.836C194.095 229.52 194.379 230.315 194.379 231.221C194.379 232.104 194.092 232.911 193.516 233.642C192.941 234.368 191.823 234.731 190.163 234.731C189 234.731 188.1 234.534 187.464 234.141C186.834 233.748 186.416 233.292 186.21 232.772C186.004 232.246 185.91 231.729 185.928 231.221C185.928 230.345 186.216 229.559 186.792 228.864C187.373 228.168 188.497 227.821 190.163 227.821ZM190.172 233.606C190.832 233.606 191.369 233.494 191.781 233.271C192.192 233.041 192.486 232.745 192.662 232.382C192.838 232.019 192.916 231.626 192.898 231.203C192.916 230.798 192.838 230.423 192.662 230.079C192.486 229.734 192.192 229.456 191.781 229.245C191.369 229.027 190.832 228.918 190.172 228.918C189.518 228.918 188.985 229.027 188.573 229.245C188.167 229.456 187.876 229.734 187.7 230.079C187.531 230.423 187.452 230.798 187.464 231.203C187.452 231.626 187.531 232.019 187.7 232.382C187.876 232.745 188.167 233.041 188.573 233.271C188.985 233.494 189.518 233.606 190.172 233.606Z" fill="#111415"/>
<path d="M199.215 227.821C200.887 227.815 202.007 228.153 202.577 228.836C203.146 229.52 203.431 230.315 203.431 231.221C203.431 232.104 203.143 232.911 202.568 233.642C201.992 234.368 200.875 234.731 199.215 234.731C198.052 234.731 197.152 234.534 196.516 234.141C195.886 233.748 195.468 233.292 195.262 232.772C195.056 232.246 194.962 231.729 194.98 231.221C194.98 230.345 195.268 229.559 195.843 228.864C196.425 228.168 197.549 227.821 199.215 227.821ZM199.224 233.606C199.884 233.606 200.42 233.494 200.832 233.271C201.244 233.041 201.538 232.745 201.714 232.382C201.889 232.019 201.968 231.626 201.95 231.203C201.968 230.798 201.889 230.423 201.714 230.079C201.538 229.734 201.244 229.456 200.832 229.245C200.42 229.027 199.884 228.918 199.224 228.918C198.569 228.918 198.036 229.027 197.624 229.245C197.219 229.456 196.928 229.734 196.752 230.079C196.582 230.423 196.504 230.798 196.516 231.203C196.504 231.626 196.582 232.019 196.752 232.382C196.928 232.745 197.219 233.041 197.624 233.271C198.036 233.494 198.569 233.606 199.224 233.606Z" fill="#111415"/>
<path d="M186.4 258.464C186.394 259.305 186.013 259.918 185.255 260.305C184.498 260.692 183.511 260.886 182.293 260.886C181.396 260.886 180.63 260.774 179.994 260.55C179.358 260.326 178.873 260.003 178.54 259.58C178.213 259.157 178.049 258.652 178.049 258.065H179.539C179.539 258.634 179.806 259.051 180.339 259.317C180.872 259.583 181.524 259.716 182.293 259.716C182.996 259.722 183.595 259.625 184.092 259.426C184.589 259.22 184.84 258.897 184.846 258.455C184.84 258.268 184.792 258.129 184.701 258.038C184.616 257.942 184.428 257.872 184.138 257.83C183.847 257.781 183.395 257.757 182.784 257.757H181.102V256.633H182.784C183.208 256.633 183.553 256.618 183.82 256.587C184.092 256.551 184.313 256.479 184.483 256.37C184.653 256.261 184.737 256.095 184.737 255.871C184.737 255.563 184.501 255.333 184.029 255.182C183.556 255.031 182.977 254.949 182.293 254.937C181.524 254.931 180.872 255.016 180.339 255.191C179.806 255.36 179.539 255.635 179.539 256.016H178.049C178.049 255.146 178.488 254.556 179.367 254.248C180.251 253.934 181.227 253.776 182.293 253.776C182.941 253.776 183.544 253.819 184.101 253.903C184.665 253.982 185.158 254.169 185.582 254.466C186.007 254.762 186.219 255.2 186.219 255.78C186.219 256.421 185.943 256.859 185.392 257.095C186.04 257.331 186.376 257.781 186.4 258.446V258.464Z" fill="#111415"/>
<path d="M191.334 253.958C193.006 253.952 194.127 254.29 194.697 254.973C195.266 255.656 195.551 256.451 195.551 257.358C195.551 258.241 195.263 259.048 194.688 259.779C194.112 260.505 192.994 260.867 191.334 260.867C190.171 260.867 189.272 260.671 188.636 260.278C188.005 259.885 187.587 259.429 187.381 258.909C187.176 258.383 187.082 257.866 187.1 257.358C187.1 256.482 187.388 255.696 187.963 255.001C188.545 254.305 189.668 253.958 191.334 253.958ZM191.343 259.743C192.004 259.743 192.54 259.631 192.952 259.408C193.364 259.178 193.658 258.882 193.833 258.519C194.009 258.156 194.088 257.763 194.07 257.34C194.088 256.935 194.009 256.56 193.833 256.216C193.658 255.871 193.364 255.593 192.952 255.381C192.54 255.164 192.004 255.055 191.343 255.055C190.689 255.055 190.156 255.164 189.744 255.381C189.338 255.593 189.047 255.871 188.872 256.216C188.702 256.56 188.623 256.935 188.636 257.34C188.623 257.763 188.702 258.156 188.872 258.519C189.047 258.882 189.338 259.178 189.744 259.408C190.156 259.631 190.689 259.743 191.343 259.743Z" fill="#111415"/>
<path d="M200.386 253.958C202.058 253.952 203.179 254.29 203.748 254.973C204.318 255.656 204.603 256.451 204.603 257.358C204.603 258.241 204.315 259.048 203.739 259.779C203.164 260.505 202.046 260.867 200.386 260.867C199.223 260.867 198.323 260.671 197.687 260.278C197.057 259.885 196.639 259.429 196.433 258.909C196.227 258.383 196.133 257.866 196.151 257.358C196.151 256.482 196.439 255.696 197.015 255.001C197.596 254.305 198.72 253.958 200.386 253.958ZM200.395 259.743C201.056 259.743 201.592 259.631 202.004 259.408C202.416 259.178 202.709 258.882 202.885 258.519C203.061 258.156 203.139 257.763 203.121 257.34C203.139 256.935 203.061 256.56 202.885 256.216C202.709 255.871 202.416 255.593 202.004 255.381C201.592 255.164 201.056 255.055 200.395 255.055C199.741 255.055 199.208 255.164 198.796 255.381C198.39 255.593 198.099 255.871 197.923 256.216C197.754 256.56 197.675 256.935 197.687 257.34C197.675 257.763 197.754 258.156 197.923 258.519C198.099 258.882 198.39 259.178 198.796 259.408C199.208 259.631 199.741 259.743 200.395 259.743Z" fill="#111415"/>
<path d="M186.328 285.599V286.823H178.049V286.234C178.049 285.448 178.192 284.849 178.476 284.438C178.761 284.021 179.109 283.737 179.521 283.586C179.939 283.435 180.497 283.302 181.193 283.187C181.405 283.157 181.772 283.108 182.293 283.042C182.82 282.981 183.235 282.924 183.538 282.869C183.847 282.815 184.101 282.73 184.301 282.615C184.507 282.495 184.61 282.331 184.61 282.126C184.61 281.751 184.362 281.476 183.865 281.301C183.374 281.125 182.771 281.041 182.057 281.047C181.372 281.047 180.79 281.153 180.312 281.364C179.833 281.57 179.594 281.896 179.594 282.343L178.049 282.334C178.049 281.718 178.267 281.231 178.703 280.874C179.146 280.512 179.67 280.261 180.276 280.122C180.881 279.983 181.472 279.913 182.048 279.913C183.102 279.913 184.05 280.061 184.892 280.358C185.74 280.648 186.164 281.237 186.164 282.126C186.164 282.603 185.964 282.981 185.564 283.259C185.17 283.537 184.725 283.734 184.228 283.849C183.738 283.964 183.156 284.066 182.484 284.157C182.217 284.187 182.017 284.214 181.884 284.239C181.399 284.287 180.975 284.387 180.612 284.538C180.254 284.689 179.979 284.861 179.785 285.055C179.597 285.242 179.503 285.423 179.503 285.599H186.328Z" fill="#111415"/>
<path d="M191.113 280.095C192.785 280.089 193.905 280.427 194.475 281.11C195.044 281.793 195.329 282.588 195.329 283.495C195.329 284.378 195.041 285.185 194.466 285.916C193.89 286.642 192.772 287.004 191.113 287.004C189.949 287.004 189.05 286.808 188.414 286.415C187.784 286.022 187.366 285.566 187.16 285.046C186.954 284.52 186.86 284.003 186.878 283.495C186.878 282.618 187.166 281.833 187.741 281.137C188.323 280.442 189.447 280.095 191.113 280.095ZM191.122 285.88C191.782 285.88 192.318 285.768 192.73 285.544C193.142 285.315 193.436 285.018 193.612 284.656C193.787 284.293 193.866 283.9 193.848 283.477C193.866 283.072 193.787 282.697 193.612 282.352C193.436 282.008 193.142 281.73 192.73 281.518C192.318 281.301 191.782 281.192 191.122 281.192C190.467 281.192 189.934 281.301 189.522 281.518C189.116 281.73 188.826 282.008 188.65 282.352C188.48 282.697 188.402 283.072 188.414 283.477C188.402 283.9 188.48 284.293 188.65 284.656C188.826 285.018 189.116 285.315 189.522 285.544C189.934 285.768 190.467 285.88 191.122 285.88Z" fill="#111415"/>
<path d="M200.164 280.095C201.836 280.089 202.957 280.427 203.526 281.11C204.096 281.793 204.381 282.588 204.381 283.495C204.381 284.378 204.093 285.185 203.517 285.916C202.942 286.642 201.824 287.004 200.164 287.004C199.001 287.004 198.101 286.808 197.465 286.415C196.835 286.022 196.417 285.566 196.211 285.046C196.005 284.52 195.911 284.003 195.93 283.495C195.93 282.618 196.217 281.833 196.793 281.137C197.374 280.442 198.498 280.095 200.164 280.095ZM200.173 285.88C200.834 285.88 201.37 285.768 201.782 285.544C202.194 285.315 202.488 285.018 202.663 284.656C202.839 284.293 202.918 283.9 202.899 283.477C202.918 283.072 202.839 282.697 202.663 282.352C202.488 282.008 202.194 281.73 201.782 281.518C201.37 281.301 200.834 281.192 200.173 281.192C199.519 281.192 198.986 281.301 198.574 281.518C198.168 281.73 197.877 282.008 197.702 282.352C197.532 282.697 197.453 283.072 197.465 283.477C197.453 283.9 197.532 284.293 197.702 284.656C197.877 285.018 198.168 285.315 198.574 285.544C198.986 285.768 199.519 285.88 200.173 285.88Z" fill="#111415"/>
<path d="M181.066 306.25V312.96H179.576V308.344H178.058V307.392C178.622 307.392 179.037 307.323 179.303 307.184C179.576 307.045 179.742 306.896 179.803 306.739C179.87 306.576 179.903 306.413 179.903 306.25H181.066Z" fill="#111415"/>
<path d="M186.081 306.231C187.753 306.225 188.874 306.564 189.443 307.247C190.013 307.93 190.297 308.725 190.297 309.632C190.297 310.515 190.01 311.322 189.434 312.053C188.859 312.778 187.741 313.141 186.081 313.141C184.918 313.141 184.018 312.945 183.382 312.552C182.752 312.159 182.334 311.702 182.128 311.183C181.922 310.657 181.828 310.14 181.846 309.632C181.846 308.755 182.134 307.969 182.71 307.274C183.291 306.579 184.415 306.231 186.081 306.231ZM186.09 312.017C186.75 312.017 187.286 311.905 187.698 311.681C188.11 311.452 188.404 311.155 188.58 310.793C188.756 310.43 188.834 310.037 188.816 309.614C188.834 309.209 188.756 308.834 188.58 308.489C188.404 308.145 188.11 307.867 187.698 307.655C187.286 307.437 186.75 307.329 186.09 307.329C185.436 307.329 184.903 307.437 184.491 307.655C184.085 307.867 183.794 308.145 183.618 308.489C183.449 308.834 183.37 309.209 183.382 309.614C183.37 310.037 183.449 310.43 183.618 310.793C183.794 311.155 184.085 311.452 184.491 311.681C184.903 311.905 185.436 312.017 186.09 312.017Z" fill="#111415"/>
<path d="M195.133 306.231C196.805 306.225 197.925 306.564 198.495 307.247C199.064 307.93 199.349 308.725 199.349 309.632C199.349 310.515 199.061 311.322 198.486 312.053C197.91 312.778 196.792 313.141 195.133 313.141C193.969 313.141 193.07 312.945 192.434 312.552C191.804 312.159 191.386 311.702 191.18 311.183C190.974 310.657 190.88 310.14 190.898 309.632C190.898 308.755 191.186 307.969 191.761 307.274C192.343 306.579 193.467 306.231 195.133 306.231ZM195.142 312.017C195.802 312.017 196.338 311.905 196.75 311.681C197.162 311.452 197.456 311.155 197.632 310.793C197.807 310.43 197.886 310.037 197.868 309.614C197.886 309.209 197.807 308.834 197.632 308.489C197.456 308.145 197.162 307.867 196.75 307.655C196.338 307.437 195.802 307.329 195.142 307.329C194.487 307.329 193.954 307.437 193.542 307.655C193.136 307.867 192.846 308.145 192.67 308.489C192.5 308.834 192.422 309.209 192.434 309.614C192.422 310.037 192.5 310.43 192.67 310.793C192.846 311.155 193.136 311.452 193.542 311.681C193.954 311.905 194.487 312.017 195.142 312.017Z" fill="#111415"/>
<path d="M182.238 332.368C183.91 332.362 185.031 332.701 185.601 333.384C186.17 334.067 186.455 334.862 186.455 335.769C186.455 336.651 186.167 337.458 185.592 338.19C185.016 338.915 183.898 339.278 182.238 339.278C181.075 339.278 180.176 339.082 179.539 338.689C178.909 338.296 178.491 337.839 178.285 337.319C178.079 336.793 177.986 336.277 178.004 335.769C178.004 334.892 178.291 334.106 178.867 333.411C179.449 332.716 180.572 332.368 182.238 332.368ZM182.247 338.154C182.908 338.154 183.444 338.042 183.856 337.818C184.268 337.588 184.562 337.292 184.737 336.929C184.913 336.567 184.992 336.174 184.974 335.751C184.992 335.346 184.913 334.971 184.737 334.626C184.562 334.282 184.268 334.004 183.856 333.792C183.444 333.574 182.908 333.466 182.247 333.466C181.593 333.466 181.06 333.574 180.648 333.792C180.242 334.004 179.951 334.282 179.776 334.626C179.606 334.971 179.527 335.346 179.539 335.751C179.527 336.174 179.606 336.567 179.776 336.929C179.951 337.292 180.242 337.588 180.648 337.818C181.06 338.042 181.593 338.154 182.247 338.154Z" fill="#111415"/>
<rect x="225.041" y="279.968" width="22.4507" height="63.4752" rx="4.27632" fill="#111415"/>
<rect x="254.441" y="296.503" width="22.4507" height="46.9396" rx="4.27632" fill="#111415"/>
<rect x="283.841" y="251.164" width="22.4507" height="92.2791" rx="4.27632" fill="#111415"/>
<rect x="313.24" y="289.035" width="22.4507" height="54.4073" rx="4.27632" fill="#111415"/>
<rect x="342.64" y="311.439" width="22.4507" height="32.0043" rx="4.27632" fill="#111415"/>
<rect x="372.039" y="251.164" width="22.4507" height="92.2791" rx="4.27632" fill="#111415"/>
<rect x="401.439" y="271.433" width="22.4507" height="72.0097" rx="4.27632" fill="#111415"/>
<rect x="430.839" y="313.572" width="22.4507" height="29.8707" rx="4.27632" fill="#111415"/>
<rect x="460.238" y="293.836" width="22.4507" height="49.6067" rx="4.27632" fill="#111415"/>
<rect x="489.638" y="307.705" width="22.4507" height="35.7381" rx="4.27632" fill="#111415"/>
<rect x="519.038" y="251.164" width="22.4507" height="92.2791" rx="4.27632" fill="#111415"/>
<g filter="url(#filter1_d_2006_219)">
<rect x="77.7754" y="25" width="251.234" height="204.828" rx="10.6908" fill="#111415"/>
</g>
<path d="M213.562 64.4721H203.392C201.916 64.4721 200.719 63.2755 200.719 61.7994V45.8086C200.719 44.3325 201.916 43.1359 203.392 43.1359H234.128C235.604 43.1359 236.801 44.3325 236.801 45.8086V61.7994C236.801 63.2755 235.604 64.4721 234.128 64.4721H223.691C222.711 64.4721 221.81 65.0084 221.342 65.8697L219.096 70.0075C218.894 70.3802 218.359 70.3802 218.157 70.0075L215.911 65.8697C215.443 65.0084 214.542 64.4721 213.562 64.4721Z" fill="#57C7FF"/>
<path d="M208.716 54.9722H209.604V55.5856H208.716V56.4711H208.101V55.5856H207.214V54.9722H208.101V54.0868H208.716V54.9722Z" fill="#111415"/>
<path d="M214.781 56.055V57.0045H209.815V56.4978C209.815 56.0426 209.922 55.6941 210.136 55.4523C210.35 55.2069 210.586 55.0433 210.847 54.9615C211.11 54.8762 211.433 54.8033 211.814 54.7429C211.964 54.718 212.128 54.6966 212.306 54.6788C212.541 54.6504 212.725 54.6237 212.857 54.5988C212.992 54.5739 213.104 54.5348 213.193 54.4815C213.282 54.4246 213.327 54.3499 213.327 54.2575C213.327 54.101 213.218 53.9872 213.001 53.9161C212.783 53.8414 212.52 53.8041 212.21 53.8041C211.914 53.8076 211.663 53.8556 211.456 53.9481C211.249 54.037 211.146 54.1757 211.146 54.3641H209.815C209.815 53.8165 210.063 53.4431 210.558 53.244C211.053 53.0413 211.604 52.9399 212.21 52.9399C212.855 52.9399 213.427 53.0253 213.926 53.196C214.428 53.3667 214.679 53.724 214.679 54.2681C214.679 54.5526 214.585 54.7802 214.396 54.9509C214.207 55.118 213.993 55.2371 213.755 55.3083C213.519 55.3794 213.256 55.4398 212.963 55.4896L212.792 55.5216C212.775 55.5216 212.718 55.5305 212.621 55.5483C212.147 55.6159 211.755 55.6888 211.445 55.767C211.139 55.8417 210.986 55.9377 210.986 56.055H214.781Z" fill="#111415"/>
<path d="M219.942 55.6976C219.939 56.1919 219.714 56.5529 219.269 56.7805C218.823 57.008 218.242 57.1218 217.526 57.1218C216.717 57.1218 216.099 56.9849 215.671 56.7111C215.244 56.4337 215.03 56.0177 215.03 55.4629H216.281C216.281 55.7368 216.402 55.9377 216.644 56.0657C216.887 56.1902 217.181 56.2506 217.526 56.2471C217.829 56.2542 218.086 56.2133 218.296 56.1244C218.51 56.0355 218.618 55.8932 218.622 55.6976C218.618 55.5981 218.592 55.5234 218.542 55.4736C218.492 55.4203 218.41 55.3847 218.296 55.3669C218.182 55.3456 218.022 55.3349 217.815 55.3349H216.826V54.5668H217.815C218.096 54.5668 218.298 54.5313 218.419 54.4601C218.54 54.389 218.601 54.3019 218.601 54.1988C218.601 54.0672 218.495 53.9712 218.285 53.9107C218.079 53.8467 217.826 53.8129 217.526 53.8094C217.181 53.8094 216.887 53.8467 216.644 53.9214C216.402 53.9925 216.281 54.1045 216.281 54.2575H215.03C215.03 53.7454 215.288 53.3987 215.805 53.2173C216.325 53.0324 216.899 52.9399 217.526 52.9399C217.907 52.9399 218.262 52.9648 218.59 53.0146C218.921 53.0608 219.212 53.1711 219.461 53.3453C219.711 53.5196 219.835 53.7774 219.835 54.1188C219.835 54.4673 219.622 54.7055 219.194 54.8335C219.657 54.9722 219.907 55.2567 219.942 55.687V55.6976Z" fill="#111415"/>
<path d="M222.752 53.0039C224.406 52.9968 225.232 53.6672 225.232 55.0149C225.232 55.5412 225.065 56.0177 224.73 56.4444C224.398 56.8676 223.739 57.0792 222.752 57.0792C222.057 57.0792 221.519 56.9636 221.138 56.7325C220.756 56.5013 220.502 56.2311 220.373 55.9217C220.249 55.6123 220.192 55.31 220.202 55.0149C220.202 54.5028 220.379 54.0405 220.731 53.628C221.084 53.212 221.758 53.0039 222.752 53.0039ZM222.757 56.1137C223.067 56.1137 223.319 56.0621 223.511 55.959C223.707 55.8523 223.846 55.7172 223.928 55.5536C224.01 55.3865 224.047 55.2051 224.04 55.0096C224.047 54.8246 224.01 54.654 223.928 54.4975C223.846 54.341 223.707 54.213 223.511 54.1134C223.319 54.0139 223.067 53.9641 222.757 53.9641C222.451 53.9641 222.201 54.0139 222.009 54.1134C221.817 54.213 221.679 54.341 221.597 54.4975C221.515 54.654 221.478 54.8246 221.485 55.0096C221.478 55.2051 221.515 55.3865 221.597 55.5536C221.679 55.7172 221.817 55.8523 222.009 55.959C222.201 56.0621 222.451 56.1137 222.757 56.1137Z" fill="#111415"/>
<path d="M227.983 53.0039C229.636 52.9968 230.463 53.6672 230.463 55.0149C230.463 55.5412 230.295 56.0177 229.96 56.4444C229.629 56.8676 228.97 57.0792 227.983 57.0792C227.288 57.0792 226.75 56.9636 226.368 56.7325C225.987 56.5013 225.732 56.2311 225.604 55.9217C225.479 55.6123 225.422 55.31 225.433 55.0149C225.433 54.5028 225.609 54.0405 225.962 53.628C226.315 53.212 226.988 53.0039 227.983 53.0039ZM227.988 56.1137C228.298 56.1137 228.549 56.0621 228.742 55.959C228.938 55.8523 229.077 55.7172 229.159 55.5536C229.241 55.3865 229.278 55.2051 229.271 55.0096C229.278 54.8246 229.241 54.654 229.159 54.4975C229.077 54.341 228.938 54.213 228.742 54.1134C228.549 54.0139 228.298 53.9641 227.988 53.9641C227.681 53.9641 227.432 54.0139 227.24 54.1134C227.047 54.213 226.91 54.341 226.828 54.4975C226.746 54.654 226.709 54.8246 226.716 55.0096C226.709 55.2051 226.746 55.3865 226.828 55.5536C226.91 55.7172 227.047 55.8523 227.24 55.959C227.432 56.0621 227.681 56.1137 227.988 56.1137Z" fill="#111415"/>
<path d="M170.251 82.161C145.014 118.187 96.9297 121.544 77.7754 120.033V197.377H328.742V107.765C275.555 128.034 242.414 104.564 224.239 87.4951L224.053 87.32C207.552 71.8216 189.422 54.7939 170.251 82.161Z" fill="url(#paint0_linear_2006_219)"/>
<mask id="mask0_2006_219" style="mask-type:alpha" maskUnits="userSpaceOnUse" x="77" y="25" width="253" height="205">
<rect x="77.7754" y="25" width="251.234" height="204.828" rx="10.6908" fill="#111415"/>
</mask>
<g mask="url(#mask0_2006_219)">
<path d="M74.0336 120.193C93.7387 121.709 143.205 118.342 169.168 82.2053C188.965 54.6511 207.682 71.9636 224.709 87.5556C243.406 104.677 277.5 128.218 332.216 107.887" stroke="#57C7FF" stroke-width="2.6727"/>
<path d="M75.6372 111.204C93.326 94.8494 140 62.2916 208.303 121.336C237.298 146.401 293.647 143.734 332.216 121.336" stroke="#EFEFEF" stroke-width="2.6727"/>
</g>
<ellipse cx="218.092" cy="81.8078" rx="5.61266" ry="5.60075" fill="#57C7FF"/>
<path d="M99.8812 202.571V206.131C99.8812 206.505 99.793 206.87 99.6167 207.227C99.4403 207.585 99.1382 207.886 98.7106 208.131C98.283 208.371 97.7164 208.491 97.0108 208.491C96.3426 208.491 95.7893 208.35 95.351 208.067C94.9127 207.785 94.592 207.454 94.3889 207.075C94.1857 206.691 94.0842 206.347 94.0842 206.043H95.3991C95.3991 206.283 95.466 206.51 95.5996 206.723C95.7332 206.931 95.923 207.102 96.1689 207.235C96.4201 207.363 96.7088 207.427 97.0348 207.427C97.3555 207.427 97.6308 207.366 97.8607 207.243C98.0905 207.115 98.2616 206.953 98.3738 206.755C98.4914 206.553 98.5502 206.345 98.5502 206.131V202.571H99.8812Z" fill="#EFEFEF"/>
<path d="M103.406 203.939C104.111 203.939 104.742 204.067 105.298 204.323C105.859 204.579 106.14 205.03 106.14 205.675V208.491H104.969L104.849 207.731C104.763 207.891 104.603 208.035 104.368 208.163C104.133 208.291 103.852 208.393 103.526 208.467C103.2 208.537 102.866 208.571 102.524 208.571C102.112 208.571 101.679 208.486 101.225 208.315C100.77 208.139 100.543 207.763 100.543 207.187C100.543 206.643 100.728 206.283 101.096 206.107C101.465 205.926 101.845 205.835 102.235 205.835C103.106 205.835 103.708 205.83 104.039 205.819C104.376 205.803 104.595 205.774 104.696 205.731C104.803 205.683 104.86 205.603 104.865 205.491V205.411C104.86 205.219 104.71 205.059 104.416 204.931C104.122 204.803 103.782 204.739 103.398 204.739C102.975 204.734 102.617 204.798 102.323 204.931C102.029 205.059 101.882 205.267 101.882 205.555H100.591C100.591 205.144 100.741 204.819 101.04 204.579C101.345 204.339 101.708 204.174 102.131 204.083C102.558 203.987 102.983 203.939 103.406 203.939ZM103.125 207.595C103.766 207.595 104.215 207.462 104.472 207.195C104.729 206.929 104.857 206.617 104.857 206.259C104.595 206.414 104.13 206.491 103.462 206.491C103.066 206.491 102.756 206.505 102.532 206.531C102.312 206.558 102.149 206.609 102.043 206.683C101.936 206.753 101.879 206.857 101.874 206.995C101.885 207.187 101.984 207.337 102.171 207.443C102.358 207.545 102.676 207.595 103.125 207.595Z" fill="#EFEFEF"/>
<path d="M109.977 203.987C110.587 203.987 111.063 204.195 111.405 204.611C111.747 205.022 111.918 205.715 111.918 206.691V208.491H110.635V206.715C110.635 206.374 110.608 206.075 110.555 205.819C110.501 205.563 110.381 205.347 110.194 205.171C110.012 204.99 109.737 204.899 109.368 204.899C108.989 204.899 108.7 204.99 108.502 205.171C108.31 205.347 108.184 205.566 108.125 205.827C108.072 206.088 108.045 206.395 108.045 206.747V208.491H106.762V204.131H108.045V204.707C108.467 204.227 109.111 203.987 109.977 203.987Z" fill="#EFEFEF"/>
<path d="M139.87 202.571V203.659H135.156V204.859H139.197V205.907H135.156V208.491H133.8V202.571H139.87Z" fill="#EFEFEF"/>
<path d="M145.377 206.411H140.927C140.943 206.667 141.015 206.905 141.144 207.123C141.272 207.337 141.456 207.51 141.697 207.643C141.938 207.777 142.229 207.843 142.571 207.843C142.854 207.843 143.113 207.793 143.349 207.691C143.584 207.59 143.768 207.459 143.902 207.299C144.036 207.134 144.102 206.961 144.102 206.779H145.377C145.377 207.105 145.265 207.411 145.041 207.699C144.821 207.982 144.498 208.211 144.07 208.387C143.643 208.563 143.138 208.651 142.555 208.651C142.026 208.651 141.537 208.553 141.088 208.355C140.644 208.158 140.288 207.881 140.021 207.523C139.759 207.161 139.628 206.747 139.628 206.283C139.628 205.814 139.757 205.4 140.013 205.043C140.27 204.68 140.62 204.403 141.064 204.211C141.513 204.014 142.01 203.915 142.555 203.915C143.116 203.915 143.608 204.011 144.03 204.203C144.453 204.395 144.781 204.667 145.016 205.019C145.252 205.366 145.372 205.774 145.377 206.243V206.283V206.411ZM142.571 204.723C142.149 204.723 141.812 204.816 141.561 205.003C141.309 205.184 141.13 205.43 141.023 205.739H144.038C143.963 205.43 143.808 205.184 143.573 205.003C143.338 204.816 143.004 204.723 142.571 204.723Z" fill="#EFEFEF"/>
<path d="M151.396 206.219C151.39 206.657 151.297 207.057 151.115 207.419C150.939 207.777 150.69 208.059 150.37 208.267C150.049 208.47 149.683 208.571 149.271 208.571C148.287 208.577 147.566 208.374 147.106 207.963L147.002 208.467H145.887V202.579H147.17V204.627C147.651 204.184 148.352 203.963 149.271 203.963C149.693 203.963 150.065 204.067 150.386 204.275C150.706 204.483 150.952 204.758 151.123 205.099C151.3 205.44 151.39 205.803 151.396 206.187V206.219ZM148.59 207.747C148.91 207.747 149.18 207.673 149.399 207.523C149.624 207.374 149.79 207.182 149.896 206.947C150.009 206.713 150.068 206.467 150.073 206.211C150.068 205.987 150.009 205.768 149.896 205.555C149.79 205.336 149.624 205.155 149.399 205.011C149.175 204.867 148.905 204.795 148.59 204.795C148.312 204.795 148.063 204.862 147.844 204.995C147.63 205.123 147.464 205.302 147.347 205.531C147.229 205.755 147.17 206.006 147.17 206.283V206.291C147.17 206.537 147.229 206.771 147.347 206.995C147.47 207.219 147.638 207.401 147.852 207.539C148.066 207.678 148.312 207.747 148.59 207.747Z" fill="#EFEFEF"/>
<path d="M181.174 202.571V208.491H179.819V204.787L178.007 208.491H176.652L174.711 204.731V208.491H173.356V202.571H174.992L177.317 207.131L179.546 202.571H181.174Z" fill="#EFEFEF"/>
<path d="M184.702 203.939C185.408 203.939 186.038 204.067 186.594 204.323C187.156 204.579 187.436 205.03 187.436 205.675V208.491H186.266L186.145 207.731C186.06 207.891 185.899 208.035 185.664 208.163C185.429 208.291 185.148 208.393 184.822 208.467C184.496 208.537 184.162 208.571 183.82 208.571C183.408 208.571 182.975 208.486 182.521 208.315C182.067 208.139 181.84 207.763 181.84 207.187C181.84 206.643 182.024 206.283 182.393 206.107C182.762 205.926 183.141 205.835 183.531 205.835C184.403 205.835 185.004 205.83 185.335 205.819C185.672 205.803 185.891 205.774 185.993 205.731C186.1 205.683 186.156 205.603 186.161 205.491V205.411C186.156 205.219 186.006 205.059 185.712 204.931C185.418 204.803 185.079 204.739 184.694 204.739C184.272 204.734 183.914 204.798 183.62 204.931C183.326 205.059 183.179 205.267 183.179 205.555H181.888C181.888 205.144 182.037 204.819 182.337 204.579C182.641 204.339 183.005 204.174 183.427 204.083C183.855 203.987 184.28 203.939 184.702 203.939ZM184.421 207.595C185.063 207.595 185.512 207.462 185.768 207.195C186.025 206.929 186.153 206.617 186.153 206.259C185.891 206.414 185.426 206.491 184.758 206.491C184.363 206.491 184.053 206.505 183.828 206.531C183.609 206.558 183.446 206.609 183.339 206.683C183.232 206.753 183.176 206.857 183.171 206.995C183.181 207.187 183.28 207.337 183.467 207.443C183.654 207.545 183.972 207.595 184.421 207.595Z" fill="#EFEFEF"/>
<path d="M189.325 204.827C189.726 204.406 190.36 204.152 191.226 204.067V205.171H190.288C189.999 205.171 189.785 205.243 189.646 205.387C189.513 205.526 189.427 205.696 189.39 205.899C189.358 206.102 189.342 206.361 189.342 206.675V208.491H188.059V204.131H189.173L189.325 204.827Z" fill="#EFEFEF"/>
<path d="M220.361 208.491H218.95L218.268 207.235H214.524L213.842 208.491H212.431L215.646 202.571H217.146L220.361 208.491ZM216.4 203.787L215.117 206.139H217.675L216.4 203.787Z" fill="#57C7FF"/>
<path d="M226.131 206.411C226.12 206.795 226.026 207.158 225.85 207.499C225.679 207.835 225.433 208.11 225.112 208.323C224.797 208.531 224.428 208.635 224.006 208.635C223.086 208.635 222.386 208.414 221.905 207.971V210.012H220.622V204.131H221.737L221.857 204.747C222.349 204.267 223.065 204.03 224.006 204.035C224.417 204.035 224.781 204.136 225.096 204.339C225.417 204.542 225.668 204.819 225.85 205.171C226.032 205.523 226.125 205.918 226.131 206.355V206.411ZM223.324 207.803C223.64 207.803 223.907 207.731 224.126 207.587C224.351 207.443 224.519 207.262 224.631 207.043C224.743 206.819 224.802 206.595 224.808 206.371C224.802 206.11 224.746 205.864 224.639 205.635C224.538 205.406 224.375 205.219 224.15 205.075C223.931 204.931 223.656 204.859 223.324 204.859C223.046 204.859 222.8 204.928 222.587 205.067C222.373 205.2 222.204 205.379 222.081 205.603C221.964 205.827 221.905 206.062 221.905 206.307V206.315C221.905 206.593 221.964 206.846 222.081 207.075C222.199 207.299 222.365 207.478 222.579 207.611C222.798 207.739 223.046 207.803 223.324 207.803Z" fill="#57C7FF"/>
<path d="M227.942 204.827C228.343 204.406 228.976 204.152 229.842 204.067V205.171H228.904C228.615 205.171 228.401 205.243 228.262 205.387C228.129 205.526 228.043 205.696 228.006 205.899C227.974 206.102 227.958 206.361 227.958 206.675V208.491H226.675V204.131H227.789L227.942 204.827Z" fill="#57C7FF"/>
<path d="M259.217 202.571V208.491H257.862V204.787L256.05 208.491H254.695L252.754 204.731V208.491H251.399V202.571H253.035L255.36 207.131L257.589 202.571H259.217Z" fill="#EFEFEF"/>
<path d="M262.745 203.939C263.45 203.939 264.081 204.067 264.637 204.323C265.198 204.579 265.479 205.03 265.479 205.675V208.491H264.308L264.188 207.731C264.103 207.891 263.942 208.035 263.707 208.163C263.472 208.291 263.191 208.393 262.865 208.467C262.539 208.537 262.205 208.571 261.863 208.571C261.451 208.571 261.018 208.486 260.564 208.315C260.11 208.139 259.882 207.763 259.882 207.187C259.882 206.643 260.067 206.283 260.436 206.107C260.804 205.926 261.184 205.835 261.574 205.835C262.445 205.835 263.047 205.83 263.378 205.819C263.715 205.803 263.934 205.774 264.036 205.731C264.143 205.683 264.199 205.603 264.204 205.491V205.411C264.199 205.219 264.049 205.059 263.755 204.931C263.461 204.803 263.122 204.739 262.737 204.739C262.315 204.734 261.956 204.798 261.662 204.931C261.368 205.059 261.221 205.267 261.221 205.555H259.93C259.93 205.144 260.08 204.819 260.379 204.579C260.684 204.339 261.048 204.174 261.47 204.083C261.898 203.987 262.323 203.939 262.745 203.939ZM262.464 207.595C263.106 207.595 263.555 207.462 263.811 207.195C264.068 206.929 264.196 206.617 264.196 206.259C263.934 206.414 263.469 206.491 262.801 206.491C262.405 206.491 262.095 206.505 261.871 206.531C261.652 206.558 261.489 206.609 261.382 206.683C261.275 206.753 261.219 206.857 261.213 206.995C261.224 207.187 261.323 207.337 261.51 207.443C261.697 207.545 262.015 207.595 262.464 207.595Z" fill="#EFEFEF"/>
<path d="M271.79 204.131L269.184 209.476C269.039 209.753 268.775 209.934 268.39 210.02C268.01 210.105 267.564 210.148 267.051 210.148V209.004C267.318 209.004 267.503 208.98 267.604 208.932C267.711 208.889 267.765 208.828 267.765 208.748C267.765 208.705 267.751 208.651 267.724 208.587C267.698 208.529 267.679 208.489 267.668 208.467L265.415 204.131H266.826L268.663 207.995L270.378 204.131H271.79Z" fill="#EFEFEF"/>
<path d="M299.264 202.571V206.131C299.264 206.505 299.176 206.87 299 207.227C298.824 207.585 298.521 207.886 298.094 208.131C297.666 208.371 297.1 208.491 296.394 208.491C295.726 208.491 295.173 208.35 294.734 208.067C294.296 207.785 293.975 207.454 293.772 207.075C293.569 206.691 293.467 206.347 293.467 206.043H294.782C294.782 206.283 294.849 206.51 294.983 206.723C295.116 206.931 295.306 207.102 295.552 207.235C295.803 207.363 296.092 207.427 296.418 207.427C296.739 207.427 297.014 207.366 297.244 207.243C297.474 207.115 297.645 206.953 297.757 206.755C297.875 206.553 297.933 206.345 297.933 206.131V202.571H299.264Z" fill="#EFEFEF"/>
<path d="M303.879 204.131H305.162V208.491H303.879V207.915C303.457 208.395 302.813 208.635 301.947 208.635C301.338 208.635 300.862 208.43 300.52 208.019C300.178 207.603 300.007 206.907 300.007 205.931V204.131H301.289V205.907C301.289 206.249 301.316 206.547 301.37 206.803C301.423 207.059 301.541 207.278 301.722 207.459C301.91 207.635 302.187 207.723 302.556 207.723C303.091 207.723 303.444 207.55 303.615 207.203C303.791 206.851 303.879 206.406 303.879 205.867V204.131Z" fill="#EFEFEF"/>
<path d="M309 203.987C309.61 203.987 310.086 204.195 310.428 204.611C310.77 205.022 310.941 205.715 310.941 206.691V208.491H309.658V206.715C309.658 206.374 309.631 206.075 309.578 205.819C309.524 205.563 309.404 205.347 309.217 205.171C309.035 204.99 308.76 204.899 308.391 204.899C308.012 204.899 307.723 204.99 307.525 205.171C307.333 205.347 307.207 205.566 307.148 205.827C307.095 206.088 307.068 206.395 307.068 206.747V208.491H305.785V204.131H307.068V204.707C307.49 204.227 308.135 203.987 309 203.987Z" fill="#EFEFEF"/>
<g filter="url(#filter2_d_2006_219)">
<rect x="344.243" y="404.251" width="218.092" height="78.4106" rx="5.87993" fill="#57C7FF"/>
</g>
<path d="M368.186 452.535C369.687 452.548 370.957 452.631 371.996 452.784C373.048 452.938 373.927 453.29 374.633 453.841C375.338 454.378 375.691 455.185 375.691 456.26C375.691 458.065 374.941 459.326 373.44 460.043C371.939 460.76 370.187 461.15 368.186 461.214V463.404H365.896V461.176C363.997 461.022 362.336 460.568 360.912 459.813C359.501 459.045 358.795 457.809 358.795 456.107L362.182 456.049C362.182 457.547 363.42 458.411 365.896 458.641V454.935C364.421 454.91 363.183 454.807 362.182 454.628C361.181 454.436 360.367 454.058 359.738 453.495C359.11 452.919 358.795 452.08 358.795 450.979C358.795 449.277 359.494 448.08 360.893 447.389C362.304 446.697 363.972 446.3 365.896 446.198V443.99H368.186V446.179C370.11 446.256 371.842 446.672 373.382 447.427C374.921 448.169 375.691 449.456 375.691 451.287H372.323C372.323 450.467 371.894 449.872 371.034 449.501C370.175 449.117 369.225 448.874 368.186 448.771V452.535ZM362.105 450.922C362.105 451.869 363.369 452.4 365.896 452.516V448.79C364.87 448.893 363.978 449.11 363.221 449.443C362.477 449.763 362.105 450.256 362.105 450.922ZM372.381 456.318C372.381 455.78 371.983 455.422 371.188 455.242C370.393 455.063 369.392 454.961 368.186 454.935V458.68C369.366 458.641 370.354 458.436 371.15 458.065C371.958 457.694 372.368 457.118 372.381 456.337V456.318Z" fill="#111415"/>
<path d="M394.516 452.228C394.529 452.432 394.535 452.727 394.535 453.111C394.535 456.171 393.637 458.283 391.841 459.448C390.045 460.613 387.883 461.195 385.356 461.195C382.957 461.195 381.033 460.818 379.583 460.062C378.133 459.294 377.408 458.129 377.408 456.567L380.526 456.625C380.526 457.432 380.988 458.02 381.911 458.392C382.848 458.75 383.99 458.923 385.337 458.91C386.299 458.936 387.203 458.814 388.05 458.545C388.909 458.264 389.628 457.803 390.205 457.163C390.783 456.51 391.122 455.671 391.225 454.647C390.263 455.3 389.134 455.71 387.838 455.876C386.543 456.03 385.228 456.107 383.893 456.107C382.495 456.107 381.276 455.915 380.237 455.53C379.211 455.146 378.422 454.602 377.87 453.898C377.319 453.194 377.043 452.368 377.043 451.421V451.383C377.043 450.231 377.415 449.27 378.159 448.502C378.903 447.734 379.897 447.171 381.142 446.812C382.399 446.441 383.804 446.256 385.356 446.256C388.153 446.256 390.308 446.736 391.822 447.696C393.335 448.643 394.234 450.154 394.516 452.228ZM385.798 454.148C389.262 454.148 390.988 453.38 390.975 451.844C390.975 450.896 390.622 450.199 389.917 449.75C389.211 449.302 388.499 449.04 387.781 448.963C387.075 448.874 386.26 448.822 385.337 448.81C383.925 448.81 382.726 449.014 381.738 449.424C380.763 449.821 380.276 450.448 380.276 451.306C380.276 452.112 380.507 452.727 380.968 453.149C381.443 453.559 382.065 453.828 382.835 453.956C383.618 454.084 384.605 454.148 385.798 454.148Z" fill="#111415"/>
<path d="M408.935 446.582L401.237 460.792H398.12L404.489 449.021H395.156V446.582H408.935Z" fill="#111415"/>
<path d="M417.562 446.544C421.103 446.531 423.476 447.248 424.682 448.694C425.888 450.141 426.491 451.824 426.491 453.745C426.491 455.614 425.882 457.323 424.663 458.872C423.444 460.408 421.077 461.176 417.562 461.176C415.099 461.176 413.194 460.76 411.847 459.928C410.513 459.096 409.627 458.129 409.191 457.028C408.755 455.915 408.556 454.82 408.595 453.745C408.595 451.888 409.204 450.224 410.423 448.752C411.654 447.28 414.034 446.544 417.562 446.544ZM417.581 458.795C418.98 458.795 420.115 458.558 420.987 458.084C421.86 457.598 422.482 456.971 422.854 456.203C423.226 455.434 423.393 454.602 423.354 453.706C423.393 452.848 423.226 452.055 422.854 451.325C422.482 450.595 421.86 450.007 420.987 449.558C420.115 449.098 418.98 448.867 417.581 448.867C416.196 448.867 415.067 449.098 414.195 449.558C413.335 450.007 412.719 450.595 412.347 451.325C411.988 452.055 411.821 452.848 411.847 453.706C411.821 454.602 411.988 455.434 412.347 456.203C412.719 456.971 413.335 457.598 414.195 458.084C415.067 458.558 416.196 458.795 417.581 458.795Z" fill="#111415"/>
<path d="M427.801 457.816H431.111V460.792H427.801V457.816Z" fill="#111415"/>
<path d="M447.472 452.996C448.357 453.252 449.024 453.661 449.473 454.225C449.935 454.775 450.166 455.524 450.166 456.471C450.166 458.366 449.338 459.64 447.684 460.293C446.029 460.946 444.098 461.272 441.891 461.272H441.275C439.813 461.272 438.459 461.176 437.215 460.984C435.984 460.805 434.887 460.363 433.924 459.659C432.962 458.955 432.481 457.899 432.481 456.491C432.468 455.479 432.68 454.698 433.116 454.148C433.565 453.585 434.245 453.181 435.156 452.938C433.732 452.477 433.02 451.543 433.02 450.135C433.02 448.918 433.559 448.022 434.636 447.446C435.727 446.857 436.824 446.499 437.927 446.371C439.03 446.23 440.127 446.153 441.218 446.14C442.334 446.14 443.476 446.211 444.643 446.352C445.823 446.48 446.946 446.838 448.011 447.427C449.088 448.003 449.627 448.899 449.627 450.115C449.627 451.6 448.909 452.56 447.472 452.996ZM441.198 448.214C439.787 448.201 438.588 448.349 437.6 448.656C436.625 448.963 436.137 449.456 436.137 450.135C436.137 450.826 436.638 451.325 437.638 451.632C438.639 451.927 439.851 452.061 441.275 452.036C442.725 452.061 443.95 451.927 444.951 451.632C445.964 451.325 446.471 450.826 446.471 450.135C446.471 449.456 445.958 448.963 444.932 448.656C443.905 448.349 442.661 448.201 441.198 448.214ZM441.237 458.91C442.866 458.936 444.245 458.756 445.374 458.372C446.503 457.976 447.068 457.342 447.068 456.471C447.068 455.588 446.503 454.954 445.374 454.57C444.245 454.173 442.873 453.988 441.256 454.013C439.64 453.988 438.273 454.173 437.157 454.57C436.041 454.954 435.483 455.588 435.483 456.471C435.483 457.342 436.041 457.976 437.157 458.372C438.273 458.756 439.633 458.936 441.237 458.91Z" fill="#111415"/>
<path d="M469.144 458.2V460.792H451.613V459.544C451.613 457.88 451.914 456.612 452.517 455.742C453.12 454.858 453.858 454.257 454.73 453.937C455.615 453.617 456.796 453.335 458.271 453.092C458.72 453.028 459.496 452.925 460.599 452.784C461.716 452.656 462.594 452.535 463.236 452.42C463.89 452.304 464.429 452.125 464.852 451.882C465.288 451.626 465.507 451.28 465.507 450.845C465.507 450.051 464.981 449.469 463.929 449.098C462.889 448.726 461.613 448.547 460.099 448.56C458.649 448.56 457.418 448.784 456.404 449.232C455.391 449.667 454.884 450.359 454.884 451.306L451.613 451.287C451.613 449.981 452.075 448.95 452.998 448.195C453.935 447.427 455.045 446.896 456.327 446.601C457.61 446.307 458.861 446.16 460.08 446.16C462.312 446.16 464.32 446.473 466.103 447.101C467.899 447.715 468.797 448.963 468.797 450.845C468.797 451.856 468.374 452.656 467.527 453.245C466.693 453.834 465.75 454.25 464.698 454.494C463.659 454.737 462.428 454.954 461.004 455.146C460.439 455.21 460.016 455.268 459.734 455.319C458.707 455.422 457.809 455.633 457.039 455.953C456.283 456.273 455.699 456.638 455.288 457.047C454.891 457.444 454.692 457.828 454.692 458.2H469.144Z" fill="#111415"/>
<path d="M485.357 452.996C486.243 453.252 486.91 453.661 487.359 454.225C487.82 454.775 488.051 455.524 488.051 456.471C488.051 458.366 487.224 459.64 485.569 460.293C483.914 460.946 481.983 461.272 479.777 461.272H479.161C477.698 461.272 476.345 461.176 475.101 460.984C473.869 460.805 472.772 460.363 471.81 459.659C470.848 458.955 470.367 457.899 470.367 456.491C470.354 455.479 470.566 454.698 471.002 454.148C471.451 453.585 472.131 453.181 473.042 452.938C471.618 452.477 470.906 451.543 470.906 450.135C470.906 448.918 471.444 448.022 472.522 447.446C473.612 446.857 474.709 446.499 475.813 446.371C476.916 446.23 478.013 446.153 479.103 446.14C480.219 446.14 481.361 446.211 482.529 446.352C483.709 446.48 484.831 446.838 485.896 447.427C486.974 448.003 487.513 448.899 487.513 450.115C487.513 451.6 486.794 452.56 485.357 452.996ZM479.084 448.214C477.673 448.201 476.473 448.349 475.485 448.656C474.51 448.963 474.023 449.456 474.023 450.135C474.023 450.826 474.523 451.325 475.524 451.632C476.525 451.927 477.737 452.061 479.161 452.036C480.611 452.061 481.836 451.927 482.836 451.632C483.85 451.325 484.357 450.826 484.357 450.135C484.357 449.456 483.844 448.963 482.817 448.656C481.791 448.349 480.546 448.201 479.084 448.214ZM479.122 458.91C480.752 458.936 482.131 458.756 483.26 458.372C484.389 457.976 484.953 457.342 484.953 456.471C484.953 455.588 484.389 454.954 483.26 454.57C482.131 454.173 480.758 453.988 479.142 454.013C477.525 453.988 476.159 454.173 475.043 454.57C473.927 454.954 473.369 455.588 473.369 456.471C473.369 457.342 473.927 457.976 475.043 458.372C476.159 458.756 477.519 458.936 479.122 458.91Z" fill="#111415"/>
<path d="M489.46 460.792V457.816H492.75V460.792L491.192 462.674H489.46L491.019 460.792H489.46Z" fill="#111415"/>
<path d="M500.548 446.582V460.792H497.392V451.018H494.178V449.002C495.371 449.002 496.25 448.854 496.814 448.56C497.392 448.265 497.744 447.952 497.873 447.619C498.014 447.273 498.084 446.928 498.084 446.582H500.548Z" fill="#111415"/>
<path d="M515.593 456.087H517.614V458.641H515.593V460.792H512.437V458.641H502.315V456.087L512.437 446.582H515.593V456.087ZM512.437 449.654L505.991 456.087H512.437V449.654Z" fill="#111415"/>
<path d="M372.93 423.443V432.521H370.852V426.841L368.074 432.521H365.996L363.021 426.755V432.521H360.943V423.443H363.451L367.017 430.436L370.434 423.443H372.93Z" fill="#111415"/>
<path d="M382.976 425.835L378.98 434.03C378.759 434.456 378.353 434.734 377.763 434.865C377.181 434.996 376.497 435.061 375.71 435.061V433.307C376.12 433.307 376.402 433.27 376.558 433.196C376.722 433.131 376.804 433.037 376.804 432.914C376.804 432.849 376.783 432.767 376.742 432.669C376.701 432.579 376.673 432.517 376.656 432.485L373.202 425.835H375.365L378.181 431.761L380.812 425.835H382.976Z" fill="#111415"/>
<path d="M396.219 429.037C396.211 429.708 396.067 430.321 395.789 430.878C395.518 431.426 395.137 431.859 394.645 432.178C394.154 432.489 393.592 432.644 392.961 432.644C391.453 432.652 390.346 432.342 389.641 431.712L389.482 432.485H387.773V423.455H389.74V426.596C390.478 425.917 391.551 425.578 392.961 425.578C393.608 425.578 394.178 425.737 394.67 426.056C395.162 426.375 395.539 426.796 395.801 427.32C396.071 427.843 396.211 428.399 396.219 428.988V429.037ZM391.916 431.381C392.408 431.381 392.822 431.266 393.158 431.037C393.502 430.808 393.756 430.514 393.92 430.154C394.092 429.794 394.182 429.418 394.19 429.025C394.182 428.682 394.092 428.346 393.92 428.019C393.756 427.684 393.502 427.406 393.158 427.185C392.813 426.964 392.4 426.854 391.916 426.854C391.49 426.854 391.109 426.956 390.773 427.16C390.445 427.357 390.191 427.631 390.01 427.982C389.83 428.326 389.74 428.71 389.74 429.135V429.148C389.74 429.524 389.83 429.884 390.01 430.227C390.199 430.571 390.457 430.849 390.785 431.062C391.113 431.274 391.49 431.381 391.916 431.381Z" fill="#111415"/>
<path d="M401.26 425.541C402.342 425.541 403.309 425.737 404.161 426.13C405.022 426.522 405.452 427.213 405.452 428.203V432.521H403.657L403.473 431.356C403.342 431.601 403.096 431.822 402.735 432.018C402.374 432.215 401.944 432.37 401.444 432.485C400.944 432.591 400.432 432.644 399.907 432.644C399.276 432.644 398.612 432.513 397.916 432.252C397.219 431.982 396.871 431.405 396.871 430.522C396.871 429.688 397.153 429.135 397.719 428.866C398.284 428.587 398.866 428.448 399.465 428.448C400.801 428.448 401.723 428.44 402.231 428.424C402.747 428.399 403.083 428.354 403.239 428.289C403.403 428.215 403.489 428.093 403.497 427.921V427.798C403.489 427.504 403.26 427.258 402.809 427.062C402.358 426.866 401.838 426.768 401.247 426.768C400.6 426.759 400.051 426.858 399.6 427.062C399.149 427.258 398.924 427.577 398.924 428.019H396.944C396.944 427.389 397.174 426.89 397.633 426.522C398.1 426.154 398.657 425.901 399.305 425.762C399.961 425.614 400.612 425.541 401.26 425.541ZM400.829 431.147C401.813 431.147 402.501 430.943 402.895 430.534C403.288 430.125 403.485 429.647 403.485 429.099C403.083 429.336 402.37 429.454 401.346 429.454C400.739 429.454 400.264 429.475 399.92 429.516C399.584 429.557 399.334 429.634 399.17 429.749C399.006 429.855 398.92 430.015 398.911 430.227C398.928 430.522 399.079 430.751 399.366 430.914C399.653 431.07 400.141 431.147 400.829 431.147Z" fill="#111415"/>
<path d="M408.374 432.521H406.406V423.443H408.374V432.521Z" fill="#111415"/>
<path d="M413.734 425.541C414.816 425.541 415.783 425.737 416.636 426.13C417.496 426.522 417.927 427.213 417.927 428.203V432.521H416.132L415.947 431.356C415.816 431.601 415.57 431.822 415.21 432.018C414.849 432.215 414.419 432.37 413.919 432.485C413.419 432.591 412.906 432.644 412.382 432.644C411.751 432.644 411.087 432.513 410.39 432.252C409.693 431.982 409.345 431.405 409.345 430.522C409.345 429.688 409.628 429.135 410.193 428.866C410.759 428.587 411.341 428.448 411.939 428.448C413.275 428.448 414.197 428.44 414.705 428.424C415.222 428.399 415.558 428.354 415.714 428.289C415.878 428.215 415.964 428.093 415.972 427.921V427.798C415.964 427.504 415.734 427.258 415.283 427.062C414.833 426.866 414.312 426.768 413.722 426.768C413.074 426.759 412.525 426.858 412.074 427.062C411.624 427.258 411.398 427.577 411.398 428.019H409.419C409.419 427.389 409.648 426.89 410.107 426.522C410.575 426.154 411.132 425.901 411.779 425.762C412.435 425.614 413.087 425.541 413.734 425.541ZM413.304 431.147C414.287 431.147 414.976 430.943 415.369 430.534C415.763 430.125 415.959 429.647 415.959 429.099C415.558 429.336 414.845 429.454 413.82 429.454C413.214 429.454 412.738 429.475 412.394 429.516C412.058 429.557 411.808 429.634 411.644 429.749C411.48 429.855 411.394 430.015 411.386 430.227C411.402 430.522 411.554 430.751 411.841 430.914C412.128 431.07 412.615 431.147 413.304 431.147Z" fill="#111415"/>
<path d="M423.811 425.614C424.745 425.614 425.475 425.933 425.999 426.571C426.524 427.201 426.786 428.264 426.786 429.761V432.521H424.819V429.798C424.819 429.274 424.778 428.816 424.696 428.424C424.614 428.031 424.43 427.7 424.143 427.43C423.864 427.152 423.442 427.013 422.877 427.013C422.295 427.013 421.852 427.152 421.549 427.43C421.254 427.7 421.061 428.035 420.971 428.436C420.889 428.837 420.848 429.307 420.848 429.847V432.521H418.881V425.835H420.848V426.719C421.496 425.982 422.483 425.614 423.811 425.614Z" fill="#111415"/>
<path d="M427.497 429.197C427.497 428.51 427.694 427.892 428.087 427.344C428.481 426.788 429.018 426.355 429.698 426.044C430.378 425.733 431.132 425.578 431.96 425.578C433.157 425.578 434.099 425.835 434.788 426.351C435.484 426.858 435.968 427.553 436.238 428.436H434.259C434.152 428.011 433.89 427.651 433.472 427.357C433.062 427.054 432.571 426.903 431.997 426.903C431.218 426.911 430.608 427.128 430.165 427.553C429.722 427.978 429.501 428.526 429.501 429.197C429.501 429.581 429.591 429.953 429.772 430.313C429.96 430.665 430.243 430.951 430.62 431.172C430.997 431.393 431.456 431.499 431.997 431.491C432.579 431.491 433.075 431.344 433.485 431.049C433.894 430.747 434.148 430.387 434.247 429.97H436.226C436.152 430.46 435.915 430.927 435.513 431.368C435.111 431.802 434.595 432.153 433.964 432.423C433.341 432.685 432.673 432.816 431.96 432.816C431.157 432.816 430.415 432.661 429.735 432.35C429.054 432.031 428.509 431.597 428.1 431.049C427.698 430.493 427.497 429.876 427.497 429.197Z" fill="#111415"/>
<path d="M445.641 429.332H438.818C438.842 429.724 438.953 430.088 439.15 430.424C439.346 430.751 439.629 431.017 439.998 431.221C440.367 431.426 440.813 431.528 441.338 431.528C441.772 431.528 442.17 431.45 442.531 431.295C442.891 431.139 443.174 430.939 443.379 430.694C443.584 430.44 443.686 430.174 443.686 429.896H445.641C445.641 430.395 445.469 430.865 445.125 431.307C444.789 431.74 444.293 432.092 443.637 432.362C442.981 432.632 442.207 432.767 441.313 432.767C440.502 432.767 439.752 432.616 439.064 432.313C438.383 432.01 437.838 431.585 437.428 431.037C437.027 430.481 436.826 429.847 436.826 429.135C436.826 428.416 437.023 427.782 437.416 427.234C437.81 426.678 438.346 426.252 439.027 425.958C439.715 425.655 440.477 425.504 441.313 425.504C442.174 425.504 442.928 425.651 443.576 425.946C444.223 426.24 444.727 426.657 445.088 427.197C445.448 427.729 445.633 428.354 445.641 429.074V429.135V429.332ZM441.338 426.743C440.691 426.743 440.174 426.886 439.789 427.173C439.404 427.451 439.129 427.827 438.965 428.301H443.588C443.473 427.827 443.235 427.451 442.875 427.173C442.514 426.886 442.002 426.743 441.338 426.743Z" fill="#111415"/>
<g filter="url(#filter3_d_2006_219)">
<rect x="471.464" y="87.4084" width="178.536" height="122.683" rx="12.2944" fill="#111415"/>
</g>
<path d="M511.713 123.249C516.108 123.233 519.054 124.123 520.551 125.919C522.048 127.714 522.796 129.804 522.796 132.187C522.796 134.507 522.04 136.629 520.527 138.551C519.015 140.458 516.077 141.411 511.713 141.411C508.656 141.411 506.291 140.895 504.619 139.862C502.963 138.829 501.864 137.63 501.323 136.263C500.782 134.881 500.535 133.522 500.583 132.187C500.583 129.883 501.339 127.817 502.852 125.99C504.38 124.163 507.334 123.249 511.713 123.249ZM511.737 138.456C513.473 138.456 514.882 138.162 515.965 137.574C517.048 136.97 517.82 136.192 518.282 135.238C518.744 134.285 518.951 133.252 518.903 132.14C518.951 131.075 518.744 130.09 518.282 129.184C517.82 128.278 517.048 127.547 515.965 126.991C514.882 126.419 513.473 126.133 511.737 126.133C510.018 126.133 508.616 126.419 507.533 126.991C506.466 127.547 505.702 128.278 505.24 129.184C504.794 130.09 504.587 131.075 504.619 132.14C504.587 133.252 504.794 134.285 505.24 135.238C505.702 136.192 506.466 136.97 507.533 137.574C508.616 138.162 510.018 138.456 511.737 138.456Z" fill="#EFEFEF"/>
<path d="M524.423 137.24H528.531V140.935H524.423V137.24Z" fill="#EFEFEF"/>
<path d="M541.291 123.249C545.686 123.233 548.632 124.123 550.129 125.919C551.626 127.714 552.374 129.804 552.374 132.187C552.374 134.507 551.618 136.629 550.105 138.551C548.592 140.458 545.654 141.411 541.291 141.411C538.234 141.411 535.869 140.895 534.197 139.862C532.541 138.829 531.442 137.63 530.901 136.263C530.359 134.881 530.112 133.522 530.16 132.187C530.16 129.883 530.916 127.817 532.429 125.99C533.958 124.163 536.912 123.249 541.291 123.249ZM541.315 138.456C543.051 138.456 544.46 138.162 545.543 137.574C546.625 136.97 547.398 136.192 547.86 135.238C548.321 134.285 548.528 133.252 548.481 132.14C548.528 131.075 548.321 130.09 547.86 129.184C547.398 128.278 546.625 127.547 545.543 126.991C544.46 126.419 543.051 126.133 541.315 126.133C539.595 126.133 538.194 126.419 537.111 126.991C536.044 127.547 535.28 128.278 534.818 129.184C534.372 130.09 534.165 131.075 534.197 132.14C534.165 133.252 534.372 134.285 534.818 135.238C535.28 136.192 536.044 136.97 537.111 137.574C538.194 138.162 539.595 138.456 541.315 138.456Z" fill="#EFEFEF"/>
<path d="M575.832 137.717V140.935H554.072V139.385C554.072 137.32 554.446 135.747 555.195 134.666C555.943 133.57 556.859 132.823 557.942 132.426C559.04 132.028 560.505 131.679 562.337 131.377C562.894 131.297 563.857 131.17 565.227 130.995C566.612 130.837 567.703 130.686 568.499 130.543C569.311 130.4 569.98 130.177 570.506 129.875C571.047 129.557 571.318 129.128 571.318 128.588C571.318 127.603 570.665 126.88 569.359 126.419C568.069 125.958 566.485 125.736 564.606 125.752C562.806 125.752 561.278 126.03 560.02 126.586C558.762 127.126 558.133 127.984 558.133 129.16L554.072 129.136C554.072 127.516 554.645 126.236 555.792 125.299C556.954 124.345 558.332 123.686 559.924 123.321C561.517 122.955 563.069 122.772 564.582 122.772C567.353 122.772 569.845 123.162 572.058 123.94C574.288 124.703 575.402 126.252 575.402 128.588C575.402 129.843 574.877 130.837 573.826 131.568C572.791 132.298 571.62 132.815 570.315 133.117C569.025 133.419 567.496 133.689 565.728 133.927C565.028 134.007 564.502 134.078 564.152 134.142C562.878 134.269 561.763 134.531 560.808 134.928C559.868 135.326 559.144 135.778 558.634 136.287C558.141 136.779 557.894 137.256 557.894 137.717H575.832Z" fill="#EFEFEF"/>
<path d="M599.349 135.095C599.333 137.304 598.33 138.917 596.34 139.934C594.349 140.951 591.754 141.459 588.553 141.459C586.196 141.459 584.182 141.165 582.51 140.577C580.838 139.989 579.564 139.139 578.688 138.027C577.828 136.915 577.398 135.588 577.398 134.046H581.315C581.315 135.54 582.016 136.636 583.417 137.336C584.819 138.035 586.531 138.384 588.553 138.384C590.4 138.4 591.977 138.146 593.282 137.622C594.588 137.081 595.249 136.231 595.265 135.071C595.249 134.579 595.122 134.213 594.883 133.975C594.66 133.721 594.166 133.538 593.402 133.427C592.637 133.3 591.451 133.236 589.843 133.236H585.424V130.28H589.843C590.957 130.28 591.865 130.241 592.566 130.161C593.282 130.066 593.864 129.875 594.309 129.589C594.755 129.303 594.978 128.866 594.978 128.278C594.978 127.468 594.357 126.864 593.115 126.467C591.873 126.07 590.352 125.855 588.553 125.823C586.531 125.807 584.819 126.03 583.417 126.491C582.016 126.936 581.315 127.659 581.315 128.66H577.398C577.398 126.371 578.553 124.822 580.862 124.012C583.187 123.185 585.75 122.772 588.553 122.772C590.257 122.772 591.841 122.884 593.306 123.106C594.787 123.313 596.085 123.805 597.2 124.584C598.314 125.362 598.872 126.514 598.872 128.04C598.872 129.724 598.147 130.876 596.698 131.496C598.402 132.116 599.286 133.3 599.349 135.047V135.095Z" fill="#EFEFEF"/>
<path d="M605.177 140.935H601.116L616.642 124.25H620.703L605.177 140.935ZM606.228 131.973C605.543 131.973 604.906 131.806 604.317 131.472C603.728 131.123 603.258 130.654 602.908 130.066C602.573 129.478 602.406 128.842 602.406 128.159C602.406 127.476 602.573 126.84 602.908 126.252C603.258 125.664 603.728 125.204 604.317 124.87C604.906 124.52 605.543 124.345 606.228 124.345C606.913 124.345 607.55 124.52 608.139 124.87C608.728 125.204 609.19 125.664 609.524 126.252C609.875 126.84 610.05 127.476 610.05 128.159C610.05 128.842 609.875 129.478 609.524 130.066C609.19 130.654 608.728 131.123 608.139 131.472C607.55 131.806 606.913 131.973 606.228 131.973ZM606.228 129.685C606.642 129.685 607 129.534 607.303 129.232C607.605 128.93 607.757 128.572 607.757 128.159C607.757 127.746 607.605 127.388 607.303 127.086C607 126.785 606.642 126.634 606.228 126.634C605.814 126.634 605.456 126.785 605.153 127.086C604.851 127.388 604.699 127.746 604.699 128.159C604.699 128.572 604.851 128.93 605.153 129.232C605.456 129.534 605.814 129.685 606.228 129.685ZM615.591 140.792C614.907 140.792 614.27 140.625 613.68 140.291C613.091 139.942 612.621 139.473 612.271 138.885C611.937 138.297 611.769 137.661 611.769 136.978C611.769 136.295 611.937 135.659 612.271 135.071C612.621 134.483 613.091 134.023 613.68 133.689C614.27 133.339 614.907 133.164 615.591 133.164C616.276 133.164 616.913 133.339 617.502 133.689C618.091 134.023 618.553 134.483 618.887 135.071C619.238 135.659 619.413 136.295 619.413 136.978C619.413 137.661 619.238 138.297 618.887 138.885C618.553 139.473 618.091 139.942 617.502 140.291C616.913 140.625 616.276 140.792 615.591 140.792ZM615.591 138.48C616.005 138.48 616.356 138.329 616.642 138.027C616.945 137.725 617.096 137.375 617.096 136.978C617.096 136.565 616.945 136.215 616.642 135.929C616.356 135.627 616.005 135.476 615.591 135.476C615.193 135.476 614.843 135.627 614.54 135.929C614.238 136.215 614.086 136.565 614.086 136.978C614.086 137.375 614.238 137.725 614.54 138.027C614.843 138.329 615.193 138.48 615.591 138.48Z" fill="#EFEFEF"/>
<path d="M515.149 167.152V177.02H512.891V170.846L509.87 177.02H507.612L504.378 170.753V177.02H502.12V167.152H504.846L508.721 174.753L512.436 167.152H515.149Z" fill="#57C7FF"/>
<path d="M529.007 177.02H526.655L525.519 174.927H519.278L518.143 177.02H515.791L521.149 167.152H523.648L529.007 177.02ZM522.405 169.179L520.267 173.1H524.53L522.405 169.179Z" fill="#57C7FF"/>
<path d="M533.799 171.673L539.986 177.02H536.872L531.901 172.58V177.02H529.643V167.152H531.901V170.846L536.618 167.152H539.786L533.799 171.673Z" fill="#57C7FF"/>
<path d="M549.625 172.807H542.889V175.247L550.747 175.207V177.02H540.631V167.152H550.747L550.761 168.966H542.889V171.006H549.625V172.807Z" fill="#57C7FF"/>
<path d="M560.497 176.994L557.757 173.807H554.216V176.994H551.998V167.126H558.987C559.815 167.126 560.546 167.264 561.178 167.539C561.82 167.815 562.314 168.202 562.662 168.699C563.018 169.188 563.196 169.757 563.196 170.406V170.46C563.196 171.304 562.947 172.002 562.448 172.553C561.958 173.104 561.276 173.473 560.403 173.66L563.277 176.994H560.497ZM560.925 170.513C560.925 170.006 560.827 169.637 560.631 169.406C560.443 169.175 560.203 169.033 559.909 168.979C559.615 168.926 559.201 168.899 558.666 168.899C558.426 168.899 558.221 168.904 558.051 168.913C556.849 168.939 555.57 168.953 554.216 168.953V172.033H558.666C559.201 172.033 559.615 172.011 559.909 171.966C560.203 171.913 560.443 171.78 560.631 171.566C560.827 171.344 560.925 170.993 560.925 170.513Z" fill="#57C7FF"/>
<defs>
<filter id="filter0_d_2006_219" x="74.3009" y="132.195" width="498.191" height="317.573" filterUnits="userSpaceOnUse" color-interpolation-filters="sRGB">
<feFlood flood-opacity="0" result="BackgroundImageFix"/>
<feColorMatrix in="SourceAlpha" type="matrix" values="0 0 0 0 0 0 0 0 0 0 0 0 0 0 0 0 0 0 127 0" result="hardAlpha"/>
<feMorphology radius="11.2253" operator="dilate" in="SourceAlpha" result="effect1_dropShadow_2006_219"/>
<feOffset dx="-37.4178" dy="37.4178"/>
<feGaussianBlur stdDeviation="17.6398"/>
<feComposite in2="hardAlpha" operator="out"/>
<feColorMatrix type="matrix" values="0 0 0 0 0.0666667 0 0 0 0 0.0784314 0 0 0 0 0.0823529 0 0 0 0.53 0"/>
<feBlend mode="normal" in2="BackgroundImageFix" result="effect1_dropShadow_2006_219"/>
<feBlend mode="normal" in="SourceGraphic" in2="effect1_dropShadow_2006_219" result="shape"/>
</filter>
<filter id="filter1_d_2006_219" x="53.7211" y="0.945773" width="331.414" height="285.009" filterUnits="userSpaceOnUse" color-interpolation-filters="sRGB">
<feFlood flood-opacity="0" result="BackgroundImageFix"/>
<feColorMatrix in="SourceAlpha" type="matrix" values="0 0 0 0 0 0 0 0 0 0 0 0 0 0 0 0 0 0 127 0" result="hardAlpha"/>
<feMorphology radius="4.81085" operator="dilate" in="SourceAlpha" result="effect1_dropShadow_2006_219"/>
<feOffset dx="16.0362" dy="16.0362"/>
<feGaussianBlur stdDeviation="17.6398"/>
<feComposite in2="hardAlpha" operator="out"/>
<feColorMatrix type="matrix" values="0 0 0 0 0.0666667 0 0 0 0 0.0784314 0 0 0 0 0.0823529 0 0 0 0.53 0"/>
<feBlend mode="normal" in2="BackgroundImageFix" result="effect1_dropShadow_2006_219"/>
<feBlend mode="normal" in="SourceGraphic" in2="effect1_dropShadow_2006_219" result="shape"/>
</filter>
<filter id="filter2_d_2006_219" x="288.117" y="380.197" width="298.273" height="158.591" filterUnits="userSpaceOnUse" color-interpolation-filters="sRGB">
<feFlood flood-opacity="0" result="BackgroundImageFix"/>
<feColorMatrix in="SourceAlpha" type="matrix" values="0 0 0 0 0 0 0 0 0 0 0 0 0 0 0 0 0 0 127 0" result="hardAlpha"/>
<feMorphology radius="4.81085" operator="dilate" in="SourceAlpha" result="effect1_dropShadow_2006_219"/>
<feOffset dx="-16.0362" dy="16.0362"/>
<feGaussianBlur stdDeviation="17.6398"/>
<feComposite in2="hardAlpha" operator="out"/>
<feColorMatrix type="matrix" values="0 0 0 0 0.0666667 0 0 0 0 0.0784314 0 0 0 0 0.0823529 0 0 0 0.53 0"/>
<feBlend mode="normal" in2="BackgroundImageFix" result="effect1_dropShadow_2006_219"/>
<feBlend mode="normal" in="SourceGraphic" in2="effect1_dropShadow_2006_219" result="shape"/>
</filter>
<filter id="filter3_d_2006_219" x="415.337" y="63.3542" width="258.717" height="202.864" filterUnits="userSpaceOnUse" color-interpolation-filters="sRGB">
<feFlood flood-opacity="0" result="BackgroundImageFix"/>
<feColorMatrix in="SourceAlpha" type="matrix" values="0 0 0 0 0 0 0 0 0 0 0 0 0 0 0 0 0 0 127 0" result="hardAlpha"/>
<feMorphology radius="4.81085" operator="dilate" in="SourceAlpha" result="effect1_dropShadow_2006_219"/>
<feOffset dx="-16.0362" dy="16.0362"/>
<feGaussianBlur stdDeviation="17.6398"/>
<feComposite in2="hardAlpha" operator="out"/>
<feColorMatrix type="matrix" values="0 0 0 0 0.0666667 0 0 0 0 0.0784314 0 0 0 0 0.0823529 0 0 0 0.53 0"/>
<feBlend mode="normal" in2="BackgroundImageFix" result="effect1_dropShadow_2006_219"/>
<feBlend mode="normal" in="SourceGraphic" in2="effect1_dropShadow_2006_219" result="shape"/>
</filter>
<linearGradient id="paint0_linear_2006_219" x1="203.392" y1="60.8249" x2="203.259" y2="197.377" gradientUnits="userSpaceOnUse">
<stop stop-color="#57C7FF" stop-opacity="0.4"/>
<stop offset="0.857032" stop-color="#57C7FF" stop-opacity="0"/>
</linearGradient>
</defs>
</svg>
