<svg width="558" height="292" viewBox="0 0 558 292" fill="none" xmlns="http://www.w3.org/2000/svg">
<path d="M0 28C0 12.536 12.536 0 28 0H530C545.464 0 558 12.536 558 28V264C558 279.464 545.464 292 530 292H28C12.536 292 0 279.464 0 264V28Z" fill="#111415"/>
<path d="M0 27C0 12.0883 12.0883 0 27 0H531C545.912 0 558 12.0883 558 27H0Z" fill="#57C7FF"/>
<circle cx="45.382" cy="14.0338" r="4.91172" fill="#EFEFEF"/>
<circle cx="71.344" cy="14.0338" r="4.91172" fill="#EFEFEF"/>
<circle cx="95.9026" cy="14.0338" r="4.91172" fill="#EFEFEF"/>
<rect x="222.76" y="9.12207" width="294.703" height="9.12177" fill="#EFEFEF"/>
<rect x="166" y="89" width="226" height="30.3736" rx="15.1868" fill="#EFEFEF"/>
<rect x="166" y="139.966" width="226" height="30.3736" rx="15.1868" fill="#EFEFEF"/>
<rect x="206.155" y="199.902" width="149.294" height="30.3736" rx="15.1868" fill="#57C7FF"/>
<g clip-path="url(#clip0_54_382)">
<path d="M193.92 154.586C193.627 154.293 193.271 154.146 192.851 154.146H192.348V151.128C192.348 149.199 191.657 147.543 190.273 146.16C188.89 144.776 187.234 144.084 185.305 144.084C183.376 144.084 181.72 144.776 180.337 146.159C178.953 147.543 178.262 149.199 178.262 151.128V154.146H177.759C177.34 154.146 176.983 154.293 176.69 154.586C176.396 154.88 176.249 155.236 176.249 155.656V164.712C176.249 165.131 176.396 165.487 176.69 165.781C176.983 166.074 177.34 166.221 177.759 166.221H192.852C193.271 166.221 193.627 166.074 193.921 165.781C194.214 165.487 194.361 165.131 194.361 164.712V155.656C194.361 155.236 194.214 154.88 193.92 154.586ZM189.33 154.146H181.28V151.128C181.28 150.017 181.673 149.068 182.46 148.282C183.246 147.496 184.194 147.103 185.305 147.103C186.416 147.103 187.365 147.496 188.151 148.282C188.937 149.068 189.33 150.017 189.33 151.128V154.146Z" fill="#111415"/>
</g>
<path d="M207.336 97.4249V106.158H214.718V108.178H204.88V97.4249H207.336Z" fill="#111415"/>
<path d="M220.988 99.9242C221.967 99.9242 222.848 100.108 223.633 100.476C224.427 100.845 225.047 101.358 225.493 102.017C225.938 102.666 226.161 103.397 226.161 104.211C226.161 105.015 225.938 105.746 225.493 106.405C225.047 107.054 224.427 107.563 223.633 107.931C222.848 108.299 221.967 108.483 220.988 108.483C220.049 108.483 219.167 108.299 218.344 107.931C217.52 107.553 216.861 107.039 216.367 106.39C215.873 105.732 215.626 105.005 215.626 104.211C215.626 103.407 215.873 102.68 216.367 102.031C216.861 101.372 217.515 100.859 218.329 100.491C219.152 100.113 220.039 99.9242 220.988 99.9242ZM221.003 106.914C221.797 106.914 222.47 106.691 223.023 106.245C223.575 105.8 223.851 105.121 223.851 104.211C223.851 103.3 223.575 102.622 223.023 102.177C222.47 101.721 221.797 101.494 221.003 101.494C220.499 101.494 220.015 101.59 219.55 101.784C219.094 101.978 218.717 102.278 218.416 102.685C218.126 103.092 217.98 103.601 217.98 104.211C217.98 104.821 218.126 105.33 218.416 105.737C218.717 106.143 219.094 106.444 219.55 106.637C220.015 106.822 220.499 106.914 221.003 106.914Z" fill="#111415"/>
<path d="M236.877 100.258V108.178C236.848 108.943 236.591 109.558 236.107 110.023C235.632 110.488 235.056 110.813 234.377 110.997C233.709 111.181 233.026 111.273 232.329 111.273C231.282 111.273 230.435 111.234 229.786 111.157C229.137 111.089 228.555 110.871 228.042 110.503C227.538 110.135 227.286 109.548 227.286 108.744H229.669C229.679 109.393 230.357 109.718 231.704 109.718L232.329 109.703C232.842 109.703 233.336 109.592 233.811 109.369C234.295 109.146 234.537 108.701 234.537 108.032V107.291C233.704 108.057 232.45 108.439 230.774 108.439C230.028 108.439 229.359 108.25 228.769 107.873C228.187 107.485 227.727 106.981 227.388 106.361C227.059 105.741 226.884 105.088 226.865 104.4V104.298C226.875 103.504 227.044 102.787 227.374 102.147C227.703 101.508 228.163 101.004 228.754 100.636C229.345 100.268 230.018 100.084 230.774 100.084C232.488 100.036 233.748 100.394 234.552 101.159L234.813 100.258H236.877ZM231.98 106.928C232.755 106.928 233.375 106.696 233.84 106.231C234.305 105.756 234.537 105.063 234.537 104.153V104.109C234.537 103.683 234.436 103.276 234.232 102.889C234.029 102.501 233.743 102.186 233.375 101.944C233.007 101.702 232.585 101.581 232.111 101.581C231.529 101.581 231.031 101.702 230.614 101.944C230.197 102.186 229.878 102.516 229.655 102.932C229.442 103.339 229.33 103.789 229.321 104.283C229.34 105.058 229.582 105.693 230.047 106.187C230.512 106.681 231.156 106.928 231.98 106.928Z" fill="#111415"/>
<path d="M240.377 97.4249H238.052V99.1832H240.377V97.4249ZM240.377 108.178H238.052V99.6046H240.377V108.178Z" fill="#111415"/>
<path d="M247.341 99.9969C248.446 99.9969 249.308 100.375 249.928 101.13C250.548 101.876 250.858 103.136 250.858 104.908V108.178H248.533V104.952C248.533 104.332 248.484 103.789 248.388 103.324C248.291 102.859 248.073 102.467 247.734 102.147C247.404 101.818 246.905 101.653 246.237 101.653C245.549 101.653 245.026 101.818 244.668 102.147C244.319 102.467 244.091 102.864 243.985 103.339C243.888 103.814 243.839 104.371 243.839 105.01V108.178H241.514V100.258H243.839V101.305C244.605 100.433 245.772 99.9969 247.341 99.9969Z" fill="#111415"/>
<path d="M257.125 212.96C258.405 212.96 259.47 213.016 260.32 213.129C261.181 213.241 261.908 213.518 262.502 213.958C263.106 214.388 263.408 215.049 263.408 215.94C263.408 217.507 262.727 218.561 261.365 219.104C260.003 219.647 258.472 219.918 256.772 219.918C255.83 219.918 254.847 219.816 253.823 219.611C252.799 219.416 251.892 219.017 251.104 218.413C250.315 217.798 249.921 216.933 249.921 215.817L252.624 215.771C252.624 216.416 252.875 216.897 253.377 217.215C253.879 217.522 254.427 217.711 255.021 217.783C255.615 217.855 256.255 217.891 256.941 217.891C257.986 217.891 258.882 217.747 259.629 217.46C260.377 217.163 260.756 216.677 260.766 216.001V215.986C260.766 215.658 260.556 215.412 260.136 215.248C259.726 215.085 259.271 214.987 258.769 214.957C258.267 214.916 257.658 214.89 256.941 214.88H256.603C255.149 214.88 253.976 214.823 253.085 214.711C252.194 214.598 251.442 214.317 250.827 213.866C250.223 213.405 249.921 212.688 249.921 211.715C249.921 210.128 250.628 209.089 252.041 208.597C253.464 208.106 255.041 207.86 256.772 207.86C257.694 207.86 258.646 207.962 259.629 208.167C260.623 208.362 261.498 208.766 262.256 209.38C263.024 209.985 263.408 210.845 263.408 211.961H260.72C260.72 211.306 260.341 210.814 259.583 210.486C258.825 210.149 257.904 209.959 256.818 209.918C255.63 209.918 254.621 210.062 253.792 210.348C252.973 210.625 252.563 211.065 252.563 211.669C252.563 212.202 252.952 212.55 253.73 212.714C254.519 212.878 255.451 212.96 256.526 212.96H257.125Z" fill="#EFEFEF"/>
<path d="M266.977 208.198H264.519V210.056H266.977V208.198ZM266.977 219.565H264.519V210.502H266.977V219.565Z" fill="#EFEFEF"/>
<path d="M278.532 211.193V219.565C278.502 220.374 278.23 221.024 277.718 221.516C277.217 222.007 276.607 222.35 275.89 222.545C275.184 222.74 274.462 222.837 273.724 222.837C272.618 222.837 271.722 222.796 271.036 222.714C270.35 222.642 269.736 222.412 269.193 222.023C268.66 221.634 268.394 221.014 268.394 220.164H270.913C270.924 220.85 271.64 221.193 273.064 221.193L273.724 221.178C274.267 221.178 274.789 221.06 275.291 220.825C275.803 220.589 276.059 220.118 276.059 219.411V218.628C275.179 219.437 273.852 219.841 272.081 219.841C271.292 219.841 270.586 219.642 269.961 219.242C269.347 218.833 268.86 218.3 268.502 217.645C268.153 216.989 267.969 216.298 267.949 215.571V215.464C267.959 214.624 268.138 213.866 268.486 213.19C268.834 212.514 269.321 211.982 269.946 211.593C270.57 211.203 271.282 211.009 272.081 211.009C273.893 210.958 275.225 211.336 276.075 212.146L276.351 211.193H278.532ZM273.356 218.244C274.175 218.244 274.83 217.998 275.322 217.507C275.814 217.005 276.059 216.273 276.059 215.31V215.264C276.059 214.813 275.952 214.383 275.737 213.973C275.522 213.564 275.22 213.231 274.83 212.975C274.441 212.719 273.996 212.591 273.494 212.591C272.88 212.591 272.352 212.719 271.912 212.975C271.471 213.231 271.134 213.579 270.898 214.02C270.673 214.45 270.555 214.926 270.545 215.448C270.565 216.267 270.821 216.938 271.313 217.46C271.804 217.983 272.485 218.244 273.356 218.244Z" fill="#EFEFEF"/>
<path d="M285.935 210.917C287.102 210.917 288.014 211.316 288.669 212.115C289.324 212.903 289.652 214.235 289.652 216.109V219.565H287.194V216.155C287.194 215.499 287.143 214.926 287.041 214.434C286.938 213.943 286.708 213.528 286.35 213.19C286.001 212.842 285.474 212.668 284.767 212.668C284.04 212.668 283.487 212.842 283.108 213.19C282.74 213.528 282.499 213.948 282.386 214.45C282.284 214.951 282.233 215.54 282.233 216.216V219.565H279.775V211.193H282.233V212.299C283.042 211.377 284.276 210.917 285.935 210.917Z" fill="#EFEFEF"/>
<path d="M298.419 208.198H295.961V210.056H298.419V208.198ZM298.419 219.565H295.961V210.502H298.419V219.565Z" fill="#EFEFEF"/>
<path d="M305.781 210.917C306.949 210.917 307.86 211.316 308.516 212.115C309.171 212.903 309.499 214.235 309.499 216.109V219.565H307.041V216.155C307.041 215.499 306.99 214.926 306.887 214.434C306.785 213.943 306.554 213.528 306.196 213.19C305.848 212.842 305.32 212.668 304.614 212.668C303.887 212.668 303.334 212.842 302.955 213.19C302.586 213.528 302.345 213.948 302.233 214.45C302.13 214.951 302.079 215.54 302.079 216.216V219.565H299.621V211.193H302.079V212.299C302.888 211.377 304.122 210.917 305.781 210.917Z" fill="#EFEFEF"/>
<g clip-path="url(#clip1_54_382)">
<path d="M188.747 106.309H181.864C178.34 106.309 175.486 109.163 175.486 112.686C175.486 114.104 176.636 115.254 178.054 115.254H192.556C193.974 115.254 195.124 114.104 195.124 112.686C195.124 109.163 192.27 106.309 188.747 106.309Z" fill="#111415"/>
<path d="M185.305 104.489C188.445 104.489 190.991 101.943 190.991 98.8034C190.991 95.6634 188.445 93.1179 185.305 93.1179C182.165 93.1179 179.62 95.6634 179.62 98.8034C179.62 101.943 182.165 104.489 185.305 104.489Z" fill="#111415"/>
</g>
<circle cx="208.472" cy="155.153" r="3.34624" fill="#111415"/>
<circle cx="222.886" cy="155.153" r="3.34624" fill="#111415"/>
<circle cx="237.301" cy="155.153" r="3.34624" fill="#111415"/>
<circle cx="251.715" cy="155.153" r="3.34624" fill="#111415"/>
<circle cx="266.13" cy="155.153" r="3.34624" fill="#111415"/>
<circle cx="280.544" cy="155.153" r="3.34624" fill="#111415"/>
<circle cx="294.959" cy="155.153" r="3.34624" fill="#111415"/>
<defs>
<clipPath id="clip0_54_382">
<rect width="22.1367" height="22.1367" fill="white" transform="translate(174.237 144.084)"/>
</clipPath>
<clipPath id="clip1_54_382">
<rect width="22.1367" height="22.1367" fill="white" transform="translate(174.237 93.1184)"/>
</clipPath>
</defs>
</svg>
