<svg width="558" height="292" viewBox="0 0 558 292" fill="none" xmlns="http://www.w3.org/2000/svg">
<rect width="558" height="292" rx="28" fill="#111415"/>
<path d="M5 278L135.879 175.76L200.321 188.729L267.76 175.76L328.206 145.833L390.65 170.274L459.088 116.404L516.536 101.441L557 77" stroke="#57C7FF" stroke-width="2" stroke-linecap="round" stroke-linejoin="round"/>
<path d="M328.176 250.499L379.607 219.999L472.5 214L558 179V264C558 279.464 545.464 292 530 292L33.5 291.999L120.454 237.999L205.34 236.499L262.264 219.999L328.176 250.499Z" fill="#57C7FF"/>
<path d="M30.527 132.906V131.001H41.8505L30.527 132.906ZM41.8505 131.001V132.947H37.3643V141H35.0807V132.947H30.527V131.001H41.8505Z" fill="#EFEFEF" fill-opacity="0.6"/>
<path d="M45.59 133.325C46.4998 133.325 47.3196 133.496 48.0493 133.838C48.788 134.181 49.3645 134.658 49.7789 135.271C50.1933 135.874 50.4005 136.554 50.4005 137.311C50.4005 138.059 50.1933 138.739 49.7789 139.352C49.3645 139.955 48.788 140.428 48.0493 140.77C47.3196 141.113 46.4998 141.284 45.59 141.284C44.7162 141.284 43.8964 141.113 43.1307 140.77C42.365 140.419 41.7524 139.942 41.293 139.338C40.8336 138.725 40.6039 138.05 40.6039 137.311C40.6039 136.563 40.8336 135.888 41.293 135.284C41.7524 134.672 42.3605 134.194 43.1172 133.852C43.8829 133.501 44.7072 133.325 45.59 133.325ZM45.6035 139.824C46.3422 139.824 46.9683 139.617 47.4817 139.203C47.9952 138.789 48.252 138.158 48.252 137.311C48.252 136.464 47.9952 135.834 47.4817 135.419C46.9683 134.996 46.3422 134.784 45.6035 134.784C45.1351 134.784 44.6847 134.874 44.2523 135.055C43.8289 135.235 43.4775 135.514 43.1983 135.892C42.928 136.271 42.7929 136.744 42.7929 137.311C42.7929 137.879 42.928 138.352 43.1983 138.73C43.4775 139.108 43.8289 139.388 44.2523 139.568C44.6847 139.739 45.1351 139.824 45.6035 139.824Z" fill="#EFEFEF" fill-opacity="0.6"/>
<path d="M54.4159 133.636H55.8212V135.284H54.4159V141H52.2539V135.284H50.781V133.636H52.2539V132.041L54.4159 130.785V133.636Z" fill="#EFEFEF" fill-opacity="0.6"/>
<path d="M61.502 133.311C62.6911 133.311 63.7541 133.528 64.6909 133.96C65.6368 134.392 66.1097 135.154 66.1097 136.244V141H64.1369L63.9342 139.716C63.7901 139.987 63.5198 140.23 63.1235 140.446C62.7271 140.662 62.2542 140.833 61.7046 140.96C61.1551 141.077 60.5921 141.135 60.0156 141.135C59.3219 141.135 58.5923 140.991 57.8265 140.703C57.0608 140.406 56.678 139.77 56.678 138.798C56.678 137.879 56.9888 137.271 57.6103 136.973C58.2319 136.667 58.8715 136.514 59.5291 136.514C60.9975 136.514 62.0109 136.505 62.5695 136.487C63.137 136.46 63.5063 136.41 63.6775 136.338C63.8576 136.257 63.9522 136.122 63.9612 135.933V135.798C63.9522 135.473 63.7 135.203 63.2045 134.987C62.7091 134.771 62.137 134.663 61.4884 134.663C60.7768 134.654 60.1732 134.762 59.6778 134.987C59.1823 135.203 58.9346 135.555 58.9346 136.041H56.7591C56.7591 135.347 57.0113 134.798 57.5158 134.392C58.0292 133.987 58.6418 133.708 59.3535 133.555C60.0741 133.393 60.7903 133.311 61.502 133.311ZM61.029 139.487C62.11 139.487 62.8667 139.261 63.2991 138.811C63.7315 138.361 63.9477 137.834 63.9477 137.23C63.5063 137.491 62.7226 137.622 61.5965 137.622C60.9299 137.622 60.4074 137.644 60.0291 137.69C59.6597 137.735 59.385 137.82 59.2048 137.946C59.0247 138.063 58.9301 138.239 58.9211 138.473C58.9391 138.798 59.1057 139.05 59.421 139.23C59.7363 139.401 60.2723 139.487 61.029 139.487Z" fill="#EFEFEF" fill-opacity="0.6"/>
<path d="M69.3207 141H67.1586V131.001H69.3207V141Z" fill="#EFEFEF" fill-opacity="0.6"/>
<path d="M77.2514 131.001H75.0893V132.636H77.2514V131.001ZM77.2514 141H75.0893V133.028H77.2514V141Z" fill="#EFEFEF" fill-opacity="0.6"/>
<path d="M83.7277 133.393C84.7546 133.393 85.5564 133.744 86.1329 134.446C86.7094 135.14 86.9977 136.311 86.9977 137.96V141H84.8357V138C84.8357 137.424 84.7906 136.919 84.7006 136.487C84.6105 136.054 84.4078 135.69 84.0925 135.392C83.7862 135.086 83.3223 134.933 82.7007 134.933C82.0611 134.933 81.5747 135.086 81.2414 135.392C80.917 135.69 80.7054 136.059 80.6063 136.5C80.5162 136.942 80.4711 137.46 80.4711 138.054V141H78.3091V133.636H80.4711V134.609C81.1828 133.798 82.2683 133.393 83.7277 133.393Z" fill="#EFEFEF" fill-opacity="0.6"/>
<path d="M91.8128 139.257L94.2451 133.636L96.7043 133.622L93.083 141H90.5291L86.9213 133.636H89.3806L91.8128 139.257Z" fill="#EFEFEF" fill-opacity="0.6"/>
<path d="M106.098 137.487H98.5981C98.6251 137.919 98.7467 138.32 98.9629 138.689C99.1791 139.05 99.4899 139.343 99.8953 139.568C100.301 139.793 100.792 139.906 101.368 139.906C101.846 139.906 102.283 139.82 102.679 139.649C103.075 139.478 103.386 139.257 103.611 138.987C103.836 138.707 103.949 138.415 103.949 138.108H106.098C106.098 138.658 105.908 139.176 105.53 139.662C105.161 140.14 104.616 140.527 103.895 140.824C103.174 141.122 102.323 141.27 101.341 141.27C100.449 141.27 99.6251 141.104 98.8684 140.77C98.1207 140.437 97.5216 139.969 97.0712 139.365C96.6298 138.752 96.4091 138.054 96.4091 137.271C96.4091 136.478 96.6253 135.78 97.0577 135.176C97.4901 134.564 98.0801 134.095 98.8278 133.771C99.5845 133.438 100.422 133.271 101.341 133.271C102.287 133.271 103.116 133.433 103.827 133.757C104.539 134.082 105.093 134.541 105.49 135.136C105.886 135.721 106.089 136.41 106.098 137.203V137.271V137.487ZM101.368 134.636C100.657 134.636 100.089 134.793 99.6656 135.109C99.2422 135.415 98.9404 135.829 98.7603 136.352H103.841C103.715 135.829 103.454 135.415 103.057 135.109C102.661 134.793 102.098 134.636 101.368 134.636Z" fill="#EFEFEF" fill-opacity="0.6"/>
<path d="M112.308 136.703C112.975 136.703 113.556 136.748 114.051 136.838C114.556 136.928 114.975 137.126 115.308 137.433C115.641 137.73 115.808 138.171 115.808 138.757C115.808 139.82 115.362 140.514 114.47 140.838C113.578 141.153 112.529 141.311 111.322 141.311C110.151 141.311 109.079 141.126 108.106 140.757C107.133 140.378 106.647 139.658 106.647 138.595L108.822 138.608C108.822 139.077 109.074 139.415 109.579 139.622C110.083 139.82 110.664 139.919 111.322 139.919C112.187 139.919 112.799 139.833 113.16 139.662C113.52 139.491 113.7 139.221 113.7 138.852C113.7 138.473 113.493 138.235 113.078 138.135C112.673 138.036 112.155 137.987 111.525 137.987H111.187C109.926 137.978 108.854 137.82 107.971 137.514C107.088 137.208 106.647 136.599 106.647 135.69C106.647 134.717 107.11 134.082 108.038 133.784C108.975 133.487 110.056 133.338 111.281 133.338C112.443 133.338 113.488 133.523 114.416 133.892C115.344 134.262 115.808 134.978 115.808 136.041L113.646 136.014C113.646 135.491 113.367 135.145 112.808 134.973C112.25 134.793 111.736 134.703 111.268 134.703C110.61 134.703 110.038 134.766 109.552 134.892C109.065 135.01 108.822 135.266 108.822 135.663C108.822 136.365 109.624 136.717 111.227 136.717L112.308 136.703Z" fill="#EFEFEF" fill-opacity="0.6"/>
<path d="M120.21 133.636H121.616V135.284H120.21V141H118.048V135.284H116.575V133.636H118.048V132.041L120.21 130.785V133.636Z" fill="#EFEFEF" fill-opacity="0.6"/>
<path d="M131.957 133.325C132.867 133.325 133.686 133.496 134.416 133.838C135.155 134.181 135.731 134.658 136.146 135.271C136.56 135.874 136.767 136.554 136.767 137.311C136.767 138.059 136.56 138.739 136.146 139.352C135.731 139.955 135.155 140.428 134.416 140.77C133.686 141.113 132.867 141.284 131.957 141.284C131.083 141.284 130.263 141.113 129.497 140.77C128.732 140.419 128.119 139.942 127.66 139.338C127.2 138.725 126.971 138.05 126.971 137.311C126.971 136.563 127.2 135.888 127.66 135.284C128.119 134.672 128.727 134.194 129.484 133.852C130.25 133.501 131.074 133.325 131.957 133.325ZM131.97 139.824C132.709 139.824 133.335 139.617 133.849 139.203C134.362 138.789 134.619 138.158 134.619 137.311C134.619 136.464 134.362 135.834 133.849 135.419C133.335 134.996 132.709 134.784 131.97 134.784C131.502 134.784 131.051 134.874 130.619 135.055C130.196 135.235 129.844 135.514 129.565 135.892C129.295 136.271 129.16 136.744 129.16 137.311C129.16 137.879 129.295 138.352 129.565 138.73C129.844 139.108 130.196 139.388 130.619 139.568C131.051 139.739 131.502 139.824 131.97 139.824Z" fill="#EFEFEF" fill-opacity="0.6"/>
<path d="M142.485 134.338V135.987H140.864V141H138.702V135.987H137.148V134.338H138.702V133.528C138.702 132.456 138.999 131.726 139.594 131.339C140.197 130.951 140.877 130.758 141.634 130.758C141.895 130.758 142.129 130.776 142.337 130.812V132.744C141.886 132.744 141.562 132.78 141.364 132.852C141.175 132.915 141.044 133.055 140.972 133.271C140.909 133.478 140.873 133.834 140.864 134.338H142.485Z" fill="#EFEFEF" fill-opacity="0.6"/>
<path d="M147.833 137.338C147.833 136.581 148.049 135.901 148.482 135.298C148.914 134.685 149.504 134.208 150.252 133.865C151 133.523 151.828 133.352 152.738 133.352C154.054 133.352 155.09 133.636 155.846 134.203C156.612 134.762 157.143 135.527 157.441 136.5H155.265C155.148 136.032 154.86 135.636 154.4 135.311C153.95 134.978 153.409 134.811 152.779 134.811C151.923 134.82 151.252 135.059 150.765 135.527C150.279 135.996 150.036 136.599 150.036 137.338C150.036 137.762 150.135 138.171 150.333 138.568C150.54 138.955 150.851 139.27 151.265 139.514C151.68 139.757 152.184 139.874 152.779 139.865C153.418 139.865 153.963 139.703 154.414 139.379C154.864 139.045 155.144 138.649 155.252 138.189H157.427C157.346 138.73 157.085 139.243 156.643 139.73C156.202 140.207 155.635 140.595 154.941 140.892C154.256 141.18 153.522 141.324 152.738 141.324C151.855 141.324 151.04 141.153 150.293 140.811C149.545 140.46 148.946 139.982 148.495 139.379C148.054 138.766 147.833 138.086 147.833 137.338Z" fill="#EFEFEF" fill-opacity="0.6"/>
<path d="M160.424 134.811C161.1 134.1 162.167 133.672 163.627 133.528V135.392H162.046C161.559 135.392 161.199 135.514 160.965 135.757C160.739 135.991 160.595 136.28 160.532 136.622C160.478 136.964 160.451 137.401 160.451 137.933V141H158.289V133.636H160.167L160.424 134.811Z" fill="#EFEFEF" fill-opacity="0.6"/>
<path d="M175.001 133.636L170.609 142.662C170.366 143.131 169.92 143.437 169.272 143.581C168.632 143.725 167.88 143.797 167.015 143.797V141.865C167.466 141.865 167.776 141.824 167.948 141.743C168.128 141.671 168.218 141.568 168.218 141.432C168.218 141.36 168.195 141.27 168.15 141.162C168.105 141.063 168.074 140.996 168.056 140.96L164.259 133.636H166.637L169.731 140.162L172.623 133.636H175.001Z" fill="#EFEFEF" fill-opacity="0.6"/>
<path d="M184.991 137.487C184.973 138.135 184.815 138.748 184.518 139.325C184.23 139.892 183.815 140.356 183.275 140.716C182.743 141.068 182.122 141.243 181.41 141.243C179.86 141.243 178.68 140.869 177.87 140.122V143.567H175.708V133.636H177.586L177.789 134.676C178.617 133.865 179.824 133.465 181.41 133.474C182.104 133.474 182.716 133.645 183.248 133.987C183.788 134.329 184.212 134.798 184.518 135.392C184.824 135.987 184.982 136.654 184.991 137.392V137.487ZM180.261 139.838C180.793 139.838 181.243 139.716 181.613 139.473C181.991 139.23 182.275 138.924 182.464 138.554C182.653 138.176 182.752 137.798 182.761 137.419C182.752 136.978 182.658 136.563 182.477 136.176C182.306 135.789 182.031 135.473 181.653 135.23C181.284 134.987 180.82 134.865 180.261 134.865C179.793 134.865 179.379 134.982 179.018 135.217C178.658 135.442 178.374 135.744 178.167 136.122C177.969 136.5 177.87 136.897 177.87 137.311V137.325C177.87 137.793 177.969 138.221 178.167 138.608C178.365 138.987 178.644 139.288 179.005 139.514C179.374 139.73 179.793 139.838 180.261 139.838Z" fill="#EFEFEF" fill-opacity="0.6"/>
<path d="M189.066 133.636H190.472V135.284H189.066V141H186.904V135.284H185.431V133.636H186.904V132.041L189.066 130.785V133.636Z" fill="#EFEFEF" fill-opacity="0.6"/>
<path d="M195.732 133.325C196.642 133.325 197.462 133.496 198.192 133.838C198.93 134.181 199.507 134.658 199.921 135.271C200.336 135.874 200.543 136.554 200.543 137.311C200.543 138.059 200.336 138.739 199.921 139.352C199.507 139.955 198.93 140.428 198.192 140.77C197.462 141.113 196.642 141.284 195.732 141.284C194.858 141.284 194.039 141.113 193.273 140.77C192.507 140.419 191.895 139.942 191.435 139.338C190.976 138.725 190.746 138.05 190.746 137.311C190.746 136.563 190.976 135.888 191.435 135.284C191.895 134.672 192.503 134.194 193.259 133.852C194.025 133.501 194.849 133.325 195.732 133.325ZM195.746 139.824C196.484 139.824 197.111 139.617 197.624 139.203C198.137 138.789 198.394 138.158 198.394 137.311C198.394 136.464 198.137 135.834 197.624 135.419C197.111 134.996 196.484 134.784 195.746 134.784C195.277 134.784 194.827 134.874 194.395 135.055C193.971 135.235 193.62 135.514 193.341 135.892C193.07 136.271 192.935 136.744 192.935 137.311C192.935 137.879 193.07 138.352 193.341 138.73C193.62 139.108 193.971 139.388 194.395 139.568C194.827 139.739 195.277 139.824 195.746 139.824Z" fill="#EFEFEF" fill-opacity="0.6"/>
<path d="M30.624 37.4161V35.1601H44.032L30.624 37.4161ZM44.032 35.1601V37.4641H38.72V47.0001H36.016V37.4641H30.624V35.1601H44.032Z" fill="#EFEFEF" fill-opacity="0.6"/>
<path d="M48.4599 37.9121C49.5372 37.9121 50.5079 38.1147 51.3719 38.5201C52.2465 38.9254 52.9292 39.4907 53.4199 40.2161C53.9105 40.9307 54.1559 41.7361 54.1559 42.6321C54.1559 43.5174 53.9105 44.3227 53.4199 45.0481C52.9292 45.7627 52.2465 46.3227 51.3719 46.7281C50.5079 47.1334 49.5372 47.3361 48.4599 47.3361C47.4252 47.3361 46.4545 47.1334 45.5479 46.7281C44.6412 46.3121 43.9159 45.7467 43.3719 45.0321C42.8279 44.3067 42.5559 43.5067 42.5559 42.6321C42.5559 41.7467 42.8279 40.9467 43.3719 40.2321C43.9159 39.5067 44.6359 38.9414 45.5319 38.5361C46.4385 38.1201 47.4145 37.9121 48.4599 37.9121ZM48.4759 45.6081C49.3505 45.6081 50.0919 45.3627 50.6999 44.8721C51.3079 44.3814 51.6119 43.6347 51.6119 42.6321C51.6119 41.6294 51.3079 40.8827 50.6999 40.3921C50.0919 39.8907 49.3505 39.6401 48.4759 39.6401C47.9212 39.6401 47.3879 39.7467 46.8759 39.9601C46.3745 40.1734 45.9585 40.5041 45.6279 40.9521C45.3079 41.4001 45.1479 41.9601 45.1479 42.6321C45.1479 43.3041 45.3079 43.8641 45.6279 44.3121C45.9585 44.7601 46.3745 45.0907 46.8759 45.3041C47.3879 45.5067 47.9212 45.6081 48.4759 45.6081Z" fill="#EFEFEF" fill-opacity="0.6"/>
<path d="M63.3789 35.1761H65.9389V46.9521H63.7149L63.5069 45.9441C62.5895 46.7654 61.1495 47.1707 59.1869 47.1601C58.3655 47.1601 57.6349 46.9574 56.9949 46.5521C56.3549 46.1361 55.8535 45.5707 55.4909 44.8561C55.1389 44.1307 54.9575 43.3307 54.9469 42.4561V42.3921C54.9575 41.6241 55.1335 40.8987 55.4749 40.2161C55.8269 39.5334 56.3229 38.9841 56.9629 38.5681C57.6029 38.1521 58.3442 37.9441 59.1869 37.9441C61.0215 37.9441 62.4189 38.3867 63.3789 39.2721V35.1761ZM60.5469 45.5121C61.1015 45.5121 61.5922 45.3734 62.0189 45.0961C62.4455 44.8187 62.7762 44.4561 63.0109 44.0081C63.2562 43.5601 63.3789 43.0907 63.3789 42.6001V42.5841C63.3789 42.0294 63.2615 41.5281 63.0269 41.0801C62.7922 40.6214 62.4562 40.2641 62.0189 40.0081C61.5922 39.7414 61.1015 39.6081 60.5469 39.6081C59.9175 39.6081 59.3789 39.7521 58.9309 40.0401C58.4829 40.3281 58.1469 40.6907 57.9229 41.1281C57.7095 41.5547 57.5975 41.9921 57.5869 42.4401C57.5975 42.9521 57.7095 43.4427 57.9229 43.9121C58.1469 44.3814 58.4775 44.7654 58.9149 45.0641C59.3629 45.3627 59.9069 45.5121 60.5469 45.5121Z" fill="#EFEFEF" fill-opacity="0.6"/>
<path d="M72.7385 37.8961C74.1465 37.8961 75.4052 38.1521 76.5145 38.6641C77.6345 39.1761 78.1945 40.0774 78.1945 41.3681V47.0001H75.8585L75.6185 45.4801C75.4478 45.8001 75.1278 46.0881 74.6585 46.3441C74.1892 46.6001 73.6292 46.8027 72.9785 46.9521C72.3278 47.0907 71.6612 47.1601 70.9785 47.1601C70.1572 47.1601 69.2932 46.9894 68.3865 46.6481C67.4798 46.2961 67.0265 45.5441 67.0265 44.3921C67.0265 43.3041 67.3945 42.5841 68.1305 42.2321C68.8665 41.8694 69.6238 41.6881 70.4025 41.6881C72.1412 41.6881 73.3412 41.6774 74.0025 41.6561C74.6745 41.6241 75.1118 41.5654 75.3145 41.4801C75.5278 41.3841 75.6398 41.2241 75.6505 41.0001V40.8401C75.6398 40.4561 75.3412 40.1361 74.7545 39.8801C74.1678 39.6241 73.4905 39.4961 72.7225 39.4961C71.8798 39.4854 71.1652 39.6134 70.5785 39.8801C69.9918 40.1361 69.6985 40.5521 69.6985 41.1281H67.1225C67.1225 40.3067 67.4212 39.6561 68.0185 39.1761C68.6265 38.6961 69.3518 38.3654 70.1945 38.1841C71.0478 37.9921 71.8958 37.8961 72.7385 37.8961ZM72.1785 45.2081C73.4585 45.2081 74.3545 44.9414 74.8665 44.4081C75.3785 43.8747 75.6345 43.2507 75.6345 42.5361C75.1118 42.8454 74.1838 43.0001 72.8505 43.0001C72.0612 43.0001 71.4425 43.0267 70.9945 43.0801C70.5572 43.1334 70.2318 43.2347 70.0185 43.3841C69.8052 43.5227 69.6932 43.7307 69.6825 44.0081C69.7038 44.3921 69.9012 44.6907 70.2745 44.9041C70.6478 45.1067 71.2825 45.2081 72.1785 45.2081Z" fill="#EFEFEF" fill-opacity="0.6"/>
<path d="M90.7874 38.2801L85.5874 48.9681C85.2994 49.5227 84.7714 49.8854 84.0034 50.0561C83.246 50.2267 82.3554 50.3121 81.3314 50.3121V48.0241C81.8647 48.0241 82.2327 47.9761 82.4354 47.8801C82.6487 47.7947 82.7554 47.6721 82.7554 47.5121C82.7554 47.4267 82.7287 47.3201 82.6754 47.1921C82.622 47.0747 82.5847 46.9947 82.5634 46.9521L78.0674 38.2801H80.8834L84.5474 46.0081L87.9714 38.2801H90.7874Z" fill="#EFEFEF" fill-opacity="0.6"/>
<path d="M151.32 43.5921L155.544 35.1601H158.424L152.488 47.0001H149.608L146.872 39.1441L144.232 47.0001H141.352L135.224 35.1601H138.216L142.504 43.6081L145.4 35.1601H148.408L151.32 43.5921Z" fill="#EFEFEF"/>
<path d="M168.372 42.8401H159.492C159.524 43.3521 159.668 43.8267 159.924 44.2641C160.18 44.6907 160.548 45.0374 161.028 45.3041C161.508 45.5707 162.089 45.7041 162.772 45.7041C163.337 45.7041 163.854 45.6027 164.324 45.4001C164.793 45.1974 165.161 44.9361 165.428 44.6161C165.694 44.2854 165.828 43.9387 165.828 43.5761H168.372C168.372 44.2267 168.148 44.8401 167.7 45.4161C167.262 45.9814 166.617 46.4401 165.764 46.7921C164.91 47.1441 163.902 47.3201 162.74 47.3201C161.684 47.3201 160.708 47.1227 159.812 46.7281C158.926 46.3334 158.217 45.7787 157.684 45.0641C157.161 44.3387 156.9 43.5121 156.9 42.5841C156.9 41.6454 157.156 40.8187 157.668 40.1041C158.18 39.3787 158.878 38.8241 159.764 38.4401C160.66 38.0454 161.652 37.8481 162.74 37.8481C163.86 37.8481 164.841 38.0401 165.684 38.4241C166.526 38.8081 167.182 39.3521 167.652 40.0561C168.121 40.7494 168.361 41.5654 168.372 42.5041V42.5841V42.8401ZM162.772 39.4641C161.929 39.4641 161.257 39.6507 160.756 40.0241C160.254 40.3867 159.897 40.8774 159.684 41.4961H165.7C165.55 40.8774 165.241 40.3867 164.772 40.0241C164.302 39.6507 163.636 39.4641 162.772 39.4641Z" fill="#EFEFEF"/>
<path d="M180.622 42.8401H171.742C171.774 43.3521 171.918 43.8267 172.174 44.2641C172.43 44.6907 172.798 45.0374 173.278 45.3041C173.758 45.5707 174.339 45.7041 175.022 45.7041C175.587 45.7041 176.104 45.6027 176.574 45.4001C177.043 45.1974 177.411 44.9361 177.678 44.6161C177.944 44.2854 178.078 43.9387 178.078 43.5761H180.622C180.622 44.2267 180.398 44.8401 179.95 45.4161C179.512 45.9814 178.867 46.4401 178.014 46.7921C177.16 47.1441 176.152 47.3201 174.99 47.3201C173.934 47.3201 172.958 47.1227 172.062 46.7281C171.176 46.3334 170.467 45.7787 169.934 45.0641C169.411 44.3387 169.15 43.5121 169.15 42.5841C169.15 41.6454 169.406 40.8187 169.918 40.1041C170.43 39.3787 171.128 38.8241 172.014 38.4401C172.91 38.0454 173.902 37.8481 174.99 37.8481C176.11 37.8481 177.091 38.0401 177.934 38.4241C178.776 38.8081 179.432 39.3521 179.902 40.0561C180.371 40.7494 180.611 41.5654 180.622 42.5041V42.5841V42.8401ZM175.022 39.4641C174.179 39.4641 173.507 39.6507 173.006 40.0241C172.504 40.3867 172.147 40.8774 171.934 41.4961H177.95C177.8 40.8774 177.491 40.3867 177.022 40.0241C176.552 39.6507 175.886 39.4641 175.022 39.4641Z" fill="#EFEFEF"/>
<path d="M186.792 42.1841L192.136 47.0001H188.904L184.072 42.7281V47.0001H181.512V35.1601H184.072V41.6401L188.216 38.2801H191.528L186.792 42.1841Z" fill="#EFEFEF"/>
<path d="M244.464 35.1601V47.0001H241.76V39.5921L238.144 47.0001H235.44L231.568 39.4801V47.0001H228.864V35.1601H232.128L236.768 44.2801L241.216 35.1601H244.464Z" fill="#EFEFEF" fill-opacity="0.4"/>
<path d="M251.241 37.9121C252.318 37.9121 253.289 38.1147 254.153 38.5201C255.028 38.9254 255.71 39.4907 256.201 40.2161C256.692 40.9307 256.937 41.7361 256.937 42.6321C256.937 43.5174 256.692 44.3227 256.201 45.0481C255.71 45.7627 255.028 46.3227 254.153 46.7281C253.289 47.1334 252.318 47.3361 251.241 47.3361C250.206 47.3361 249.236 47.1334 248.329 46.7281C247.422 46.3121 246.697 45.7467 246.153 45.0321C245.609 44.3067 245.337 43.5067 245.337 42.6321C245.337 41.7467 245.609 40.9467 246.153 40.2321C246.697 39.5067 247.417 38.9414 248.313 38.5361C249.22 38.1201 250.196 37.9121 251.241 37.9121ZM251.257 45.6081C252.132 45.6081 252.873 45.3627 253.481 44.8721C254.089 44.3814 254.393 43.6347 254.393 42.6321C254.393 41.6294 254.089 40.8827 253.481 40.3921C252.873 39.8907 252.132 39.6401 251.257 39.6401C250.702 39.6401 250.169 39.7467 249.657 39.9601C249.156 40.1734 248.74 40.5041 248.409 40.9521C248.089 41.4001 247.929 41.9601 247.929 42.6321C247.929 43.3041 248.089 43.8641 248.409 44.3121C248.74 44.7601 249.156 45.0907 249.657 45.3041C250.169 45.5067 250.702 45.6081 251.257 45.6081Z" fill="#EFEFEF" fill-opacity="0.4"/>
<path d="M264.368 37.9921C265.584 37.9921 266.533 38.4081 267.216 39.2401C267.899 40.0614 268.24 41.4481 268.24 43.4001V47.0001H265.68V43.4481C265.68 42.7654 265.627 42.1681 265.52 41.6561C265.413 41.1441 265.173 40.7121 264.8 40.3601C264.437 39.9974 263.888 39.8161 263.152 39.8161C262.395 39.8161 261.819 39.9974 261.424 40.3601C261.04 40.7121 260.789 41.1494 260.672 41.6721C260.565 42.1947 260.512 42.8081 260.512 43.5121V47.0001H257.952V38.2801H260.512V39.4321C261.355 38.4721 262.64 37.9921 264.368 37.9921Z" fill="#EFEFEF" fill-opacity="0.4"/>
<path d="M273.629 38.2801H275.293V40.2321H273.629V47.0001H271.069V40.2321H269.325V38.2801H271.069V36.3921L273.629 34.9041V38.2801Z" fill="#EFEFEF" fill-opacity="0.4"/>
<path d="M282.804 37.9921C283.486 37.9921 284.126 38.1681 284.724 38.5201C285.321 38.8614 285.806 39.4374 286.18 40.2481C286.564 41.0481 286.756 42.0987 286.756 43.4001V47.0001H284.196V43.4481C284.196 42.7654 284.142 42.1681 284.036 41.6561C283.929 41.1441 283.689 40.7121 283.316 40.3601C282.953 39.9974 282.404 39.8161 281.668 39.8161C280.91 39.8161 280.334 39.9974 279.94 40.3601C279.556 40.7227 279.305 41.1654 279.188 41.6881C279.081 42.2107 279.028 42.8187 279.028 43.5121V47.0001H276.468V35.1601H279.028V39.4001C279.86 38.4614 281.118 37.9921 282.804 37.9921Z" fill="#EFEFEF" fill-opacity="0.4"/>
<path d="M43.2773 87.0629C45.2612 87.0798 46.94 87.1901 48.3135 87.3935C49.7039 87.597 50.8655 88.0633 51.7981 88.7925C52.7308 89.5047 53.1971 90.573 53.1971 91.9973C53.1971 94.3883 52.2051 96.0585 50.2211 97.0081C48.2372 97.9577 45.9225 98.4749 43.2773 98.5597V101.459H40.2505V98.5088C37.7408 98.3053 35.5449 97.7033 33.6627 96.7029C31.7974 95.6855 30.8648 94.0491 30.8648 91.7939L35.3414 91.7176C35.3414 93.7015 36.9778 94.8461 40.2505 95.1513V90.2423C38.3004 90.2084 36.6641 90.0727 35.3414 89.8353C34.0188 89.581 32.942 89.0808 32.1111 88.3347C31.2803 87.5716 30.8648 86.4609 30.8648 85.0026C30.8648 82.7473 31.789 81.1619 33.6373 80.2462C35.5025 79.3305 37.7069 78.8049 40.2505 78.6692V75.7441H43.2773V78.6438C45.8208 78.7455 48.11 79.2966 50.1448 80.2971C52.1797 81.2806 53.1971 82.9847 53.1971 85.4096H48.7459C48.7459 84.3243 48.1778 83.5358 47.0417 83.0441C45.9056 82.5354 44.6508 82.2132 43.2773 82.0775V87.0629ZM35.2397 84.9263C35.2397 86.1811 36.9099 86.8848 40.2505 87.0374V82.103C38.8939 82.2386 37.7154 82.5269 36.7149 82.9678C35.7314 83.3917 35.2397 84.0446 35.2397 84.9263ZM48.8222 92.0737C48.8222 91.3615 48.2965 90.8867 47.2452 90.6493C46.1939 90.4119 44.8712 90.2762 43.2773 90.2423V95.2022C44.8373 95.1513 46.143 94.88 47.1943 94.3883C48.2626 93.8965 48.8052 93.1335 48.8222 92.0991V92.0737Z" fill="#EFEFEF"/>
<path d="M76.2222 91.4378C76.1544 94.117 75.0437 95.9737 72.8902 97.0081C70.7367 98.0255 68.3203 98.5342 65.6411 98.5342C64.2167 98.5342 62.7245 98.3223 61.1645 97.8984C59.6045 97.4744 58.2649 96.7538 57.1457 95.7363C56.0435 94.7189 55.4924 93.3878 55.4924 91.743L59.6638 91.7176C59.6638 92.8876 60.2234 93.7693 61.3425 94.3628C62.4617 94.9563 63.8267 95.2955 65.4376 95.3803C67.2181 95.4311 68.7273 95.1429 69.9651 94.5154C71.2199 93.8711 71.8474 92.8282 71.8474 91.3869C71.8304 90.0643 71.3302 89.0468 70.3467 88.3347C69.3632 87.6225 67.7692 87.2664 65.5648 87.2664C64.6322 87.2664 63.6996 87.3851 62.7669 87.6225C61.8513 87.8599 61.0882 88.2075 60.4777 88.6653C59.8843 89.1231 59.5875 89.6827 59.5875 90.344V90.4712L55.5687 90.5475V79.1779H75.332V82.103H59.5875V86.5287C61.0967 85.2909 63.6826 84.672 67.3453 84.672C69.0749 84.672 70.6095 84.9433 71.9491 85.4859C73.2887 86.0116 74.3315 86.7831 75.0776 87.8005C75.8407 88.8179 76.2222 90.0219 76.2222 91.4123V91.4378Z" fill="#EFEFEF"/>
<path d="M97.8002 87.6733C98.9702 88.0125 99.852 88.5551 100.445 89.3012C101.056 90.0303 101.361 91.0223 101.361 92.2771C101.361 94.7868 100.267 96.474 98.08 97.3388C95.8925 98.2036 93.3405 98.636 90.4239 98.636H89.61C87.6769 98.636 85.8879 98.5088 84.2431 98.2544C82.6153 98.0171 81.1654 97.432 79.8937 96.4994C78.6219 95.5668 77.986 94.1678 77.986 92.3026C77.9691 90.963 78.2489 89.9286 78.8254 89.1995C79.4189 88.4534 80.3176 87.9192 81.5215 87.597C79.6393 86.9866 78.6982 85.7487 78.6982 83.8835C78.6982 82.2726 79.4104 81.0856 80.8348 80.3225C82.2761 79.5425 83.7259 79.0677 85.1842 78.8981C86.6425 78.7116 88.0923 78.6099 89.5337 78.5929C91.0089 78.5929 92.5181 78.6862 94.0612 78.8727C95.6212 79.0423 97.1049 79.5171 98.5124 80.2971C99.9367 81.0601 100.649 82.2471 100.649 83.858C100.649 85.825 99.6994 87.0968 97.8002 87.6733ZM89.5082 81.3399C87.643 81.323 86.0575 81.518 84.7518 81.9249C83.4631 82.3319 82.8187 82.9847 82.8187 83.8835C82.8187 84.7991 83.4801 85.4605 84.8027 85.8674C86.1253 86.2574 87.7278 86.4355 89.61 86.4016C91.5261 86.4355 93.1455 86.2574 94.4681 85.8674C95.8077 85.4605 96.4775 84.7991 96.4775 83.8835C96.4775 82.9847 95.7993 82.3319 94.4427 81.9249C93.0862 81.518 91.4413 81.323 89.5082 81.3399ZM89.5591 95.5074C91.7126 95.5413 93.5355 95.3039 95.0277 94.7952C96.5199 94.2696 97.266 93.4302 97.266 92.2771C97.266 91.1071 96.5199 90.2677 95.0277 89.759C93.5355 89.2334 91.7211 88.9875 89.5846 89.0214C87.448 88.9875 85.6421 89.2334 84.1668 89.759C82.6916 90.2677 81.9539 91.1071 81.9539 92.2771C81.9539 93.4302 82.6916 94.2696 84.1668 94.7952C85.6421 95.3039 87.4395 95.5413 89.5591 95.5074Z" fill="#EFEFEF"/>
<path d="M126.445 94.5663V98.0001H103.274V96.3468C103.274 94.1424 103.672 92.4637 104.469 91.3106C105.266 90.1406 106.241 89.3436 107.394 88.9197C108.564 88.4957 110.124 88.1227 112.074 87.8005C112.668 87.7157 113.694 87.5801 115.152 87.3935C116.627 87.224 117.789 87.0629 118.637 86.9103C119.501 86.7577 120.214 86.5203 120.773 86.1981C121.35 85.8589 121.638 85.4011 121.638 84.8246C121.638 83.7732 120.943 83.0017 119.552 82.51C118.179 82.0182 116.491 81.7808 114.491 81.7978C112.574 81.7978 110.947 82.0945 109.607 82.688C108.267 83.2645 107.598 84.1802 107.598 85.435L103.274 85.4096C103.274 83.68 103.884 82.3149 105.105 81.3145C106.343 80.2971 107.81 79.5934 109.505 79.2034C111.201 78.8133 112.854 78.6183 114.465 78.6183C117.416 78.6183 120.069 79.0338 122.426 79.8647C124.8 80.6786 125.987 82.3319 125.987 84.8246C125.987 86.1642 125.428 87.224 124.309 88.004C123.206 88.784 121.96 89.3351 120.57 89.6573C119.196 89.9795 117.568 90.2677 115.686 90.5221C114.94 90.6069 114.38 90.6832 114.007 90.751C112.651 90.8867 111.464 91.1665 110.446 91.5904C109.446 92.0143 108.674 92.4976 108.132 93.0402C107.606 93.5659 107.343 94.0746 107.343 94.5663H126.445Z" fill="#EFEFEF"/>
<path d="M128.036 94.0576H132.411V98.0001H128.036V94.0576Z" fill="#EFEFEF"/>
<path d="M157.648 91.7684C157.631 94.1254 156.563 95.8466 154.443 96.9318C152.324 98.0171 149.56 98.5597 146.151 98.5597C143.642 98.5597 141.497 98.246 139.716 97.6186C137.936 96.9912 136.579 96.084 135.646 94.897C134.731 93.71 134.273 92.2941 134.273 90.6493H138.444C138.444 92.2432 139.19 93.4132 140.683 94.1594C142.175 94.9055 143.998 95.2785 146.151 95.2785C148.118 95.2955 149.797 95.0242 151.187 94.4646C152.578 93.888 153.282 92.9808 153.299 91.743C153.282 91.2173 153.146 90.8273 152.892 90.573C152.654 90.3017 152.129 90.1066 151.315 89.988C150.501 89.8523 149.237 89.7845 147.525 89.7845H142.819V86.6305H147.525C148.712 86.6305 149.678 86.5881 150.424 86.5033C151.187 86.4016 151.806 86.1981 152.281 85.8929C152.756 85.5876 152.993 85.1213 152.993 84.4939C152.993 83.6291 152.332 82.9847 151.009 82.5608C149.687 82.1369 148.067 81.908 146.151 81.8741C143.998 81.8571 142.175 82.0945 140.683 82.5863C139.19 83.0611 138.444 83.8326 138.444 84.9009H134.273C134.273 82.4591 135.502 80.8058 137.961 79.941C140.437 79.0592 143.167 78.6183 146.151 78.6183C147.966 78.6183 149.653 78.737 151.213 78.9744C152.79 79.1949 154.172 79.7205 155.359 80.5514C156.546 81.3823 157.139 82.6117 157.139 84.2396C157.139 86.037 156.368 87.2664 154.825 87.9277C156.639 88.589 157.58 89.8523 157.648 91.7176V91.7684Z" fill="#EFEFEF"/>
<path d="M167.949 90.344L176.444 98.0001H171.306L163.625 91.2088V98.0001H159.555V79.1779H163.625V89.4792L170.212 84.1378H175.478L167.949 90.344Z" fill="#EFEFEF"/>
<path d="M348 84H310C308.343 84 307 85.3431 307 87V106.5C307 108.157 308.343 109.5 310 109.5H323.708C324.812 109.5 325.826 110.106 326.35 111.078L328.12 114.365C328.497 115.066 329.503 115.066 329.88 114.365L331.65 111.078C332.174 110.106 333.188 109.5 334.292 109.5H348C349.657 109.5 351 108.157 351 106.5V87C351 85.3431 349.657 84 348 84Z" fill="#57C7FF"/>
<path d="M324.116 97.9447H324.997V99.0605H324.116V100H322.74V99.0605H318.327V97.9447L322.74 93.792H324.116V97.9447ZM322.74 95.1343L319.93 97.9447H322.74V95.1343Z" fill="#111415"/>
<path d="M333.345 97.9447C333.339 98.7221 332.987 99.2898 332.288 99.6477C331.589 100.006 330.677 100.185 329.553 100.185C328.725 100.185 328.017 100.081 327.43 99.8743C326.843 99.6673 326.396 99.3681 326.088 98.9766C325.786 98.5851 325.635 98.1181 325.635 97.5756H327.011C327.011 98.1013 327.257 98.4872 327.749 98.7333C328.241 98.9794 328.842 99.1024 329.553 99.1024C330.201 99.108 330.755 99.0185 331.214 98.834C331.672 98.6438 331.905 98.3446 331.91 97.9363C331.905 97.7629 331.86 97.6343 331.776 97.5504C331.698 97.4609 331.524 97.3966 331.256 97.3575C330.987 97.3127 330.571 97.2903 330.006 97.2903H328.454V96.2501H330.006C330.397 96.2501 330.716 96.2361 330.962 96.2081C331.214 96.1746 331.418 96.1074 331.575 96.0068C331.731 95.9061 331.809 95.7523 331.809 95.5454C331.809 95.2601 331.591 95.0476 331.155 94.9078C330.719 94.7679 330.185 94.6924 329.553 94.6813C328.842 94.6757 328.241 94.754 327.749 94.9162C327.257 95.0728 327.011 95.3272 327.011 95.6796H325.635C325.635 94.8742 326.04 94.3289 326.851 94.0437C327.668 93.7528 328.568 93.6074 329.553 93.6074C330.151 93.6074 330.708 93.6466 331.222 93.7249C331.742 93.7976 332.198 93.971 332.59 94.245C332.981 94.5191 333.177 94.9245 333.177 95.4615C333.177 96.0543 332.922 96.4598 332.413 96.6779C333.012 96.896 333.322 97.3127 333.345 97.9279V97.9447Z" fill="#111415"/>
<path d="M335.391 100H333.965L339.418 94.1276H340.845L335.391 100ZM335.761 96.8457C335.52 96.8457 335.296 96.787 335.089 96.6695C334.883 96.5465 334.718 96.3815 334.595 96.1746C334.477 95.9676 334.418 95.7439 334.418 95.5034C334.418 95.2629 334.477 95.0392 334.595 94.8323C334.718 94.6253 334.883 94.4631 335.089 94.3457C335.296 94.2226 335.52 94.1611 335.761 94.1611C336.001 94.1611 336.225 94.2226 336.432 94.3457C336.639 94.4631 336.801 94.6253 336.918 94.8323C337.041 95.0392 337.103 95.2629 337.103 95.5034C337.103 95.7439 337.041 95.9676 336.918 96.1746C336.801 96.3815 336.639 96.5465 336.432 96.6695C336.225 96.787 336.001 96.8457 335.761 96.8457ZM335.761 96.0403C335.906 96.0403 336.032 95.9872 336.138 95.8809C336.244 95.7747 336.298 95.6488 336.298 95.5034C336.298 95.358 336.244 95.2322 336.138 95.1259C336.032 95.0196 335.906 94.9665 335.761 94.9665C335.615 94.9665 335.489 95.0196 335.383 95.1259C335.277 95.2322 335.224 95.358 335.224 95.5034C335.224 95.6488 335.277 95.7747 335.383 95.8809C335.489 95.9872 335.615 96.0403 335.761 96.0403ZM339.049 99.9498C338.809 99.9498 338.585 99.891 338.378 99.7736C338.171 99.6505 338.006 99.4856 337.883 99.2786C337.766 99.0717 337.707 98.848 337.707 98.6075C337.707 98.367 337.766 98.1433 337.883 97.9363C338.006 97.7294 338.171 97.5672 338.378 97.4497C338.585 97.3267 338.809 97.2652 339.049 97.2652C339.29 97.2652 339.513 97.3267 339.72 97.4497C339.927 97.5672 340.09 97.7294 340.207 97.9363C340.33 98.1433 340.392 98.367 340.392 98.6075C340.392 98.848 340.33 99.0717 340.207 99.2786C340.09 99.4856 339.927 99.6505 339.72 99.7736C339.513 99.891 339.29 99.9498 339.049 99.9498ZM339.049 99.136C339.195 99.136 339.318 99.0829 339.418 98.9766C339.525 98.8703 339.578 98.7473 339.578 98.6075C339.578 98.4621 339.525 98.339 339.418 98.2383C339.318 98.1321 339.195 98.0789 339.049 98.0789C338.909 98.0789 338.786 98.1321 338.68 98.2383C338.574 98.339 338.521 98.4621 338.521 98.6075C338.521 98.7473 338.574 98.8703 338.68 98.9766C338.786 99.0829 338.909 99.136 339.049 99.136Z" fill="#111415"/>
</svg>
