<svg width="557" height="292" viewBox="0 0 557 292" fill="none" xmlns="http://www.w3.org/2000/svg">
<rect width="557" height="292" rx="28" fill="#57C7FF"/>
<path d="M133.324 85.8517C135.399 85.8694 137.155 85.9847 138.592 86.1975C140.046 86.4104 141.261 86.8981 142.237 87.6608C143.212 88.4057 143.7 89.5231 143.7 91.0129C143.7 93.5137 142.662 95.2608 140.587 96.254C138.512 97.2472 136.091 97.7882 133.324 97.8769V100.91H130.158V97.8237C127.533 97.6108 125.236 96.9812 123.268 95.9348C121.317 94.8706 120.341 93.159 120.341 90.8001L125.024 90.7203C125.024 92.7954 126.735 93.9926 130.158 94.3119V89.1772C128.119 89.1418 126.407 88.9999 125.024 88.7516C123.64 88.4855 122.514 87.9623 121.645 87.1819C120.776 86.3838 120.341 85.222 120.341 83.6967C120.341 81.3378 121.308 79.6794 123.241 78.7217C125.192 77.7639 127.498 77.2141 130.158 77.0722V74.0127H133.324V77.0456C135.985 77.152 138.379 77.7284 140.507 78.7749C142.636 79.8036 143.7 81.5861 143.7 84.1224H139.044C139.044 82.9873 138.45 82.1625 137.262 81.6482C136.073 81.1161 134.761 80.7791 133.324 80.6372V85.8517ZM124.917 83.6169C124.917 84.9294 126.664 85.6654 130.158 85.8251V80.6638C128.739 80.8057 127.507 81.1072 126.46 81.5684C125.431 82.0118 124.917 82.6946 124.917 83.6169ZM139.124 91.0927C139.124 90.3478 138.574 89.8512 137.474 89.6029C136.375 89.3546 134.991 89.2127 133.324 89.1772V94.3651C134.956 94.3119 136.322 94.0281 137.421 93.5138C138.539 92.9994 139.106 92.2013 139.124 91.1194V91.0927Z" fill="#111415"/>
<path d="M170.125 90.7735C170.107 93.2388 168.989 95.0391 166.772 96.1742C164.555 97.3093 161.664 97.8769 158.099 97.8769C155.474 97.8769 153.231 97.5488 151.368 96.8925C149.506 96.2363 148.087 95.2874 147.112 94.0458C146.154 92.8043 145.675 91.3233 145.675 89.6029H150.038C150.038 91.2701 150.819 92.4939 152.379 93.2743C153.94 94.0547 155.847 94.4449 158.099 94.4449C160.157 94.4626 161.913 94.1789 163.367 93.5936C164.821 92.9905 165.557 92.0416 165.575 90.7469C165.557 90.1971 165.416 89.7891 165.149 89.5231C164.901 89.2393 164.351 89.0353 163.5 88.9112C162.649 88.7693 161.327 88.6983 159.536 88.6983H154.614V85.3994H159.536C160.777 85.3994 161.788 85.3551 162.569 85.2664C163.367 85.16 164.014 84.9471 164.511 84.6279C165.008 84.3086 165.256 83.8209 165.256 83.1646C165.256 82.2601 164.564 81.5861 163.181 81.1427C161.797 80.6993 160.104 80.4598 158.099 80.4244C155.847 80.4066 153.94 80.6549 152.379 81.1693C150.819 81.6659 150.038 82.4729 150.038 83.5903H145.675C145.675 81.0363 146.961 79.307 149.533 78.4024C152.122 77.4801 154.978 77.019 158.099 77.019C159.997 77.019 161.762 77.1432 163.394 77.3915C165.043 77.622 166.489 78.1719 167.73 79.0409C168.972 79.91 169.592 81.1959 169.592 82.8986C169.592 84.7786 168.785 86.0645 167.171 86.7562C169.069 87.4479 170.054 88.7693 170.125 90.7203V90.7735Z" fill="#111415"/>
<path d="M172.252 97.2916V93.1679H176.802V97.2916L174.647 99.8988H172.252L174.407 97.2916H172.252Z" fill="#111415"/>
<path d="M202.985 93.7V97.2916H178.749V95.5623C178.749 93.2566 179.166 91.5007 179.999 90.2946C180.833 89.0708 181.853 88.2372 183.059 87.7938C184.282 87.3504 185.914 86.9602 187.954 86.6232C188.575 86.5345 189.648 86.3926 191.173 86.1975C192.716 86.0202 193.931 85.8517 194.818 85.692C195.722 85.5324 196.467 85.2841 197.053 84.9471C197.656 84.5924 197.957 84.1135 197.957 83.5105C197.957 82.4108 197.23 81.6038 195.776 81.0895C194.339 80.5751 192.574 80.3268 190.481 80.3446C188.477 80.3446 186.774 80.6549 185.373 81.2757C183.972 81.8787 183.271 82.8365 183.271 84.149L178.749 84.1224C178.749 82.3133 179.387 80.8855 180.664 79.8391C181.959 78.7749 183.493 78.0388 185.267 77.6309C187.04 77.223 188.77 77.019 190.455 77.019C193.541 77.019 196.317 77.4535 198.782 78.3226C201.265 79.174 202.507 80.9032 202.507 83.5105C202.507 84.9116 201.921 86.0202 200.751 86.836C199.598 87.6519 198.294 88.2283 196.84 88.5653C195.403 88.9023 193.7 89.2038 191.732 89.4699C190.951 89.5586 190.366 89.6384 189.976 89.7093C188.557 89.8512 187.315 90.1439 186.251 90.5873C185.205 91.0307 184.398 91.5362 183.83 92.1037C183.28 92.6535 183.005 93.1856 183.005 93.7H202.985Z" fill="#111415"/>
<path d="M229.179 90.7735C229.161 93.2388 228.044 95.0391 225.827 96.1742C223.61 97.3093 220.719 97.8769 217.154 97.8769C214.529 97.8769 212.285 97.5488 210.423 96.8925C208.561 96.2363 207.142 95.2874 206.166 94.0458C205.209 92.8043 204.73 91.3233 204.73 89.6029H209.093C209.093 91.2701 209.873 92.4939 211.434 93.2743C212.995 94.0547 214.901 94.4449 217.154 94.4449C219.211 94.4626 220.967 94.1789 222.422 93.5936C223.876 92.9905 224.612 92.0416 224.63 90.7469C224.612 90.1971 224.47 89.7891 224.204 89.5231C223.956 89.2393 223.406 89.0353 222.555 88.9112C221.703 88.7693 220.382 88.6983 218.591 88.6983H213.669V85.3994H218.591C219.832 85.3994 220.843 85.3551 221.623 85.2664C222.422 85.16 223.069 84.9471 223.566 84.6279C224.062 84.3086 224.311 83.8209 224.311 83.1646C224.311 82.2601 223.619 81.5861 222.235 81.1427C220.852 80.6993 219.158 80.4598 217.154 80.4244C214.901 80.4066 212.995 80.6549 211.434 81.1693C209.873 81.6659 209.093 82.4729 209.093 83.5903H204.73C204.73 81.0363 206.016 79.307 208.587 78.4024C211.177 77.4801 214.032 77.019 217.154 77.019C219.052 77.019 220.816 77.1432 222.448 77.3915C224.098 77.622 225.543 78.1719 226.785 79.0409C228.026 79.91 228.647 81.1959 228.647 82.8986C228.647 84.7786 227.84 86.0645 226.226 86.7562C228.124 87.4479 229.108 88.7693 229.179 90.7203V90.7735Z" fill="#111415"/>
<path d="M253.468 90.4276C253.397 93.23 252.236 95.1721 249.983 96.254C247.731 97.3182 245.203 97.8503 242.401 97.8503C240.911 97.8503 239.35 97.6286 237.719 97.1852C236.087 96.7418 234.686 95.988 233.515 94.9238C232.362 93.8596 231.786 92.4673 231.786 90.7469L236.149 90.7203C236.149 91.9441 236.734 92.8664 237.905 93.4871C239.075 94.1079 240.503 94.4626 242.188 94.5513C244.05 94.6045 245.629 94.303 246.924 93.6468C248.236 92.9728 248.892 91.882 248.892 90.3744C248.875 88.991 248.351 87.9268 247.323 87.1819C246.294 86.437 244.627 86.0645 242.321 86.0645C241.346 86.0645 240.37 86.1887 239.395 86.437C238.437 86.6853 237.639 87.0489 237 87.5278C236.379 88.0066 236.069 88.5919 236.069 89.2836V89.4167L231.866 89.4965V77.6043H252.537V80.6638H236.069V85.293C237.648 83.9982 240.352 83.3509 244.183 83.3509C245.993 83.3509 247.598 83.6346 248.999 84.2022C250.4 84.752 251.491 85.559 252.271 86.6232C253.069 87.6874 253.468 88.9467 253.468 90.401V90.4276Z" fill="#111415"/>
<path d="M255.313 97.2916V93.1679H259.863V97.2916L257.708 99.8988H255.313L257.468 97.2916H255.313Z" fill="#111415"/>
<path d="M274.074 77.5511C278.97 77.5333 282.251 78.5266 283.918 80.5308C285.585 82.535 286.419 84.8673 286.419 87.5278C286.419 90.1173 285.576 92.485 283.891 94.6311C282.206 96.7595 278.934 97.8237 274.074 97.8237C270.669 97.8237 268.035 97.2472 266.173 96.0944C264.328 94.9415 263.104 93.6024 262.501 92.0771C261.898 90.5341 261.623 89.0176 261.677 87.5278C261.677 84.956 262.519 82.6503 264.204 80.6106C265.907 78.5709 269.197 77.5511 274.074 77.5511ZM274.101 94.5247C276.034 94.5247 277.604 94.1966 278.81 93.5404C280.016 92.8664 280.876 91.9973 281.391 90.9331C281.905 89.8689 282.135 88.7161 282.082 87.4745C282.135 86.2862 281.905 85.1866 281.391 84.1756C280.876 83.1646 280.016 82.3488 278.81 81.728C277.604 81.0895 276.034 80.7702 274.101 80.7702C272.185 80.7702 270.625 81.0895 269.419 81.728C268.23 82.3488 267.379 83.1646 266.865 84.1756C266.368 85.1866 266.137 86.2862 266.173 87.4745C266.137 88.7161 266.368 89.8689 266.865 90.9331C267.379 91.9973 268.23 92.8664 269.419 93.5404C270.625 94.1966 272.185 94.5247 274.101 94.5247Z" fill="#111415"/>
<path d="M312.76 90.7735C312.742 93.2388 311.625 95.0391 309.408 96.1742C307.19 97.3093 304.299 97.8769 300.734 97.8769C298.109 97.8769 295.866 97.5488 294.004 96.8925C292.141 96.2363 290.722 95.2874 289.747 94.0458C288.789 92.8043 288.31 91.3233 288.31 89.6029H292.673C292.673 91.2701 293.454 92.4939 295.015 93.2743C296.575 94.0547 298.482 94.4449 300.734 94.4449C302.792 94.4626 304.548 94.1789 306.002 93.5936C307.457 92.9905 308.193 92.0416 308.21 90.7469C308.193 90.1971 308.051 89.7891 307.785 89.5231C307.536 89.2393 306.987 89.0353 306.135 88.9112C305.284 88.7693 303.962 88.6983 302.171 88.6983H297.249V85.3994H302.171C303.413 85.3994 304.424 85.3551 305.204 85.2664C306.002 85.16 306.65 84.9471 307.146 84.6279C307.643 84.3086 307.891 83.8209 307.891 83.1646C307.891 82.2601 307.199 81.5861 305.816 81.1427C304.432 80.6993 302.739 80.4598 300.734 80.4244C298.482 80.4066 296.575 80.6549 295.015 81.1693C293.454 81.6659 292.673 82.4729 292.673 83.5903H288.31C288.31 81.0363 289.596 79.307 292.168 78.4024C294.757 77.4801 297.613 77.019 300.734 77.019C302.632 77.019 304.397 77.1432 306.029 77.3915C307.678 77.622 309.124 78.1719 310.365 79.0409C311.607 79.91 312.228 81.1959 312.228 82.8986C312.228 84.7786 311.421 86.0645 309.807 86.7562C311.704 87.4479 312.689 88.7693 312.76 90.7203V90.7735Z" fill="#111415"/>
<path d="M333.324 90.7735H336.118V94.3119H333.324V97.2916H328.961V94.3119H314.967V90.7735L328.961 77.6043H333.324V90.7735ZM328.961 81.861L320.049 90.7735H328.961V81.861Z" fill="#111415"/>
<path d="M338.062 93.1679H342.638V97.2916H338.062V93.1679Z" fill="#111415"/>
<path d="M356.849 77.5511C361.745 77.5333 365.026 78.5266 366.693 80.5308C368.36 82.535 369.194 84.8673 369.194 87.5278C369.194 90.1173 368.351 92.485 366.667 94.6311C364.982 96.7595 361.709 97.8237 356.849 97.8237C353.444 97.8237 350.81 97.2472 348.948 96.0944C347.103 94.9415 345.88 93.6024 345.277 92.0771C344.674 90.5341 344.399 89.0176 344.452 87.5278C344.452 84.956 345.294 82.6503 346.979 80.6106C348.682 78.5709 351.972 77.5511 356.849 77.5511ZM356.876 94.5247C358.809 94.5247 360.379 94.1966 361.585 93.5404C362.791 92.8664 363.651 91.9973 364.166 90.9331C364.68 89.8689 364.911 88.7161 364.857 87.4745C364.911 86.2862 364.68 85.1866 364.166 84.1756C363.651 83.1646 362.791 82.3488 361.585 81.728C360.379 81.0895 358.809 80.7702 356.876 80.7702C354.961 80.7702 353.4 81.0895 352.194 81.728C351.005 82.3488 350.154 83.1646 349.64 84.1756C349.143 85.1866 348.912 86.2862 348.948 87.4745C348.912 88.7161 349.143 89.8689 349.64 90.9331C350.154 91.9973 351.005 92.8664 352.194 93.5404C353.4 94.1966 354.961 94.5247 356.876 94.5247Z" fill="#111415"/>
<path d="M383.35 77.5511C388.245 77.5333 391.526 78.5266 393.194 80.5308C394.861 82.535 395.694 84.8673 395.694 87.5278C395.694 90.1173 394.852 92.485 393.167 94.6311C391.482 96.7595 388.21 97.8237 383.35 97.8237C379.945 97.8237 377.311 97.2472 375.448 96.0944C373.604 94.9415 372.38 93.6024 371.777 92.0771C371.174 90.5341 370.899 89.0176 370.952 87.5278C370.952 84.956 371.795 82.6503 373.48 80.6106C375.182 78.5709 378.473 77.5511 383.35 77.5511ZM383.377 94.5247C385.31 94.5247 386.88 94.1966 388.086 93.5404C389.292 92.8664 390.152 91.9973 390.666 90.9331C391.181 89.8689 391.411 88.7161 391.358 87.4745C391.411 86.2862 391.181 85.1866 390.666 84.1756C390.152 83.1646 389.292 82.3488 388.086 81.728C386.88 81.0895 385.31 80.7702 383.377 80.7702C381.461 80.7702 379.9 81.0895 378.694 81.728C377.506 82.3488 376.655 83.1646 376.14 84.1756C375.644 85.1866 375.413 86.2862 375.448 87.4745C375.413 88.7161 375.644 89.8689 376.14 90.9331C376.655 91.9973 377.506 92.8664 378.694 93.5404C379.9 94.1966 381.461 94.5247 383.377 94.5247Z" fill="#111415"/>
<path d="M129.512 165.05C131.017 165.063 132.291 165.146 133.334 165.301C134.389 165.455 135.27 165.809 135.978 166.362C136.686 166.903 137.039 167.713 137.039 168.794C137.039 170.608 136.287 171.876 134.781 172.596C133.276 173.317 131.519 173.71 129.512 173.774V175.974H127.215V173.735C125.311 173.581 123.644 173.124 122.216 172.365C120.801 171.593 120.093 170.351 120.093 168.64L123.49 168.582C123.49 170.087 124.732 170.956 127.215 171.187V167.462C125.735 167.437 124.494 167.334 123.49 167.153C122.486 166.96 121.669 166.581 121.039 166.015C120.408 165.436 120.093 164.593 120.093 163.486C120.093 161.775 120.794 160.572 122.197 159.877C123.612 159.182 125.285 158.783 127.215 158.68V156.461H129.512V158.661C131.442 158.738 133.179 159.156 134.723 159.916C136.267 160.662 137.039 161.955 137.039 163.795H133.662C133.662 162.972 133.231 162.373 132.368 162C131.506 161.614 130.554 161.37 129.512 161.267V165.05ZM123.413 163.428C123.413 164.381 124.68 164.915 127.215 165.03V161.286C126.186 161.389 125.291 161.608 124.532 161.942C123.786 162.264 123.413 162.759 123.413 163.428ZM133.72 168.852C133.72 168.312 133.321 167.951 132.523 167.771C131.725 167.591 130.721 167.488 129.512 167.462V171.226C130.696 171.187 131.686 170.982 132.484 170.608C133.295 170.235 133.707 169.656 133.72 168.871V168.852Z" fill="#111415"/>
<path d="M144.88 159.066V173.349H141.715V163.525H138.492V161.498C139.688 161.498 140.57 161.35 141.136 161.054C141.715 160.758 142.069 160.443 142.197 160.109C142.339 159.761 142.41 159.414 142.41 159.066H144.88Z" fill="#111415"/>
<path d="M164.372 168.62C164.359 170.409 163.548 171.715 161.94 172.539C160.331 173.362 158.234 173.774 155.648 173.774C153.743 173.774 152.115 173.536 150.764 173.06C149.413 172.584 148.384 171.895 147.676 170.994C146.981 170.094 146.634 169.019 146.634 167.771H149.799C149.799 168.981 150.365 169.869 151.498 170.435C152.63 171.001 154.013 171.284 155.648 171.284C157.14 171.297 158.414 171.091 159.469 170.666C160.524 170.229 161.058 169.54 161.071 168.601C161.058 168.202 160.955 167.906 160.762 167.713C160.582 167.507 160.183 167.359 159.566 167.269C158.948 167.166 157.989 167.115 156.69 167.115H153.119V164.722H156.69C157.591 164.722 158.324 164.689 158.89 164.625C159.469 164.548 159.939 164.393 160.299 164.162C160.659 163.93 160.84 163.576 160.84 163.1C160.84 162.444 160.338 161.955 159.334 161.633C158.33 161.312 157.102 161.138 155.648 161.112C154.013 161.099 152.63 161.279 151.498 161.653C150.365 162.013 149.799 162.598 149.799 163.409H146.634C146.634 161.556 147.567 160.302 149.433 159.645C151.311 158.976 153.383 158.642 155.648 158.642C157.024 158.642 158.305 158.732 159.489 158.912C160.685 159.079 161.734 159.478 162.635 160.109C163.535 160.739 163.986 161.672 163.986 162.907C163.986 164.271 163.4 165.204 162.229 165.706C163.606 166.208 164.32 167.166 164.372 168.582V168.62Z" fill="#111415"/>
<path d="M165.915 173.349V170.357H169.216V173.349L167.653 175.241H165.915L167.479 173.349H165.915Z" fill="#111415"/>
<path d="M177.037 159.066V173.349H173.871V163.525H170.648V161.498C171.845 161.498 172.726 161.35 173.292 161.054C173.871 160.758 174.225 160.443 174.354 160.109C174.495 159.761 174.566 159.414 174.566 159.066H177.037Z" fill="#111415"/>
<path d="M192.127 168.62H194.154V171.187H192.127V173.349H188.962V171.187H178.809V168.62L188.962 159.066H192.127V168.62ZM188.962 162.154L182.496 168.62H188.962V162.154Z" fill="#111415"/>
<path d="M213.206 170.744V173.349H195.622V172.095C195.622 170.422 195.925 169.148 196.529 168.273C197.134 167.385 197.874 166.78 198.749 166.459C199.637 166.137 200.821 165.854 202.3 165.609C202.751 165.545 203.529 165.442 204.636 165.301C205.755 165.172 206.637 165.05 207.28 164.934C207.936 164.818 208.477 164.638 208.901 164.393C209.339 164.136 209.558 163.789 209.558 163.351C209.558 162.553 209.03 161.968 207.975 161.595C206.933 161.222 205.652 161.041 204.134 161.054C202.68 161.054 201.445 161.279 200.428 161.73C199.412 162.167 198.903 162.862 198.903 163.814L195.622 163.795C195.622 162.483 196.085 161.447 197.012 160.688C197.951 159.916 199.064 159.382 200.351 159.086C201.638 158.79 202.892 158.642 204.115 158.642C206.354 158.642 208.367 158.957 210.156 159.587C211.957 160.205 212.858 161.46 212.858 163.351C212.858 164.368 212.434 165.172 211.584 165.764C210.748 166.356 209.802 166.774 208.747 167.018C207.705 167.263 206.469 167.482 205.041 167.675C204.475 167.739 204.05 167.797 203.767 167.848C202.738 167.951 201.837 168.164 201.065 168.485C200.306 168.807 199.72 169.174 199.309 169.585C198.91 169.984 198.71 170.37 198.71 170.744H213.206Z" fill="#111415"/>
<path d="M282.001 165.05C283.506 165.063 284.78 165.146 285.822 165.301C286.878 165.455 287.759 165.809 288.467 166.362C289.174 166.903 289.528 167.713 289.528 168.794C289.528 170.608 288.775 171.876 287.27 172.596C285.765 173.317 284.008 173.71 282.001 173.774V175.974H279.704V173.735C277.8 173.581 276.133 173.124 274.705 172.365C273.289 171.593 272.582 170.351 272.582 168.64L275.979 168.582C275.979 170.087 277.22 170.956 279.704 171.187V167.462C278.224 167.437 276.982 167.334 275.979 167.153C274.975 166.96 274.158 166.581 273.528 166.015C272.897 165.436 272.582 164.593 272.582 163.486C272.582 161.775 273.283 160.572 274.686 159.877C276.101 159.182 277.774 158.783 279.704 158.68V156.461H282.001V158.661C283.931 158.738 285.668 159.156 287.212 159.916C288.756 160.662 289.528 161.955 289.528 163.795H286.151C286.151 162.972 285.719 162.373 284.857 162C283.995 161.614 283.043 161.37 282.001 161.267V165.05ZM275.902 163.428C275.902 164.381 277.169 164.915 279.704 165.03V161.286C278.675 161.389 277.78 161.608 277.021 161.942C276.275 162.264 275.902 162.759 275.902 163.428ZM286.208 168.852C286.208 168.312 285.81 167.951 285.012 167.771C284.214 167.591 283.21 167.488 282.001 167.462V171.226C283.185 171.187 284.175 170.982 284.973 170.608C285.784 170.235 286.196 169.656 286.208 168.871V168.852Z" fill="#111415"/>
<path d="M307.001 168.369C306.949 170.403 306.106 171.812 304.472 172.596C302.838 173.368 301.004 173.755 298.971 173.755C297.89 173.755 296.758 173.594 295.574 173.272C294.39 172.95 293.374 172.403 292.525 171.631C291.688 170.859 291.27 169.849 291.27 168.601L294.435 168.582C294.435 169.47 294.86 170.139 295.709 170.589C296.559 171.039 297.594 171.297 298.817 171.361C300.168 171.4 301.313 171.181 302.252 170.705C303.205 170.216 303.681 169.425 303.681 168.331C303.668 167.327 303.288 166.555 302.542 166.015C301.796 165.474 300.586 165.204 298.913 165.204C298.206 165.204 297.498 165.294 296.79 165.474C296.095 165.654 295.516 165.918 295.053 166.266C294.603 166.613 294.378 167.038 294.378 167.54V167.636L291.328 167.694V159.066H306.325V161.286H294.378V164.644C295.523 163.705 297.485 163.235 300.264 163.235C301.577 163.235 302.741 163.441 303.758 163.853C304.775 164.252 305.566 164.837 306.132 165.609C306.711 166.381 307.001 167.295 307.001 168.35V168.369Z" fill="#111415"/>
<path d="M308.339 173.349V170.357H311.64V173.349L310.076 175.241H308.339L309.902 173.349H308.339Z" fill="#111415"/>
<path d="M326.698 159.066L318.978 173.349H315.851L322.24 161.518H312.878V159.066H326.698Z" fill="#111415"/>
<path d="M344.192 168.62C344.179 170.409 343.368 171.715 341.76 172.539C340.151 173.362 338.054 173.774 335.467 173.774C333.563 173.774 331.935 173.536 330.584 173.06C329.233 172.584 328.204 171.895 327.496 170.994C326.801 170.094 326.454 169.019 326.454 167.771H329.619C329.619 168.981 330.185 169.869 331.318 170.435C332.45 171.001 333.833 171.284 335.467 171.284C336.96 171.297 338.234 171.091 339.289 170.666C340.344 170.229 340.878 169.54 340.891 168.601C340.878 168.202 340.775 167.906 340.582 167.713C340.402 167.507 340.003 167.359 339.386 167.269C338.768 167.166 337.809 167.115 336.51 167.115H332.939V164.722H336.51C337.41 164.722 338.144 164.689 338.71 164.625C339.289 164.548 339.759 164.393 340.119 164.162C340.479 163.93 340.659 163.576 340.659 163.1C340.659 162.444 340.158 161.955 339.154 161.633C338.15 161.312 336.921 161.138 335.467 161.112C333.833 161.099 332.45 161.279 331.318 161.653C330.185 162.013 329.619 162.598 329.619 163.409H326.454C326.454 161.556 327.387 160.302 329.252 159.645C331.131 158.976 333.203 158.642 335.467 158.642C336.844 158.642 338.125 158.732 339.308 158.912C340.505 159.079 341.554 159.478 342.454 160.109C343.355 160.739 343.806 161.672 343.806 162.907C343.806 164.271 343.22 165.204 342.049 165.706C343.426 166.208 344.14 167.166 344.192 168.582V168.62Z" fill="#111415"/>
<path d="M360.771 165.513C361.659 165.77 362.328 166.182 362.778 166.748C363.241 167.301 363.473 168.054 363.473 169.006C363.473 170.911 362.643 172.191 360.983 172.847C359.323 173.504 357.387 173.832 355.174 173.832H354.556C353.089 173.832 351.731 173.735 350.483 173.542C349.248 173.362 348.148 172.918 347.183 172.21C346.218 171.503 345.735 170.441 345.735 169.026C345.722 168.009 345.935 167.224 346.372 166.671C346.822 166.105 347.504 165.699 348.418 165.455C346.99 164.992 346.276 164.052 346.276 162.637C346.276 161.415 346.816 160.514 347.897 159.935C348.991 159.343 350.091 158.983 351.197 158.854C352.304 158.712 353.404 158.635 354.498 158.622C355.617 158.622 356.763 158.693 357.934 158.835C359.117 158.963 360.243 159.324 361.311 159.916C362.392 160.495 362.933 161.395 362.933 162.618C362.933 164.11 362.212 165.075 360.771 165.513ZM354.479 160.707C353.063 160.694 351.86 160.842 350.869 161.151C349.891 161.46 349.402 161.955 349.402 162.637C349.402 163.332 349.904 163.834 350.908 164.143C351.912 164.438 353.128 164.574 354.556 164.548C356.01 164.574 357.239 164.438 358.242 164.143C359.259 163.834 359.767 163.332 359.767 162.637C359.767 161.955 359.253 161.46 358.223 161.151C357.194 160.842 355.946 160.694 354.479 160.707ZM354.517 171.458C356.151 171.483 357.535 171.303 358.667 170.917C359.799 170.518 360.366 169.881 360.366 169.006C360.366 168.119 359.799 167.482 358.667 167.096C357.535 166.697 356.158 166.51 354.537 166.536C352.915 166.51 351.545 166.697 350.425 167.096C349.306 167.482 348.746 168.119 348.746 169.006C348.746 169.881 349.306 170.518 350.425 170.917C351.545 171.303 352.909 171.483 354.517 171.458Z" fill="#111415"/>
<path d="M129.114 36.6073C129.815 36.7492 130.345 36.9954 130.704 37.3459C131.063 37.6881 131.243 38.1806 131.243 38.8233V38.8733C131.243 39.5995 131.059 40.1503 130.692 40.5259C130.333 40.9015 129.836 41.1519 129.202 41.2771C128.576 41.394 127.746 41.4607 126.711 41.4774H126.097L120.113 41.4649V32.2003H127.286C128.255 32.2087 129.027 32.409 129.603 32.8013C130.179 33.1935 130.467 33.7486 130.467 34.4664V34.5165C130.467 35.059 130.354 35.5014 130.128 35.8436C129.903 36.1858 129.565 36.4403 129.114 36.6073ZM128.388 34.8044C128.388 34.4539 128.313 34.2035 128.163 34.0532C128.013 33.8947 127.816 33.7987 127.574 33.7653C127.332 33.7236 126.982 33.7027 126.523 33.7027H122.153V35.9062L125.396 35.9437H125.271H126.523C126.99 35.9437 127.337 35.9312 127.562 35.9062C127.796 35.8728 127.992 35.7768 128.15 35.6182C128.309 35.4513 128.388 35.18 128.388 34.8044ZM126.923 39.8749C127.466 39.8749 127.871 39.854 128.138 39.8123C128.413 39.7706 128.63 39.6621 128.789 39.4868C128.947 39.3032 129.027 39.0069 129.027 38.5979C129.027 38.2056 128.947 37.9218 128.789 37.7466C128.63 37.5713 128.413 37.467 128.138 37.4336C127.871 37.3918 127.466 37.371 126.923 37.371H122.153V39.8499C124.106 39.8499 125.509 39.8582 126.36 39.8749H126.923Z" fill="#111415"/>
<path d="M136.496 34.3412C137.597 34.3412 138.582 34.5415 139.45 34.9421C140.327 35.3428 140.765 36.048 140.765 37.058V41.4649H138.937L138.749 40.2755C138.616 40.5259 138.365 40.7513 137.998 40.9516C137.631 41.1519 137.192 41.3105 136.683 41.4274C136.174 41.5359 135.653 41.5901 135.118 41.5901C134.476 41.5901 133.8 41.4566 133.09 41.1895C132.381 40.9141 132.026 40.3256 132.026 39.4242C132.026 38.5729 132.314 38.0095 132.89 37.734C133.466 37.4503 134.058 37.3084 134.668 37.3084C136.028 37.3084 136.967 37.3 137.485 37.2833C138.01 37.2583 138.353 37.2124 138.511 37.1456C138.678 37.0705 138.766 36.9453 138.774 36.77V36.6448C138.766 36.3443 138.532 36.094 138.073 35.8936C137.614 35.6933 137.084 35.5932 136.483 35.5932C135.824 35.5848 135.264 35.685 134.805 35.8936C134.346 36.094 134.117 36.4195 134.117 36.8702H132.101C132.101 36.2275 132.335 35.7184 132.802 35.3428C133.278 34.9672 133.846 34.7084 134.505 34.5665C135.173 34.4163 135.836 34.3412 136.496 34.3412ZM136.057 40.0627C137.059 40.0627 137.76 39.854 138.161 39.4367C138.561 39.0194 138.762 38.5311 138.762 37.9719C138.353 38.214 137.626 38.335 136.583 38.335C135.966 38.335 135.481 38.3559 135.131 38.3976C134.789 38.4393 134.534 38.5186 134.367 38.6355C134.2 38.744 134.113 38.9067 134.104 39.1237C134.121 39.4242 134.275 39.6579 134.567 39.8248C134.86 39.9834 135.356 40.0627 136.057 40.0627Z" fill="#111415"/>
<path d="M143.74 41.4649H141.737V32.2003H143.74V41.4649Z" fill="#111415"/>
<path d="M149.199 34.3412C150.3 34.3412 151.285 34.5415 152.153 34.9421C153.03 35.3428 153.468 36.048 153.468 37.058V41.4649H151.64L151.452 40.2755C151.319 40.5259 151.068 40.7513 150.701 40.9516C150.334 41.1519 149.896 41.3105 149.386 41.4274C148.877 41.5359 148.356 41.5901 147.821 41.5901C147.179 41.5901 146.503 41.4566 145.793 41.1895C145.084 40.9141 144.729 40.3256 144.729 39.4242C144.729 38.5729 145.017 38.0095 145.593 37.734C146.169 37.4503 146.761 37.3084 147.371 37.3084C148.731 37.3084 149.67 37.3 150.188 37.2833C150.714 37.2583 151.056 37.2124 151.214 37.1456C151.381 37.0705 151.469 36.9453 151.477 36.77V36.6448C151.469 36.3443 151.235 36.094 150.776 35.8936C150.317 35.6933 149.787 35.5932 149.186 35.5932C148.527 35.5848 147.968 35.685 147.509 35.8936C147.049 36.094 146.82 36.4195 146.82 36.8702H144.804C144.804 36.2275 145.038 35.7184 145.505 35.3428C145.981 34.9672 146.549 34.7084 147.208 34.5665C147.876 34.4163 148.539 34.3412 149.199 34.3412ZM148.76 40.0627C149.762 40.0627 150.463 39.854 150.864 39.4367C151.264 39.0194 151.465 38.5311 151.465 37.9719C151.056 38.214 150.33 38.335 149.286 38.335C148.669 38.335 148.185 38.3559 147.834 38.3976C147.492 38.4393 147.237 38.5186 147.07 38.6355C146.903 38.744 146.816 38.9067 146.807 39.1237C146.824 39.4242 146.979 39.6579 147.271 39.8248C147.563 39.9834 148.059 40.0627 148.76 40.0627Z" fill="#111415"/>
<path d="M159.46 34.4163C160.412 34.4163 161.154 34.7418 161.689 35.3928C162.223 36.0355 162.49 37.1206 162.49 38.648V41.4649H160.487V38.6855C160.487 38.1514 160.445 37.684 160.362 37.2833C160.278 36.8827 160.09 36.5447 159.798 36.2692C159.514 35.9855 159.085 35.8436 158.509 35.8436C157.916 35.8436 157.465 35.9855 157.157 36.2692C156.856 36.5447 156.66 36.8869 156.568 37.2958C156.485 37.7048 156.443 38.1848 156.443 38.7356V41.4649H154.44V34.6417H156.443V35.5431C157.102 34.7919 158.108 34.4163 159.46 34.4163Z" fill="#111415"/>
<path d="M163.214 38.0721C163.214 37.371 163.414 36.7408 163.815 36.1816C164.215 35.614 164.762 35.1717 165.455 34.8545C166.148 34.5373 166.916 34.3788 167.758 34.3788C168.977 34.3788 169.937 34.6417 170.638 35.1675C171.347 35.685 171.84 36.3944 172.115 37.2958H170.1C169.991 36.8618 169.724 36.4946 169.298 36.1941C168.881 35.8853 168.38 35.7309 167.796 35.7309C167.003 35.7392 166.381 35.9604 165.931 36.3944C165.48 36.8284 165.255 37.3877 165.255 38.0721C165.255 38.4644 165.346 38.8441 165.53 39.2114C165.722 39.5703 166.01 39.8624 166.394 40.0878C166.778 40.3131 167.245 40.4216 167.796 40.4133C168.389 40.4133 168.894 40.263 169.311 39.9626C169.728 39.6537 169.987 39.2865 170.087 38.8608H172.103C172.028 39.3616 171.786 39.8374 171.377 40.2881C170.968 40.7304 170.442 41.0893 169.799 41.3648C169.165 41.6319 168.485 41.7654 167.758 41.7654C166.941 41.7654 166.185 41.6068 165.492 41.2896C164.8 40.9641 164.245 40.5218 163.827 39.9626C163.418 39.395 163.214 38.7648 163.214 38.0721Z" fill="#111415"/>
<path d="M181.69 38.2098H174.742C174.767 38.6104 174.88 38.9818 175.08 39.324C175.28 39.6579 175.568 39.9292 175.944 40.1378C176.319 40.3465 176.774 40.4508 177.308 40.4508C177.751 40.4508 178.156 40.3715 178.523 40.2129C178.89 40.0544 179.178 39.8499 179.387 39.5995C179.595 39.3407 179.7 39.0695 179.7 38.7857H181.69C181.69 39.2948 181.515 39.7748 181.164 40.2255C180.822 40.6678 180.317 41.0267 179.65 41.3022C178.982 41.5776 178.193 41.7153 177.283 41.7153C176.457 41.7153 175.693 41.5609 174.992 41.2521C174.3 40.9433 173.744 40.5092 173.327 39.95C172.918 39.3825 172.714 38.7356 172.714 38.0095C172.714 37.275 172.914 36.6281 173.315 36.0689C173.715 35.5014 174.262 35.0673 174.955 34.7669C175.656 34.458 176.432 34.3036 177.283 34.3036C178.16 34.3036 178.928 34.4539 179.587 34.7543C180.246 35.0548 180.76 35.4805 181.127 36.0314C181.494 36.5739 181.682 37.2124 181.69 37.9469V38.0095V38.2098ZM177.308 35.5681C176.649 35.5681 176.123 35.7142 175.731 36.0063C175.339 36.2901 175.059 36.674 174.892 37.1581H179.6C179.483 36.674 179.241 36.2901 178.873 36.0063C178.506 35.7142 177.984 35.5681 177.308 35.5681Z" fill="#111415"/>
<path d="M193.14 32.2128H195.143V41.4274H193.403L193.24 40.6386C192.522 41.2813 191.395 41.5985 189.86 41.5901C189.217 41.5901 188.645 41.4315 188.144 41.1144C187.644 40.7889 187.251 40.3465 186.968 39.7873C186.692 39.2197 186.55 38.5937 186.542 37.9093V37.8592C186.55 37.2583 186.688 36.6907 186.955 36.1566C187.231 35.6224 187.619 35.1925 188.119 34.867C188.62 34.5415 189.2 34.3788 189.86 34.3788C191.295 34.3788 192.389 34.7251 193.14 35.4179V32.2128ZM190.924 40.3006C191.358 40.3006 191.742 40.1921 192.076 39.9751C192.41 39.7581 192.668 39.4743 192.852 39.1237C193.044 38.7732 193.14 38.4059 193.14 38.022V38.0095C193.14 37.5755 193.048 37.1832 192.864 36.8326C192.681 36.4737 192.418 36.1941 192.076 35.9938C191.742 35.7851 191.358 35.6808 190.924 35.6808C190.431 35.6808 190.01 35.7935 189.659 36.0188C189.309 36.2442 189.046 36.528 188.871 36.8702C188.704 37.204 188.616 37.5462 188.608 37.8968C188.616 38.2974 188.704 38.6814 188.871 39.0486C189.046 39.4159 189.305 39.7163 189.647 39.95C189.997 40.1837 190.423 40.3006 190.924 40.3006Z" fill="#111415"/>
<path d="M200.464 34.3412C201.565 34.3412 202.55 34.5415 203.418 34.9421C204.295 35.3428 204.733 36.048 204.733 37.058V41.4649H202.905L202.717 40.2755C202.584 40.5259 202.333 40.7513 201.966 40.9516C201.599 41.1519 201.16 41.3105 200.651 41.4274C200.142 41.5359 199.621 41.5901 199.086 41.5901C198.444 41.5901 197.768 41.4566 197.058 41.1895C196.349 40.9141 195.994 40.3256 195.994 39.4242C195.994 38.5729 196.282 38.0095 196.858 37.734C197.434 37.4503 198.026 37.3084 198.636 37.3084C199.996 37.3084 200.935 37.3 201.453 37.2833C201.978 37.2583 202.321 37.2124 202.479 37.1456C202.646 37.0705 202.734 36.9453 202.742 36.77V36.6448C202.734 36.3443 202.5 36.094 202.041 35.8936C201.582 35.6933 201.052 35.5932 200.451 35.5932C199.792 35.5848 199.232 35.685 198.773 35.8936C198.314 36.094 198.085 36.4195 198.085 36.8702H196.069C196.069 36.2275 196.303 35.7184 196.77 35.3428C197.246 34.9672 197.814 34.7084 198.473 34.5665C199.141 34.4163 199.804 34.3412 200.464 34.3412ZM200.025 40.0627C201.027 40.0627 201.728 39.854 202.129 39.4367C202.529 39.0194 202.73 38.5311 202.73 37.9719C202.321 38.214 201.595 38.335 200.551 38.335C199.934 38.335 199.449 38.3559 199.099 38.3976C198.757 38.4393 198.502 38.5186 198.335 38.6355C198.168 38.744 198.081 38.9067 198.072 39.1237C198.089 39.4242 198.243 39.6579 198.536 39.8248C198.828 39.9834 199.324 40.0627 200.025 40.0627Z" fill="#111415"/>
<path d="M209.01 34.6417H210.312V36.1691H209.01V41.4649H207.007V36.1691H205.642V34.6417H207.007V33.1643L209.01 32V34.6417Z" fill="#111415"/>
<path d="M213.234 41.4649H211.231V32.2003H213.234V41.4649Z" fill="#111415"/>
<path d="M218.693 34.3412C219.795 34.3412 220.78 34.5415 221.648 34.9421C222.524 35.3428 222.962 36.048 222.962 37.058V41.4649H221.134L220.947 40.2755C220.813 40.5259 220.563 40.7513 220.195 40.9516C219.828 41.1519 219.39 41.3105 218.881 41.4274C218.372 41.5359 217.85 41.5901 217.316 41.5901C216.673 41.5901 215.997 41.4566 215.288 41.1895C214.578 40.9141 214.223 40.3256 214.223 39.4242C214.223 38.5729 214.511 38.0095 215.087 37.734C215.663 37.4503 216.256 37.3084 216.865 37.3084C218.226 37.3084 219.165 37.3 219.682 37.2833C220.208 37.2583 220.55 37.2124 220.709 37.1456C220.876 37.0705 220.963 36.9453 220.972 36.77V36.6448C220.963 36.3443 220.73 36.094 220.27 35.8936C219.811 35.6933 219.281 35.5932 218.68 35.5932C218.021 35.5848 217.462 35.685 217.003 35.8936C216.544 36.094 216.314 36.4195 216.314 36.8702H214.299C214.299 36.2275 214.532 35.7184 215 35.3428C215.475 34.9672 216.043 34.7084 216.702 34.5665C217.37 34.4163 218.034 34.3412 218.693 34.3412ZM218.255 40.0627C219.256 40.0627 219.957 39.854 220.358 39.4367C220.759 39.0194 220.959 38.5311 220.959 37.9719C220.55 38.214 219.824 38.335 218.781 38.335C218.163 38.335 217.679 38.3559 217.328 38.3976C216.986 38.4393 216.732 38.5186 216.565 38.6355C216.398 38.744 216.31 38.9067 216.302 39.1237C216.318 39.4242 216.473 39.6579 216.765 39.8248C217.057 39.9834 217.554 40.0627 218.255 40.0627Z" fill="#111415"/>
<path d="M223.746 38.0721C223.746 37.371 223.947 36.7408 224.347 36.1816C224.748 35.614 225.295 35.1717 225.987 34.8545C226.68 34.5373 227.448 34.3788 228.291 34.3788C229.51 34.3788 230.469 34.6417 231.17 35.1675C231.88 35.685 232.372 36.3944 232.648 37.2958H230.632C230.524 36.8618 230.257 36.4946 229.831 36.1941C229.414 35.8853 228.913 35.7309 228.329 35.7309C227.536 35.7392 226.914 35.9604 226.463 36.3944C226.012 36.8284 225.787 37.3877 225.787 38.0721C225.787 38.4644 225.879 38.8441 226.062 39.2114C226.254 39.5703 226.542 39.8624 226.926 40.0878C227.31 40.3131 227.778 40.4216 228.329 40.4133C228.921 40.4133 229.426 40.263 229.843 39.9626C230.261 39.6537 230.519 39.2865 230.62 38.8608H232.635C232.56 39.3616 232.318 39.8374 231.909 40.2881C231.5 40.7304 230.974 41.0893 230.332 41.3648C229.697 41.6319 229.017 41.7654 228.291 41.7654C227.473 41.7654 226.718 41.6068 226.025 41.2896C225.332 40.9641 224.777 40.5218 224.36 39.9626C223.951 39.395 223.746 38.7648 223.746 38.0721Z" fill="#111415"/>
<path d="M242.223 38.2098H235.274C235.299 38.6104 235.412 38.9818 235.612 39.324C235.813 39.6579 236.101 39.9292 236.476 40.1378C236.852 40.3465 237.307 40.4508 237.841 40.4508C238.283 40.4508 238.688 40.3715 239.055 40.2129C239.423 40.0544 239.71 39.8499 239.919 39.5995C240.128 39.3407 240.232 39.0695 240.232 38.7857H242.223C242.223 39.2948 242.048 39.7748 241.697 40.2255C241.355 40.6678 240.85 41.0267 240.182 41.3022C239.514 41.5776 238.726 41.7153 237.816 41.7153C236.99 41.7153 236.226 41.5609 235.525 41.2521C234.832 40.9433 234.277 40.5092 233.86 39.95C233.451 39.3825 233.246 38.7356 233.246 38.0095C233.246 37.275 233.446 36.6281 233.847 36.0689C234.248 35.5014 234.794 35.0673 235.487 34.7669C236.188 34.458 236.964 34.3036 237.816 34.3036C238.692 34.3036 239.46 34.4539 240.119 34.7543C240.779 35.0548 241.292 35.4805 241.659 36.0314C242.027 36.5739 242.214 37.2124 242.223 37.9469V38.0095V38.2098ZM237.841 35.5681C237.181 35.5681 236.656 35.7142 236.263 36.0063C235.871 36.2901 235.591 36.674 235.425 37.1581H240.132C240.015 36.674 239.773 36.2901 239.406 36.0063C239.039 35.7142 238.517 35.5681 237.841 35.5681Z" fill="#111415"/>
<path d="M131.506 125.051C131.497 126.211 130.971 127.058 129.928 127.592C128.885 128.127 127.524 128.394 125.847 128.394C124.628 128.394 123.576 128.231 122.692 127.905C121.815 127.58 121.148 127.125 120.689 126.541C120.23 125.957 120 125.276 120 124.5H121.615C121.615 125.36 122.024 125.994 122.842 126.403C123.668 126.804 124.67 127.004 125.847 127.004C126.948 127.012 127.883 126.858 128.651 126.541C129.427 126.224 129.82 125.723 129.828 125.038C129.828 124.771 129.765 124.571 129.64 124.437C129.515 124.296 129.219 124.191 128.751 124.124C128.284 124.049 127.541 124.012 126.523 124.012H124.207V122.585H127.161C127.679 122.585 128.109 122.564 128.451 122.522C128.793 122.472 129.073 122.363 129.29 122.196C129.515 122.029 129.628 121.779 129.628 121.445C129.628 120.961 129.26 120.598 128.526 120.356C127.791 120.114 126.898 119.985 125.847 119.968C124.67 119.951 123.668 120.081 122.842 120.356C122.024 120.623 121.615 121.061 121.615 121.671H120C120 120.469 120.605 119.655 121.815 119.229C123.034 118.795 124.378 118.578 125.847 118.578C126.74 118.578 127.57 118.637 128.338 118.753C129.114 118.862 129.795 119.121 130.379 119.53C130.963 119.939 131.255 120.544 131.255 121.345C131.255 122.238 130.93 122.864 130.279 123.223C131.088 123.565 131.497 124.166 131.506 125.026V125.051Z" fill="#111415"/>
<path d="M132.641 128.118V126.365H134.506V128.118L133.567 129.245H132.628L133.567 128.118H132.641Z" fill="#111415"/>
<path d="M145.592 124.888C145.559 126.215 145.045 127.129 144.052 127.63C143.059 128.131 141.92 128.381 140.634 128.381C139.95 128.381 139.232 128.277 138.481 128.068C137.738 127.859 137.1 127.505 136.565 127.004C136.031 126.503 135.764 125.848 135.764 125.038L137.392 125.026C137.392 125.677 137.692 126.169 138.293 126.503C138.902 126.837 139.641 127.025 140.509 127.067C141.469 127.092 142.283 126.929 142.95 126.578C143.627 126.228 143.965 125.664 143.965 124.888C143.956 124.195 143.689 123.657 143.163 123.273C142.637 122.889 141.782 122.697 140.597 122.697C140.129 122.697 139.641 122.76 139.132 122.885C138.631 123.01 138.21 123.198 137.867 123.448C137.525 123.69 137.354 123.983 137.354 124.325V124.4L135.802 124.45V118.854H145.154V120.081H137.354V122.522C137.746 122.155 138.268 121.904 138.919 121.771C139.578 121.629 140.346 121.558 141.223 121.558C142.074 121.558 142.829 121.691 143.489 121.959C144.148 122.217 144.661 122.597 145.029 123.098C145.404 123.599 145.592 124.191 145.592 124.876V124.888Z" fill="#111415"/>
<path d="M152.362 118.879C154.649 118.87 156.185 119.338 156.97 120.281C157.763 121.224 158.159 122.317 158.159 123.561C158.159 124.78 157.758 125.894 156.957 126.904C156.164 127.905 154.633 128.406 152.362 128.406C150.768 128.406 149.537 128.139 148.669 127.605C147.809 127.062 147.242 126.428 146.966 125.702C146.691 124.976 146.566 124.262 146.591 123.561C146.591 122.351 146.979 121.27 147.755 120.318C148.54 119.359 150.075 118.879 152.362 118.879ZM152.375 127.217C153.376 127.217 154.186 127.042 154.804 126.691C155.43 126.34 155.876 125.89 156.143 125.339C156.41 124.78 156.531 124.175 156.506 123.523C156.531 122.906 156.41 122.334 156.143 121.808C155.876 121.274 155.43 120.844 154.804 120.519C154.186 120.185 153.376 120.018 152.375 120.018C151.382 120.018 150.572 120.185 149.946 120.519C149.328 120.844 148.886 121.274 148.619 121.808C148.36 122.334 148.243 122.906 148.268 123.523C148.243 124.175 148.36 124.78 148.619 125.339C148.886 125.89 149.328 126.34 149.946 126.691C150.572 127.042 151.382 127.217 152.375 127.217Z" fill="#111415"/>
<path d="M170.352 122.547C170.36 122.681 170.365 122.872 170.365 123.123C170.365 125.126 169.789 126.507 168.637 127.267C167.493 128.018 166.112 128.394 164.493 128.394C162.965 128.394 161.734 128.152 160.799 127.668C159.865 127.175 159.397 126.449 159.397 125.489L161.037 125.539C161.037 126.107 161.367 126.524 162.026 126.791C162.694 127.05 163.508 127.175 164.468 127.167C165.161 127.183 165.812 127.096 166.421 126.904C167.03 126.704 167.535 126.374 167.936 125.915C168.345 125.447 168.574 124.838 168.624 124.087C168.149 124.429 167.577 124.679 166.909 124.838C166.241 124.997 165.665 125.088 165.181 125.114C164.697 125.139 164.184 125.151 163.641 125.151C162.715 125.151 161.914 125.022 161.238 124.763C160.562 124.496 160.048 124.129 159.698 123.661C159.347 123.185 159.168 122.639 159.159 122.021V121.996C159.159 121.245 159.397 120.619 159.873 120.118C160.349 119.617 160.987 119.25 161.789 119.016C162.59 118.774 163.491 118.653 164.493 118.653C166.279 118.653 167.656 118.966 168.624 119.592C169.601 120.21 170.177 121.195 170.352 122.547ZM164.893 123.987C165.745 123.987 166.546 123.882 167.297 123.674C168.057 123.457 168.441 122.989 168.449 122.272C168.449 121.587 168.199 121.09 167.698 120.782C167.197 120.465 166.696 120.277 166.195 120.218C165.703 120.16 165.127 120.126 164.468 120.118C163.466 120.126 162.615 120.277 161.914 120.569C161.213 120.861 160.862 121.312 160.862 121.921C160.862 122.53 161.033 122.985 161.375 123.286C161.726 123.578 162.181 123.77 162.74 123.862C163.299 123.945 164.017 123.987 164.893 123.987Z" fill="#111415"/>
<path d="M179.637 125.339H180.951V126.716H179.637V128.118H178.009V126.716H171.424V125.339L178.009 118.854H179.637V125.339ZM178.009 120.606L173.502 125.339H178.009V120.606Z" fill="#111415"/>
<path d="M190.449 118.854L185.441 128.118H183.876L188.17 120.168H181.948V118.854H190.449Z" fill="#111415"/>
<path d="M196.157 118.879C198.444 118.87 199.98 119.338 200.764 120.281C201.557 121.224 201.954 122.317 201.954 123.561C201.954 124.78 201.553 125.894 200.752 126.904C199.959 127.905 198.427 128.406 196.157 128.406C194.563 128.406 193.332 128.139 192.464 127.605C191.604 127.062 191.036 126.428 190.761 125.702C190.486 124.976 190.36 124.262 190.385 123.561C190.385 122.351 190.773 121.27 191.55 120.318C192.334 119.359 193.87 118.879 196.157 118.879ZM196.17 127.217C197.171 127.217 197.981 127.042 198.598 126.691C199.224 126.34 199.671 125.89 199.938 125.339C200.205 124.78 200.326 124.175 200.301 123.523C200.326 122.906 200.205 122.334 199.938 121.808C199.671 121.274 199.224 120.844 198.598 120.519C197.981 120.185 197.171 120.018 196.17 120.018C195.176 120.018 194.367 120.185 193.741 120.519C193.123 120.844 192.681 121.274 192.414 121.808C192.155 122.334 192.038 122.906 192.063 123.523C192.038 124.175 192.155 124.78 192.414 125.339C192.681 125.89 193.123 126.34 193.741 126.691C194.367 127.042 195.176 127.217 196.17 127.217Z" fill="#111415"/>
<path d="M212.269 123.085C213.02 123.219 213.571 123.465 213.921 123.824C214.28 124.175 214.46 124.696 214.46 125.389C214.46 126.599 213.938 127.409 212.895 127.818C211.86 128.227 210.629 128.431 209.201 128.431H208.688C207.695 128.431 206.802 128.377 206.009 128.268C205.224 128.16 204.519 127.885 203.893 127.442C203.267 127 202.954 126.32 202.954 125.401C202.946 124.659 203.113 124.112 203.455 123.761C203.805 123.411 204.381 123.177 205.183 123.06C204.598 122.96 204.139 122.756 203.805 122.447C203.472 122.138 203.305 121.691 203.305 121.107C203.305 120.323 203.676 119.743 204.419 119.367C205.17 118.991 205.859 118.77 206.485 118.703C207.119 118.637 207.837 118.591 208.638 118.566C209.339 118.566 210.061 118.603 210.804 118.678C211.555 118.753 212.294 118.979 213.02 119.354C213.746 119.73 214.109 120.31 214.109 121.095C214.109 121.704 213.946 122.167 213.621 122.484C213.295 122.793 212.845 122.993 212.269 123.085ZM208.625 119.705C207.599 119.697 206.722 119.805 205.996 120.03C205.279 120.256 204.92 120.615 204.92 121.107C204.92 121.616 205.283 121.984 206.009 122.209C206.743 122.434 207.636 122.534 208.688 122.509C209.74 122.534 210.633 122.434 211.367 122.209C212.11 121.984 212.482 121.616 212.482 121.107C212.482 120.615 212.106 120.256 211.355 120.03C210.604 119.805 209.694 119.697 208.625 119.705ZM208.651 127.142C209.819 127.158 210.808 127.029 211.618 126.754C212.427 126.47 212.832 126.015 212.832 125.389C212.832 124.755 212.427 124.3 211.618 124.024C210.816 123.741 209.836 123.607 208.676 123.624C207.515 123.607 206.53 123.741 205.721 124.024C204.92 124.3 204.519 124.755 204.519 125.389C204.519 126.015 204.92 126.47 205.721 126.754C206.522 127.029 207.499 127.158 208.651 127.142Z" fill="#111415"/>
<path d="M223.9 118.854L218.892 128.118H217.327L221.621 120.168H215.399V118.854H223.9Z" fill="#111415"/>
<path d="M235.104 125.051C235.104 125.802 234.866 126.428 234.391 126.929C233.915 127.43 233.276 127.801 232.475 128.043C231.674 128.277 230.772 128.394 229.771 128.394C227.985 128.394 226.603 128.085 225.627 127.467C224.659 126.841 224.087 125.852 223.912 124.5C223.903 124.366 223.899 124.175 223.899 123.924C223.899 121.921 224.471 120.544 225.614 119.793C226.766 119.033 228.152 118.653 229.771 118.653C231.298 118.653 232.529 118.9 233.464 119.392C234.399 119.876 234.866 120.598 234.866 121.558L233.226 121.508C233.226 120.94 232.892 120.527 232.225 120.268C231.565 120.001 230.756 119.872 229.796 119.88C229.103 119.864 228.452 119.955 227.843 120.156C227.234 120.348 226.724 120.677 226.315 121.145C225.915 121.604 225.689 122.209 225.639 122.96C226.115 122.618 226.687 122.368 227.355 122.209C228.022 122.05 228.598 121.959 229.082 121.933C229.566 121.908 230.08 121.896 230.622 121.896C231.549 121.896 232.35 122.029 233.026 122.297C233.702 122.555 234.215 122.923 234.566 123.398C234.917 123.866 235.096 124.408 235.104 125.026V125.051ZM229.796 126.929C230.798 126.921 231.649 126.77 232.35 126.478C233.051 126.186 233.402 125.735 233.402 125.126C233.402 124.517 233.226 124.066 232.876 123.774C232.534 123.473 232.083 123.281 231.524 123.198C230.964 123.106 230.247 123.06 229.37 123.06C228.519 123.06 227.714 123.169 226.954 123.386C226.203 123.594 225.823 124.058 225.815 124.775C225.815 125.46 226.065 125.961 226.566 126.278C227.067 126.587 227.563 126.77 228.056 126.829C228.556 126.887 229.137 126.921 229.796 126.929Z" fill="#111415"/>
<path d="M249.426 123.261C250.128 123.402 250.658 123.649 251.016 123.999C251.375 124.341 251.555 124.834 251.555 125.477V125.527C251.555 126.303 251.371 126.875 251.004 127.242C250.645 127.609 250.161 127.847 249.552 127.955C248.951 128.056 248.108 128.114 247.023 128.131H246.397L240.8 128.118V118.854H247.599C248.567 118.862 249.339 119.062 249.915 119.455C250.491 119.847 250.779 120.402 250.779 121.12V121.17C250.779 121.712 250.666 122.155 250.441 122.497C250.215 122.839 249.877 123.094 249.426 123.261ZM249.176 121.383C249.176 120.999 249.093 120.719 248.926 120.544C248.767 120.369 248.558 120.26 248.3 120.218C248.041 120.177 247.669 120.156 247.185 120.156H242.415V122.61C242.799 122.618 243.179 122.622 243.555 122.622C243.93 122.622 244.285 122.626 244.619 122.635C245.403 122.635 245.821 122.639 245.871 122.647H247.185C247.695 122.647 248.066 122.63 248.3 122.597C248.542 122.564 248.746 122.459 248.913 122.284C249.088 122.1 249.176 121.8 249.176 121.383ZM242.415 122.772H242.44L242.415 122.76V122.772ZM247.586 126.779C248.162 126.779 248.592 126.758 248.876 126.716C249.159 126.666 249.385 126.541 249.552 126.34C249.727 126.132 249.815 125.798 249.815 125.339C249.815 124.896 249.727 124.579 249.552 124.387C249.385 124.187 249.159 124.066 248.876 124.024C248.592 123.974 248.162 123.949 247.586 123.949H242.415V126.754C244.51 126.754 246.025 126.762 246.96 126.779H247.586Z" fill="#111415"/>
<path d="M251.995 120.256V118.854H262.274L251.995 120.256ZM262.274 118.854V120.293H257.98V128.118H256.352V120.293H251.995V118.854H262.274Z" fill="#111415"/>
<path d="M262.459 123.498C262.459 122.572 262.706 121.737 263.198 120.995C263.699 120.252 264.379 119.672 265.239 119.254C266.099 118.829 267.054 118.616 268.106 118.616C269.366 118.616 270.472 118.929 271.424 119.555C272.383 120.181 273.076 121.07 273.502 122.221L271.799 122.246C271.624 121.779 271.328 121.378 270.91 121.045C270.493 120.711 270.03 120.46 269.521 120.293C269.02 120.118 268.552 120.03 268.118 120.03C267.467 120.03 266.829 120.168 266.203 120.444C265.585 120.711 265.076 121.107 264.675 121.633C264.283 122.159 264.087 122.781 264.087 123.498C264.087 124.233 264.271 124.859 264.638 125.376C265.005 125.894 265.493 126.286 266.103 126.553C266.72 126.82 267.392 126.954 268.118 126.954C268.544 126.954 268.991 126.875 269.458 126.716C269.925 126.549 270.364 126.303 270.773 125.977C271.182 125.652 271.507 125.255 271.749 124.788H273.514C273.047 125.957 272.342 126.845 271.399 127.455C270.464 128.064 269.366 128.369 268.106 128.369C267.063 128.369 266.107 128.156 265.239 127.73C264.379 127.304 263.699 126.72 263.198 125.977C262.706 125.235 262.459 124.408 262.459 123.498Z" fill="#111415"/>
<path d="M121.518 193.603H120.094V185.496H121.518V193.603Z" fill="#111415"/>
<path d="M126.732 187.435C127.536 187.435 128.164 187.716 128.617 188.279C129.077 188.841 129.307 189.794 129.307 191.138V193.603H127.938V191.171C127.938 190.418 127.813 189.79 127.565 189.286C127.317 188.775 126.802 188.52 126.02 188.52C125.217 188.52 124.684 188.779 124.421 189.297C124.165 189.809 124.038 190.459 124.038 191.247V193.603H122.668V187.632H124.038V188.454C124.636 187.775 125.535 187.435 126.732 187.435Z" fill="#111415"/>
<path d="M130.078 190.623C130.078 190.009 130.246 189.458 130.582 188.969C130.925 188.472 131.393 188.085 131.984 187.808C132.583 187.53 133.248 187.391 133.978 187.391C135.03 187.391 135.844 187.61 136.421 188.049C136.998 188.487 137.425 189.1 137.703 189.889H136.322C136.257 189.626 136.118 189.378 135.906 189.144C135.694 188.91 135.424 188.724 135.095 188.585C134.767 188.447 134.405 188.377 134.011 188.377C133.47 188.377 133.01 188.476 132.631 188.673C132.251 188.87 131.962 189.14 131.765 189.484C131.575 189.82 131.48 190.199 131.48 190.623C131.48 190.988 131.572 191.346 131.754 191.696C131.937 192.047 132.218 192.336 132.598 192.562C132.978 192.781 133.449 192.883 134.011 192.869C134.413 192.869 134.778 192.799 135.106 192.661C135.435 192.514 135.702 192.328 135.906 192.102C136.118 191.868 136.253 191.623 136.311 191.368H137.692C137.641 191.777 137.432 192.175 137.067 192.562C136.709 192.942 136.253 193.252 135.698 193.493C135.15 193.734 134.577 193.855 133.978 193.855C133.284 193.855 132.638 193.716 132.039 193.438C131.44 193.153 130.962 192.763 130.604 192.266C130.253 191.77 130.078 191.222 130.078 190.623Z" fill="#111415"/>
<path d="M142.269 187.38C142.985 187.38 143.628 187.519 144.197 187.797C144.774 188.074 145.223 188.461 145.545 188.958C145.873 189.447 146.038 189.999 146.038 190.612C146.038 191.218 145.873 191.77 145.545 192.266C145.223 192.755 144.774 193.139 144.197 193.416C143.628 193.694 142.985 193.833 142.269 193.833C141.583 193.833 140.936 193.694 140.33 193.416C139.731 193.132 139.253 192.745 138.895 192.255C138.537 191.759 138.358 191.211 138.358 190.612C138.358 190.006 138.537 189.458 138.895 188.969C139.253 188.472 139.731 188.085 140.33 187.808C140.929 187.523 141.575 187.38 142.269 187.38ZM142.28 192.847C142.952 192.847 143.518 192.668 143.978 192.31C144.438 191.945 144.668 191.379 144.668 190.612C144.668 189.845 144.438 189.279 143.978 188.914C143.518 188.549 142.952 188.366 142.28 188.366C141.857 188.366 141.451 188.443 141.064 188.596C140.677 188.75 140.359 188.994 140.111 189.33C139.87 189.666 139.75 190.093 139.75 190.612C139.75 191.13 139.87 191.558 140.111 191.894C140.359 192.222 140.674 192.463 141.053 192.617C141.44 192.77 141.849 192.847 142.28 192.847Z" fill="#111415"/>
<path d="M156.3 187.435C156.891 187.435 157.373 187.556 157.746 187.797C158.125 188.038 158.406 188.428 158.589 188.969C158.779 189.509 158.874 190.232 158.874 191.138V193.603H157.515V191.171C157.515 190.477 157.366 189.86 157.066 189.319C156.767 188.779 156.248 188.509 155.511 188.509C154.978 188.509 154.569 188.626 154.284 188.859C154.006 189.086 153.82 189.385 153.725 189.757C153.63 190.13 153.583 190.59 153.583 191.138V193.603H152.202V191.171C152.202 190.455 152.067 189.834 151.797 189.308C151.534 188.775 151.041 188.509 150.318 188.509C149.668 188.509 149.194 188.64 148.894 188.903C148.602 189.159 148.419 189.502 148.346 189.933C148.273 190.364 148.237 190.984 148.237 191.795V193.603H146.856V187.632H147.875L148.237 188.487V188.542C148.865 187.804 149.796 187.435 151.03 187.435C151.593 187.435 152.045 187.545 152.389 187.764C152.739 187.983 153.009 188.337 153.199 188.826C153.462 188.33 153.846 187.976 154.35 187.764C154.853 187.545 155.503 187.435 156.3 187.435Z" fill="#111415"/>
<path d="M167.228 190.7H161.006C161.028 191.072 161.134 191.423 161.324 191.751C161.514 192.073 161.795 192.336 162.167 192.54C162.54 192.744 162.993 192.847 163.526 192.847C163.986 192.847 164.391 192.766 164.742 192.606C165.1 192.438 165.373 192.233 165.563 191.992C165.76 191.744 165.859 191.507 165.859 191.28H167.228C167.228 191.66 167.082 192.047 166.79 192.441C166.498 192.836 166.071 193.164 165.509 193.427C164.946 193.69 164.278 193.822 163.504 193.822C162.81 193.822 162.167 193.687 161.576 193.416C160.984 193.139 160.513 192.755 160.163 192.266C159.812 191.77 159.637 191.207 159.637 190.579C159.637 189.936 159.805 189.37 160.141 188.881C160.484 188.385 160.948 188.005 161.532 187.742C162.124 187.472 162.781 187.336 163.504 187.336C164.241 187.336 164.888 187.468 165.443 187.731C166.005 187.994 166.44 188.366 166.746 188.848C167.06 189.323 167.221 189.882 167.228 190.524V190.7ZM163.526 188.322C162.898 188.322 162.39 188.461 162.003 188.739C161.616 189.016 161.338 189.381 161.17 189.834H165.771C165.647 189.381 165.403 189.016 165.037 188.739C164.68 188.461 164.176 188.322 163.526 188.322Z" fill="#111415"/>
<path d="M279.769 189.988H274.007V192.387L280.689 192.343V193.603H272.583V185.496H280.689L280.7 186.756H274.007V188.728H279.769V189.988Z" fill="#111415"/>
<path d="M287.566 187.632H289.275L286.58 190.645L289.275 193.603H287.566L285.287 191.138L283.008 193.603H281.3L284.005 190.645L281.3 187.632H283.008L285.287 190.13L287.566 187.632Z" fill="#111415"/>
<path d="M297.042 190.754C297.027 191.28 296.903 191.777 296.67 192.244C296.436 192.704 296.1 193.08 295.662 193.373C295.231 193.657 294.723 193.8 294.139 193.8C292.876 193.8 291.912 193.486 291.247 192.858V195.684H289.878V187.632H291.017L291.192 188.509C291.879 187.837 292.861 187.501 294.139 187.501C294.701 187.501 295.198 187.64 295.629 187.917C296.067 188.195 296.41 188.574 296.659 189.056C296.907 189.538 297.035 190.079 297.042 190.678V190.754ZM293.372 192.836C293.847 192.836 294.249 192.726 294.577 192.507C294.913 192.281 295.165 192.003 295.333 191.675C295.508 191.339 295.6 191.014 295.607 190.7C295.6 190.327 295.516 189.973 295.355 189.637C295.202 189.294 294.957 189.013 294.621 188.793C294.292 188.567 293.876 188.454 293.372 188.454C292.956 188.454 292.587 188.56 292.266 188.772C291.944 188.976 291.692 189.246 291.51 189.582C291.335 189.911 291.247 190.258 291.247 190.623C291.247 191.025 291.335 191.393 291.51 191.729C291.685 192.065 291.933 192.336 292.255 192.54C292.583 192.737 292.956 192.836 293.372 192.836Z" fill="#111415"/>
<path d="M305.35 190.7H299.128C299.149 191.072 299.255 191.423 299.445 191.751C299.635 192.073 299.916 192.336 300.289 192.54C300.661 192.744 301.114 192.847 301.647 192.847C302.107 192.847 302.513 192.766 302.863 192.606C303.221 192.438 303.495 192.233 303.685 191.992C303.882 191.744 303.981 191.507 303.981 191.28H305.35C305.35 191.66 305.204 192.047 304.912 192.441C304.62 192.836 304.192 193.164 303.63 193.427C303.068 193.69 302.399 193.822 301.625 193.822C300.931 193.822 300.289 193.687 299.697 193.416C299.106 193.139 298.635 192.755 298.284 192.266C297.934 191.77 297.758 191.207 297.758 190.579C297.758 189.936 297.926 189.37 298.262 188.881C298.605 188.385 299.069 188.005 299.653 187.742C300.245 187.472 300.902 187.336 301.625 187.336C302.363 187.336 303.009 187.468 303.564 187.731C304.127 187.994 304.561 188.366 304.868 188.848C305.182 189.323 305.343 189.882 305.35 190.524V190.7ZM301.647 188.322C301.019 188.322 300.512 188.461 300.124 188.739C299.737 189.016 299.46 189.381 299.292 189.834H303.893C303.769 189.381 303.524 189.016 303.159 188.739C302.801 188.461 302.297 188.322 301.647 188.322Z" fill="#111415"/>
<path d="M310.235 187.435C311.038 187.435 311.666 187.716 312.119 188.279C312.579 188.841 312.809 189.794 312.809 191.138V193.603H311.44V191.171C311.44 190.418 311.316 189.79 311.068 189.286C310.819 188.775 310.304 188.52 309.523 188.52C308.72 188.52 308.186 188.779 307.923 189.297C307.668 189.809 307.54 190.459 307.54 191.247V193.603H306.171V187.632H307.54V188.454C308.139 187.775 309.037 187.435 310.235 187.435Z" fill="#111415"/>
<path d="M317.798 190.163C318.331 190.163 318.791 190.199 319.178 190.272C319.566 190.345 319.887 190.506 320.143 190.754C320.405 190.995 320.537 191.353 320.537 191.828C320.537 192.427 320.347 192.876 319.967 193.175C319.587 193.475 319.153 193.661 318.664 193.734C318.182 193.814 317.645 193.855 317.053 193.855C316.148 193.855 315.315 193.705 314.556 193.405C313.796 193.099 313.416 192.514 313.416 191.653L314.786 191.675C314.786 192.076 315.016 192.372 315.476 192.562C315.943 192.745 316.469 192.836 317.053 192.836C317.864 192.836 318.43 192.763 318.751 192.617C319.073 192.471 319.233 192.241 319.233 191.927C319.233 191.605 319.062 191.397 318.718 191.302C318.375 191.2 317.948 191.149 317.437 191.149H316.955C315.991 191.141 315.158 190.999 314.457 190.722C313.763 190.444 313.416 189.951 313.416 189.243C313.416 188.483 313.778 187.986 314.501 187.753C315.224 187.512 316.06 187.391 317.009 187.391C317.915 187.391 318.729 187.541 319.452 187.84C320.175 188.14 320.537 188.72 320.537 189.582L319.168 189.56C319.168 189.086 318.916 188.772 318.412 188.618C317.915 188.458 317.444 188.377 316.998 188.377C316.363 188.377 315.834 188.432 315.41 188.542C314.994 188.651 314.786 188.881 314.786 189.232C314.786 189.546 314.961 189.783 315.311 189.944C315.669 190.097 316.224 190.174 316.977 190.174L317.798 190.163Z" fill="#111415"/>
<path d="M328.789 190.7H322.567C322.589 191.072 322.695 191.423 322.885 191.751C323.074 192.073 323.356 192.336 323.728 192.54C324.101 192.744 324.553 192.847 325.087 192.847C325.547 192.847 325.952 192.766 326.303 192.606C326.66 192.438 326.934 192.233 327.124 191.992C327.321 191.744 327.42 191.507 327.42 191.28H328.789C328.789 191.66 328.643 192.047 328.351 192.441C328.059 192.836 327.632 193.164 327.069 193.427C326.507 193.69 325.839 193.822 325.065 193.822C324.371 193.822 323.728 193.687 323.137 193.416C322.545 193.139 322.074 192.755 321.723 192.266C321.373 191.77 321.198 191.207 321.198 190.579C321.198 189.936 321.366 189.37 321.702 188.881C322.045 188.385 322.508 188.005 323.093 187.742C323.684 187.472 324.342 187.336 325.065 187.336C325.802 187.336 326.449 187.468 327.004 187.731C327.566 187.994 328.001 188.366 328.307 188.848C328.621 189.323 328.782 189.882 328.789 190.524V190.7ZM325.087 188.322C324.458 188.322 323.951 188.461 323.564 188.739C323.177 189.016 322.899 189.381 322.731 189.834H327.332C327.208 189.381 326.963 189.016 326.598 188.739C326.24 188.461 325.737 188.322 325.087 188.322Z" fill="#111415"/>
<rect x="301.126" y="221.238" width="134.32" height="38.9333" rx="3.89333" stroke="#111415" stroke-width="1.29778"/>
<path d="M357.125 239.408C358.125 239.408 358.957 239.452 359.621 239.54C360.293 239.628 360.86 239.844 361.324 240.188C361.796 240.524 362.032 241.039 362.032 241.735C362.032 242.959 361.5 243.783 360.436 244.207C359.373 244.631 358.177 244.843 356.849 244.843C356.113 244.843 355.345 244.763 354.545 244.603C353.746 244.451 353.038 244.139 352.422 243.667C351.806 243.187 351.498 242.511 351.498 241.639L353.61 241.603C353.61 242.107 353.806 242.483 354.197 242.731C354.589 242.971 355.017 243.119 355.481 243.175C355.945 243.231 356.445 243.259 356.981 243.259C357.797 243.259 358.497 243.147 359.081 242.923C359.665 242.691 359.961 242.311 359.969 241.783V241.771C359.969 241.515 359.805 241.323 359.477 241.195C359.157 241.067 358.801 240.991 358.409 240.967C358.017 240.935 357.541 240.915 356.981 240.907H356.717C355.581 240.907 354.665 240.863 353.97 240.775C353.274 240.687 352.686 240.468 352.206 240.116C351.734 239.756 351.498 239.196 351.498 238.436C351.498 237.196 352.05 236.384 353.154 236C354.265 235.616 355.497 235.424 356.849 235.424C357.569 235.424 358.313 235.504 359.081 235.664C359.857 235.816 360.54 236.132 361.132 236.612C361.732 237.084 362.032 237.756 362.032 238.628H359.933C359.933 238.116 359.637 237.732 359.045 237.476C358.453 237.212 357.733 237.064 356.885 237.032C355.957 237.032 355.169 237.144 354.521 237.368C353.882 237.584 353.562 237.928 353.562 238.4C353.562 238.816 353.866 239.088 354.473 239.216C355.089 239.344 355.817 239.408 356.657 239.408H357.125Z" fill="#111415"/>
<path d="M371.323 241.447H364.664C364.688 241.831 364.796 242.187 364.988 242.515C365.179 242.835 365.455 243.095 365.815 243.295C366.175 243.495 366.611 243.595 367.123 243.595C367.547 243.595 367.935 243.519 368.287 243.367C368.639 243.215 368.915 243.019 369.115 242.779C369.315 242.531 369.415 242.271 369.415 241.999H371.323C371.323 242.487 371.155 242.947 370.819 243.379C370.491 243.803 370.007 244.147 369.367 244.411C368.727 244.675 367.971 244.807 367.099 244.807C366.307 244.807 365.575 244.659 364.904 244.363C364.24 244.067 363.708 243.651 363.308 243.115C362.916 242.571 362.72 241.951 362.72 241.255C362.72 240.551 362.912 239.932 363.296 239.396C363.68 238.852 364.204 238.436 364.868 238.148C365.539 237.852 366.283 237.704 367.099 237.704C367.939 237.704 368.675 237.848 369.307 238.136C369.939 238.424 370.431 238.832 370.783 239.36C371.135 239.88 371.315 240.492 371.323 241.195V241.255V241.447ZM367.123 238.916C366.491 238.916 365.987 239.056 365.611 239.336C365.235 239.608 364.968 239.976 364.808 240.44H369.319C369.207 239.976 368.975 239.608 368.623 239.336C368.271 239.056 367.771 238.916 367.123 238.916Z" fill="#111415"/>
<path d="M376.897 237.812C377.809 237.812 378.521 238.124 379.033 238.748C379.545 239.364 379.801 240.404 379.801 241.867V244.567H377.881V241.903C377.881 241.391 377.841 240.943 377.761 240.559C377.681 240.176 377.501 239.852 377.221 239.588C376.949 239.316 376.537 239.18 375.985 239.18C375.417 239.18 374.985 239.316 374.689 239.588C374.402 239.852 374.214 240.18 374.126 240.571C374.046 240.963 374.006 241.423 374.006 241.951V244.567H372.086V238.028H374.006V238.892C374.637 238.172 375.601 237.812 376.897 237.812Z" fill="#111415"/>
<path d="M383.842 238.028H385.09V239.492H383.842V244.567H381.922V239.492H380.614V238.028H381.922V236.612L383.842 235.496V238.028Z" fill="#111415"/>
<rect x="122.681" y="220.589" width="164.169" height="40.2311" rx="4.54222" fill="#111415"/>
<path d="M178.978 244.543L176.518 241.675H173.338V244.543H171.347V235.664H177.622C178.366 235.664 179.022 235.788 179.589 236.036C180.165 236.284 180.609 236.632 180.921 237.08C181.241 237.52 181.401 238.032 181.401 238.616V238.664C181.401 239.424 181.177 240.052 180.729 240.548C180.289 241.043 179.677 241.375 178.894 241.543L181.473 244.543H178.978ZM179.361 238.712C179.361 238.256 179.273 237.924 179.098 237.716C178.93 237.508 178.714 237.38 178.45 237.332C178.186 237.284 177.814 237.26 177.334 237.26C177.118 237.26 176.934 237.264 176.782 237.272C175.702 237.296 174.554 237.308 173.338 237.308V240.08H177.334C177.814 240.08 178.186 240.06 178.45 240.02C178.714 239.972 178.93 239.852 179.098 239.66C179.273 239.46 179.361 239.144 179.361 238.712Z" fill="#EFEFEF"/>
<path d="M190.193 241.447H183.534C183.558 241.831 183.666 242.187 183.858 242.515C184.05 242.835 184.326 243.095 184.686 243.295C185.046 243.495 185.482 243.595 185.994 243.595C186.418 243.595 186.806 243.519 187.158 243.367C187.51 243.215 187.786 243.019 187.986 242.779C188.186 242.531 188.286 242.271 188.286 241.999H190.193C190.193 242.487 190.025 242.947 189.689 243.379C189.361 243.803 188.877 244.147 188.238 244.411C187.598 244.675 186.842 244.807 185.97 244.807C185.178 244.807 184.446 244.659 183.774 244.363C183.11 244.067 182.578 243.651 182.178 243.115C181.787 242.571 181.591 241.951 181.591 241.255C181.591 240.552 181.783 239.932 182.166 239.396C182.55 238.852 183.074 238.436 183.738 238.148C184.41 237.852 185.154 237.704 185.97 237.704C186.81 237.704 187.546 237.848 188.178 238.136C188.809 238.424 189.301 238.832 189.653 239.36C190.005 239.88 190.185 240.492 190.193 241.195V241.255V241.447ZM185.994 238.916C185.362 238.916 184.858 239.056 184.482 239.336C184.106 239.608 183.838 239.976 183.678 240.44H188.19C188.078 239.976 187.846 239.608 187.494 239.336C187.142 239.056 186.642 238.916 185.994 238.916Z" fill="#EFEFEF"/>
<path d="M190.777 241.315C190.777 240.644 190.969 240.04 191.353 239.504C191.736 238.96 192.26 238.536 192.924 238.232C193.588 237.928 194.324 237.776 195.132 237.776C196.3 237.776 197.22 238.028 197.891 238.532C198.571 239.028 199.043 239.708 199.307 240.572H197.376C197.272 240.156 197.016 239.804 196.608 239.516C196.208 239.22 195.728 239.072 195.168 239.072C194.408 239.08 193.812 239.292 193.38 239.708C192.948 240.124 192.732 240.66 192.732 241.315C192.732 241.691 192.82 242.055 192.996 242.407C193.18 242.751 193.456 243.031 193.824 243.247C194.192 243.463 194.64 243.567 195.168 243.559C195.736 243.559 196.22 243.415 196.62 243.127C197.02 242.831 197.268 242.479 197.364 242.071H199.295C199.223 242.551 198.991 243.007 198.599 243.439C198.207 243.863 197.703 244.207 197.088 244.471C196.48 244.727 195.828 244.855 195.132 244.855C194.348 244.855 193.624 244.703 192.96 244.399C192.296 244.087 191.764 243.663 191.365 243.127C190.973 242.583 190.777 241.979 190.777 241.315Z" fill="#EFEFEF"/>
<path d="M208.483 241.447H201.824C201.848 241.831 201.956 242.187 202.148 242.515C202.34 242.835 202.616 243.095 202.976 243.295C203.336 243.495 203.772 243.595 204.284 243.595C204.708 243.595 205.096 243.519 205.448 243.367C205.8 243.215 206.076 243.019 206.276 242.779C206.476 242.531 206.576 242.271 206.576 241.999H208.483C208.483 242.487 208.315 242.947 207.979 243.379C207.651 243.803 207.167 244.147 206.528 244.411C205.888 244.675 205.132 244.807 204.26 244.807C203.468 244.807 202.736 244.659 202.064 244.363C201.4 244.067 200.868 243.651 200.469 243.115C200.077 242.571 199.881 241.951 199.881 241.255C199.881 240.552 200.073 239.932 200.457 239.396C200.84 238.852 201.364 238.436 202.028 238.148C202.7 237.852 203.444 237.704 204.26 237.704C205.1 237.704 205.836 237.848 206.468 238.136C207.099 238.424 207.591 238.832 207.943 239.36C208.295 239.88 208.475 240.492 208.483 241.195V241.255V241.447ZM204.284 238.916C203.652 238.916 203.148 239.056 202.772 239.336C202.396 239.608 202.128 239.976 201.968 240.44H206.48C206.368 239.976 206.136 239.608 205.784 239.336C205.432 239.056 204.932 238.916 204.284 238.916Z" fill="#EFEFEF"/>
<path d="M211.166 235.688H209.247V237.14H211.166V235.688ZM211.166 244.567H209.247V237.488H211.166V244.567Z" fill="#EFEFEF"/>
<path d="M216.269 243.019L218.429 238.028L220.612 238.016L217.397 244.567H215.129L211.926 238.028H214.109L216.269 243.019Z" fill="#EFEFEF"/>
<path d="M228.953 241.447H222.294C222.318 241.831 222.426 242.187 222.618 242.515C222.81 242.835 223.086 243.095 223.446 243.295C223.805 243.495 224.241 243.595 224.753 243.595C225.177 243.595 225.565 243.519 225.917 243.367C226.269 243.215 226.545 243.019 226.745 242.779C226.945 242.531 227.045 242.271 227.045 241.999H228.953C228.953 242.487 228.785 242.947 228.449 243.379C228.121 243.803 227.637 244.147 226.997 244.411C226.357 244.675 225.601 244.807 224.729 244.807C223.937 244.807 223.206 244.659 222.534 244.363C221.87 244.067 221.338 243.651 220.938 243.115C220.546 242.571 220.35 241.951 220.35 241.255C220.35 240.552 220.542 239.932 220.926 239.396C221.31 238.852 221.834 238.436 222.498 238.148C223.17 237.852 223.913 237.704 224.729 237.704C225.569 237.704 226.305 237.848 226.937 238.136C227.569 238.424 228.061 238.832 228.413 239.36C228.765 239.88 228.945 240.492 228.953 241.195V241.255V241.447ZM224.753 238.916C224.121 238.916 223.617 239.056 223.242 239.336C222.866 239.608 222.598 239.976 222.438 240.44H226.949C226.837 239.976 226.605 239.608 226.253 239.336C225.901 239.056 225.401 238.916 224.753 238.916Z" fill="#EFEFEF"/>
<path d="M235.871 235.7H237.791V244.531H236.123L235.967 243.775C235.279 244.391 234.199 244.695 232.728 244.687C232.112 244.687 231.564 244.535 231.084 244.231C230.604 243.919 230.228 243.495 229.956 242.959C229.692 242.415 229.556 241.815 229.548 241.159V241.111C229.556 240.536 229.688 239.992 229.944 239.48C230.208 238.968 230.58 238.556 231.06 238.244C231.54 237.932 232.096 237.776 232.728 237.776C234.103 237.776 235.151 238.108 235.871 238.772V235.7ZM233.747 243.451C234.163 243.451 234.531 243.347 234.851 243.139C235.171 242.931 235.419 242.659 235.595 242.323C235.779 241.987 235.871 241.635 235.871 241.267V241.255C235.871 240.839 235.783 240.464 235.607 240.128C235.431 239.784 235.179 239.516 234.851 239.324C234.531 239.124 234.163 239.024 233.747 239.024C233.275 239.024 232.872 239.132 232.536 239.348C232.2 239.564 231.948 239.836 231.78 240.164C231.62 240.484 231.536 240.811 231.528 241.147C231.536 241.531 231.62 241.899 231.78 242.251C231.948 242.603 232.196 242.891 232.524 243.115C232.86 243.339 233.267 243.451 233.747 243.451Z" fill="#EFEFEF"/>
</svg>
