<svg width="25" height="24" viewBox="0 0 25 24" fill="none" xmlns="http://www.w3.org/2000/svg">
<path d="M7.59566 6.15928C7.07391 7.7522 6.8652 9.55753 6.76087 11.469H11.9783V6.15928H7.59566ZM5.7174 12.531H0.5C0.604331 14.4425 1.12609 16.2478 1.96088 17.8407H6.44782C6.03045 16.2478 5.82174 14.4425 5.7174 12.531ZM7.90871 5.09735H11.9783V0.424762C10.3087 0.743347 8.84784 2.54867 7.90871 5.09735ZM13.0217 0.424762V5.09735H17.0913C16.1522 2.54867 14.6913 0.743347 13.0217 0.424762ZM17.4043 6.15928H13.0217V11.469H18.2391C18.1348 9.55753 17.9261 7.7522 17.4043 6.15928ZM19.2826 12.531C19.2826 14.4425 18.9696 16.2478 18.5522 17.8407H23.0391C23.8739 16.2478 24.3956 14.4425 24.5 12.531H19.2826ZM6.76087 12.531C6.8652 14.4425 7.07391 16.2478 7.59566 17.8407H11.9783V12.531H6.76087ZM1.96088 6.15928C1.12609 7.7522 0.604331 9.55753 0.5 11.469H5.7174C5.82174 9.55753 6.03045 7.7522 6.44782 6.15928H1.96088ZM7.90871 18.9027C8.84784 21.4513 10.3087 23.2567 11.9783 23.5752V18.9027H7.90871ZM6.76087 18.9027H2.58697C4.3609 21.4513 6.96958 23.3628 10.1 24C8.74346 23.0442 7.59566 21.2389 6.76087 18.9027ZM18.1348 18.9027C17.4043 21.2389 16.2565 23.0442 14.7956 24C17.926 23.3628 20.6391 21.5575 22.3086 18.9027H18.1348ZM14.9 0C16.2565 0.955753 17.4043 2.76108 18.2391 5.09735H22.413C20.6391 2.54867 18.0304 0.637169 14.9 0ZM2.6913 5.09735H6.8652C7.59561 2.76108 8.74346 0.955753 10.2043 0C7.07391 0.637169 4.36085 2.44245 2.6913 5.09735ZM13.0217 18.9027V23.5752C14.6913 23.2567 16.1522 21.4513 17.0913 18.9027H13.0217ZM13.0217 12.531V17.8407H17.4043C17.9261 16.2478 18.1348 14.4425 18.2391 12.531H13.0217ZM23.0391 6.15928H18.5522C18.9696 7.7522 19.1783 9.55753 19.2826 11.469H24.5C24.3956 9.55753 23.8739 7.7522 23.0391 6.15928Z" fill="#EFEFEF"/>
</svg>
