<svg width="14" height="14" viewBox="0 0 14 14" fill="none" xmlns="http://www.w3.org/2000/svg">
<path fill-rule="evenodd" clip-rule="evenodd" d="M10.9041 14C10.7931 13.9999 10.6839 13.9716 10.5858 13.9175L6.99994 11.9455L3.41408 13.9175C3.3012 13.9791 3.1741 14.0066 3.04711 13.9967C2.92011 13.9869 2.79827 13.9402 2.69529 13.8618C2.59231 13.7834 2.51229 13.6766 2.46425 13.5532C2.41621 13.4298 2.40205 13.2949 2.42336 13.1635L3.10722 8.9866L0.206091 6.02864C0.114817 5.9354 0.0502927 5.81731 0.01981 5.68772C-0.0106728 5.55813 -0.00589837 5.4222 0.0335936 5.2953C0.0730856 5.1684 0.14572 5.05559 0.243289 4.96961C0.340858 4.88363 0.459469 4.82792 0.585719 4.80877L4.59417 4.19883L6.3871 0.398882C6.44357 0.279152 6.53093 0.178341 6.63931 0.10785C6.74769 0.0373583 6.87276 0 7.00038 0C7.128 0 7.25307 0.0373583 7.36145 0.10785C7.46983 0.178341 7.5572 0.279152 7.61366 0.398882L9.40659 4.19883L13.415 4.80877C13.5412 4.82806 13.6597 4.88387 13.7572 4.96991C13.8546 5.05595 13.9272 5.16877 13.9666 5.29565C14.0059 5.42253 14.0106 5.5584 13.9801 5.68792C13.9496 5.81745 13.8851 5.93546 13.7938 6.02864L10.8935 8.9866L11.5774 13.1635C11.5942 13.2662 11.5895 13.3714 11.5634 13.4719C11.5373 13.5724 11.4906 13.6658 11.4265 13.7454C11.3624 13.8251 11.2824 13.8891 11.1922 13.9331C11.1019 13.9771 11.0036 13.9999 10.9041 14Z" fill="#FFC205"/>
</svg>
