<svg width="23" height="24" fill="none" xmlns="http://www.w3.org/2000/svg"><g clip-path="url(#clip0_138_1584)" fill="#EFEFEF"><path d="M22.797 7.07L15.822 14l6.975 6.93a1.98 1.98 0 00.203-.866V7.936c0-.312-.076-.603-.203-.867zm-1.819-1.156H2.021c-.31 0-.602.077-.866.203l8.916 8.87c.788.788 2.07.788 2.858 0l8.915-8.87a1.997 1.997 0 00-.866-.203zM.204 7.07A1.998 1.998 0 000 7.936v12.128c0 .312.076.603.203.866L7.178 14 .203 7.07z"/><path d="M14.87 14.953l-.988.987a3.373 3.373 0 01-4.764 0l-.987-.987-6.976 6.93c.264.126.555.203.866.203h18.957c.312 0 .603-.077.867-.203l-6.976-6.93z"/></g><defs><clipPath id="clip0_138_1584"><path fill="#fff" transform="translate(0 .5)" d="M0 0h23v23H0z"/></clipPath></defs></svg>