<svg width="23" height="24" fill="none" xmlns="http://www.w3.org/2000/svg"><g clip-path="url(#clip0_138_1574)"><path d="M11.5.5C6.907.5 3.17 4.237 3.17 8.83c0 5.7 7.454 14.068 7.772 14.421a.75.75 0 001.116 0c.317-.353 7.772-8.721 7.772-14.421C19.83 4.237 16.093.5 11.5.5zm0 12.52c-2.31 0-4.19-1.88-4.19-4.19a4.195 4.195 0 014.19-4.191c2.31 0 4.19 1.88 4.19 4.19a4.196 4.196 0 01-4.19 4.192z" fill="#EFEFEF"/></g><defs><clipPath id="clip0_138_1574"><path fill="#fff" transform="translate(0 .5)" d="M0 0h23v23H0z"/></clipPath></defs></svg>