<svg width="23" height="24" fill="none" xmlns="http://www.w3.org/2000/svg"><g clip-path="url(#clip0_138_1554)"><path fill-rule="evenodd" clip-rule="evenodd" d="M12.44 2.656a.898.898 0 110-1.797c2.61 0 5.221.996 7.213 2.988a10.208 10.208 0 012.988 7.213.898.898 0 01-1.797 0 8.426 8.426 0 00-.637-3.224 8.373 8.373 0 00-1.825-2.718 8.378 8.378 0 00-5.942-2.462zM9.516 13.984a18.824 18.824 0 01-2.612-3.26 1.25 1.25 0 01.007-1.374l1.064-1.643c.227-.35.27-.75.124-1.141l-1.83-4.877a1.271 1.271 0 00-1.88-.627L1.834 2.693A3.142 3.142 0 00.451 6.121c.987 4.138 3.142 7.863 6.119 10.809 2.946 2.977 6.67 5.132 10.81 6.12a3.142 3.142 0 003.427-1.386l1.63-2.552a1.27 1.27 0 00-.626-1.881l-4.877-1.83a1.24 1.24 0 00-1.141.124l-1.643 1.063a1.25 1.25 0 01-1.375.008 18.827 18.827 0 01-3.26-2.612zm2.924-4.048a1.093 1.093 0 01.794.329c.112.112.194.234.246.36.056.135.084.283.084.435a.898.898 0 101.797 0c0-.376-.075-.755-.224-1.115a2.92 2.92 0 00-.632-.95 2.918 2.918 0 00-.95-.632c-.36-.15-.74-.224-1.115-.224a.898.898 0 100 1.797zm0-3.643a4.743 4.743 0 013.369 1.399 4.745 4.745 0 011.398 3.368.895.895 0 001.79 0 6.558 6.558 0 00-1.918-4.64 6.546 6.546 0 00-4.639-1.917.895.895 0 000 1.79z" fill="#EFEFEF"/></g><defs><clipPath id="clip0_138_1554"><path fill="#fff" transform="translate(0 .5)" d="M0 0h23v23H0z"/></clipPath></defs></svg>