<svg width="35" height="35" fill="none" xmlns="http://www.w3.org/2000/svg"><path d="M17.5 0C7.828 0 0 7.827 0 17.5 0 27.172 7.827 35 17.5 35 27.172 35 35 27.173 35 17.5 35 7.828 27.173 0 17.5 0zm0 32.558c-8.303 0-15.058-6.755-15.058-15.058S9.197 2.442 17.5 2.442 32.558 9.197 32.558 17.5 25.803 32.558 17.5 32.558z" fill="#EFEFEF"/><path d="M16.88 24.185c-1.31 0-2.37 1.09-2.37 2.4 0 1.277 1.029 2.4 2.37 2.4 1.34 0 2.4-1.123 2.4-2.4a2.42 2.42 0 00-2.4-2.4zm.405-18.17c-4.21 0-6.142 2.494-6.142 4.177 0 1.215 1.028 1.776 1.87 1.776 1.684 0 .998-2.4 4.178-2.4 1.56 0 2.806.686 2.806 2.12 0 1.683-1.746 2.649-2.774 3.521-.905.78-2.09 2.057-2.09 4.738 0 1.62.437 2.088 1.715 2.088 1.528 0 1.84-.686 1.84-1.278 0-1.62.031-2.556 1.746-3.896.842-.654 3.492-2.774 3.492-5.703 0-2.93-2.65-5.142-6.641-5.142z" fill="#EFEFEF"/></svg>