<svg width="50" height="50" fill="none" xmlns="http://www.w3.org/2000/svg"><circle cx="25" cy="25" r="25" fill="#242424"/><path d="M24.431 10c2.262 0 4.415.526 6.347 1.468.303.139.608.305.91.471l-1.325 1.191-1.986-2.077-3.421 3.047-2.015-2.189-6.291 5.679 4.028 4.46-1.573 1.384 3.974 4.46-1.572 1.384 5.684 6.343 3.365-3.102 2.926 3.324c-.58.444-1.215.888-1.904 1.275A14.379 14.379 0 0124.458 39C16.485 39 10 32.492 10 24.488 9.972 16.538 16.457 10 24.431 10zm-2.65 13.6l3.45-3.102 3.091 3.462-3.45 3.103-3.09-3.462zm2.457 5.984l3.421-3.13 3.119 3.462-3.45 3.103-3.09-3.435zM19.328 17.7l3.448-3.103 3.09 3.463-3.45 3.102-3.089-3.462zm6.317-1.663l2.566-2.326 2.319 2.576-2.567 2.354-2.318-2.604zm4.58 10.665l2.566-2.327 2.319 2.603-2.567 2.328-2.317-2.604zm2.263 5.235l2.567-2.327 2.316 2.576-2.565 2.354-2.318-2.603zm1.049-11.966l1.71-1.552 1.545 1.718-1.71 1.551-1.545-1.717zm-2.207-5.125l1.71-1.578 1.546 1.745-1.712 1.55-1.545-1.717zm4.387 10.25l1.71-1.552L39 25.263l-1.738 1.55-1.545-1.716zm-7.699-3.85l2.567-2.328 2.317 2.576-2.565 2.327-2.319-2.576z" fill="#57C7FF"/></svg>