<svg width="24" height="21" fill="none" xmlns="http://www.w3.org/2000/svg"><path d="M23.956 9.822l-1.587 8a3.339 3.339 0 01-1.145 1.923 3.29 3.29 0 01-2.094.755H3.306a3.292 3.292 0 01-2.338-.976A3.347 3.347 0 010 17.167V3.833c0-.884.348-1.732.968-2.357A3.292 3.292 0 013.306.5h4.408c.216.002.426.067.606.189l3.03 2.033h6.281a3.29 3.29 0 012.338.977c.62.625.968 1.473.968 2.357h-2.204c0-.295-.116-.578-.323-.786a1.097 1.097 0 00-.779-.326H11.02a1.095 1.095 0 01-.606-.188l-3.03-2.034H3.306c-.292 0-.573.117-.78.326a1.116 1.116 0 00-.322.785v13.334c0 .294.116.577.323.785.206.209.487.326.779.326h.198L5.18 9.844a3.338 3.338 0 011.146-1.922 3.29 3.29 0 012.094-.755h13.378a2.189 2.189 0 011.707.81 2.23 2.23 0 01.452 1.845z" fill="#EFEFEF"/></svg>