<svg width="50" height="50" fill="none" xmlns="http://www.w3.org/2000/svg"><circle cx="25" cy="25" r="25" fill="#242424"/><path d="M13 16.314l3.436 6.277v3.829l-3.432 6.265L13 16.313z" fill="#EFEFEF"/><path d="M26.192 20.305l3.22-2.017L36 18.282l-9.808 6.142v-4.119zm-.018-4.03l.018 8.311-3.444-2.163V10l3.426 6.275z" fill="#57C7FF"/><path d="M36 18.282l-6.589.006-3.237-2.013L22.748 10 36 18.282z" fill="#EFEFEF"/><path d="M26.192 32.718v-4.032l-3.444-2.122L22.75 39l3.442-6.282z" fill="#57C7FF"/><path d="M29.403 30.72l-12.967-8.13L13 16.315l22.986 14.399-6.583.008z" fill="#EFEFEF"/><path d="M22.75 39l3.441-6.282 3.212-1.999 6.583-.008-13.236 8.288z" fill="#EFEFEF"/><path d="M13.004 32.682l9.772-6.119-3.285-2.06-3.055 1.914-3.432 6.265z" fill="#57C7FF"/></svg>