<svg width="50" height="50" fill="none" xmlns="http://www.w3.org/2000/svg"><circle cx="25" cy="25" r="25" fill="#242424"/><path d="M36 22.958c-.12-.735-.783-1.225-1.686-1.225h-.843c-.542-.061-.662.123-.662.551v6.368c0 1.102-1.084 2.266-2.348 2.51-3.974.92-7.948 1.776-11.922 2.695-.421.122-.903.122-1.385.122-.18 0-.481-.122-.541-.306-.06-.122.12-.367.24-.49.181-.122.422-.245.663-.367.722-.245 1.505-.49 2.227-.735 2.95-.98 5.901-1.96 8.851-3 1.325-.429 2.047-1.347 2.047-2.51.06-3.674 0-7.41 0-11.083 0-.612-.3-1.102-.963-1.347-.783-.306-1.505-.062-2.168.245-4.214 2.02-8.369 4.04-12.583 6.061-1.204.613-1.927 1.47-1.927 2.695v10.47c0 .184 0 .367.06.49.422 1.163 1.505 1.898 2.95 1.898h17.641c.663 0 1.205-.123 1.687-.551.602-.49.602-1.163.602-1.776 0-3.012.06-10.715.06-10.715zm-12.283-1.102c.301-.796.964-1.286 1.927-1.409.662-.06 1.204.307 1.325.919.12.918-.964 2.02-2.108 2.02-.903 0-1.445-.673-1.144-1.53z" fill="#57C7FF"/></svg>