<svg width="127" height="65" fill="none" xmlns="http://www.w3.org/2000/svg"><path d="M18.248 11.4h-.284V8.36c0-.5-.386-.913-.85-.913-.465 0-.851.414-.851.913v3.04h-.284c-1.803 0-2.835 1.108-2.835 3.042v7.299c0 1.934 1.032 3.04 2.835 3.04h.284v7.908c0 .498.386.912.85.912.465 0 .851-.414.851-.912v-7.907h.284c1.803 0 2.835-1.107 2.835-3.041v-7.3c0-1.933-1.032-3.04-2.835-3.04zm12.474 4.867h-.283V8.36c0-.5-.386-.913-.85-.913-.466 0-.851.414-.851.913v7.907h-.284c-1.803 0-2.835 1.107-2.835 3.04v7.3c0 1.934 1.032 3.04 2.835 3.04h.284v3.042c0 .498.385.912.85.912.465 0 .85-.414.85-.912v-3.042h.284c1.803 0 2.835-1.106 2.835-3.04v-7.3c0-1.933-1.032-3.04-2.835-3.04z" fill="#57C7FF"/><path d="M0 20.523C0 16.63 1.06 13.121 3.18 10c2.155-3.123 5.074-5.561 8.758-7.315C15.657.894 19.775 0 24.293 0c5.665 0 10.548 1.386 14.65 4.157 4.135 2.737 6.985 6.578 8.549 11.525l-9.175.053c-.66-1.79-1.79-3.316-3.389-4.579a15.913 15.913 0 00-5.213-2.894c-1.912-.667-3.701-1-5.37-1-2.502 0-4.935.526-7.298 1.579-2.363 1.017-4.31 2.543-5.839 4.578-1.494 2-2.241 4.368-2.241 7.104 0 2.772.712 5.158 2.137 7.157 1.425 1.965 3.302 3.474 5.63 4.526 2.364 1.017 4.9 1.526 7.611 1.526 2.677 0 5.3-.719 7.872-2.157 2.607-1.439 4.57-3.491 5.891-6.157h9.384c-1.668 4.981-4.553 8.823-8.654 11.524-4.066 2.702-8.914 4.052-14.545 4.052-4.483 0-8.584-.894-12.303-2.684-3.718-1.789-6.655-4.245-8.81-7.367C1.06 27.821 0 24.347 0 20.523zM69.362 9.999c4.588 0 8.689.842 12.303 2.526 3.65 1.684 5.474 4.648 5.474 8.893v18.524h-7.611l-.782-5c-.556 1.053-1.6 2-3.128 2.842-1.53.842-3.354 1.509-5.474 2-2.12.456-4.292.684-6.517.684-2.676 0-5.49-.561-8.445-1.684-2.954-1.158-4.431-3.631-4.431-7.42 0-3.578 1.199-5.947 3.597-7.104 2.398-1.193 4.866-1.79 7.403-1.79 5.665 0 9.575-.034 11.73-.105 2.189-.105 3.614-.298 4.274-.579.695-.315 1.06-.841 1.095-1.578v-.526c-.035-1.263-1.008-2.316-2.92-3.158-1.91-.842-4.118-1.263-6.62-1.263-2.746-.035-5.074.386-6.986 1.263-1.911.842-2.867 2.21-2.867 4.105h-8.393c0-2.702.973-4.842 2.92-6.42 1.98-1.58 4.343-2.667 7.089-3.263a37.328 37.328 0 018.289-.947zm-1.825 24.049c4.17 0 7.09-.877 8.758-2.631 1.669-1.755 2.503-3.807 2.503-6.157-1.703 1.017-4.727 1.526-9.071 1.526-2.572 0-4.588.087-6.047.263-1.425.175-2.485.509-3.18 1-.696.456-1.06 1.14-1.095 2.052.07 1.263.712 2.245 1.929 2.947 1.216.667 3.284 1 6.203 1zM127 26.26a16.547 16.547 0 01-1.825 7.156c-1.112 2.21-2.71 4.017-4.796 5.42-2.05 1.369-4.448 2.053-7.194 2.053-5.978 0-10.53-1.456-13.658-4.368v13.42h-8.341V11.26h7.246l.782 4.053c3.197-3.158 7.854-4.719 13.971-4.684 2.676 0 5.039.667 7.09 2 2.085 1.333 3.719 3.157 4.9 5.473 1.182 2.315 1.79 4.911 1.825 7.788v.369zm-18.246 9.156c2.05 0 3.788-.473 5.213-1.42 1.46-.948 2.555-2.14 3.284-3.58.73-1.473 1.113-2.946 1.147-4.42a12.01 12.01 0 00-1.094-4.841c-.661-1.509-1.721-2.736-3.181-3.684-1.424-.947-3.214-1.42-5.369-1.42-1.807 0-3.406.456-4.796 1.368a9.381 9.381 0 00-3.284 3.526 9.917 9.917 0 00-1.147 4.63v.053c0 1.824.382 3.49 1.147 5a8.983 8.983 0 003.232 3.525c1.425.842 3.041 1.263 4.848 1.263z" fill="#57C7FF"/><path d="M24.025 47.257v3.17h-13.58v3.498h11.64v3.054h-11.64v7.53H6.54V47.258h17.484zm5.488 17.253h-3.696V47.257h3.696V64.51zm10.232-13.243c1.556 0 2.957.295 4.204.886 1.263.59 2.248 1.414 2.956 2.471.709 1.042 1.063 2.215 1.063 3.52a6.184 6.184 0 01-1.063 3.522c-.708 1.04-1.693 1.857-2.956 2.448-1.247.59-2.648.886-4.204.886a10.11 10.11 0 01-4.203-.886c-1.31-.607-2.356-1.43-3.141-2.472-.786-1.057-1.178-2.223-1.178-3.497a5.66 5.66 0 011.178-3.497c.785-1.057 1.824-1.881 3.118-2.472 1.309-.606 2.717-.909 4.226-.909zm.023 11.214c1.263 0 2.333-.357 3.21-1.072.879-.715 1.317-1.803 1.317-3.264 0-1.461-.438-2.55-1.316-3.264-.878-.73-1.948-1.096-3.21-1.096a5.9 5.9 0 00-2.31.466 4.304 4.304 0 00-1.802 1.446c-.462.653-.693 1.469-.693 2.448 0 .98.231 1.795.693 2.448a4.304 4.304 0 001.802 1.445 6.156 6.156 0 002.31.444zm24.926-1.608l3.858-9.07h4.18L66.565 64.51h-3.58l-2.98-8.836-3.002 8.836h-3.557L47.28 51.803h4.158l3.857 9.093 2.518-9.093h4.342l2.54 9.07z" fill="#EFEFEF"/></svg>