<svg width="50" height="50" fill="none" xmlns="http://www.w3.org/2000/svg"><circle cx="25" cy="25" r="25" fill="#242424"/><path d="M32.575 16.648a6.844 6.844 0 01-.078.902c-.612 4-3.964 6.95-7.914 6.95h-3.925c-.402 0-.744.3-.806.707L18.62 33.2l-.771 5.016a.695.695 0 00.15.547.666.666 0 00.504.237h4.26a.806.806 0 00.53-.2.842.842 0 00.277-.505l1.122-7.29a.842.842 0 01.276-.504c.148-.13.336-.2.53-.2h2.509c3.95 0 7.302-2.952 7.914-6.951.435-2.839-.96-5.422-3.346-6.703z" fill="#EFEFEF"/><path d="M17.157 10c-.401 0-.743.3-.806.705l-3.343 21.71a.674.674 0 00.655.785h4.958l1.23-7.995 1.34-8.7a.841.841 0 01.276-.505c.148-.13.336-.2.53-.2H29.1c1.293 0 2.471.308 3.475.847.07-3.64-2.864-6.647-6.898-6.647h-8.519z" fill="#57C7FF"/></svg>