<svg width="108" height="55" fill="none" xmlns="http://www.w3.org/2000/svg"><path d="M15.518 9.647h-.241V7.074c0-.422-.328-.772-.724-.772-.395 0-.723.35-.723.772v2.573h-.24c-1.534 0-2.412.937-2.412 2.573v6.176c0 1.637.878 2.574 2.411 2.574h.241v6.69c0 .422.328.772.723.772.396 0 .724-.35.724-.772v-6.69h.24c1.534 0 2.412-.937 2.412-2.574V12.22c0-1.636-.878-2.573-2.411-2.573zm10.608 4.117h-.24v-6.69c0-.422-.329-.772-.724-.772-.396 0-.723.35-.723.772v6.69h-.242c-1.533 0-2.41.937-2.41 2.574v6.176c0 1.636.877 2.573 2.41 2.573h.242v2.573c0 .422.327.772.723.772.395 0 .723-.35.723-.772v-2.573h.241c1.534 0 2.411-.937 2.411-2.573v-6.176c0-1.637-.877-2.574-2.41-2.574z" fill="#57C7FF"/><path d="M0 17.366c0-3.295.901-6.264 2.704-8.906 1.833-2.642 4.315-4.705 7.448-6.19C13.315.758 16.817 0 20.66 0c4.817 0 8.97 1.173 12.457 3.518 3.517 2.315 5.94 5.566 7.27 9.751l-7.802.045c-.561-1.514-1.522-2.805-2.881-3.874a13.55 13.55 0 00-4.433-2.45c-1.626-.563-3.148-.845-4.567-.845-2.128 0-4.197.445-6.206 1.336a12.065 12.065 0 00-4.966 3.874c-1.27 1.692-1.906 3.695-1.906 6.011 0 2.345.606 4.364 1.818 6.056 1.212 1.662 2.808 2.939 4.788 3.83 2.01.86 4.167 1.29 6.472 1.29 2.276 0 4.507-.608 6.694-1.825 2.217-1.217 3.887-2.954 5.01-5.21h7.98c-1.419 4.215-3.872 7.466-7.36 9.752-3.457 2.286-7.58 3.428-12.368 3.428-3.813 0-7.3-.756-10.462-2.27-3.163-1.514-5.66-3.592-7.493-6.234C.901 23.54 0 20.602 0 17.366zM58.985 8.46c3.901 0 7.389.713 10.462 2.138 3.104 1.425 4.655 3.933 4.655 7.525v15.674H67.63l-.665-4.23c-.473.89-1.36 1.692-2.66 2.404-1.3.713-2.852 1.277-4.655 1.692-1.803.386-3.65.58-5.542.58-2.275 0-4.67-.476-7.181-1.426-2.513-.98-3.769-3.072-3.769-6.278 0-3.028 1.02-5.032 3.06-6.012 2.038-1.009 4.137-1.513 6.294-1.513 4.818 0 8.143-.03 9.975-.09 1.862-.089 3.074-.252 3.636-.49.59-.267.9-.712.93-1.335v-.445c-.03-1.07-.857-1.96-2.482-2.672-1.626-.713-3.502-1.069-5.63-1.069-2.335-.03-4.315.327-5.94 1.069-1.626.712-2.44 1.87-2.44 3.473h-7.137c0-2.286.828-4.096 2.483-5.432 1.685-1.336 3.694-2.256 6.03-2.761a31.895 31.895 0 017.048-.802zm-1.552 20.35c3.547 0 6.03-.742 7.448-2.227 1.419-1.484 2.128-3.22 2.128-5.21-1.448.861-4.02 1.292-7.714 1.292-2.187 0-3.901.074-5.142.223-1.212.148-2.113.43-2.704.845-.592.386-.902.965-.931 1.737.059 1.069.605 1.9 1.64 2.494 1.034.564 2.793.846 5.275.846zM108 22.22a13.93 13.93 0 01-1.552 6.055c-.945 1.87-2.305 3.4-4.078 4.587-1.744 1.158-3.783 1.736-6.118 1.736-5.084 0-8.955-1.231-11.615-3.695v11.354h-7.093V9.53h6.162l.665 3.429c2.719-2.672 6.68-3.993 11.88-3.963 2.277 0 4.286.564 6.03 1.692 1.773 1.128 3.162 2.671 4.167 4.63 1.005 1.96 1.522 4.157 1.552 6.59v.313zm-15.516 7.748c1.743 0 3.221-.401 4.433-1.203 1.241-.801 2.172-1.81 2.793-3.028.62-1.246.946-2.493.975-3.74a10.127 10.127 0 00-.93-4.097c-.562-1.276-1.464-2.315-2.705-3.117-1.212-.801-2.734-1.202-4.566-1.202-1.537 0-2.897.386-4.079 1.158a7.957 7.957 0 00-2.793 2.983 8.363 8.363 0 00-.975 3.919v.044c0 1.544.325 2.954.975 4.23a7.618 7.618 0 002.749 2.984c1.212.712 2.586 1.069 4.123 1.069z" fill="#57C7FF"/><path d="M20.43 39.987v2.683H8.883v2.96h9.899v2.584h-9.9v6.372H5.563v-14.6h14.869zm4.668 14.599h-3.143v-14.6h3.143v14.6zM33.8 43.38c1.322 0 2.513.25 3.574.75 1.074.5 1.912 1.197 2.514 2.091.602.881.904 1.874.904 2.979a5.216 5.216 0 01-.904 2.979c-.602.881-1.44 1.572-2.514 2.071-1.06.5-2.252.75-3.575.75-1.27 0-2.462-.25-3.575-.75-1.113-.513-2.003-1.21-2.67-2.09-.668-.895-1.002-1.882-1.002-2.96 0-1.092.334-2.078 1.001-2.96.668-.894 1.552-1.59 2.652-2.09a8.484 8.484 0 013.594-.77zm.019 9.49c1.074 0 1.984-.303 2.73-.908s1.12-1.526 1.12-2.762-.374-2.157-1.12-2.762c-.746-.618-1.656-.927-2.73-.927a5.04 5.04 0 00-1.964.394 3.657 3.657 0 00-1.532 1.223c-.393.553-.59 1.243-.59 2.072 0 .828.197 1.519.59 2.071.406.553.916.96 1.532 1.224a5.27 5.27 0 001.964.374zm21.197-1.362l3.28-7.674h3.555l-5.244 10.752h-3.045l-2.533-7.477-2.554 7.477H45.45l-5.244-10.752h3.536l3.28 7.694 2.14-7.694h3.693l2.16 7.674z" fill="#EFEFEF"/></svg>