<svg width="675" height="539" fill="none" xmlns="http://www.w3.org/2000/svg"><rect y="286.902" width="393.421" height="233.098" rx="10.156" fill="#111415"/><path d="M51.514 334.542H46.72v-4.897h4.805c.65 0 1.274.258 1.734.717a2.445 2.445 0 010 3.463 2.457 2.457 0 01-1.734.717h-.01zm1.173 3.4h-5.968v4.897h5.977c.65 0 1.275-.258 1.735-.717a2.446 2.446 0 000-3.463 2.457 2.457 0 00-1.735-.717h-.01zm19.476-1.7a22.63 22.63 0 01-3.829 12.595 22.708 22.708 0 01-10.195 8.349 22.759 22.759 0 01-24.758-4.914 22.659 22.659 0 01-6.218-11.607 22.624 22.624 0 011.293-13.098 22.678 22.678 0 018.368-10.174 22.753 22.753 0 0128.685 2.819 22.66 22.66 0 016.654 16.03zm-13.665 4.149a5.845 5.845 0 00-2.415-4.727 5.82 5.82 0 00-3.435-9.295v-1.462a1.698 1.698 0 00-1.704-1.7 1.705 1.705 0 00-1.704 1.7v1.338h-1.342v-1.338a1.698 1.698 0 00-1.704-1.7 1.705 1.705 0 00-1.704 1.7v1.338h-2.394a1.705 1.705 0 00-1.704 1.7 1.705 1.705 0 001.704 1.7h1.215v13.194h-1.215a1.705 1.705 0 00-1.704 1.7 1.705 1.705 0 001.704 1.7h2.394v1.338a1.698 1.698 0 001.704 1.7 1.705 1.705 0 001.704-1.7v-1.338h1.342v1.338a1.698 1.698 0 001.704 1.7 1.705 1.705 0 001.704-1.7v-1.338h.039a5.85 5.85 0 004.118-1.724 5.823 5.823 0 001.693-4.124z" fill="#57C7FF"/><path d="M103.609 334.392c1.077.218 1.892.595 2.444 1.133.551.525.827 1.28.827 2.266v.077c0 1.114-.282 1.958-.847 2.535-.551.576-1.315.96-2.29 1.152-.962.179-2.238.281-3.829.307h-.943l-9.198-.019v-14.21h11.026c1.488.013 2.675.32 3.56.922.885.601 1.328 1.453 1.328 2.553v.077c0 .832-.173 1.511-.52 2.036-.346.525-.866.915-1.558 1.171zm-1.116-2.765c0-.538-.116-.922-.347-1.152a1.482 1.482 0 00-.904-.442c-.372-.064-.911-.096-1.617-.096H92.91v3.38l4.984.057h-.192 1.924c.719 0 1.251-.019 1.598-.057.359-.051.66-.199.904-.442.244-.256.366-.672.366-1.248zm-2.252 7.777c.834 0 1.456-.032 1.867-.096.423-.064.757-.23 1-.499.244-.282.366-.736.366-1.364 0-.601-.122-1.037-.366-1.305-.243-.269-.577-.429-1-.481-.411-.064-1.033-.096-1.867-.096h-7.332v3.803c3.002 0 5.158.012 6.466.038h.866zm7.115-9.064v-2.707h16.126l-16.126 2.707zm16.126-2.707v2.765h-6.389v11.445h-3.252v-11.445h-6.485v-2.765h16.126zm.39 7.124c0-1.421.391-2.701 1.174-3.841.795-1.139 1.873-2.029 3.233-2.669 1.372-.653 2.893-.979 4.56-.979 2.091 0 3.894.506 5.408 1.517 1.526.998 2.578 2.4 3.156 4.205l-3.387.02c-.244-.653-.661-1.21-1.251-1.671a5.88 5.88 0 00-1.924-1.056c-.706-.243-1.367-.365-1.982-.365-.924 0-1.822.192-2.695.576a5.232 5.232 0 00-2.155 1.671c-.551.729-.827 1.593-.827 2.592 0 1.011.263 1.882.789 2.612a5.107 5.107 0 002.078 1.651 7.104 7.104 0 002.81.557c.987 0 1.956-.263 2.905-.788a5.113 5.113 0 002.175-2.246h3.464c-.616 1.818-1.681 3.219-3.195 4.205-1.501.986-3.29 1.479-5.369 1.479-1.655 0-3.168-.327-4.541-.98-1.373-.652-2.457-1.549-3.252-2.688a6.562 6.562 0 01-1.174-3.802z" fill="#EFEFEF"/><path d="M32.288 479.747h3.33v1.94h-3.33v3.322h-1.943v-3.322h-3.33v-1.94h3.33v-3.322h1.943v3.322zm13.212-7.066c3.54-.013 5.914.704 7.12 2.15 1.206 1.447 1.81 3.13 1.81 5.051 0 1.869-.61 3.578-1.829 5.127-1.219 1.536-3.586 2.304-7.1 2.304-2.464 0-4.37-.416-5.716-1.248-1.334-.832-2.22-1.799-2.656-2.9-.436-1.114-.635-2.208-.596-3.283 0-1.857.61-3.521 1.828-4.993 1.231-1.472 3.611-2.208 7.14-2.208zm.02 12.251c1.398 0 2.533-.237 3.405-.711.873-.486 1.495-1.113 1.867-1.882a5.13 5.13 0 00.5-2.496 4.69 4.69 0 00-.5-2.381c-.372-.73-.994-1.319-1.867-1.767-.872-.46-2.007-.691-3.406-.691-1.385 0-2.514.231-3.386.691-.86.448-1.476 1.037-1.848 1.767a4.972 4.972 0 00-.5 2.381 5.442 5.442 0 00.5 2.496c.372.769.988 1.396 1.848 1.882.872.474 2 .711 3.386.711zm10.239 1.997v-2.976h3.29v2.976l-1.558 1.882h-1.732l1.558-1.882H55.76zm17.996-4.705h2.02v2.554h-2.02v2.151h-3.156v-2.151H60.477v-2.554l10.122-9.505h3.156v9.505zm-3.156-6.433l-6.447 6.433H70.6v-6.433zm9.758 11.138h-3.272l12.509-13.442h3.271l-12.508 13.442zm.846-7.22a3.07 3.07 0 01-1.539-.404 3.203 3.203 0 01-1.135-1.132 3.058 3.058 0 01-.404-1.537c0-.55.134-1.062.404-1.536.282-.474.66-.845 1.135-1.114a2.97 2.97 0 011.54-.422 2.97 2.97 0 011.539.422c.475.269.847.64 1.116 1.114.282.474.423.986.423 1.536a2.95 2.95 0 01-.423 1.537 3.05 3.05 0 01-1.116 1.132 3.071 3.071 0 01-1.54.404zm0-1.844c.334 0 .623-.121.866-.365a1.18 1.18 0 00.366-.864 1.18 1.18 0 00-.366-.864 1.186 1.186 0 00-.866-.365c-.333 0-.622.122-.865.365a1.179 1.179 0 00-.366.864c0 .333.122.621.366.864.243.244.532.365.865.365zm7.544 8.949a3.071 3.071 0 01-1.54-.404 3.203 3.203 0 01-1.135-1.132 3.058 3.058 0 01-.404-1.537c0-.55.135-1.062.404-1.536.282-.474.66-.845 1.135-1.114a2.97 2.97 0 011.54-.422 2.97 2.97 0 011.54.422c.474.269.846.64 1.115 1.114.283.474.424.986.424 1.536 0 .551-.141 1.063-.423 1.537-.27.473-.642.851-1.117 1.132a3.07 3.07 0 01-1.54.404zm0-1.863c.333 0 .616-.122.847-.365a1.16 1.16 0 00.365-.845 1.12 1.12 0 00-.365-.845 1.123 1.123 0 00-.847-.364c-.32 0-.603.121-.847.364a1.119 1.119 0 00-.366.845c0 .32.122.602.366.845s.526.365.847.365z" fill="#EFEFEF" fill-opacity=".6"/><path d="M47.04 413.157c3.036.026 5.604.194 7.705.505 2.128.31 3.905 1.022 5.332 2.135 1.427 1.088 2.14 2.719 2.14 4.893 0 3.65-1.518 6.2-4.553 7.65-3.035 1.45-6.577 2.239-10.624 2.369v4.427h-4.63v-4.505c-3.84-.31-7.2-1.229-10.08-2.757-2.853-1.553-4.28-4.051-4.28-7.494l6.849-.117c0 3.029 2.504 4.776 7.51 5.242v-7.494c-2.983-.052-5.486-.259-7.51-.621-2.023-.389-3.67-1.152-4.942-2.292-1.271-1.165-1.907-2.86-1.907-5.087 0-3.443 1.414-5.863 4.242-7.261 2.853-1.398 6.226-2.201 10.117-2.408v-4.465h4.631v4.426c3.892.156 7.394.997 10.507 2.525 3.113 1.501 4.67 4.103 4.67 7.805h-6.81c0-1.657-.87-2.861-2.607-3.612-1.738-.776-3.658-1.268-5.76-1.475v7.611zm-12.297-3.262c0 1.916 2.556 2.99 7.666 3.223v-7.533c-2.075.207-3.878.647-5.409 1.32-1.504.647-2.257 1.644-2.257 2.99zm20.78 10.912c0-1.088-.804-1.812-2.412-2.175-1.608-.362-3.632-.569-6.07-.621v7.572c2.386-.078 4.384-.492 5.992-1.243 1.635-.75 2.465-1.915 2.49-3.494v-.039zm44.762-8.271c.026.414.039 1.009.039 1.786 0 6.187-1.816 10.459-5.448 12.814-3.632 2.356-8.004 3.534-13.115 3.534-4.85 0-8.742-.764-11.674-2.291-2.931-1.553-4.397-3.909-4.397-7.067l6.304.116c0 1.631.934 2.822 2.802 3.573 1.894.724 4.203 1.074 6.927 1.048 1.945.052 3.774-.194 5.487-.738 1.738-.569 3.19-1.501 4.358-2.796 1.167-1.32 1.855-3.016 2.062-5.087-1.945 1.321-4.228 2.149-6.849 2.486-2.62.31-5.279.466-7.977.466-2.828 0-5.292-.389-7.394-1.165-2.075-.777-3.67-1.877-4.786-3.301-1.116-1.424-1.674-3.094-1.674-5.009v-.078c0-2.33.753-4.272 2.257-5.825 1.505-1.553 3.516-2.692 6.032-3.417 2.543-.751 5.383-1.126 8.522-1.126 5.656 0 10.014.971 13.076 2.912 3.061 1.916 4.877 4.971 5.448 9.165zm-17.629 3.883c7.005 0 10.494-1.554 10.468-4.66 0-1.916-.713-3.327-2.14-4.233-1.427-.906-2.866-1.437-4.32-1.592-1.426-.181-3.073-.285-4.941-.311-2.854 0-5.28.415-7.278 1.243-1.971.803-2.957 2.071-2.957 3.806 0 1.631.467 2.873 1.401 3.727.96.829 2.218 1.373 3.775 1.631 1.582.259 3.58.389 5.992.389zm55.826 3.922c0 2.33-.753 4.271-2.257 5.825-1.505 1.553-3.529 2.705-6.071 3.456-2.516.724-5.357 1.087-8.522 1.087-5.63 0-9.988-.958-13.075-2.874-3.062-1.941-4.865-5.009-5.41-9.203a33.197 33.197 0 01-.077-1.825c0-6.187 1.816-10.446 5.448-12.776 3.632-2.355 8.003-3.533 13.114-3.533 4.851 0 8.743.776 11.674 2.33 2.932 1.527 4.397 3.857 4.397 6.989l-6.265-.077c0-1.631-.947-2.809-2.841-3.534-1.867-.751-4.163-1.113-6.887-1.087-1.946-.052-3.788.207-5.526.776a9.758 9.758 0 00-4.359 2.796c-1.167 1.295-1.842 2.977-2.023 5.048 1.375-.932 3.022-1.618 4.942-2.058 1.92-.44 3.632-.699 5.137-.776a91.82 91.82 0 014.747-.117c2.828 0 5.28.388 7.355 1.165 2.101.777 3.71 1.877 4.825 3.301 1.116 1.424 1.674 3.093 1.674 5.009v.078zm-16.772 5.203c2.853 0 5.266-.401 7.238-1.204 1.997-.828 2.996-2.109 2.996-3.844 0-1.631-.48-2.861-1.44-3.689-.96-.854-2.244-1.411-3.852-1.67-1.583-.259-3.593-.388-6.032-.388-6.901 0-10.338 1.553-10.312 4.66 0 1.915.713 3.326 2.14 4.232 1.427.907 2.854 1.45 4.281 1.631 1.452.156 3.113.246 4.981.272zm47.217-24.425l-15.565 28.736h-6.304l12.88-23.804h-18.873v-4.932h27.862zm1.709 22.717h6.693v6.019h-6.693v-6.019zm41.879-4c-.103 4.09-1.803 6.925-5.097 8.504-3.295 1.553-6.992 2.33-11.091 2.33-2.179 0-4.462-.324-6.849-.971-2.387-.647-4.436-1.747-6.149-3.3-1.686-1.554-2.529-3.586-2.529-6.097l6.382-.039c0 1.786.856 3.133 2.568 4.039 1.713.906 3.801 1.423 6.266 1.553 2.724.078 5.033-.363 6.926-1.32 1.92-.984 2.88-2.576 2.88-4.777-.026-2.019-.791-3.572-2.296-4.66-1.505-1.087-3.943-1.63-7.316-1.63-1.427 0-2.854.181-4.28.543-1.401.363-2.569.893-3.503 1.592-.908.699-1.362 1.554-1.362 2.563v.194l-6.148.117v-17.358h30.236v4.466h-24.088v6.756c2.309-1.889 6.266-2.834 11.869-2.834 2.646 0 4.994.414 7.044 1.242 2.049.803 3.645 1.981 4.786 3.534 1.168 1.553 1.751 3.391 1.751 5.514v.039zm35.115 0c-.104 4.09-1.803 6.925-5.098 8.504-3.295 1.553-6.992 2.33-11.091 2.33-2.179 0-4.462-.324-6.849-.971-2.387-.647-4.436-1.747-6.148-3.3-1.687-1.554-2.53-3.586-2.53-6.097l6.382-.039c0 1.786.856 3.133 2.569 4.039 1.712.906 3.8 1.423 6.265 1.553 2.724.078 5.033-.363 6.927-1.32 1.919-.984 2.879-2.576 2.879-4.777-.026-2.019-.791-3.572-2.296-4.66-1.504-1.087-3.943-1.63-7.316-1.63-1.426 0-2.853.181-4.28.543-1.401.363-2.569.893-3.502 1.592-.908.699-1.362 1.554-1.362 2.563v.194l-6.149.117v-17.358h30.237v4.466H222.18v6.756c2.308-1.889 6.265-2.834 11.868-2.834 2.647 0 4.994.414 7.044 1.242 2.049.803 3.645 1.981 4.786 3.534 1.168 1.553 1.752 3.391 1.752 5.514v.039zm37.955-7.3c.026.414.038 1.009.038 1.786 0 6.187-1.816 10.459-5.448 12.814-3.632 2.356-8.003 3.534-13.114 3.534-4.851 0-8.743-.764-11.674-2.291-2.932-1.553-4.397-3.909-4.397-7.067l6.304.116c0 1.631.934 2.822 2.802 3.573 1.893.724 4.202 1.074 6.926 1.048 1.946.052 3.775-.194 5.487-.738 1.738-.569 3.191-1.501 4.359-2.796 1.167-1.32 1.855-3.016 2.062-5.087-1.946 1.321-4.229 2.149-6.849 2.486-2.62.31-5.279.466-7.977.466-2.828 0-5.293-.389-7.394-1.165-2.075-.777-3.671-1.877-4.786-3.301-1.116-1.424-1.674-3.094-1.674-5.009v-.078c0-2.33.753-4.272 2.257-5.825 1.505-1.553 3.516-2.692 6.032-3.417 2.542-.751 5.383-1.126 8.522-1.126 5.656 0 10.014.971 13.076 2.912 3.061 1.916 4.877 4.971 5.448 9.165zm-17.629 3.883c7.005 0 10.494-1.554 10.468-4.66 0-1.916-.713-3.327-2.14-4.233-1.427-.906-2.867-1.437-4.32-1.592-1.426-.181-3.074-.285-4.942-.311-2.853 0-5.279.415-7.277 1.243-1.971.803-2.957 2.071-2.957 3.806 0 1.631.467 2.873 1.401 3.727.96.829 2.218 1.373 3.774 1.631 1.583.259 3.581.389 5.993.389zm20.374 13.436v-6.019h6.655v6.019l-3.152 3.805h-3.503l3.153-3.805h-3.153zm22.423-28.736v28.736h-6.382v-19.766h-6.499v-4.077c2.412 0 4.19-.298 5.331-.893 1.168-.596 1.881-1.23 2.14-1.903a5.5 5.5 0 00.428-2.097h4.982zm21.475-.078c7.16-.026 11.959 1.424 14.398 4.349 2.439 2.926 3.658 6.33 3.658 10.213 0 3.78-1.232 7.236-3.697 10.368-2.465 3.107-7.251 4.66-14.359 4.66-4.982 0-8.834-.841-11.558-2.524-2.698-1.683-4.488-3.637-5.37-5.863-.882-2.253-1.284-4.466-1.207-6.641 0-3.753 1.233-7.119 3.697-10.096 2.491-2.977 7.303-4.466 14.438-4.466zm.038 24.775c2.828 0 5.124-.479 6.888-1.437 1.764-.983 3.023-2.252 3.775-3.805.752-1.554 1.09-3.236 1.012-5.048.078-1.735-.26-3.34-1.012-4.816-.752-1.475-2.011-2.666-3.775-3.572-1.764-.932-4.06-1.398-6.888-1.398-2.801 0-5.084.466-6.849 1.398-1.738.906-2.983 2.097-3.735 3.572-.727 1.476-1.064 3.081-1.012 4.816-.052 1.812.285 3.494 1.012 5.048.752 1.553 1.997 2.822 3.735 3.805 1.765.958 4.048 1.437 6.849 1.437z" fill="#EFEFEF"/><g filter="url(#filter0_d_2006_219)"><rect x="158.224" y="141.282" width="405.181" height="224.564" rx="7.484" fill="#57C7FF"/></g><path d="M186.309 180.054c0 .544-.175.997-.527 1.36-.351.363-.824.632-1.417.807-.588.169-1.251.254-1.99.254-1.315 0-2.333-.224-3.054-.671-.714-.453-1.136-1.17-1.263-2.149a7.707 7.707 0 01-.018-.426c0-1.445.424-2.44 1.272-2.984.848-.55 1.869-.825 3.063-.825 1.133 0 2.041.182 2.726.544.684.357 1.027.901 1.027 1.633l-1.463-.019c0-.38-.221-.656-.664-.825-.436-.175-.972-.26-1.608-.254a3.794 3.794 0 00-1.291.182 2.27 2.27 0 00-1.017.653c-.273.302-.43.695-.473 1.178a3.403 3.403 0 011.154-.48 7.149 7.149 0 011.2-.182c.351-.018.721-.027 1.108-.027.661 0 1.233.091 1.718.272.491.182.866.439 1.127.771.26.333.39.722.39 1.17v.018zm-3.916 1.215c.666 0 1.23-.094 1.69-.281.467-.194.7-.493.7-.898 0-.381-.112-.668-.336-.861-.225-.2-.524-.33-.9-.39a8.926 8.926 0 00-1.409-.091c-1.611 0-2.414.363-2.408 1.088 0 .448.167.777.5.989.333.211.666.338 1 .381.339.036.727.057 1.163.063zm8.791-5.722c1.672-.006 2.792.333 3.362 1.016.569.683.854 1.478.854 2.385 0 .882-.288 1.689-.863 2.421-.576.725-1.694 1.088-3.353 1.088-1.164 0-2.063-.197-2.699-.59-.63-.392-1.048-.849-1.254-1.369a3.85 3.85 0 01-.282-1.55c0-.877.288-1.663.863-2.358.582-.695 1.706-1.043 3.372-1.043zm.009 5.785c.66 0 1.196-.111 1.608-.335.412-.23.706-.526.882-.889.175-.362.254-.755.236-1.178a2.224 2.224 0 00-.236-1.125c-.176-.344-.47-.623-.882-.834-.412-.218-.948-.327-1.608-.327-.655 0-1.188.109-1.6.327-.406.211-.696.49-.872.834-.17.345-.248.719-.236 1.125-.012.423.066.816.236 1.178.176.363.466.659.872.889.412.224.945.335 1.6.335zm9.042-5.785c1.672-.006 2.793.333 3.362 1.016a3.61 3.61 0 01.855 2.385c0 .882-.288 1.689-.864 2.421-.575.725-1.693 1.088-3.353 1.088-1.163 0-2.063-.197-2.699-.59-.63-.392-1.048-.849-1.254-1.369a3.832 3.832 0 01-.281-1.55c0-.877.287-1.663.863-2.358.581-.695 1.705-1.043 3.371-1.043zm.009 5.785c.661 0 1.197-.111 1.609-.335.412-.23.706-.526.881-.889.176-.362.255-.755.236-1.178.019-.406-.06-.78-.236-1.125-.175-.344-.469-.623-.881-.834-.412-.218-.948-.327-1.609-.327-.654 0-1.187.109-1.599.327-.406.211-.697.49-.872.834-.17.345-.249.719-.237 1.125-.012.423.067.816.237 1.178.175.363.466.659.872.889.412.224.945.335 1.599.335zm-14.643 24.741c-.025.955-.421 1.617-1.191 1.986-.769.362-1.632.544-2.59.544a6.111 6.111 0 01-1.599-.227 3.44 3.44 0 01-1.436-.771c-.394-.362-.59-.837-.59-1.423l1.49-.009c0 .417.2.731.6.943.399.211.887.332 1.463.362.636.019 1.175-.084 1.617-.308.448-.23.673-.601.673-1.115-.006-.472-.185-.834-.537-1.088-.351-.254-.92-.381-1.708-.381-.333 0-.666.042-1 .127a2.309 2.309 0 00-.817.371c-.212.164-.318.363-.318.599v.045l-1.436.028v-4.054h7.061v1.043h-5.625v1.578c.539-.442 1.463-.662 2.771-.662.618 0 1.166.097 1.645.29.479.187.851.462 1.118.825.272.363.409.792.409 1.288v.009zm4.837-4.389c1.672-.006 2.793.333 3.362 1.016a3.61 3.61 0 01.855 2.384c0 .883-.288 1.69-.864 2.422-.575.725-1.693 1.088-3.353 1.088-1.163 0-2.063-.197-2.699-.59-.63-.393-1.048-.849-1.254-1.369a3.852 3.852 0 01-.282-1.551c0-.876.288-1.662.864-2.357.581-.695 1.705-1.043 3.371-1.043zm.009 5.785c.661 0 1.197-.111 1.609-.335.412-.23.705-.526.881-.889a2.41 2.41 0 00.236-1.179 2.202 2.202 0 00-.236-1.124c-.176-.345-.469-.623-.881-.834-.412-.218-.948-.327-1.609-.327-.654 0-1.187.109-1.599.327-.406.211-.697.489-.873.834a2.356 2.356 0 00-.236 1.124c-.012.424.067.816.236 1.179.176.363.467.659.873.889.412.224.945.335 1.599.335zm9.043-5.785c1.672-.006 2.793.333 3.362 1.016.57.683.854 1.478.854 2.384 0 .883-.288 1.69-.863 2.422-.576.725-1.693 1.088-3.353 1.088-1.163 0-2.063-.197-2.699-.59-.63-.393-1.048-.849-1.254-1.369a3.852 3.852 0 01-.282-1.551c0-.876.288-1.662.863-2.357.582-.695 1.706-1.043 3.372-1.043zm.009 5.785c.66 0 1.196-.111 1.608-.335.412-.23.706-.526.882-.889.175-.363.254-.755.236-1.179a2.223 2.223 0 00-.236-1.124c-.176-.345-.47-.623-.882-.834-.412-.218-.948-.327-1.608-.327-.654 0-1.188.109-1.599.327-.406.211-.697.489-.873.834a2.356 2.356 0 00-.236 1.124c-.012.424.067.816.236 1.179.176.363.467.659.873.889.411.224.945.335 1.599.335zm-15.171 24.859h.955v1.206h-.955v1.015h-1.49v-1.015h-4.78v-1.206l4.78-4.489h1.49v4.489zm-1.49-3.038l-3.044 3.038h3.044v-3.038zm7.325-1.469c1.672-.006 2.793.332 3.362 1.015.57.684.854 1.479.854 2.385 0 .883-.287 1.69-.863 2.421-.575.726-1.693 1.089-3.353 1.089-1.163 0-2.063-.197-2.699-.59-.63-.393-1.048-.849-1.254-1.369a3.852 3.852 0 01-.282-1.551c0-.876.288-1.662.864-2.357.581-.696 1.705-1.043 3.371-1.043zm.009 5.785c.66 0 1.197-.112 1.609-.335.411-.23.705-.526.881-.889.176-.363.254-.756.236-1.179a2.21 2.21 0 00-.236-1.124c-.176-.345-.47-.623-.881-.834-.412-.218-.949-.327-1.609-.327-.654 0-1.187.109-1.599.327-.406.211-.697.489-.873.834a2.353 2.353 0 00-.236 1.124c-.012.423.067.816.236 1.179.176.363.467.659.873.889.412.223.945.335 1.599.335zm9.043-5.785c1.672-.006 2.792.332 3.362 1.015.569.684.854 1.479.854 2.385 0 .883-.288 1.69-.863 2.421-.576.726-1.693 1.089-3.353 1.089-1.163 0-2.063-.197-2.699-.59-.63-.393-1.048-.849-1.254-1.369a3.852 3.852 0 01-.282-1.551c0-.876.288-1.662.863-2.357.582-.696 1.706-1.043 3.372-1.043zm.009 5.785c.66 0 1.196-.112 1.608-.335.412-.23.706-.526.882-.889.175-.363.254-.756.236-1.179a2.22 2.22 0 00-.236-1.124c-.176-.345-.47-.623-.882-.834-.412-.218-.948-.327-1.608-.327-.655 0-1.188.109-1.6.327-.405.211-.696.489-.872.834-.17.344-.248.719-.236 1.124-.012.423.066.816.236 1.179.176.363.467.659.872.889.412.223.945.335 1.6.335zM186.4 258.464c-.006.841-.387 1.454-1.145 1.841-.757.387-1.744.581-2.962.581-.897 0-1.663-.112-2.299-.336-.636-.224-1.121-.547-1.454-.97-.327-.423-.491-.928-.491-1.515h1.49c0 .569.267.986.8 1.252s1.185.399 1.954.399c.703.006 1.302-.091 1.799-.29.497-.206.748-.529.754-.971-.006-.187-.054-.326-.145-.417-.085-.096-.273-.166-.563-.208-.291-.049-.743-.073-1.354-.073h-1.682v-1.124h1.682c.424 0 .769-.015 1.036-.046.272-.036.493-.108.663-.217.17-.109.254-.275.254-.499 0-.308-.236-.538-.708-.689-.473-.151-1.052-.233-1.736-.245-.769-.006-1.421.079-1.954.254-.533.169-.8.444-.8.825h-1.49c0-.87.439-1.46 1.318-1.768.884-.314 1.86-.472 2.926-.472.648 0 1.251.043 1.808.127a3.346 3.346 0 011.481.563c.425.296.637.734.637 1.314 0 .641-.276 1.079-.827 1.315.648.236.984.686 1.008 1.351v.018zm4.934-4.506c1.672-.006 2.793.332 3.363 1.015.569.683.854 1.478.854 2.385 0 .883-.288 1.69-.863 2.421-.576.726-1.694 1.088-3.354 1.088-1.163 0-2.062-.196-2.698-.589-.631-.393-1.049-.849-1.255-1.369a3.868 3.868 0 01-.281-1.551c0-.876.288-1.662.863-2.357.582-.696 1.705-1.043 3.371-1.043zm.009 5.785c.661 0 1.197-.112 1.609-.335.412-.23.706-.526.881-.889.176-.363.255-.756.237-1.179a2.21 2.21 0 00-.237-1.124c-.175-.345-.469-.623-.881-.835-.412-.217-.948-.326-1.609-.326-.654 0-1.187.109-1.599.326-.406.212-.697.49-.872.835a2.33 2.33 0 00-.236 1.124c-.013.423.066.816.236 1.179.175.363.466.659.872.889.412.223.945.335 1.599.335zm9.043-5.785c1.672-.006 2.793.332 3.362 1.015a3.61 3.61 0 01.855 2.385c0 .883-.288 1.69-.864 2.421-.575.726-1.693 1.088-3.353 1.088-1.163 0-2.063-.196-2.699-.589-.63-.393-1.048-.849-1.254-1.369a3.852 3.852 0 01-.282-1.551c0-.876.288-1.662.864-2.357.581-.696 1.705-1.043 3.371-1.043zm.009 5.785c.661 0 1.197-.112 1.609-.335.412-.23.705-.526.881-.889.176-.363.254-.756.236-1.179a2.21 2.21 0 00-.236-1.124c-.176-.345-.469-.623-.881-.835-.412-.217-.948-.326-1.609-.326-.654 0-1.187.109-1.599.326-.406.212-.697.49-.873.835a2.353 2.353 0 00-.236 1.124c-.012.423.067.816.236 1.179.176.363.467.659.873.889.412.223.945.335 1.599.335zm-14.067 25.856v1.224h-8.279v-.589c0-.786.143-1.385.427-1.796.285-.417.633-.701 1.045-.852.418-.151.976-.284 1.672-.399.212-.03.579-.079 1.1-.145.527-.061.942-.118 1.245-.173.309-.054.563-.139.763-.254.206-.12.309-.284.309-.489 0-.375-.248-.65-.745-.825-.491-.176-1.094-.26-1.808-.254-.685 0-1.267.106-1.745.317-.479.206-.718.532-.718.979l-1.545-.009c0-.616.218-1.103.654-1.46a3.781 3.781 0 011.573-.752 7.904 7.904 0 011.772-.209c1.054 0 2.002.148 2.844.445.848.29 1.272.879 1.272 1.768 0 .477-.2.855-.6 1.133a3.763 3.763 0 01-1.336.59c-.49.115-1.072.217-1.744.308-.267.03-.467.057-.6.082a4.45 4.45 0 00-1.272.299c-.358.151-.633.323-.827.517-.188.187-.282.368-.282.544h6.825zm4.785-5.504c1.672-.006 2.792.332 3.362 1.015.569.683.854 1.478.854 2.385 0 .883-.288 1.69-.863 2.421-.576.726-1.694 1.088-3.353 1.088-1.164 0-2.063-.196-2.699-.589-.63-.393-1.048-.849-1.254-1.369a3.852 3.852 0 01-.282-1.551c0-.877.288-1.662.863-2.358.582-.695 1.706-1.042 3.372-1.042zm.009 5.785c.66 0 1.196-.112 1.608-.336.412-.229.706-.526.882-.888.175-.363.254-.756.236-1.179a2.226 2.226 0 00-.236-1.125c-.176-.344-.47-.622-.882-.834-.412-.217-.948-.326-1.608-.326-.655 0-1.188.109-1.6.326-.406.212-.696.49-.872.834-.17.345-.248.72-.236 1.125-.012.423.066.816.236 1.179.176.362.466.659.872.888.412.224.945.336 1.6.336zm9.042-5.785c1.672-.006 2.793.332 3.362 1.015a3.61 3.61 0 01.855 2.385c0 .883-.288 1.69-.864 2.421-.575.726-1.693 1.088-3.353 1.088-1.163 0-2.063-.196-2.699-.589-.63-.393-1.048-.849-1.254-1.369a3.834 3.834 0 01-.281-1.551c0-.877.287-1.662.863-2.358.581-.695 1.705-1.042 3.371-1.042zm.009 5.785c.661 0 1.197-.112 1.609-.336.412-.229.706-.526.881-.888.176-.363.255-.756.236-1.179.019-.405-.06-.78-.236-1.125-.175-.344-.469-.622-.881-.834-.412-.217-.948-.326-1.609-.326-.654 0-1.187.109-1.599.326-.406.212-.697.49-.872.834-.17.345-.249.72-.237 1.125-.012.423.067.816.237 1.179.175.362.466.659.872.888.412.224.945.336 1.599.336zm-19.107 20.37v6.71h-1.49v-4.616h-1.518v-.952c.564 0 .979-.069 1.245-.208.273-.139.439-.288.5-.445.067-.163.1-.326.1-.489h1.163zm5.015-.019c1.672-.006 2.793.333 3.362 1.016a3.61 3.61 0 01.854 2.385c0 .883-.287 1.69-.863 2.421-.575.725-1.693 1.088-3.353 1.088-1.163 0-2.063-.196-2.699-.589-.63-.393-1.048-.85-1.254-1.369a3.852 3.852 0 01-.282-1.551c0-.877.288-1.663.864-2.358.581-.695 1.705-1.043 3.371-1.043zm.009 5.786c.66 0 1.196-.112 1.608-.336.412-.229.706-.526.882-.888.176-.363.254-.756.236-1.179.018-.405-.06-.78-.236-1.125-.176-.344-.47-.622-.882-.834-.412-.218-.948-.326-1.608-.326-.654 0-1.187.108-1.599.326-.406.212-.697.49-.873.834a2.36 2.36 0 00-.236 1.125c-.012.423.067.816.236 1.179.176.362.467.659.873.888.412.224.945.336 1.599.336zm9.043-5.786c1.672-.006 2.792.333 3.362 1.016.569.683.854 1.478.854 2.385 0 .883-.288 1.69-.863 2.421-.576.725-1.694 1.088-3.353 1.088-1.164 0-2.063-.196-2.699-.589-.63-.393-1.048-.85-1.254-1.369a3.852 3.852 0 01-.282-1.551c0-.877.288-1.663.863-2.358.582-.695 1.706-1.043 3.372-1.043zm.009 5.786c.66 0 1.196-.112 1.608-.336.412-.229.706-.526.882-.888.175-.363.254-.756.236-1.179a2.226 2.226 0 00-.236-1.125c-.176-.344-.47-.622-.882-.834-.412-.218-.948-.326-1.608-.326-.655 0-1.188.108-1.6.326-.406.212-.696.49-.872.834-.17.345-.248.72-.236 1.125-.012.423.066.816.236 1.179.176.362.466.659.872.888.412.224.945.336 1.6.336zm-12.904 20.351c1.672-.006 2.793.333 3.363 1.016.569.683.854 1.478.854 2.385 0 .882-.288 1.689-.863 2.421-.576.725-1.694 1.088-3.354 1.088-1.163 0-2.062-.196-2.699-.589-.63-.393-1.048-.85-1.254-1.37a3.846 3.846 0 01-.281-1.55c0-.877.287-1.663.863-2.358.582-.695 1.705-1.043 3.371-1.043zm.009 5.786c.661 0 1.197-.112 1.609-.336.412-.23.706-.526.881-.889.176-.362.255-.755.237-1.178a2.217 2.217 0 00-.237-1.125c-.175-.344-.469-.622-.881-.834-.412-.218-.948-.326-1.609-.326-.654 0-1.187.108-1.599.326-.406.212-.697.49-.872.834-.17.345-.249.72-.237 1.125-.012.423.067.816.237 1.178.175.363.466.659.872.889.412.224.945.336 1.599.336z" fill="#111415"/><rect x="225.041" y="279.968" width="22.451" height="63.475" rx="4.276" fill="#111415"/><rect x="254.441" y="296.503" width="22.451" height="46.94" rx="4.276" fill="#111415"/><rect x="283.841" y="251.164" width="22.451" height="92.279" rx="4.276" fill="#111415"/><rect x="313.24" y="289.035" width="22.451" height="54.407" rx="4.276" fill="#111415"/><rect x="342.64" y="311.439" width="22.451" height="32.004" rx="4.276" fill="#111415"/><rect x="372.039" y="251.164" width="22.451" height="92.279" rx="4.276" fill="#111415"/><rect x="401.439" y="271.433" width="22.451" height="72.01" rx="4.276" fill="#111415"/><rect x="430.839" y="313.572" width="22.451" height="29.871" rx="4.276" fill="#111415"/><rect x="460.238" y="293.836" width="22.451" height="49.607" rx="4.276" fill="#111415"/><rect x="489.638" y="307.705" width="22.451" height="35.738" rx="4.276" fill="#111415"/><rect x="519.038" y="251.164" width="22.451" height="92.279" rx="4.276" fill="#111415"/><g filter="url(#filter1_d_2006_219)"><rect x="77.775" y="25" width="251.234" height="204.828" rx="10.691" fill="#111415"/></g><path d="M213.562 64.472h-10.17a2.673 2.673 0 01-2.673-2.673V45.81a2.673 2.673 0 012.673-2.673h30.736a2.673 2.673 0 012.673 2.673V61.8a2.673 2.673 0 01-2.673 2.673h-10.437c-.98 0-1.881.536-2.349 1.398l-2.246 4.137a.534.534 0 01-.939 0l-2.246-4.137a2.673 2.673 0 00-2.349-1.398z" fill="#57C7FF"/><path d="M208.716 54.972h.888v.614h-.888v.885h-.615v-.885h-.887v-.614h.887v-.885h.615v.885zm6.065 1.083v.95h-4.966v-.507c0-.455.107-.804.321-1.046a1.57 1.57 0 01.711-.49 6.45 6.45 0 01.967-.22c.15-.024.314-.045.492-.063.235-.029.419-.055.551-.08.135-.025.247-.064.336-.117.089-.057.134-.132.134-.224 0-.157-.109-.27-.326-.342a2.452 2.452 0 00-.791-.112 1.897 1.897 0 00-.754.144c-.207.089-.31.228-.31.416h-1.331c0-.547.248-.92.743-1.12a4.323 4.323 0 011.652-.304c.645 0 1.217.085 1.716.256.502.17.753.528.753 1.072 0 .285-.094.512-.283.683a1.688 1.688 0 01-.641.357 6.564 6.564 0 01-.792.182l-.171.032c-.017 0-.074.009-.171.026-.474.068-.866.14-1.176.219-.306.075-.459.17-.459.288h3.795zm5.161-.357c-.003.494-.228.855-.673 1.083-.446.227-1.027.34-1.743.34-.809 0-1.427-.136-1.855-.41-.427-.277-.641-.693-.641-1.248h1.251c0 .274.121.475.363.603.243.124.537.185.882.181.303.007.56-.034.77-.123.214-.089.322-.23.326-.426-.004-.1-.03-.175-.08-.224-.05-.054-.132-.09-.246-.107a2.773 2.773 0 00-.481-.032h-.989v-.768h.989c.281 0 .483-.036.604-.107.121-.071.182-.158.182-.261 0-.132-.106-.228-.316-.288a2.694 2.694 0 00-.759-.102c-.345 0-.639.038-.882.112-.242.072-.363.184-.363.337h-1.251c0-.513.258-.86.775-1.04a5.108 5.108 0 011.721-.278c.381 0 .736.025 1.064.075.331.046.622.156.871.33.25.175.374.432.374.774 0 .348-.213.587-.641.715.463.138.713.423.748.853v.01zm2.81-2.694c1.654-.007 2.48.663 2.48 2.01 0 .527-.167 1.004-.502 1.43-.332.424-.991.635-1.978.635-.695 0-1.233-.115-1.614-.346-.382-.232-.636-.502-.765-.811a2.222 2.222 0 01-.171-.907c0-.512.177-.974.529-1.387.353-.416 1.027-.624 2.021-.624zm.005 3.11c.31 0 .562-.052.754-.155a.957.957 0 00.417-.405c.082-.168.119-.349.112-.544a1.002 1.002 0 00-.112-.512.919.919 0 00-.417-.385c-.192-.1-.444-.149-.754-.149-.306 0-.556.05-.748.15a.926.926 0 00-.412.384 1.002 1.002 0 00-.112.512c-.007.195.03.377.112.544a.97.97 0 00.412.405c.192.103.442.155.748.155zm5.226-3.11c1.653-.007 2.48.663 2.48 2.01 0 .527-.168 1.004-.503 1.43-.331.424-.99.635-1.977.635-.695 0-1.233-.115-1.615-.346-.381-.232-.636-.502-.764-.811a2.19 2.19 0 01-.171-.907c0-.512.176-.974.529-1.387.353-.416 1.026-.624 2.021-.624zm.005 3.11c.31 0 .561-.052.754-.155a.957.957 0 00.417-.405c.082-.168.119-.349.112-.544a1.002 1.002 0 00-.112-.512.919.919 0 00-.417-.385c-.193-.1-.444-.149-.754-.149-.307 0-.556.05-.748.15a.92.92 0 00-.412.384 1.002 1.002 0 00-.112.512c-.007.195.03.377.112.544a.96.96 0 00.412.405c.192.103.441.155.748.155z" fill="#111415"/><path d="M170.251 82.161c-25.237 36.026-73.321 39.383-92.476 37.872v77.344h250.967v-89.612c-53.187 20.269-86.328-3.201-104.503-20.27l-.186-.175c-16.501-15.498-34.631-32.526-53.802-5.159z" fill="url(#paint0_linear_2006_219)"/><mask id="a" style="mask-type:alpha" maskUnits="userSpaceOnUse" x="77" y="25" width="253" height="205"><rect x="77.775" y="25" width="251.234" height="204.828" rx="10.691" fill="#111415"/></mask><g mask="url(#a)" stroke-width="2.673"><path d="M74.034 120.193c19.705 1.516 69.171-1.851 95.134-37.988 19.797-27.554 38.514-10.241 55.541 5.35 18.697 17.122 52.791 40.663 107.507 20.332" stroke="#57C7FF"/><path d="M75.637 111.204C93.326 94.849 140 62.292 208.303 121.336c28.995 25.065 85.344 22.398 123.913 0" stroke="#EFEFEF"/></g><ellipse cx="218.092" cy="81.808" rx="5.613" ry="5.601" fill="#57C7FF"/><path d="M99.881 202.571v3.56c0 .374-.088.739-.264 1.096-.177.358-.479.659-.906.904-.428.24-.995.36-1.7.36-.668 0-1.222-.141-1.66-.424-.438-.282-.759-.613-.962-.992-.203-.384-.305-.728-.305-1.032H95.4c0 .24.067.467.2.68.134.208.324.379.57.512.251.128.54.192.866.192.32 0 .596-.061.826-.184a1.291 1.291 0 00.69-1.112v-3.56h1.33zm3.525 1.368c.705 0 1.336.128 1.892.384.561.256.842.707.842 1.352v2.816h-1.171l-.12-.76c-.086.16-.246.304-.481.432s-.516.23-.842.304c-.326.07-.66.104-1.002.104-.412 0-.845-.085-1.299-.256-.455-.176-.682-.552-.682-1.128 0-.544.185-.904.553-1.08a2.56 2.56 0 011.139-.272c.871 0 1.473-.005 1.804-.016.337-.016.556-.045.657-.088a.261.261 0 00.169-.24v-.08c-.005-.192-.155-.352-.449-.48a2.532 2.532 0 00-1.018-.192c-.423-.005-.781.059-1.075.192-.294.128-.441.336-.441.624h-1.291c0-.411.15-.736.449-.976.305-.24.668-.405 1.091-.496a5.797 5.797 0 011.275-.144zm-.281 3.656c.641 0 1.09-.133 1.347-.4.257-.266.385-.578.385-.936-.262.155-.727.232-1.395.232-.396 0-.706.014-.93.04-.22.027-.383.078-.489.152a.367.367 0 00-.169.312c.011.192.11.342.297.448.187.102.505.152.954.152zm6.852-3.608c.61 0 1.086.208 1.428.624.342.411.513 1.104.513 2.08v1.8h-1.283v-1.776c0-.341-.027-.64-.08-.896a1.211 1.211 0 00-.361-.648c-.182-.181-.457-.272-.826-.272-.379 0-.668.091-.866.272a1.24 1.24 0 00-.377.656c-.053.261-.08.568-.08.92v1.744h-1.283v-4.36h1.283v.576c.422-.48 1.066-.72 1.932-.72zm29.893-1.416v1.088h-4.714v1.2h4.041v1.048h-4.041v2.584H133.8v-5.92h6.07zm5.507 3.84h-4.45c.016.256.088.494.217.712.128.214.312.387.553.52.241.134.532.2.874.2.283 0 .542-.05.778-.152.235-.101.419-.232.553-.392a.812.812 0 00.2-.52h1.275c0 .326-.112.632-.336.92-.22.283-.543.512-.971.688-.427.176-.932.264-1.515.264a3.595 3.595 0 01-1.467-.296 2.63 2.63 0 01-1.067-.832 2.063 2.063 0 01-.393-1.24c0-.469.129-.883.385-1.24a2.44 2.44 0 011.051-.832 3.672 3.672 0 011.491-.296c.561 0 1.053.096 1.475.288.423.192.751.464.986.816.236.347.356.755.361 1.224v.168zm-2.806-1.688c-.422 0-.759.093-1.01.28a1.474 1.474 0 00-.538.736h3.015a1.278 1.278 0 00-.465-.736c-.235-.187-.569-.28-1.002-.28zm8.825 1.496a2.718 2.718 0 01-.281 1.2c-.176.358-.425.64-.745.848a2.011 2.011 0 01-1.099.304c-.984.006-1.705-.197-2.165-.608l-.104.504h-1.115v-5.888h1.283v2.048c.481-.443 1.182-.664 2.101-.664.422 0 .794.104 1.115.312.32.208.566.483.737.824.177.341.267.704.273 1.088v.032zm-2.806 1.528c.32 0 .59-.074.809-.224.225-.149.391-.341.497-.576.113-.234.172-.48.177-.736a1.456 1.456 0 00-.177-.656 1.332 1.332 0 00-.497-.544 1.465 1.465 0 00-.809-.216 1.41 1.41 0 00-.746.2 1.3 1.3 0 00-.497.536 1.59 1.59 0 00-.177.752v.008c0 .246.059.48.177.704.123.224.291.406.505.544.214.139.46.208.738.208zm32.584-5.176v5.92h-1.355v-3.704l-1.812 3.704h-1.355l-1.941-3.76v3.76h-1.355v-5.92h1.636l2.325 4.56 2.229-4.56h1.628zm3.528 1.368c.706 0 1.336.128 1.892.384.562.256.842.707.842 1.352v2.816h-1.17l-.121-.76c-.085.16-.246.304-.481.432s-.516.23-.842.304c-.326.07-.66.104-1.002.104-.412 0-.845-.085-1.299-.256-.454-.176-.681-.552-.681-1.128 0-.544.184-.904.553-1.08a2.556 2.556 0 011.138-.272c.872 0 1.473-.005 1.804-.016.337-.016.556-.045.658-.088a.26.26 0 00.168-.24v-.08c-.005-.192-.155-.352-.449-.48a2.529 2.529 0 00-1.018-.192c-.422-.005-.78.059-1.074.192-.294.128-.441.336-.441.624h-1.291c0-.411.149-.736.449-.976.304-.24.668-.405 1.09-.496a5.811 5.811 0 011.275-.144zm-.281 3.656c.642 0 1.091-.133 1.347-.4.257-.266.385-.578.385-.936-.262.155-.727.232-1.395.232-.395 0-.705.014-.93.04-.219.027-.382.078-.489.152a.366.366 0 00-.168.312c.01.192.109.342.296.448.187.102.505.152.954.152zm4.904-2.768c.401-.421 1.035-.675 1.901-.76v1.104h-.938c-.289 0-.503.072-.642.216a.975.975 0 00-.256.512 5.144 5.144 0 00-.048.776v1.816h-1.283v-4.36h1.114l.152.696z" fill="#EFEFEF"/><path d="M220.361 208.491h-1.411l-.682-1.256h-3.744l-.682 1.256h-1.411l3.215-5.92h1.5l3.215 5.92zm-3.961-4.704l-1.283 2.352h2.558l-1.275-2.352zm9.731 2.624a2.5 2.5 0 01-.281 1.088 2.14 2.14 0 01-.738.824 1.962 1.962 0 01-1.106.312c-.92 0-1.62-.221-2.101-.664v2.041h-1.283v-5.881h1.115l.12.616c.492-.48 1.208-.717 2.149-.712.411 0 .775.101 1.09.304.321.203.572.48.754.832.182.352.275.747.281 1.184v.056zm-2.807 1.392c.316 0 .583-.072.802-.216.225-.144.393-.325.505-.544.112-.224.171-.448.177-.672a1.82 1.82 0 00-.169-.736 1.262 1.262 0 00-.489-.56c-.219-.144-.494-.216-.826-.216-.278 0-.524.069-.737.208a1.432 1.432 0 00-.506.536 1.502 1.502 0 00-.176.704v.008c0 .278.059.531.176.76.118.224.284.403.498.536.219.128.467.192.745.192zm4.618-2.976c.401-.421 1.034-.675 1.9-.76v1.104h-.938c-.289 0-.503.072-.642.216a.975.975 0 00-.256.512 5.144 5.144 0 00-.048.776v1.816h-1.283v-4.36h1.114l.153.696z" fill="#57C7FF"/><path d="M259.217 202.571v5.92h-1.355v-3.704l-1.812 3.704h-1.355l-1.941-3.76v3.76h-1.355v-5.92h1.636l2.325 4.56 2.229-4.56h1.628zm3.528 1.368c.705 0 1.336.128 1.892.384.561.256.842.707.842 1.352v2.816h-1.171l-.12-.76c-.085.16-.246.304-.481.432s-.516.23-.842.304c-.326.07-.66.104-1.002.104-.412 0-.845-.085-1.299-.256-.454-.176-.682-.552-.682-1.128 0-.544.185-.904.554-1.08a2.553 2.553 0 011.138-.272c.871 0 1.473-.005 1.804-.016.337-.016.556-.045.658-.088a.26.26 0 00.168-.24v-.08c-.005-.192-.155-.352-.449-.48a2.529 2.529 0 00-1.018-.192c-.422-.005-.781.059-1.075.192-.294.128-.441.336-.441.624h-1.291c0-.411.15-.736.449-.976.305-.24.669-.405 1.091-.496a5.811 5.811 0 011.275-.144zm-.281 3.656c.642 0 1.091-.133 1.347-.4.257-.266.385-.578.385-.936-.262.155-.727.232-1.395.232-.396 0-.706.014-.93.04-.219.027-.382.078-.489.152a.369.369 0 00-.169.312c.011.192.11.342.297.448.187.102.505.152.954.152zm9.326-3.464l-2.606 5.345c-.145.277-.409.458-.794.544-.38.085-.826.128-1.339.128v-1.144c.267 0 .452-.024.553-.072.107-.043.161-.104.161-.184a.436.436 0 00-.041-.161 3.41 3.41 0 00-.056-.12l-2.253-4.336h1.411l1.837 3.864 1.715-3.864h1.412zm27.474-1.56v3.56c0 .374-.088.739-.264 1.096-.176.358-.479.659-.906.904-.428.24-.994.36-1.7.36-.668 0-1.221-.141-1.66-.424-.438-.282-.759-.613-.962-.992-.203-.384-.305-.728-.305-1.032h1.315c0 .24.067.467.201.68.133.208.323.379.569.512.251.128.54.192.866.192.321 0 .596-.061.826-.184a1.288 1.288 0 00.689-1.112v-3.56h1.331zm4.615 1.56h1.283v4.36h-1.283v-.576c-.422.48-1.066.72-1.932.72-.609 0-1.085-.205-1.427-.616-.342-.416-.513-1.112-.513-2.088v-1.8h1.282v1.776c0 .342.027.64.081.896.053.256.171.475.352.656.188.176.465.264.834.264.535 0 .888-.173 1.059-.52.176-.352.264-.797.264-1.336v-1.736zm5.121-.144c.61 0 1.086.208 1.428.624.342.411.513 1.104.513 2.08v1.8h-1.283v-1.776c0-.341-.027-.64-.08-.896a1.211 1.211 0 00-.361-.648c-.182-.181-.457-.272-.826-.272-.379 0-.668.091-.866.272a1.24 1.24 0 00-.377.656c-.053.261-.08.568-.08.92v1.744h-1.283v-4.36h1.283v.576c.422-.48 1.067-.72 1.932-.72z" fill="#EFEFEF"/><g filter="url(#filter2_d_2006_219)"><rect x="344.243" y="404.251" width="218.092" height="78.411" rx="5.88" fill="#57C7FF"/></g><path d="M368.186 452.535c1.501.013 2.771.096 3.81.249 1.052.154 1.931.506 2.637 1.057.705.537 1.058 1.344 1.058 2.419 0 1.805-.75 3.066-2.251 3.783-1.501.717-3.253 1.107-5.254 1.171v2.19h-2.29v-2.228c-1.899-.154-3.56-.608-4.984-1.363-1.411-.768-2.117-2.004-2.117-3.706l3.387-.058c0 1.498 1.238 2.362 3.714 2.592v-3.706c-1.475-.025-2.713-.128-3.714-.307-1.001-.192-1.815-.57-2.444-1.133-.628-.576-.943-1.415-.943-2.516 0-1.702.699-2.899 2.098-3.59 1.411-.692 3.079-1.089 5.003-1.191v-2.208h2.29v2.189c1.924.077 3.656.493 5.196 1.248 1.539.742 2.309 2.029 2.309 3.86h-3.368c0-.82-.429-1.415-1.289-1.786-.859-.384-1.809-.627-2.848-.73v3.764zm-6.081-1.613c0 .947 1.264 1.478 3.791 1.594v-3.726c-1.026.103-1.918.32-2.675.653-.744.32-1.116.813-1.116 1.479zm10.276 5.396c0-.538-.398-.896-1.193-1.076-.795-.179-1.796-.281-3.002-.307v3.745c1.18-.039 2.168-.244 2.964-.615.808-.371 1.218-.947 1.231-1.728v-.019zm22.135-4.09c.013.204.019.499.019.883 0 3.06-.898 5.172-2.694 6.337-1.796 1.165-3.958 1.747-6.485 1.747-2.399 0-4.323-.377-5.773-1.133-1.45-.768-2.175-1.933-2.175-3.495l3.118.058c0 .807.462 1.395 1.385 1.767.937.358 2.079.531 3.426.518a8.172 8.172 0 002.713-.365 4.892 4.892 0 002.155-1.382c.578-.653.917-1.492 1.02-2.516-.962.653-2.091 1.063-3.387 1.229a33.38 33.38 0 01-3.945.231c-1.398 0-2.617-.192-3.656-.577-1.026-.384-1.815-.928-2.367-1.632-.551-.704-.827-1.53-.827-2.477v-.038c0-1.152.372-2.113 1.116-2.881.744-.768 1.738-1.331 2.983-1.69 1.257-.371 2.662-.556 4.214-.556 2.797 0 4.952.48 6.466 1.44 1.513.947 2.412 2.458 2.694 4.532zm-8.718 1.92c3.464 0 5.19-.768 5.177-2.304 0-.948-.353-1.645-1.058-2.094-.706-.448-1.418-.71-2.136-.787a22.033 22.033 0 00-2.444-.153c-1.412 0-2.611.204-3.599.614-.975.397-1.462 1.024-1.462 1.882 0 .806.231 1.421.692 1.843.475.41 1.097.679 1.867.807.783.128 1.77.192 2.963.192zm23.137-7.566l-7.698 14.21h-3.117l6.369-11.771h-9.333v-2.439h13.779zm8.627-.038c3.541-.013 5.914.704 7.12 2.15 1.206 1.447 1.809 3.13 1.809 5.051 0 1.869-.609 3.578-1.828 5.127-1.219 1.536-3.586 2.304-7.101 2.304-2.463 0-4.368-.416-5.715-1.248-1.334-.832-2.22-1.799-2.656-2.9-.436-1.113-.635-2.208-.596-3.283 0-1.857.609-3.521 1.828-4.993 1.231-1.472 3.611-2.208 7.139-2.208zm.019 12.251c1.399 0 2.534-.237 3.406-.711.873-.486 1.495-1.113 1.867-1.881a5.13 5.13 0 00.5-2.497 4.684 4.684 0 00-.5-2.381c-.372-.73-.994-1.318-1.867-1.767-.872-.46-2.007-.691-3.406-.691-1.385 0-2.514.231-3.386.691-.86.449-1.476 1.037-1.848 1.767a4.97 4.97 0 00-.5 2.381 5.446 5.446 0 00.5 2.497c.372.768.988 1.395 1.848 1.881.872.474 2.001.711 3.386.711zm10.22-.979h3.31v2.976h-3.31v-2.976zm19.671-4.82c.885.256 1.552.665 2.001 1.229.462.55.693 1.299.693 2.246 0 1.895-.828 3.169-2.482 3.822-1.655.653-3.586.979-5.793.979h-.616c-1.462 0-2.816-.096-4.06-.288a7.255 7.255 0 01-3.291-1.325c-.962-.704-1.443-1.76-1.443-3.168-.013-1.012.199-1.793.635-2.343.449-.563 1.129-.967 2.04-1.21-1.424-.461-2.136-1.395-2.136-2.803 0-1.217.539-2.113 1.616-2.689 1.091-.589 2.188-.947 3.291-1.075 1.103-.141 2.2-.218 3.291-.231 1.116 0 2.258.071 3.425.212a8.876 8.876 0 013.368 1.075c1.077.576 1.616 1.472 1.616 2.688 0 1.485-.718 2.445-2.155 2.881zm-6.274-4.782c-1.411-.013-2.61.135-3.598.442-.975.307-1.463.8-1.463 1.479 0 .691.501 1.19 1.501 1.497 1.001.295 2.213.429 3.637.404 1.45.025 2.675-.109 3.676-.404 1.013-.307 1.52-.806 1.52-1.497 0-.679-.513-1.172-1.539-1.479-1.027-.307-2.271-.455-3.734-.442zm.039 10.696c1.629.026 3.008-.154 4.137-.538 1.129-.396 1.694-1.03 1.694-1.901 0-.883-.565-1.517-1.694-1.901-1.129-.397-2.501-.582-4.118-.557-1.616-.025-2.983.16-4.099.557-1.116.384-1.674 1.018-1.674 1.901 0 .871.558 1.505 1.674 1.901 1.116.384 2.476.564 4.08.538zm27.907-.71v2.592h-17.531v-1.248c0-1.664.301-2.932.904-3.802.603-.884 1.341-1.485 2.213-1.805.885-.32 2.066-.602 3.541-.845.449-.064 1.225-.167 2.328-.308a44.568 44.568 0 002.637-.364c.654-.116 1.193-.295 1.616-.538.436-.256.655-.602.655-1.037 0-.794-.526-1.376-1.578-1.747-1.04-.372-2.316-.551-3.83-.538-1.45 0-2.681.224-3.695.672-1.013.435-1.52 1.127-1.52 2.074l-3.271-.019c0-1.306.462-2.337 1.385-3.092.937-.768 2.047-1.299 3.329-1.594a16.776 16.776 0 013.753-.441c2.232 0 4.24.313 6.023.941 1.796.614 2.694 1.862 2.694 3.744 0 1.011-.423 1.811-1.27 2.4a7.971 7.971 0 01-2.829 1.249c-1.039.243-2.27.46-3.694.652-.565.064-.988.122-1.27.173-1.027.103-1.925.314-2.695.634-.756.32-1.34.685-1.751 1.094-.397.397-.596.781-.596 1.153h14.452zm16.213-5.204c.886.256 1.553.665 2.002 1.229.461.55.692 1.299.692 2.246 0 1.895-.827 3.169-2.482 3.822-1.655.653-3.586.979-5.792.979h-.616c-1.463 0-2.816-.096-4.06-.288a7.246 7.246 0 01-3.291-1.325c-.962-.704-1.443-1.76-1.443-3.168-.013-1.012.199-1.793.635-2.343.449-.563 1.129-.967 2.04-1.21-1.424-.461-2.136-1.395-2.136-2.803 0-1.217.538-2.113 1.616-2.689 1.09-.589 2.187-.947 3.291-1.075 1.103-.141 2.2-.218 3.29-.231 1.116 0 2.258.071 3.426.212a8.871 8.871 0 013.367 1.075c1.078.576 1.617 1.472 1.617 2.688 0 1.485-.719 2.445-2.156 2.881zm-6.273-4.782c-1.411-.013-2.611.135-3.599.442-.975.307-1.462.8-1.462 1.479 0 .691.5 1.19 1.501 1.497 1.001.295 2.213.429 3.637.404 1.45.025 2.675-.109 3.675-.404 1.014-.307 1.521-.806 1.521-1.497 0-.679-.513-1.172-1.54-1.479-1.026-.307-2.271-.455-3.733-.442zm.038 10.696c1.63.026 3.009-.154 4.138-.538 1.129-.396 1.693-1.03 1.693-1.901 0-.883-.564-1.517-1.693-1.901-1.129-.397-2.502-.582-4.118-.557-1.617-.025-2.983.16-4.099.557-1.116.384-1.674 1.018-1.674 1.901 0 .871.558 1.505 1.674 1.901 1.116.384 2.476.564 4.079.538zm10.338 1.882v-2.976h3.29v2.976l-1.558 1.882h-1.732l1.559-1.882h-1.559zm11.088-14.21v14.21h-3.156v-9.774h-3.214v-2.016c1.193 0 2.072-.148 2.636-.442.578-.295.93-.608 1.059-.941.141-.346.211-.691.211-1.037h2.464zm15.045 9.505h2.021v2.554h-2.021v2.151h-3.156v-2.151h-10.122v-2.554l10.122-9.505h3.156v9.505zm-3.156-6.433l-6.446 6.433h6.446v-6.433zM372.93 423.443v9.078h-2.078v-5.68l-2.778 5.68h-2.078l-2.975-5.766v5.766h-2.078v-9.078h2.508l3.566 6.993 3.417-6.993h2.496zm10.046 2.392l-3.996 8.195c-.221.426-.627.704-1.217.835-.582.131-1.266.196-2.053.196v-1.754c.41 0 .692-.037.848-.111.164-.065.246-.159.246-.282a.668.668 0 00-.062-.245c-.041-.09-.069-.152-.086-.184l-3.454-6.65h2.163l2.816 5.926 2.631-5.926h2.164zm13.243 3.202a4.177 4.177 0 01-.43 1.841 3.21 3.21 0 01-1.144 1.3c-.491.311-1.053.466-1.684.466-1.508.008-2.615-.302-3.32-.932l-.159.773h-1.709v-9.03h1.967v3.141c.738-.679 1.811-1.018 3.221-1.018.647 0 1.217.159 1.709.478.492.319.869.74 1.131 1.264.27.523.41 1.079.418 1.668v.049zm-4.303 2.344c.492 0 .906-.115 1.242-.344.344-.229.598-.523.762-.883.172-.36.262-.736.27-1.129a2.255 2.255 0 00-.27-1.006 2.066 2.066 0 00-.762-.834c-.345-.221-.758-.331-1.242-.331-.426 0-.807.102-1.143.306a2.013 2.013 0 00-.763.822c-.18.344-.27.728-.27 1.153v.013c0 .376.09.736.27 1.079a2.3 2.3 0 00.775.835c.328.212.705.319 1.131.319zm9.344-5.84c1.082 0 2.049.196 2.901.589.861.392 1.291 1.083 1.291 2.073v4.318h-1.795l-.184-1.165c-.131.245-.377.466-.738.662a5.058 5.058 0 01-1.291.467c-.5.106-1.012.159-1.537.159-.631 0-1.295-.131-1.991-.392-.697-.27-1.045-.847-1.045-1.73 0-.834.282-1.387.848-1.656a3.9 3.9 0 011.746-.418c1.336 0 2.258-.008 2.766-.024.516-.025.852-.07 1.008-.135a.4.4 0 00.258-.368v-.123c-.008-.294-.237-.54-.688-.736-.451-.196-.971-.294-1.562-.294-.647-.009-1.196.09-1.647.294-.451.196-.676.515-.676.957h-1.98c0-.63.23-1.129.689-1.497.467-.368 1.024-.621 1.672-.76a8.854 8.854 0 011.955-.221zm-.431 5.606c.984 0 1.672-.204 2.066-.613.393-.409.59-.887.59-1.435-.402.237-1.115.355-2.139.355-.607 0-1.082.021-1.426.062-.336.041-.586.118-.75.233a.562.562 0 00-.259.478c.017.295.168.524.455.687.287.156.775.233 1.463.233zm7.545 1.374h-1.968v-9.078h1.968v9.078zm5.36-6.98c1.082 0 2.049.196 2.902.589.86.392 1.291 1.083 1.291 2.073v4.318h-1.795l-.185-1.165c-.131.245-.377.466-.737.662a5.058 5.058 0 01-1.291.467c-.5.106-1.013.159-1.537.159-.631 0-1.295-.131-1.992-.392-.697-.27-1.045-.847-1.045-1.73 0-.834.283-1.387.848-1.656a3.905 3.905 0 011.746-.418c1.336 0 2.258-.008 2.766-.024.517-.025.853-.07 1.009-.135a.4.4 0 00.258-.368v-.123c-.008-.294-.238-.54-.689-.736-.45-.196-.971-.294-1.561-.294-.648-.009-1.197.09-1.648.294-.45.196-.676.515-.676.957h-1.979c0-.63.229-1.129.688-1.497a4.03 4.03 0 011.672-.76 8.861 8.861 0 011.955-.221zm-.43 5.606c.983 0 1.672-.204 2.065-.613.394-.409.59-.887.59-1.435-.401.237-1.114.355-2.139.355-.606 0-1.082.021-1.426.062-.336.041-.586.118-.75.233a.559.559 0 00-.258.478c.016.295.168.524.455.687.287.156.774.233 1.463.233zm10.507-5.533c.934 0 1.664.319 2.188.957.525.63.787 1.693.787 3.19v2.76h-1.967v-2.723c0-.524-.041-.982-.123-1.374a1.85 1.85 0 00-.553-.994c-.279-.278-.701-.417-1.266-.417-.582 0-1.025.139-1.328.417-.295.27-.488.605-.578 1.006a7.115 7.115 0 00-.123 1.411v2.674h-1.967v-6.686h1.967v.884c.648-.737 1.635-1.105 2.963-1.105zm3.686 3.583c0-.687.197-1.305.59-1.853.394-.556.931-.989 1.611-1.3.68-.311 1.434-.466 2.262-.466 1.197 0 2.139.257 2.828.773.696.507 1.18 1.202 1.45 2.085h-1.979c-.107-.425-.369-.785-.787-1.079-.41-.303-.901-.454-1.475-.454-.779.008-1.389.225-1.832.65-.443.425-.664.973-.664 1.644 0 .384.09.756.271 1.116.188.352.471.638.848.859.377.221.836.327 1.377.319.582 0 1.078-.147 1.488-.442.409-.302.663-.662.762-1.079h1.979c-.074.49-.311.957-.713 1.398-.402.434-.918.785-1.549 1.055a5.116 5.116 0 01-2.004.393 5.286 5.286 0 01-2.225-.466c-.681-.319-1.226-.753-1.635-1.301a3.087 3.087 0 01-.603-1.852zm18.144.135h-6.823c.024.392.135.756.332 1.092.196.327.479.593.848.797.369.205.815.307 1.34.307.434 0 .832-.078 1.193-.233.36-.156.643-.356.848-.601.205-.254.307-.52.307-.798h1.955c0 .499-.172.969-.516 1.411-.336.433-.832.785-1.488 1.055-.656.27-1.43.405-2.324.405a5.519 5.519 0 01-2.249-.454c-.681-.303-1.226-.728-1.636-1.276a3.17 3.17 0 01-.602-1.902c0-.719.197-1.353.59-1.901.394-.556.93-.982 1.611-1.276.688-.303 1.45-.454 2.286-.454.861 0 1.615.147 2.263.442.647.294 1.151.711 1.512 1.251.36.532.545 1.157.553 1.877v.258zm-4.303-2.589c-.647 0-1.164.143-1.549.43-.385.278-.66.654-.824 1.128h4.623a1.961 1.961 0 00-.713-1.128c-.361-.287-.873-.43-1.537-.43z" fill="#111415"/><g filter="url(#filter3_d_2006_219)"><rect x="471.464" y="87.408" width="178.536" height="122.683" rx="12.294" fill="#111415"/></g><path d="M511.713 123.249c4.395-.016 7.341.874 8.838 2.67 1.497 1.795 2.245 3.885 2.245 6.268 0 2.32-.756 4.442-2.269 6.364-1.512 1.907-4.45 2.86-8.814 2.86-3.057 0-5.422-.516-7.094-1.549-1.656-1.033-2.755-2.232-3.296-3.599-.541-1.382-.788-2.741-.74-4.076 0-2.304.756-4.37 2.269-6.197 1.528-1.827 4.482-2.741 8.861-2.741zm.024 15.207c1.736 0 3.145-.294 4.228-.882 1.083-.604 1.855-1.382 2.317-2.336.462-.953.669-1.986.621-3.098a5.818 5.818 0 00-.621-2.956c-.462-.906-1.234-1.637-2.317-2.193-1.083-.572-2.492-.858-4.228-.858-1.719 0-3.121.286-4.204.858-1.067.556-1.831 1.287-2.293 2.193-.446.906-.653 1.891-.621 2.956-.032 1.112.175 2.145.621 3.098.462.954 1.226 1.732 2.293 2.336 1.083.588 2.485.882 4.204.882zm12.686-1.216h4.108v3.695h-4.108v-3.695zm16.868-13.991c4.395-.016 7.341.874 8.838 2.67 1.497 1.795 2.245 3.885 2.245 6.268 0 2.32-.756 4.442-2.269 6.364-1.513 1.907-4.451 2.86-8.814 2.86-3.057 0-5.422-.516-7.094-1.549-1.656-1.033-2.755-2.232-3.296-3.599-.542-1.382-.789-2.741-.741-4.076 0-2.304.756-4.37 2.269-6.197 1.529-1.827 4.483-2.741 8.862-2.741zm.024 15.207c1.736 0 3.145-.294 4.228-.882 1.082-.604 1.855-1.382 2.317-2.336.461-.953.668-1.986.621-3.098a5.838 5.838 0 00-.621-2.956c-.462-.906-1.235-1.637-2.317-2.193-1.083-.572-2.492-.858-4.228-.858-1.72 0-3.121.286-4.204.858-1.067.556-1.831 1.287-2.293 2.193-.446.906-.653 1.891-.621 2.956-.032 1.112.175 2.145.621 3.098.462.954 1.226 1.732 2.293 2.336 1.083.588 2.484.882 4.204.882zm34.517-.739v3.218h-21.76v-1.55c0-2.065.374-3.638 1.123-4.719.748-1.096 1.664-1.843 2.747-2.24 1.098-.398 2.563-.747 4.395-1.049.557-.08 1.52-.207 2.89-.382 1.385-.158 2.476-.309 3.272-.452.812-.143 1.481-.366 2.007-.668.541-.318.812-.747.812-1.287 0-.985-.653-1.708-1.959-2.169-1.29-.461-2.874-.683-4.753-.667-1.8 0-3.328.278-4.586.834-1.258.54-1.887 1.398-1.887 2.574l-4.061-.024c0-1.62.573-2.9 1.72-3.837 1.162-.954 2.54-1.613 4.132-1.978a20.766 20.766 0 014.658-.549c2.771 0 5.263.39 7.476 1.168 2.23.763 3.344 2.312 3.344 4.648 0 1.255-.525 2.249-1.576 2.98a9.898 9.898 0 01-3.511 1.549c-1.29.302-2.819.572-4.587.81-.7.08-1.226.151-1.576.215-1.274.127-2.389.389-3.344.786-.94.398-1.664.85-2.174 1.359-.493.492-.74.969-.74 1.43h17.938zm23.517-2.622c-.016 2.209-1.019 3.822-3.009 4.839-1.991 1.017-4.586 1.525-7.787 1.525-2.357 0-4.371-.294-6.043-.882-1.672-.588-2.946-1.438-3.822-2.55-.86-1.112-1.29-2.439-1.29-3.981h3.917c0 1.494.701 2.59 2.102 3.29 1.402.699 3.114 1.048 5.136 1.048 1.847.016 3.424-.238 4.729-.762 1.306-.541 1.967-1.391 1.983-2.551-.016-.492-.143-.858-.382-1.096-.223-.254-.717-.437-1.481-.548-.765-.127-1.951-.191-3.559-.191h-4.419v-2.956h4.419c1.114 0 2.022-.039 2.723-.119.716-.095 1.298-.286 1.743-.572.446-.286.669-.723.669-1.311 0-.81-.621-1.414-1.863-1.811s-2.763-.612-4.562-.644c-2.022-.016-3.734.207-5.136.668-1.401.445-2.102 1.168-2.102 2.169h-3.917c0-2.289 1.155-3.838 3.464-4.648 2.325-.827 4.888-1.24 7.691-1.24 1.704 0 3.288.112 4.753.334 1.481.207 2.779.699 3.894 1.478 1.114.778 1.672 1.93 1.672 3.456 0 1.684-.725 2.836-2.174 3.456 1.704.62 2.588 1.804 2.651 3.551v.048zm5.828 5.84h-4.061l15.526-16.685h4.061l-15.526 16.685zm1.051-8.962a3.81 3.81 0 01-1.911-.501 3.97 3.97 0 01-1.409-1.406 3.788 3.788 0 01-.502-1.907c0-.683.167-1.319.502-1.907.35-.588.82-1.048 1.409-1.382a3.675 3.675 0 011.911-.525c.685 0 1.322.175 1.911.525a3.613 3.613 0 011.385 1.382c.351.588.526 1.224.526 1.907s-.175 1.319-.526 1.907a3.782 3.782 0 01-1.385 1.406 3.81 3.81 0 01-1.911.501zm0-2.288c.414 0 .772-.151 1.075-.453.302-.302.454-.66.454-1.073 0-.413-.152-.771-.454-1.073a1.474 1.474 0 00-1.075-.452c-.414 0-.772.151-1.075.452-.302.302-.454.66-.454 1.073 0 .413.152.771.454 1.073.303.302.661.453 1.075.453zm9.363 11.107a3.815 3.815 0 01-1.911-.501 3.97 3.97 0 01-1.409-1.406 3.799 3.799 0 01-.502-1.907c0-.683.168-1.319.502-1.907.35-.588.82-1.048 1.409-1.382a3.68 3.68 0 011.911-.525c.685 0 1.322.175 1.911.525a3.613 3.613 0 011.385 1.382c.351.588.526 1.224.526 1.907s-.175 1.319-.526 1.907a3.782 3.782 0 01-1.385 1.406 3.81 3.81 0 01-1.911.501zm0-2.312c.414 0 .765-.151 1.051-.453.303-.302.454-.652.454-1.049 0-.413-.151-.763-.454-1.049a1.393 1.393 0 00-1.051-.453c-.398 0-.748.151-1.051.453a1.39 1.39 0 00-.454 1.049c0 .397.152.747.454 1.049.303.302.653.453 1.051.453z" fill="#EFEFEF"/><path d="M515.149 167.152v9.868h-2.258v-6.174l-3.021 6.174h-2.258l-3.234-6.267v6.267h-2.258v-9.868h2.726l3.875 7.601 3.715-7.601h2.713zm13.858 9.868h-2.352l-1.136-2.093h-6.241l-1.135 2.093h-2.352l5.358-9.868h2.499l5.359 9.868zm-6.602-7.841l-2.138 3.921h4.263l-2.125-3.921zm11.394 2.494l6.187 5.347h-3.114l-4.971-4.44v4.44h-2.258v-9.868h2.258v3.694l4.717-3.694h3.168l-5.987 4.521zm15.826 1.134h-6.736v2.44l7.858-.04v1.813h-10.116v-9.868h10.116l.014 1.814h-7.872v2.04h6.736v1.801zm10.872 4.187l-2.74-3.187h-3.541v3.187h-2.218v-9.868h6.989c.828 0 1.559.138 2.191.413.642.276 1.136.663 1.484 1.16.356.489.534 1.058.534 1.707v.054c0 .844-.249 1.542-.748 2.093-.49.551-1.172.92-2.045 1.107l2.874 3.334h-2.78zm.428-6.481c0-.507-.098-.876-.294-1.107a1.176 1.176 0 00-.722-.427c-.294-.053-.708-.08-1.243-.08-.24 0-.445.005-.615.014-1.202.026-2.481.04-3.835.04v3.08h4.45c.535 0 .949-.022 1.243-.067.294-.053.534-.186.722-.4.196-.222.294-.573.294-1.053z" fill="#57C7FF"/><defs><filter id="filter0_d_2006_219" x="74.301" y="132.195" width="498.191" height="317.573" filterUnits="userSpaceOnUse" color-interpolation-filters="sRGB"><feFlood flood-opacity="0" result="BackgroundImageFix"/><feColorMatrix in="SourceAlpha" values="0 0 0 0 0 0 0 0 0 0 0 0 0 0 0 0 0 0 127 0" result="hardAlpha"/><feMorphology radius="11.225" operator="dilate" in="SourceAlpha" result="effect1_dropShadow_2006_219"/><feOffset dx="-37.418" dy="37.418"/><feGaussianBlur stdDeviation="17.64"/><feComposite in2="hardAlpha" operator="out"/><feColorMatrix values="0 0 0 0 0.0666667 0 0 0 0 0.0784314 0 0 0 0 0.0823529 0 0 0 0.53 0"/><feBlend in2="BackgroundImageFix" result="effect1_dropShadow_2006_219"/><feBlend in="SourceGraphic" in2="effect1_dropShadow_2006_219" result="shape"/></filter><filter id="filter1_d_2006_219" x="53.721" y=".946" width="331.414" height="285.009" filterUnits="userSpaceOnUse" color-interpolation-filters="sRGB"><feFlood flood-opacity="0" result="BackgroundImageFix"/><feColorMatrix in="SourceAlpha" values="0 0 0 0 0 0 0 0 0 0 0 0 0 0 0 0 0 0 127 0" result="hardAlpha"/><feMorphology radius="4.811" operator="dilate" in="SourceAlpha" result="effect1_dropShadow_2006_219"/><feOffset dx="16.036" dy="16.036"/><feGaussianBlur stdDeviation="17.64"/><feComposite in2="hardAlpha" operator="out"/><feColorMatrix values="0 0 0 0 0.0666667 0 0 0 0 0.0784314 0 0 0 0 0.0823529 0 0 0 0.53 0"/><feBlend in2="BackgroundImageFix" result="effect1_dropShadow_2006_219"/><feBlend in="SourceGraphic" in2="effect1_dropShadow_2006_219" result="shape"/></filter><filter id="filter2_d_2006_219" x="288.117" y="380.197" width="298.273" height="158.591" filterUnits="userSpaceOnUse" color-interpolation-filters="sRGB"><feFlood flood-opacity="0" result="BackgroundImageFix"/><feColorMatrix in="SourceAlpha" values="0 0 0 0 0 0 0 0 0 0 0 0 0 0 0 0 0 0 127 0" result="hardAlpha"/><feMorphology radius="4.811" operator="dilate" in="SourceAlpha" result="effect1_dropShadow_2006_219"/><feOffset dx="-16.036" dy="16.036"/><feGaussianBlur stdDeviation="17.64"/><feComposite in2="hardAlpha" operator="out"/><feColorMatrix values="0 0 0 0 0.0666667 0 0 0 0 0.0784314 0 0 0 0 0.0823529 0 0 0 0.53 0"/><feBlend in2="BackgroundImageFix" result="effect1_dropShadow_2006_219"/><feBlend in="SourceGraphic" in2="effect1_dropShadow_2006_219" result="shape"/></filter><filter id="filter3_d_2006_219" x="415.337" y="63.354" width="258.717" height="202.864" filterUnits="userSpaceOnUse" color-interpolation-filters="sRGB"><feFlood flood-opacity="0" result="BackgroundImageFix"/><feColorMatrix in="SourceAlpha" values="0 0 0 0 0 0 0 0 0 0 0 0 0 0 0 0 0 0 127 0" result="hardAlpha"/><feMorphology radius="4.811" operator="dilate" in="SourceAlpha" result="effect1_dropShadow_2006_219"/><feOffset dx="-16.036" dy="16.036"/><feGaussianBlur stdDeviation="17.64"/><feComposite in2="hardAlpha" operator="out"/><feColorMatrix values="0 0 0 0 0.0666667 0 0 0 0 0.0784314 0 0 0 0 0.0823529 0 0 0 0.53 0"/><feBlend in2="BackgroundImageFix" result="effect1_dropShadow_2006_219"/><feBlend in="SourceGraphic" in2="effect1_dropShadow_2006_219" result="shape"/></filter><linearGradient id="paint0_linear_2006_219" x1="203.392" y1="60.825" x2="203.259" y2="197.377" gradientUnits="userSpaceOnUse"><stop stop-color="#57C7FF" stop-opacity=".4"/><stop offset=".857" stop-color="#57C7FF" stop-opacity="0"/></linearGradient></defs></svg>