<svg width="316" height="289" fill="none" xmlns="http://www.w3.org/2000/svg"><rect x="13" y="159.144" width="200" height="117.857" rx="5.17" fill="#111415"/><path d="M39.188 183.23H36.75v-2.475h2.443c.33 0 .648.13.882.362a1.233 1.233 0 010 1.751 1.252 1.252 0 01-.882.362h-.005zm.596 1.72H36.75v2.475h3.039c.33 0 .648-.13.882-.362a1.233 1.233 0 000-1.751 1.252 1.252 0 00-.882-.362h-.005zm9.9-.86a11.4 11.4 0 01-1.945 6.368 11.534 11.534 0 01-5.183 4.222 11.637 11.637 0 01-6.673.652 11.582 11.582 0 01-5.913-3.137 11.434 11.434 0 01-3.161-5.869 11.38 11.38 0 01.657-6.622 11.476 11.476 0 014.254-5.144 11.625 11.625 0 0110.836-1.06 11.562 11.562 0 013.746 2.485 11.451 11.451 0 012.504 3.719c.58 1.39.879 2.881.879 4.386zm-6.946 2.098a2.958 2.958 0 00-1.228-2.39 2.935 2.935 0 00.446-2.833 2.952 2.952 0 00-2.192-1.867v-.739a.856.856 0 00-.253-.608.87.87 0 00-1.225 0 .856.856 0 00-.254.608v.676h-.682v-.676a.856.856 0 00-.254-.608.87.87 0 00-1.225 0 .856.856 0 00-.254.608v.676H34.4a.87.87 0 00-.613.252.856.856 0 000 1.216.87.87 0 00.613.252h.618v6.67H34.4a.87.87 0 00-.613.252.856.856 0 000 1.216.87.87 0 00.613.252h1.217v.676c0 .228.091.447.254.608a.87.87 0 001.225 0 .856.856 0 00.254-.608v-.676h.682v.676c0 .228.091.447.254.608a.87.87 0 001.225 0 .856.856 0 00.253-.608v-.676h.02a2.983 2.983 0 002.093-.872 2.937 2.937 0 00.861-2.085z" fill="#57C7FF"/><path d="M65.67 183.155c.549.11.963.301 1.243.573.28.265.42.647.42 1.145v.039c0 .563-.143.99-.43 1.282-.28.291-.668.485-1.164.582-.489.091-1.138.143-1.947.156h-.479l-4.676-.01v-7.185h5.606c.756.007 1.36.162 1.81.466.45.304.674.735.674 1.292v.038c0 .421-.088.764-.264 1.03-.176.265-.44.462-.792.592zm-.567-1.398c0-.272-.058-.466-.176-.583a.755.755 0 00-.46-.223 5.137 5.137 0 00-.821-.049h-3.414v1.709l2.533.029h-.098.979c.365 0 .636-.01.812-.029a.792.792 0 00.46-.223c.123-.13.185-.34.185-.631zm-1.144 3.932c.424 0 .74-.016.949-.049a.827.827 0 00.508-.252c.124-.143.186-.372.186-.689 0-.305-.062-.525-.186-.661a.783.783 0 00-.508-.242 6.646 6.646 0 00-.95-.049h-3.726v1.922c1.526 0 2.621.007 3.287.02h.44zm3.617-4.583v-1.369h8.197l-8.197 1.369zm8.197-1.369v1.398h-3.248v5.787h-1.653v-5.787h-3.296v-1.398h8.197zm.199 3.602c0-.718.199-1.365.597-1.942.404-.576.952-1.025 1.643-1.349.698-.33 1.47-.495 2.318-.495 1.064 0 1.98.255 2.75.767.775.505 1.31 1.213 1.604 2.126l-1.722.01a1.91 1.91 0 00-.636-.845 3.02 3.02 0 00-.978-.534 3.114 3.114 0 00-1.008-.184c-.47 0-.926.097-1.37.291a2.656 2.656 0 00-1.095.845c-.28.368-.42.805-.42 1.31 0 .512.133.952.4 1.321.268.362.62.64 1.057.835.443.187.92.281 1.428.281.502 0 .995-.132 1.477-.398a2.59 2.59 0 001.106-1.136h1.76c-.312.919-.854 1.628-1.623 2.126-.763.499-1.673.748-2.73.748-.84 0-1.61-.165-2.308-.495-.698-.33-1.25-.783-1.653-1.359a3.307 3.307 0 01-.597-1.923z" fill="#EFEFEF"/><path d="M29.414 256.648h1.693v.98h-1.693v1.68h-.988v-1.68h-1.692v-.98h1.692v-1.68h.988v1.68zm6.716-3.573c1.8-.007 3.007.356 3.62 1.087.613.732.92 1.583.92 2.554 0 .945-.31 1.809-.93 2.592-.62.777-1.823 1.165-3.61 1.165-1.252 0-2.22-.21-2.905-.631-.678-.421-1.128-.909-1.35-1.466a4.1 4.1 0 01-.303-1.66c0-.939.31-1.78.93-2.525.625-.744 1.835-1.116 3.629-1.116zm.01 6.194c.711 0 1.288-.12 1.732-.359.443-.246.76-.563.949-.952.189-.388.274-.809.254-1.262a2.362 2.362 0 00-.254-1.204c-.19-.369-.506-.666-.95-.893-.443-.233-1.02-.349-1.73-.349-.705 0-1.279.116-1.722.349-.437.227-.75.524-.94.893a2.505 2.505 0 00-.254 1.204c-.013.453.072.874.255 1.262.189.389.502.706.939.952.443.239 1.017.359 1.721.359zm5.206 1.01v-1.505h1.672v1.505l-.792.951h-.88l.792-.951h-.792zm9.148-2.379h1.027v1.292h-1.027v1.087H48.89v-1.087h-5.146V257.9l5.146-4.806h1.604v4.806zm-1.604-3.252l-3.277 3.252h3.277v-3.252zm4.96 5.631h-1.663l6.359-6.796h1.663l-6.359 6.796zm.43-3.651c-.28 0-.54-.068-.782-.204a1.623 1.623 0 01-.577-.572 1.541 1.541 0 01-.206-.777c0-.278.069-.537.206-.777a1.55 1.55 0 01.577-.563c.241-.142.502-.214.783-.214.28 0 .541.072.782.214.242.136.43.324.568.563.143.24.215.499.215.777s-.072.537-.215.777c-.137.239-.326.43-.568.572a1.568 1.568 0 01-.782.204zm0-.932c.17 0 .317-.061.441-.184a.596.596 0 00.186-.437.596.596 0 00-.186-.437.603.603 0 00-.44-.184.604.604 0 00-.44.184.596.596 0 00-.186.437c0 .168.062.314.185.437a.604.604 0 00.44.184zm3.835 4.525c-.28 0-.54-.068-.782-.204a1.635 1.635 0 01-.577-.573 1.54 1.54 0 01-.206-.777c0-.278.069-.537.206-.776.143-.24.336-.428.577-.564.241-.142.502-.213.782-.213.281 0 .542.071.783.213.241.136.43.324.567.564.144.239.216.498.216.776 0 .279-.072.537-.215.777a1.56 1.56 0 01-.568.573 1.567 1.567 0 01-.783.204zm0-.942c.17 0 .314-.062.431-.185a.584.584 0 000-.854.572.572 0 00-.43-.184.592.592 0 00-.43.184.584.584 0 000 .854.593.593 0 00.43.185z" fill="#EFEFEF" fill-opacity=".5"/><path d="M36.913 222.979c1.544.013 2.85.098 3.918.255 1.081.157 1.984.517 2.71 1.08.725.55 1.088 1.374 1.088 2.474 0 1.846-.772 3.135-2.315 3.868-1.543.733-3.343 1.132-5.4 1.198v2.238h-2.355v-2.278c-1.951-.157-3.66-.621-5.123-1.394-1.451-.785-2.176-2.048-2.176-3.789l3.481-.059c0 1.531 1.273 2.415 3.818 2.651v-3.79c-1.516-.026-2.789-.131-3.818-.314-1.028-.196-1.866-.582-2.512-1.158-.646-.589-.97-1.447-.97-2.572 0-1.741.72-2.965 2.157-3.672 1.45-.707 3.165-1.112 5.143-1.217v-2.258h2.355v2.238c1.978.079 3.758.504 5.34 1.276 1.584.76 2.375 2.075 2.375 3.947h-3.462c0-.838-.442-1.447-1.326-1.826-.883-.393-1.86-.641-2.928-.746v3.848zm-6.25-1.649c0 .968 1.298 1.512 3.896 1.629v-3.809c-1.055.105-1.971.328-2.75.668-.764.327-1.147.831-1.147 1.512zm10.563 5.517c0-.55-.409-.916-1.226-1.1-.818-.183-1.847-.288-3.087-.314v3.829c1.214-.039 2.23-.249 3.047-.628.83-.38 1.253-.969 1.266-1.767v-.02zm22.755-4.182c.013.209.02.51.02.903 0 3.128-.924 5.288-2.77 6.479-1.846 1.191-4.069 1.787-6.667 1.787-2.466 0-4.444-.386-5.934-1.159-1.49-.785-2.236-1.976-2.236-3.573l3.205.059c0 .825.475 1.427 1.424 1.806.963.367 2.137.544 3.522.53a8.434 8.434 0 002.789-.373 5.041 5.041 0 002.216-1.413c.593-.668.943-1.525 1.048-2.572-.989.667-2.15 1.086-3.482 1.256a34.618 34.618 0 01-4.055.236c-1.438 0-2.69-.196-3.759-.589-1.055-.393-1.866-.949-2.433-1.669-.567-.72-.85-1.564-.85-2.533v-.039c0-1.178.382-2.16 1.147-2.945.765-.785 1.787-1.361 3.066-1.728 1.293-.379 2.737-.569 4.332-.569 2.876 0 5.091.491 6.647 1.472 1.557.969 2.48 2.513 2.77 4.634zm-8.962 1.963c3.561 0 5.335-.785 5.322-2.356 0-.968-.363-1.682-1.088-2.14-.725-.458-1.457-.726-2.196-.805a22.92 22.92 0 00-2.512-.157c-1.451 0-2.684.209-3.7.628-1.002.406-1.503 1.047-1.503 1.924 0 .825.237 1.453.712 1.885.488.419 1.128.694 1.919.825.804.131 1.82.196 3.046.196zm28.38 1.983c0 1.178-.383 2.16-1.148 2.945-.764.786-1.793 1.368-3.086 1.748-1.279.366-2.723.55-4.332.55-2.862 0-5.078-.485-6.647-1.453-1.556-.982-2.473-2.533-2.75-4.654-.026-.418-.04-.726-.04-.922 0-3.129.924-5.282 2.77-6.46 1.847-1.191 4.069-1.787 6.667-1.787 2.466 0 4.444.393 5.935 1.178 1.49.773 2.235 1.951 2.235 3.535l-3.185-.04c0-.824-.481-1.42-1.444-1.786-.95-.38-2.117-.563-3.501-.55a8.296 8.296 0 00-2.81.393 4.954 4.954 0 00-2.215 1.413c-.594.655-.937 1.505-1.029 2.553.699-.472 1.537-.819 2.512-1.041.976-.223 1.847-.353 2.612-.393.765-.039 1.57-.059 2.413-.059 1.438 0 2.684.197 3.74.589 1.067.393 1.885.949 2.452 1.669.567.72.85 1.564.85 2.533v.039zm-8.526 2.631c1.45 0 2.677-.203 3.68-.608 1.015-.419 1.522-1.067 1.522-1.944 0-.825-.244-1.447-.732-1.865-.488-.432-1.14-.714-1.958-.845-.805-.131-1.827-.196-3.066-.196-3.508 0-5.256.785-5.243 2.356 0 .969.363 1.682 1.088 2.14.726.458 1.451.733 2.176.825.739.078 1.583.124 2.532.137zm24.003-12.349l-7.913 14.529h-3.205l6.549-12.036h-9.595v-2.493h14.164zm.869 11.485h3.402v3.044h-3.402v-3.044zm21.29-2.022c-.053 2.068-.917 3.501-2.592 4.3-1.675.785-3.554 1.178-5.638 1.178-1.108 0-2.268-.164-3.482-.491-1.213-.327-2.255-.883-3.125-1.669-.858-.785-1.286-1.813-1.286-3.082l3.244-.02c0 .903.435 1.584 1.306 2.042.87.458 1.932.72 3.185.785 1.385.04 2.558-.183 3.521-.667.976-.498 1.464-1.303 1.464-2.415-.013-1.021-.402-1.807-1.167-2.356-.765-.55-2.005-.825-3.719-.825a8.86 8.86 0 00-2.176.275c-.713.183-1.306.452-1.781.805-.461.353-.692.785-.692 1.296v.098l-3.126.059v-8.776h15.371v2.257h-12.245v3.417c1.174-.956 3.185-1.434 6.033-1.434 1.346 0 2.539.21 3.581.629 1.042.405 1.853 1.001 2.433 1.786.594.786.891 1.715.891 2.788v.02zm17.85 0c-.052 2.068-.916 3.501-2.591 4.3-1.675.785-3.554 1.178-5.638 1.178-1.108 0-2.269-.164-3.482-.491-1.213-.327-2.255-.883-3.126-1.669-.857-.785-1.285-1.813-1.285-3.082l3.244-.02c0 .903.435 1.584 1.306 2.042.87.458 1.932.72 3.185.785 1.384.04 2.558-.183 3.521-.667.976-.498 1.464-1.303 1.464-2.415-.013-1.021-.403-1.807-1.167-2.356-.765-.55-2.005-.825-3.72-.825-.725 0-1.45.092-2.176.275-.712.183-1.305.452-1.78.805-.462.353-.692.785-.692 1.296v.098l-3.126.059v-8.776h15.371v2.257h-12.245v3.417c1.173-.956 3.185-1.434 6.033-1.434 1.345 0 2.539.21 3.581.629 1.042.405 1.853 1.001 2.433 1.786.594.786.89 1.715.89 2.788v.02zm19.295-3.691c.013.209.02.51.02.903 0 3.128-.923 5.288-2.77 6.479-1.846 1.191-4.068 1.787-6.666 1.787-2.467 0-4.445-.386-5.935-1.159-1.49-.785-2.236-1.976-2.236-3.573l3.205.059c0 .825.475 1.427 1.425 1.806.962.367 2.136.544 3.521.53a8.431 8.431 0 002.789-.373 5.043 5.043 0 002.216-1.413c.593-.668.943-1.525 1.048-2.572-.989.667-2.149 1.086-3.481 1.256a34.622 34.622 0 01-4.056.236c-1.437 0-2.69-.196-3.759-.589-1.055-.393-1.866-.949-2.433-1.669-.567-.72-.85-1.564-.85-2.533v-.039c0-1.178.382-2.16 1.147-2.945.765-.785 1.787-1.361 3.066-1.728 1.293-.379 2.737-.569 4.333-.569 2.875 0 5.09.491 6.647 1.472 1.556.969 2.479 2.513 2.769 4.634zm-8.961 1.963c3.561 0 5.334-.785 5.321-2.356 0-.968-.363-1.682-1.088-2.14-.725-.458-1.457-.726-2.196-.805a22.917 22.917 0 00-2.512-.157c-1.451 0-2.684.209-3.699.628-1.003.406-1.504 1.047-1.504 1.924 0 .825.237 1.453.712 1.885.488.419 1.128.694 1.919.825.805.131 1.82.196 3.047.196zm10.357 6.794v-3.044h3.383v3.044l-1.602 1.924h-1.781l1.602-1.924h-1.602zm11.399-14.529v14.529h-3.245v-9.994h-3.303v-2.062c1.226 0 2.129-.15 2.71-.451.593-.301.956-.622 1.088-.962.145-.354.217-.707.217-1.06h2.533zm10.917-.04c3.64-.013 6.08.72 7.319 2.199 1.24 1.479 1.86 3.201 1.86 5.164 0 1.911-.627 3.658-1.88 5.242-1.252 1.571-3.686 2.356-7.299 2.356-2.533 0-4.491-.425-5.876-1.276-1.371-.851-2.281-1.839-2.73-2.965-.448-1.138-.653-2.258-.613-3.357 0-1.898.626-3.6 1.879-5.105 1.266-1.505 3.713-2.258 7.34-2.258zm.019 12.527c1.438 0 2.605-.243 3.502-.727.897-.497 1.536-1.139 1.919-1.924a5.22 5.22 0 00.514-2.552 4.774 4.774 0 00-.514-2.435c-.383-.746-1.022-1.348-1.919-1.806-.897-.471-2.064-.707-3.502-.707-1.424 0-2.584.236-3.481.707-.884.458-1.517 1.06-1.899 1.806a5.058 5.058 0 00-.515 2.435 5.533 5.533 0 00.515 2.552c.382.785 1.015 1.427 1.899 1.924.897.484 2.057.727 3.481.727z" fill="#EFEFEF"/><g filter="url(#filter0_d_229_126)"><rect x="79" y="84.234" width="188.04" height="103.874" rx="3.316" fill="#57C7FF"/></g><path d="M92.034 102.169a.868.868 0 01-.244.629 1.474 1.474 0 01-.658.373 3.32 3.32 0 01-.924.118c-.61 0-1.082-.104-1.417-.311-.331-.209-.527-.541-.586-.994a3.492 3.492 0 01-.008-.197c0-.668.196-1.128.59-1.38.394-.254.867-.382 1.421-.382.526 0 .948.084 1.265.252.318.165.477.417.477.755l-.679-.008c0-.177-.103-.304-.308-.382a1.96 1.96 0 00-.746-.117 1.779 1.779 0 00-.6.083 1.07 1.07 0 00-.472.302.907.907 0 00-.219.546c.15-.101.328-.175.536-.223.208-.047.393-.075.556-.084.163-.008.335-.012.515-.012.306 0 .572.042.797.126.228.084.402.202.523.356a.85.85 0 01.181.541v.009zm-1.817.562c.309 0 .57-.044.784-.13.217-.09.325-.228.325-.415 0-.177-.052-.309-.156-.399a.809.809 0 00-.418-.18 4.181 4.181 0 00-.653-.042c-.748 0-1.12.168-1.118.503 0 .207.077.359.232.457.155.098.31.157.464.176.157.017.337.027.54.03zm4.079-2.647c.776-.003 1.296.154 1.56.47.265.316.397.684.397 1.103 0 .408-.133.782-.4 1.12-.268.335-.786.503-1.557.503-.54 0-.957-.091-1.252-.272-.293-.182-.487-.393-.582-.634a1.774 1.774 0 01-.13-.717c0-.405.133-.769.4-1.091.27-.321.791-.482 1.564-.482zm.005 2.676c.306 0 .555-.052.746-.155a.944.944 0 00.41-.411 1.12 1.12 0 00.109-.545 1.02 1.02 0 00-.11-.52.897.897 0 00-.409-.386c-.191-.101-.44-.151-.746-.151-.304 0-.552.05-.743.151a.9.9 0 00-.405.386 1.08 1.08 0 00-.11.52c-.005.195.032.377.11.545a.949.949 0 00.405.411c.191.103.439.155.743.155zm4.196-2.676c.776-.003 1.296.154 1.561.47.264.316.396.684.396 1.103 0 .408-.134.782-.401 1.12-.267.335-.785.503-1.556.503-.54 0-.957-.091-1.252-.272-.293-.182-.487-.393-.582-.634a1.773 1.773 0 01-.131-.717c0-.405.133-.769.4-1.091.27-.321.792-.482 1.565-.482zm.004 2.676c.307 0 .556-.052.747-.155a.944.944 0 00.409-.411 1.13 1.13 0 00.11-.545 1.018 1.018 0 00-.11-.52.897.897 0 00-.41-.386c-.19-.101-.44-.151-.746-.151-.303 0-.55.05-.742.151a.9.9 0 00-.405.386 1.08 1.08 0 00-.11.52c-.005.195.031.377.11.545a.949.949 0 00.405.411c.191.103.439.155.742.155zm-6.796 11.444c-.01.442-.195.748-.552.919a2.803 2.803 0 01-1.202.251c-.236 0-.484-.035-.742-.105a1.585 1.585 0 01-.667-.356.852.852 0 01-.274-.659l.692-.004c0 .193.093.339.278.436.186.098.412.154.68.168.294.009.545-.039.75-.142a.54.54 0 00.312-.516.595.595 0 00-.249-.504c-.163-.117-.427-.176-.793-.176-.154 0-.309.02-.464.059a1.067 1.067 0 00-.38.172.338.338 0 00-.147.277v.021l-.666.012v-1.875h3.277v.483h-2.61v.73c.25-.205.678-.307 1.286-.307.286 0 .54.045.763.135.222.086.395.213.519.381.126.168.19.367.19.596v.004zm2.245-2.03c.776-.003 1.296.154 1.56.47.265.316.397.683.397 1.103 0 .408-.133.781-.4 1.12-.267.335-.786.503-1.557.503-.54 0-.957-.091-1.252-.273-.292-.181-.486-.392-.582-.633a1.771 1.771 0 01-.13-.717c0-.406.133-.769.4-1.091.27-.321.791-.482 1.564-.482zm.005 2.676c.306 0 .555-.052.746-.155a.944.944 0 00.41-.411c.08-.168.117-.35.109-.546a1.024 1.024 0 00-.11-.52.902.902 0 00-.409-.386c-.191-.1-.44-.151-.746-.151-.304 0-.551.051-.743.151a.905.905 0 00-.404.386c-.08.16-.116.333-.11.52-.006.196.03.378.11.546a.949.949 0 00.404.411c.192.103.439.155.743.155zm4.196-2.676c.776-.003 1.296.154 1.56.47.265.316.397.683.397 1.103 0 .408-.133.781-.4 1.12-.268.335-.786.503-1.557.503-.54 0-.957-.091-1.252-.273-.293-.181-.487-.392-.582-.633a1.771 1.771 0 01-.131-.717c0-.406.133-.769.4-1.091.27-.321.792-.482 1.565-.482zm.004 2.676c.307 0 .556-.052.747-.155a.944.944 0 00.409-.411 1.12 1.12 0 00.11-.546 1.023 1.023 0 00-.11-.52.901.901 0 00-.41-.386c-.19-.1-.44-.151-.746-.151-.303 0-.55.051-.742.151a.905.905 0 00-.405.386c-.078.16-.115.333-.11.52-.005.196.032.378.11.546a.949.949 0 00.405.411c.191.103.439.155.742.155zm-7.04 11.498h.443v.558h-.443v.47h-.692v-.47h-2.218v-.558l2.218-2.076h.692v2.076zm-.692-1.405l-1.413 1.405h1.413v-1.405zm3.4-.679c.776-.003 1.296.154 1.56.47.264.316.397.683.397 1.103 0 .408-.134.781-.401 1.12-.267.335-.786.503-1.556.503-.54 0-.958-.091-1.253-.273-.292-.181-.486-.393-.582-.633a1.773 1.773 0 01-.13-.717c0-.406.133-.769.4-1.091.27-.321.792-.482 1.565-.482zm.004 2.676c.306 0 .555-.052.746-.155a.955.955 0 00.41-.411 1.12 1.12 0 00.11-.546 1.023 1.023 0 00-.11-.52.902.902 0 00-.41-.386c-.19-.1-.44-.151-.746-.151-.304 0-.551.051-.742.151a.905.905 0 00-.405.386 1.09 1.09 0 00-.11.52c-.005.196.031.378.11.546a.959.959 0 00.405.411c.19.103.438.155.742.155zm4.196-2.676c.776-.003 1.297.154 1.56.47.265.316.397.683.397 1.103 0 .408-.133.781-.4 1.12-.267.335-.786.503-1.556.503-.54 0-.958-.091-1.253-.273-.292-.181-.486-.393-.582-.633a1.771 1.771 0 01-.13-.717c0-.406.133-.769.4-1.091.27-.321.791-.482 1.564-.482zm.005 2.676c.306 0 .555-.052.746-.155a.955.955 0 00.41-.411 1.12 1.12 0 00.109-.546 1.023 1.023 0 00-.11-.52.902.902 0 00-.409-.386c-.191-.1-.44-.151-.746-.151-.304 0-.551.051-.743.151a.905.905 0 00-.404.386c-.08.16-.116.333-.11.52-.006.196.03.378.11.546a.96.96 0 00.404.411c.192.103.44.155.743.155zm-5.952 11.498c-.002.389-.18.673-.53.852-.352.179-.81.268-1.376.268-.416 0-.772-.052-1.067-.155-.295-.104-.52-.253-.674-.449a1.108 1.108 0 01-.228-.7h.692c0 .262.123.455.37.578.248.124.55.185.907.185.326.003.605-.042.835-.134.23-.095.348-.245.35-.449-.002-.087-.025-.151-.067-.193-.04-.045-.127-.077-.262-.096a4.13 4.13 0 00-.628-.034h-.78v-.52h.78c.197 0 .357-.007.48-.021a.745.745 0 00.309-.101.255.255 0 00.118-.23c0-.143-.11-.249-.33-.319a2.822 2.822 0 00-.805-.113 2.862 2.862 0 00-.906.117c-.248.078-.371.206-.371.382H88.2c0-.403.204-.676.611-.818a4.03 4.03 0 011.358-.218c.301 0 .58.019.84.058.261.037.49.123.687.26.197.137.295.34.295.609 0 .296-.128.499-.384.608.301.109.457.317.468.625v.008zm2.29-2.084c.776-.003 1.296.153 1.56.469.265.316.397.684.397 1.103 0 .409-.133.782-.4 1.12-.268.336-.786.504-1.557.504-.54 0-.957-.091-1.252-.273-.293-.182-.487-.393-.582-.633a1.78 1.78 0 01-.13-.718c0-.405.133-.769.4-1.09.27-.322.791-.482 1.564-.482zm.005 2.676c.306 0 .555-.052.746-.156a.944.944 0 00.41-.411c.08-.167.117-.349.109-.545a1.022 1.022 0 00-.11-.52.902.902 0 00-.409-.386c-.191-.101-.44-.151-.746-.151-.304 0-.551.05-.743.151a.905.905 0 00-.404.386 1.083 1.083 0 00-.11.52c-.006.196.03.378.11.545a.949.949 0 00.404.411c.192.104.439.156.743.156zm4.196-2.676c.776-.003 1.296.153 1.561.469.264.316.396.684.396 1.103 0 .409-.134.782-.401 1.12-.267.336-.785.504-1.556.504-.54 0-.957-.091-1.252-.273-.293-.182-.487-.393-.582-.633a1.782 1.782 0 01-.131-.718c0-.405.133-.769.4-1.09.27-.322.792-.482 1.565-.482zm.004 2.676c.307 0 .556-.052.747-.156a.944.944 0 00.409-.411c.081-.167.118-.349.11-.545a1.022 1.022 0 00-.11-.52.902.902 0 00-.41-.386c-.19-.101-.44-.151-.746-.151-.303 0-.55.05-.742.151a.905.905 0 00-.405.386 1.083 1.083 0 00-.11.52 1.2 1.2 0 00.11.545.949.949 0 00.405.411c.191.104.439.156.742.156zm-6.528 11.959v.567H88.2v-.273c0-.364.066-.64.198-.83.132-.193.294-.325.485-.395a4.52 4.52 0 01.776-.184c.098-.014.269-.037.51-.067.245-.028.438-.055.578-.08a1.07 1.07 0 00.354-.118c.096-.055.144-.131.144-.226 0-.173-.116-.301-.346-.382a2.456 2.456 0 00-.84-.117 2 2 0 00-.81.147c-.221.095-.332.246-.332.453l-.717-.005c0-.285.101-.51.303-.675.206-.168.449-.284.73-.348a3.973 3.973 0 012.142.109c.394.134.59.407.59.818a.604.604 0 01-.277.524c-.183.129-.39.22-.62.273a8.5 8.5 0 01-.81.142 4.75 4.75 0 00-.278.038 2.097 2.097 0 00-.59.139 1.19 1.19 0 00-.385.239c-.087.086-.13.17-.13.251h3.167zm2.22-2.546c.776-.002 1.296.154 1.56.47.265.316.397.684.397 1.103 0 .409-.133.782-.4 1.12-.267.336-.786.504-1.557.504-.54 0-.957-.091-1.252-.273-.292-.182-.486-.393-.582-.633a1.779 1.779 0 01-.13-.718c0-.405.133-.769.4-1.09.27-.322.791-.483 1.564-.483zm.005 2.676c.306 0 .555-.051.746-.155a.944.944 0 00.41-.411c.08-.168.117-.349.109-.545a1.022 1.022 0 00-.11-.52.897.897 0 00-.409-.386c-.191-.101-.44-.151-.746-.151-.304 0-.551.05-.743.151a.9.9 0 00-.404.386 1.083 1.083 0 00-.11.52c-.006.196.03.377.11.545a.949.949 0 00.404.411c.192.104.439.155.743.155zm4.196-2.676c.776-.002 1.296.154 1.561.47.264.316.396.684.396 1.103 0 .409-.134.782-.401 1.12-.267.336-.785.504-1.556.504-.54 0-.957-.091-1.252-.273-.293-.182-.487-.393-.582-.633a1.779 1.779 0 01-.131-.718c0-.405.133-.769.4-1.09.27-.322.792-.483 1.565-.483zm.004 2.676c.307 0 .556-.051.747-.155a.944.944 0 00.409-.411c.082-.168.118-.349.11-.545a1.02 1.02 0 00-.11-.52.896.896 0 00-.41-.386c-.19-.101-.44-.151-.746-.151-.303 0-.55.05-.742.151a.9.9 0 00-.405.386 1.082 1.082 0 00-.11.52c-.005.196.032.377.11.545a.949.949 0 00.405.411c.191.104.439.155.742.155zm-8.867 9.423v3.103h-.692v-2.134h-.704v-.441c.261 0 .454-.032.578-.096.126-.065.204-.133.232-.206a.591.591 0 00.046-.226h.54zm2.327-.009c.776-.003 1.296.154 1.56.47.265.316.397.684.397 1.103 0 .408-.134.782-.4 1.12-.268.336-.786.503-1.557.503-.54 0-.957-.091-1.252-.272-.293-.182-.487-.393-.582-.634a1.774 1.774 0 01-.131-.717c0-.405.134-.769.4-1.09.27-.322.792-.483 1.565-.483zm.005 2.676c.306 0 .555-.051.746-.155a.944.944 0 00.409-.411 1.12 1.12 0 00.11-.545 1.02 1.02 0 00-.11-.52.897.897 0 00-.41-.386c-.19-.101-.44-.151-.745-.151-.304 0-.552.05-.743.151a.9.9 0 00-.405.386 1.08 1.08 0 00-.11.52c-.005.195.032.377.11.545a.949.949 0 00.405.411c.191.104.439.155.743.155zm4.197-2.676c.775-.003 1.295.154 1.56.47.264.316.396.684.396 1.103 0 .408-.134.782-.4 1.12-.268.336-.787.503-1.557.503-.54 0-.957-.091-1.253-.272-.292-.182-.486-.393-.582-.634a1.773 1.773 0 01-.13-.717c0-.405.133-.769.4-1.09.27-.322.792-.483 1.565-.483zm.003 2.676c.307 0 .556-.051.747-.155a.944.944 0 00.409-.411 1.13 1.13 0 00.11-.545 1.018 1.018 0 00-.11-.52.897.897 0 00-.41-.386c-.19-.101-.44-.151-.746-.151-.303 0-.55.05-.742.151a.9.9 0 00-.405.386 1.08 1.08 0 00-.11.52c-.005.195.031.377.11.545a.949.949 0 00.405.411c.191.104.439.155.742.155zm-5.988 9.414c.776-.003 1.296.154 1.56.47.265.316.397.683.397 1.103 0 .408-.134.781-.4 1.12-.268.335-.787.503-1.557.503-.54 0-.957-.091-1.252-.272-.293-.182-.487-.393-.582-.634a1.773 1.773 0 01-.131-.717c0-.406.133-.769.4-1.091.27-.321.792-.482 1.565-.482zm.004 2.676c.307 0 .555-.052.747-.155a.944.944 0 00.409-.411 1.13 1.13 0 00.11-.545 1.024 1.024 0 00-.11-.521.895.895 0 00-.41-.385c-.19-.101-.44-.151-.746-.151-.303 0-.55.05-.742.151a.898.898 0 00-.405.385 1.09 1.09 0 00-.11.521c-.005.195.031.377.11.545a.948.948 0 00.405.411c.191.103.439.155.742.155z" fill="#111415"/><rect x="110.009" y="148.385" width="10.419" height="29.361" rx="1.895" fill="#111415"/><rect x="123.653" y="156.033" width="10.419" height="21.712" rx="1.895" fill="#111415"/><rect x="137.297" y="135.062" width="10.419" height="42.684" rx="1.895" fill="#111415"/><rect x="150.942" y="152.579" width="10.419" height="25.167" rx="1.895" fill="#111415"/><rect x="164.586" y="162.941" width="10.419" height="14.804" rx="1.895" fill="#111415"/><rect x="178.23" y="135.062" width="10.419" height="42.684" rx="1.895" fill="#111415"/><rect x="191.874" y="144.437" width="10.419" height="33.309" rx="1.895" fill="#111415"/><rect x="205.518" y="163.929" width="10.419" height="13.817" rx="1.895" fill="#111415"/><rect x="219.162" y="154.8" width="10.419" height="22.946" rx="1.895" fill="#111415"/><rect x="232.806" y="161.215" width="10.419" height="16.531" rx="1.895" fill="#111415"/><rect x="246.45" y="135.062" width="10.419" height="42.684" rx="1.895" fill="#111415"/><g filter="url(#filter1_d_229_126)"><rect x="13" y="13" width="152" height="123.492" rx="5.731" fill="#111415"/></g><path d="M95.264 36.798h-6.448a1.433 1.433 0 01-1.433-1.432v-9.999c0-.791.642-1.432 1.433-1.432h18.964c.791 0 1.433.641 1.433 1.432v9.999c0 .79-.642 1.432-1.433 1.432h-6.61c-.524 0-1.007.287-1.258.748l-1.443 2.65a.287.287 0 01-.503 0l-1.444-2.65a1.433 1.433 0 00-1.258-.748z" fill="#57C7FF"/><path d="M92.221 31.071h.537v.37h-.537v.534h-.372v-.534h-.537v-.37h.537v-.534h.372v.534zm3.669.653v.572h-3.004v-.305c0-.275.065-.485.194-.63a.952.952 0 01.43-.297c.16-.05.355-.095.585-.131.091-.015.19-.028.298-.039a5.47 5.47 0 00.333-.048.614.614 0 00.204-.07c.054-.035.08-.08.08-.136 0-.094-.065-.163-.197-.206a1.488 1.488 0 00-.478-.067 1.15 1.15 0 00-.456.086c-.125.054-.188.138-.188.251h-.805c0-.33.15-.555.45-.675.3-.122.632-.183.999-.183.39 0 .736.051 1.038.154.304.103.456.318.456.646a.527.527 0 01-.171.412c-.115.1-.244.173-.389.216a3.96 3.96 0 01-.478.109l-.104.02a.98.98 0 00-.103.015 7.231 7.231 0 00-.712.132c-.185.045-.278.103-.278.174h2.296zm3.123-.216a.691.691 0 01-.407.653c-.27.137-.621.206-1.055.206-.49 0-.863-.083-1.122-.248-.259-.167-.388-.418-.388-.752h.757c0 .165.073.286.22.363.146.075.324.112.533.11.184.004.339-.02.466-.074.13-.054.195-.14.197-.258-.002-.06-.018-.105-.048-.135-.03-.032-.08-.053-.149-.064a1.68 1.68 0 00-.291-.02h-.598v-.462h.598c.17 0 .292-.022.365-.065.074-.043.11-.095.11-.157 0-.08-.063-.138-.19-.174a1.64 1.64 0 00-.46-.061 1.83 1.83 0 00-.533.067c-.147.043-.22.11-.22.203h-.757c0-.309.156-.518.469-.627a3.1 3.1 0 011.041-.167c.231 0 .445.015.644.045.2.028.376.094.527.2.151.104.226.26.226.465 0 .21-.129.354-.388.431.28.084.432.256.453.515v.006zm1.7-1.624c1-.004 1.501.4 1.501 1.213 0 .317-.102.604-.304.862-.201.255-.6.382-1.197.382-.42 0-.746-.07-.977-.209-.23-.14-.385-.302-.462-.489a1.32 1.32 0 01-.104-.546c0-.309.107-.588.32-.836.214-.251.621-.377 1.223-.377zm.003 1.875c.188 0 .34-.03.456-.093a.58.58 0 00.253-.244.675.675 0 00.067-.329.6.6 0 00-.067-.308.557.557 0 00-.253-.232.994.994 0 00-.456-.09.992.992 0 00-.453.09.561.561 0 00-.249.232.606.606 0 00-.067.308.68.68 0 00.067.329c.05.098.133.18.249.244a.962.962 0 00.453.093zm3.162-1.875c1-.004 1.5.4 1.5 1.213 0 .317-.101.604-.304.862-.2.255-.599.382-1.196.382-.421 0-.746-.07-.977-.209-.231-.14-.385-.302-.463-.489a1.32 1.32 0 01-.103-.546c0-.309.107-.588.32-.836.214-.251.621-.377 1.223-.377zm.003 1.875a.97.97 0 00.456-.093.583.583 0 00.252-.244.676.676 0 00.068-.329.6.6 0 00-.068-.308.559.559 0 00-.252-.232 1 1 0 00-.456-.09.986.986 0 00-.453.09.561.561 0 00-.249.232.6.6 0 00-.068.308.674.674 0 00.068.329c.05.098.133.18.249.244a.957.957 0 00.453.093z" fill="#111415"/><path d="M68.949 47.463C53.68 69.183 24.589 71.207 13 70.296v46.631h151.838V62.899c-32.178 12.22-52.229-1.93-63.225-12.22l-.113-.106c-9.984-9.344-20.952-19.61-32.551-3.11z" fill="url(#paint0_linear_229_126)"/><mask id="a" style="mask-type:alpha" maskUnits="userSpaceOnUse" x="13" y="13" width="152" height="124"><rect x="13" y="13" width="152" height="123.492" rx="5.731" fill="#111415"/></mask><g mask="url(#a)" stroke-width="1.433"><path d="M10.736 70.392c11.922.914 41.85-1.116 57.558-22.903 11.977-16.612 23.302-6.174 33.603 3.226 11.312 10.323 31.94 24.516 65.044 12.258" stroke="#57C7FF"/><path d="M11.706 64.973c10.702-9.86 38.94-29.49 80.265 6.11 17.543 15.11 51.635 13.503 74.969 0" stroke="#EFEFEF"/></g><ellipse cx="97.894" cy="47.25" rx="3.396" ry="3.377" fill="#57C7FF"/><path d="M26.374 120.059v2.146c0 .225-.053.446-.16.661-.106.216-.29.397-.548.545-.259.145-.601.217-1.028.217-.405 0-.74-.085-1.005-.255a1.655 1.655 0 01-.582-.599c-.122-.231-.184-.439-.184-.622h.796c0 .145.04.282.12.41a.927.927 0 00.345.309c.152.077.327.116.524.116.194 0 .36-.037.5-.111a.783.783 0 00.417-.671v-2.146h.805zm2.133.824c.426 0 .808.078 1.144.232.34.154.51.426.51.815v1.698h-.708l-.073-.458a.688.688 0 01-.291.26 1.97 1.97 0 01-.51.184 2.898 2.898 0 01-.606.063 2.24 2.24 0 01-.786-.155c-.275-.106-.412-.333-.412-.68 0-.328.111-.545.335-.651a1.54 1.54 0 01.688-.164c.528 0 .891-.003 1.092-.01.204-.01.336-.027.398-.053a.157.157 0 00.102-.145v-.048c-.004-.116-.094-.212-.272-.289a1.522 1.522 0 00-.616-.116 1.52 1.52 0 00-.65.116c-.178.077-.267.202-.267.376h-.781c0-.248.09-.444.272-.589a1.6 1.6 0 01.66-.299c.258-.058.515-.087.77-.087zm-.17 2.205c.388 0 .66-.08.815-.241a.787.787 0 00.233-.565c-.159.094-.44.14-.844.14-.24 0-.427.008-.563.024a.679.679 0 00-.296.092.22.22 0 00-.102.188c.007.116.066.206.18.27.113.061.305.092.577.092zm4.146-2.176c.368 0 .656.126.863.377.207.247.31.665.31 1.254v1.085h-.776v-1.071c0-.205-.016-.386-.048-.54a.73.73 0 00-.218-.391c-.11-.109-.277-.164-.5-.164-.23 0-.404.055-.524.164a.743.743 0 00-.228.396 2.785 2.785 0 00-.048.555v1.051h-.777v-2.629h.777v.348c.255-.29.645-.435 1.169-.435zm18.085-.853v.656h-2.852v.723h2.445v.632h-2.445v1.558h-.82v-3.569h3.672zm3.332 2.315h-2.692a.95.95 0 00.13.429c.078.129.19.234.335.314.146.08.322.121.53.121.17 0 .328-.031.47-.092a.882.882 0 00.334-.236.494.494 0 00.122-.314h.771a.887.887 0 01-.204.555c-.132.17-.328.308-.587.415a2.41 2.41 0 01-.916.159c-.32 0-.616-.06-.888-.179a1.6 1.6 0 01-.645-.501 1.244 1.244 0 01-.238-.748c0-.283.078-.532.233-.748.155-.219.367-.386.635-.502.272-.118.573-.178.903-.178.34 0 .637.058.892.174.256.115.454.279.597.492.142.209.215.455.218.738v.101zm-1.698-1.018c-.255 0-.459.057-.611.169a.888.888 0 00-.325.444h1.824a.767.767 0 00-.281-.444c-.143-.112-.345-.169-.607-.169zm5.339.902c-.003.264-.06.505-.17.724a1.262 1.262 0 01-.45.511 1.223 1.223 0 01-.665.184c-.595.003-1.032-.119-1.31-.367l-.063.304h-.674v-3.551h.776v1.235c.291-.267.715-.4 1.27-.4a1.218 1.218 0 011.121.685c.107.206.162.424.166.656v.019zm-1.697.922a.853.853 0 00.49-.135.82.82 0 00.3-.348c.068-.141.104-.289.107-.444a.883.883 0 00-.107-.395.812.812 0 00-.3-.328.89.89 0 00-.49-.13.856.856 0 00-.452.12.787.787 0 00-.3.323.963.963 0 00-.107.454v.005a.896.896 0 00.412.752c.13.084.278.126.447.126zm19.714-3.121v3.569h-.82v-2.233l-1.097 2.233h-.82l-1.173-2.267v2.267h-.82v-3.569h.99l1.406 2.749 1.349-2.749h.985zm2.134.824c.427 0 .809.078 1.145.232.34.154.51.426.51.815v1.698h-.709l-.073-.458a.688.688 0 01-.29.26 1.969 1.969 0 01-.51.184c-.197.042-.4.063-.606.063-.25 0-.511-.052-.786-.155-.275-.106-.413-.333-.413-.68 0-.328.112-.545.335-.651a1.54 1.54 0 01.689-.164c.527 0 .89-.003 1.091-.01.204-.01.337-.027.398-.053a.158.158 0 00.102-.145v-.048c-.003-.116-.094-.212-.272-.289a1.521 1.521 0 00-.616-.116 1.52 1.52 0 00-.65.116c-.178.077-.267.202-.267.376h-.78c0-.248.09-.444.271-.589a1.6 1.6 0 01.66-.299 3.52 3.52 0 01.771-.087zm-.17 2.205c.388 0 .66-.08.815-.241a.788.788 0 00.233-.565c-.158.094-.44.14-.844.14-.24 0-.427.008-.563.024a.68.68 0 00-.295.092.22.22 0 00-.102.188c.006.116.066.206.18.27.112.061.305.092.576.092zm2.968-1.669c.242-.254.625-.407 1.15-.458v.665h-.568c-.175 0-.304.044-.389.131a.582.582 0 00-.155.308 3.02 3.02 0 00-.029.468v1.095h-.776v-2.629h.674l.093.42z" fill="#EFEFEF"/><path d="M99.266 123.628h-.853l-.413-.757h-2.265l-.412.757h-.854l1.945-3.569h.907l1.945 3.569zm-2.396-2.836l-.776 1.418h1.547l-.771-1.418zm5.887 1.582c-.006.232-.063.45-.17.656a1.29 1.29 0 01-.446.497 1.194 1.194 0 01-.669.188c-.557 0-.98-.133-1.271-.4v1.23h-.777v-3.546h.675l.073.372c.297-.29.73-.433 1.3-.43.249 0 .469.061.659.184.194.122.346.289.456.501.11.213.167.451.17.714v.034zm-1.698.839a.863.863 0 00.791-.458.956.956 0 00.107-.405 1.094 1.094 0 00-.102-.444.77.77 0 00-.296-.338.902.902 0 00-.5-.13.8.8 0 00-.446.126.871.871 0 00-.412.747v.005c0 .167.035.32.106.458a.83.83 0 00.301.324.882.882 0 00.451.115zm2.794-1.794c.242-.254.626-.407 1.15-.458v.665h-.568c-.175 0-.304.044-.388.131a.577.577 0 00-.155.308 3.02 3.02 0 00-.029.468v1.095h-.777v-2.629h.675l.092.42z" fill="#57C7FF"/><path d="M122.775 120.059v3.569h-.82v-2.233l-1.096 2.233h-.82l-1.174-2.267v2.267h-.82v-3.569h.99l1.406 2.749 1.349-2.749h.985zm2.134.824c.427 0 .809.078 1.145.232.34.154.509.426.509.815v1.698h-.708l-.073-.458a.68.68 0 01-.291.26 1.967 1.967 0 01-.509.184 2.898 2.898 0 01-.606.063c-.249 0-.511-.052-.786-.155-.275-.106-.413-.333-.413-.68 0-.328.112-.545.335-.651a1.54 1.54 0 01.689-.164c.527 0 .891-.003 1.091-.01.204-.01.337-.027.398-.053.065-.029.099-.077.102-.145v-.048c-.003-.116-.094-.212-.272-.289a1.518 1.518 0 00-.616-.116 1.521 1.521 0 00-.65.116c-.178.077-.266.202-.266.376h-.781c0-.248.09-.444.271-.589.185-.144.404-.244.66-.299a3.52 3.52 0 01.771-.087zm-.17 2.205c.389 0 .66-.08.815-.241a.785.785 0 00.233-.565c-.158.094-.44.14-.844.14-.239 0-.427.008-.563.024a.674.674 0 00-.295.092.22.22 0 00-.102.188c.006.116.066.206.179.27.113.061.306.092.577.092zm5.643-2.089l-1.577 3.223c-.087.167-.247.276-.48.328-.23.051-.5.077-.81.077v-.69c.161 0 .273-.014.334-.043.065-.026.097-.063.097-.111a.267.267 0 00-.024-.097 1.599 1.599 0 00-.034-.072l-1.363-2.615h.854l1.111 2.33 1.038-2.33h.854zm16.622-.94v2.146c0 .225-.053.446-.16.661-.107.216-.289.397-.548.545-.259.145-.602.217-1.028.217-.405 0-.739-.085-1.005-.255a1.657 1.657 0 01-.582-.599c-.123-.231-.184-.439-.184-.622h.795c0 .145.041.282.122.41a.909.909 0 00.344.309c.152.077.327.116.524.116.194 0 .361-.037.5-.111a.783.783 0 00.417-.671v-2.146h.805zm2.792.94h.776v2.629h-.776v-.347c-.255.289-.645.434-1.169.434-.369 0-.656-.124-.863-.371-.207-.251-.311-.671-.311-1.259v-1.086h.776v1.071c0 .206.016.386.049.54a.762.762 0 00.213.396c.113.106.282.159.505.159.323 0 .537-.104.64-.313.107-.213.16-.481.16-.806v-1.047zm3.099-.087c.368 0 .656.126.863.377.207.247.311.665.311 1.254v1.085h-.777v-1.071c0-.205-.016-.386-.048-.54a.727.727 0 00-.218-.391c-.11-.109-.277-.164-.5-.164-.23 0-.404.055-.524.164a.748.748 0 00-.228.396 2.804 2.804 0 00-.049.555v1.051h-.776v-2.629h.776v.348c.256-.29.646-.435 1.17-.435z" fill="#EFEFEF"/><g filter="url(#filter2_d_229_126)"><rect x="212" y="48.278" width="88.908" height="60.421" rx="6.68" fill="#111415"/></g><path d="M232.044 65.93c2.188-.009 3.655.43 4.401 1.314.745.884 1.118 1.913 1.118 3.087 0 1.143-.377 2.187-1.13 3.134-.754.94-2.217 1.409-4.389 1.409-1.523 0-2.701-.254-3.533-.763-.825-.509-1.372-1.1-1.642-1.773a4.938 4.938 0 01-.368-2.007c0-1.135.376-2.152 1.13-3.052.761-.9 2.232-1.35 4.413-1.35zm.011 7.488c.865 0 1.567-.144 2.106-.434.539-.297.924-.68 1.154-1.15.23-.47.333-.979.309-1.526a2.838 2.838 0 00-.309-1.456c-.23-.446-.615-.806-1.154-1.08-.539-.282-1.241-.422-2.106-.422-.856 0-1.554.14-2.093.422-.531.274-.912.634-1.142 1.08a3.01 3.01 0 00-.309 1.456 3.294 3.294 0 00.309 1.526c.23.47.611.853 1.142 1.15.539.29 1.237.434 2.093.434zm6.318-.598h2.046v1.82h-2.046v-1.82zm8.4-6.89c2.188-.009 3.655.43 4.401 1.314.745.884 1.118 1.913 1.118 3.087 0 1.143-.377 2.187-1.13 3.134-.754.94-2.217 1.409-4.389 1.409-1.523 0-2.7-.254-3.533-.763-.825-.509-1.372-1.1-1.642-1.773a4.938 4.938 0 01-.368-2.007c0-1.135.376-2.152 1.13-3.052.761-.9 2.232-1.35 4.413-1.35zm.012 7.488c.864 0 1.566-.144 2.105-.434.539-.297.924-.68 1.154-1.15.23-.47.333-.979.309-1.526a2.838 2.838 0 00-.309-1.456c-.23-.446-.615-.806-1.154-1.08-.539-.282-1.241-.422-2.105-.422-.857 0-1.555.14-2.094.422-.531.274-.912.634-1.142 1.08a3.01 3.01 0 00-.309 1.456 3.294 3.294 0 00.309 1.526c.23.47.611.853 1.142 1.15.539.29 1.237.434 2.094.434zm17.189-.363v1.584h-10.837v-.763c0-1.017.187-1.792.56-2.324.372-.54.828-.908 1.367-1.104.548-.195 1.277-.367 2.189-.516.278-.04.757-.102 1.439-.188a27.7 27.7 0 001.63-.223c.404-.07.737-.18.999-.329.27-.156.404-.367.404-.633 0-.486-.325-.842-.975-1.069-.642-.227-1.431-.336-2.367-.328-.896 0-1.657.137-2.284.41-.626.267-.939.69-.939 1.268l-2.023-.011c0-.799.286-1.429.857-1.89.579-.47 1.265-.795 2.058-.975a10.46 10.46 0 012.319-.27c1.38 0 2.621.192 3.723.575 1.11.376 1.665 1.14 1.665 2.29 0 .618-.261 1.107-.785 1.467a4.941 4.941 0 01-1.748.763 24.8 24.8 0 01-2.284.399c-.349.04-.61.074-.785.106-.634.062-1.189.191-1.665.387-.468.196-.829.419-1.083.67-.245.242-.368.477-.368.704h8.933zm11.711-1.292c-.008 1.088-.508 1.882-1.499 2.383-.991.501-2.284.751-3.878.751-1.173 0-2.176-.144-3.009-.434-.833-.29-1.467-.708-1.903-1.256-.428-.548-.643-1.201-.643-1.96h1.951c0 .735.349 1.275 1.047 1.62.698.344 1.55.516 2.557.516.92.008 1.705-.117 2.355-.376.651-.266.98-.684.988-1.256-.008-.242-.072-.422-.191-.54-.111-.125-.356-.215-.737-.27-.381-.062-.971-.093-1.772-.093h-2.201v-1.456h2.201c.555 0 1.007-.02 1.356-.059.356-.047.646-.14.868-.281.222-.141.333-.357.333-.646 0-.4-.309-.697-.928-.892-.618-.196-1.376-.301-2.272-.317-1.007-.008-1.859.102-2.557.329-.698.219-1.047.575-1.047 1.068h-1.951c0-1.127.575-1.89 1.725-2.29 1.158-.406 2.435-.61 3.83-.61.849 0 1.638.055 2.367.165.738.101 1.384.344 1.939.728.555.383.833.95.833 1.702 0 .83-.361 1.397-1.083 1.702.849.305 1.289.888 1.321 1.749v.023zm2.902 2.877h-2.022l7.731-8.218h2.022l-7.731 8.217zm.523-4.415c-.341 0-.658-.082-.951-.246a1.964 1.964 0 01-.702-.693 1.848 1.848 0 01-.25-.939c0-.336.083-.65.25-.939a1.87 1.87 0 01.702-.68c.293-.173.61-.259.951-.259.341 0 .658.086.952.258.293.165.523.392.69.681.174.29.261.603.261.94 0 .336-.087.649-.261.938-.167.29-.397.52-.69.693a1.919 1.919 0 01-.952.246zm0-1.126a.735.735 0 00.535-.224.716.716 0 00.226-.528.716.716 0 00-.226-.528.735.735 0 00-.535-.223.737.737 0 00-.535.223.716.716 0 00-.226.528c0 .204.075.38.226.529a.737.737 0 00.535.223zm4.663 5.47c-.341 0-.658-.082-.952-.247a1.969 1.969 0 01-.701-.692 1.848 1.848 0 01-.25-.94c0-.336.083-.649.25-.939.174-.29.408-.516.701-.68a1.85 1.85 0 01.952-.259c.341 0 .658.087.952.259.293.164.523.39.689.68.175.29.262.603.262.94 0 .336-.087.65-.262.939-.166.29-.396.52-.689.692a1.919 1.919 0 01-.952.247zm0-1.139a.696.696 0 00.523-.223.703.703 0 000-1.033.696.696 0 00-.523-.223.721.721 0 00-.523.223.703.703 0 000 1.033.72.72 0 00.523.223z" fill="#EFEFEF"/><path d="M233.754 87.551v4.86h-1.124v-3.04l-1.504 3.04h-1.125l-1.61-3.087v3.087h-1.125v-4.86h1.358l1.929 3.744 1.85-3.744h1.351zm6.901 4.86h-1.171l-.565-1.03h-3.108l-.566 1.03h-1.171l2.668-4.86h1.245l2.668 4.86zm-3.287-3.862l-1.065 1.931h2.123l-1.058-1.93zm5.674 1.229l3.081 2.633h-1.551l-2.475-2.187v2.187h-1.125v-4.86h1.125v1.82l2.349-1.82h1.577l-2.981 2.227zm7.881.558h-3.354v1.202l3.913-.02v.893h-5.038v-4.86h5.038l.006.893h-3.919v1.005h3.354v.887zm5.414 2.062l-1.364-1.57h-1.764v1.57h-1.105v-4.86h3.481c.413 0 .776.068 1.091.204.32.135.566.326.739.571.177.24.266.521.266.84v.027c0 .416-.124.76-.372 1.031-.244.272-.584.453-1.019.545l1.431 1.642h-1.384zm.213-3.192c0-.25-.049-.431-.147-.545a.58.58 0 00-.359-.21 3.716 3.716 0 00-.619-.04 87.525 87.525 0 01-2.216.026v1.518h2.216c.266 0 .473-.011.619-.033a.606.606 0 00.359-.197c.098-.11.147-.282.147-.519z" fill="#57C7FF"/><g filter="url(#filter3_d_229_126)"><rect x="182" y="213.078" width="119" height="42.057" rx="3.51" fill="#57C7FF"/></g><path d="M195.064 238.976a15.61 15.61 0 012.079.134c.574.082 1.054.271 1.439.566.385.289.577.721.577 1.298 0 .968-.409 1.645-1.228 2.029-.819.385-1.775.594-2.867.628v1.174h-1.249v-1.194c-1.036-.083-1.943-.326-2.72-.732-.77-.412-1.155-1.074-1.155-1.987l1.848-.031c0 .803.676 1.267 2.027 1.39v-1.988c-.805-.013-1.481-.068-2.027-.164-.546-.103-.99-.306-1.333-.608-.343-.309-.515-.759-.515-1.349 0-.914.382-1.556 1.145-1.926.77-.371 1.68-.584 2.73-.639v-1.184h1.249v1.174c1.05.041 1.995.264 2.835.669.84.398 1.26 1.089 1.26 2.07h-1.837c0-.439-.235-.758-.704-.957a5.053 5.053 0 00-1.554-.392v2.019zm-3.318-.865c0 .508.69.793 2.069.855v-1.998c-.56.054-1.047.171-1.46.35-.406.171-.609.436-.609.793zm5.607 2.894c0-.288-.217-.481-.651-.577-.434-.096-.98-.151-1.638-.165v2.009c.644-.021 1.183-.131 1.617-.33.441-.199.665-.508.672-.927v-.01zm12.078-2.194c.007.11.01.268.01.474 0 1.641-.49 2.774-1.47 3.399s-2.159.937-3.538.937c-1.309 0-2.359-.203-3.15-.608-.791-.412-1.187-1.036-1.187-1.874l1.701.031c0 .432.252.748.756.947.511.193 1.134.285 1.869.278a4.54 4.54 0 001.481-.195 2.68 2.68 0 001.176-.742c.315-.35.5-.8.556-1.349-.525.35-1.141.57-1.848.659a18.66 18.66 0 01-2.152.124c-.763 0-1.428-.103-1.995-.309-.56-.206-.991-.498-1.292-.876a2.065 2.065 0 01-.451-1.328v-.021c0-.618.203-1.133.609-1.545.406-.412.948-.714 1.627-.906.686-.199 1.453-.299 2.3-.299 1.526 0 2.702.257 3.528.772.826.509 1.316 1.319 1.47 2.431zm-4.757 1.03c1.89 0 2.832-.412 2.825-1.236 0-.508-.193-.882-.578-1.123a2.733 2.733 0 00-1.165-.422c-.385-.048-.83-.075-1.334-.082-.77 0-1.424.11-1.963.329-.532.213-.798.55-.798 1.01 0 .432.126.762.378.989.259.219.598.363 1.018.432.427.069.966.103 1.617.103zm12.624-4.058l-4.2 7.622h-1.701l3.476-6.314h-5.093v-1.308h7.518zm4.708-.021c1.932-.006 3.227.378 3.885 1.154.658.776.987 1.679.987 2.709 0 1.002-.333 1.919-.998 2.75-.665.824-1.956 1.236-3.874 1.236-1.344 0-2.384-.223-3.119-.67-.728-.446-1.211-.964-1.449-1.555a4.301 4.301 0 01-.325-1.761c0-.996.332-1.888.997-2.678.672-.79 1.971-1.185 3.896-1.185zm.01 6.572c.763 0 1.383-.127 1.859-.382.476-.26.815-.597 1.018-1.009.203-.412.294-.858.273-1.339.021-.46-.07-.886-.273-1.277-.203-.391-.542-.707-1.018-.948-.476-.247-1.096-.37-1.859-.37-.756 0-1.372.123-1.848.37-.469.241-.805.557-1.008.948a2.627 2.627 0 00-.273 1.277c-.014.481.077.927.273 1.339.203.412.539.749 1.008 1.009.476.255 1.092.382 1.848.382zm5.577-.526h1.806v1.597h-1.806v-1.597zm10.733-2.585c.483.137.847.357 1.092.659.252.296.378.697.378 1.205 0 1.017-.452 1.7-1.355 2.05-.903.35-1.956.525-3.16.525h-.336c-.798 0-1.537-.051-2.216-.154a3.987 3.987 0 01-1.795-.711c-.525-.378-.788-.944-.788-1.699-.007-.543.109-.962.347-1.257.245-.302.616-.518 1.113-.649-.777-.247-1.166-.748-1.166-1.504 0-.652.294-1.132.882-1.441a5.02 5.02 0 011.796-.577 15.8 15.8 0 011.795-.124c.609 0 1.232.038 1.869.113a4.908 4.908 0 011.838.577c.588.309.882.79.882 1.442 0 .797-.392 1.312-1.176 1.545zm-3.423-2.564c-.77-.007-1.425.072-1.964.236-.532.165-.798.43-.798.793 0 .371.273.639.819.804.546.158 1.208.23 1.985.216.791.014 1.459-.058 2.005-.216.553-.165.83-.433.83-.804 0-.363-.28-.628-.84-.793-.56-.164-1.239-.243-2.037-.236zm.021 5.736c.889.014 1.641-.082 2.257-.288.616-.213.924-.553.924-1.02 0-.473-.308-.813-.924-1.019-.616-.213-1.365-.313-2.247-.299-.882-.014-1.627.086-2.236.299-.609.206-.914.546-.914 1.019 0 .467.305.807.914 1.02.609.206 1.351.302 2.226.288zm15.227-.381v1.391h-9.566v-.67c0-.892.165-1.572.494-2.039.329-.474.731-.797 1.207-.968.483-.172 1.127-.323 1.932-.453.245-.035.669-.09 1.271-.165a24.598 24.598 0 001.438-.196c.357-.062.651-.158.882-.288.238-.138.357-.323.357-.556 0-.426-.287-.739-.861-.938-.567-.199-1.263-.295-2.089-.288-.791 0-1.463.12-2.016.36-.553.234-.83.605-.83 1.113l-1.785-.011c0-.7.252-1.253.756-1.658a4.388 4.388 0 011.817-.855 9.281 9.281 0 012.047-.237c1.218 0 2.314.169 3.287.505.98.33 1.47.999 1.47 2.009 0 .542-.231.971-.693 1.287a4.37 4.37 0 01-1.544.669c-.567.131-1.239.248-2.016.351-.308.034-.539.065-.693.092a5.26 5.26 0 00-1.47.34c-.413.172-.731.368-.955.587-.217.213-.326.419-.326.618h7.886zm8.847-2.791c.483.137.847.357 1.092.659.252.296.378.697.378 1.205 0 1.017-.452 1.7-1.355 2.05-.903.35-1.956.525-3.16.525h-.336c-.798 0-1.537-.051-2.216-.154a3.987 3.987 0 01-1.795-.711c-.525-.378-.788-.944-.788-1.699-.007-.543.109-.962.347-1.257.245-.302.616-.518 1.113-.649-.777-.247-1.166-.748-1.166-1.504 0-.652.294-1.132.882-1.441a5.02 5.02 0 011.796-.577 15.8 15.8 0 011.795-.124c.609 0 1.232.038 1.869.113a4.908 4.908 0 011.838.577c.588.309.882.79.882 1.442 0 .797-.392 1.312-1.176 1.545zm-3.423-2.564c-.77-.007-1.425.072-1.964.236-.532.165-.798.43-.798.793 0 .371.273.639.819.804.546.158 1.208.23 1.985.216.791.014 1.459-.058 2.005-.216.553-.165.83-.433.83-.804 0-.363-.28-.628-.84-.793-.56-.164-1.239-.243-2.037-.236zm.021 5.736c.889.014 1.641-.082 2.257-.288.616-.213.924-.553.924-1.02 0-.473-.308-.813-.924-1.019-.616-.213-1.365-.313-2.247-.299-.882-.014-1.627.086-2.236.299-.609.206-.914.546-.914 1.019 0 .467.305.807.914 1.02.609.206 1.351.302 2.226.288zm5.64 1.01v-1.597h1.796v1.597l-.851 1.009h-.945l.851-1.009h-.851zm6.05-7.622v7.622h-1.722v-5.243h-1.753v-1.081c.651 0 1.13-.079 1.438-.237.315-.158.508-.326.578-.505.077-.185.115-.371.115-.556h1.344zm8.21 5.098h1.102v1.37h-1.102v1.154h-1.722v-1.154h-5.523v-1.37l5.523-5.098h1.722v5.098zm-1.722-3.45l-3.518 3.45h3.518v-3.45zm-76.121-14.059v4.869h-1.134v-3.046l-1.516 3.046h-1.134l-1.623-3.092v3.092h-1.134v-4.869h1.369l1.945 3.751 1.865-3.751h1.362zm5.481 1.283l-2.18 4.396c-.121.228-.342.377-.664.447a5.19 5.19 0 01-1.12.106v-.941c.223 0 .377-.02.462-.06.09-.035.135-.085.135-.151a.366.366 0 00-.034-.132 2.213 2.213 0 00-.047-.098l-1.885-3.567h1.181l1.536 3.179 1.435-3.179h1.181zm7.226 1.718a2.202 2.202 0 01-.235.987 1.724 1.724 0 01-.623.697c-.269.167-.575.25-.919.25-.823.005-1.427-.162-1.812-.5l-.087.415h-.932v-4.843h1.073v1.684c.402-.364.988-.546 1.758-.546a1.696 1.696 0 011.549.934c.148.281.224.58.228.895v.027zm-2.348 1.257c.269 0 .494-.062.678-.185.188-.123.326-.28.416-.474.094-.193.143-.394.147-.605a1.183 1.183 0 00-.147-.539 1.12 1.12 0 00-.416-.448 1.25 1.25 0 00-.678-.178c-.232 0-.44.055-.624.165a1.077 1.077 0 00-.415.441c-.099.184-.148.39-.148.618v.007a1.205 1.205 0 00.57 1.026c.179.114.385.172.617.172zm5.099-3.133c.59 0 1.118.106 1.583.316.469.211.704.581.704 1.112v2.316h-.979l-.101-.625c-.071.132-.206.25-.402.356a2.832 2.832 0 01-.705.25 4.087 4.087 0 01-.838.085c-.345 0-.707-.07-1.087-.21-.38-.145-.57-.454-.57-.928 0-.448.154-.744.463-.888.308-.15.626-.224.952-.224.729 0 1.232-.005 1.51-.013.281-.013.465-.038.55-.073a.216.216 0 00.141-.197v-.066c-.005-.158-.13-.289-.376-.395a2.155 2.155 0 00-.852-.158c-.353-.004-.653.049-.899.158-.246.106-.369.277-.369.514h-1.08c0-.338.125-.606.376-.803.255-.198.559-.334.912-.408a4.936 4.936 0 011.067-.119zm-.235 3.007c.537 0 .912-.109 1.127-.329.215-.219.322-.476.322-.769-.219.127-.608.19-1.167.19a7.1 7.1 0 00-.779.033c-.183.022-.319.064-.409.125a.302.302 0 00-.141.257c.009.158.092.281.249.368.156.084.422.125.798.125zm4.116.737h-1.073v-4.869h1.073v4.869zm2.925-3.744c.591 0 1.118.106 1.583.316.47.211.705.581.705 1.112v2.316h-.98l-.1-.625c-.072.132-.206.25-.403.356a2.824 2.824 0 01-.704.25 4.09 4.09 0 01-.839.085c-.344 0-.706-.07-1.086-.21-.381-.145-.571-.454-.571-.928 0-.448.155-.744.463-.888.309-.15.626-.224.953-.224.729 0 1.232-.005 1.509-.013.282-.013.465-.038.55-.073.09-.039.137-.105.141-.197v-.066c-.004-.158-.13-.289-.376-.395a2.146 2.146 0 00-.851-.158c-.354-.004-.653.049-.899.158-.246.106-.369.277-.369.514h-1.08c0-.338.125-.606.375-.803.255-.198.559-.334.913-.408a4.927 4.927 0 011.066-.119zm-.235 3.007c.537 0 .913-.109 1.127-.329.215-.219.322-.476.322-.769-.219.127-.608.19-1.167.19-.331 0-.59.011-.778.033-.183.022-.32.064-.409.125a.298.298 0 00-.141.257c.009.158.092.281.248.368.157.084.423.125.798.125zm5.734-2.967c.509 0 .907.171 1.194.513.286.338.429.908.429 1.711v1.48h-1.073v-1.46c0-.281-.023-.527-.067-.737a.99.99 0 00-.302-.533c-.152-.149-.383-.224-.691-.224-.318 0-.559.075-.725.224a1.005 1.005 0 00-.315.539 3.734 3.734 0 00-.067.757v1.434h-1.073v-3.586h1.073v.474c.353-.395.892-.592 1.617-.592zm2.011 1.921c0-.368.107-.699.322-.993.215-.299.507-.531.879-.698.371-.167.782-.25 1.234-.25.653 0 1.167.138 1.543.415.38.272.644.644.791 1.118h-1.08c-.058-.228-.201-.421-.429-.579a1.336 1.336 0 00-.805-.243c-.425.004-.758.12-.999.348a1.16 1.16 0 00-.363.882c0 .206.049.406.148.599.103.189.257.342.463.461.205.118.456.175.751.171.318 0 .588-.079.812-.237.223-.162.362-.355.416-.579h1.08c-.04.263-.17.513-.389.75a2.448 2.448 0 01-.846.566c-.339.14-.704.21-1.093.21-.438 0-.843-.083-1.214-.25a2.305 2.305 0 01-.892-.697 1.635 1.635 0 01-.329-.994zm9.9.073h-3.723c.013.21.074.405.181.585a1.2 1.2 0 00.463.428c.201.11.445.164.731.164.237 0 .454-.041.651-.125.196-.083.351-.19.463-.322a.67.67 0 00.167-.428h1.067c0 .268-.094.52-.282.757-.183.233-.454.421-.812.566-.357.145-.78.217-1.267.217a3.07 3.07 0 01-1.228-.243 2.208 2.208 0 01-.892-.685 1.679 1.679 0 01-.329-1.02c0-.386.107-.726.322-1.02.215-.298.508-.526.879-.684a3.118 3.118 0 011.248-.243c.469 0 .881.079 1.234.236.353.158.628.382.825.672.197.285.297.62.302 1.006v.139zm-2.348-1.389c-.353 0-.635.077-.845.23-.21.15-.36.351-.45.606h2.523a1.056 1.056 0 00-.389-.606c-.197-.153-.477-.23-.839-.23z" fill="#111415"/><defs><filter id="filter0_d_229_126" x="41.816" y="80.208" width="229.251" height="145.085" filterUnits="userSpaceOnUse" color-interpolation-filters="sRGB"><feFlood flood-opacity="0" result="BackgroundImageFix"/><feColorMatrix in="SourceAlpha" values="0 0 0 0 0 0 0 0 0 0 0 0 0 0 0 0 0 0 127 0" result="hardAlpha"/><feMorphology radius="4.974" operator="dilate" in="SourceAlpha" result="effect1_dropShadow_229_126"/><feOffset dx="-16.579" dy="16.579"/><feGaussianBlur stdDeviation="7.816"/><feComposite in2="hardAlpha" operator="out"/><feColorMatrix values="0 0 0 0 0.0666667 0 0 0 0 0.0784314 0 0 0 0 0.0823529 0 0 0 0.53 0"/><feBlend in2="BackgroundImageFix" result="effect1_dropShadow_229_126"/><feBlend in="SourceGraphic" in2="effect1_dropShadow_229_126" result="shape"/></filter><filter id="filter1_d_229_126" x=".106" y=".106" width="194.98" height="166.471" filterUnits="userSpaceOnUse" color-interpolation-filters="sRGB"><feFlood flood-opacity="0" result="BackgroundImageFix"/><feColorMatrix in="SourceAlpha" values="0 0 0 0 0 0 0 0 0 0 0 0 0 0 0 0 0 0 127 0" result="hardAlpha"/><feMorphology radius="2.579" operator="dilate" in="SourceAlpha" result="effect1_dropShadow_229_126"/><feOffset dx="8.596" dy="8.596"/><feGaussianBlur stdDeviation="9.455"/><feComposite in2="hardAlpha" operator="out"/><feColorMatrix values="0 0 0 0 0.0666667 0 0 0 0 0.0784314 0 0 0 0 0.0823529 0 0 0 0.53 0"/><feBlend in2="BackgroundImageFix" result="effect1_dropShadow_229_126"/><feBlend in="SourceGraphic" in2="effect1_dropShadow_229_126" result="shape"/></filter><filter id="filter2_d_229_126" x="181.506" y="35.209" width="132.471" height="103.984" filterUnits="userSpaceOnUse" color-interpolation-filters="sRGB"><feFlood flood-opacity="0" result="BackgroundImageFix"/><feColorMatrix in="SourceAlpha" values="0 0 0 0 0 0 0 0 0 0 0 0 0 0 0 0 0 0 127 0" result="hardAlpha"/><feMorphology radius="2.614" operator="dilate" in="SourceAlpha" result="effect1_dropShadow_229_126"/><feOffset dx="-8.713" dy="8.713"/><feGaussianBlur stdDeviation="9.584"/><feComposite in2="hardAlpha" operator="out"/><feColorMatrix values="0 0 0 0 0.0666667 0 0 0 0 0.0784314 0 0 0 0 0.0823529 0 0 0 0.53 0"/><feBlend in2="BackgroundImageFix" result="effect1_dropShadow_229_126"/><feBlend in="SourceGraphic" in2="effect1_dropShadow_229_126" result="shape"/></filter><filter id="filter3_d_229_126" x="148.498" y="198.72" width="166.859" height="89.916" filterUnits="userSpaceOnUse" color-interpolation-filters="sRGB"><feFlood flood-opacity="0" result="BackgroundImageFix"/><feColorMatrix in="SourceAlpha" values="0 0 0 0 0 0 0 0 0 0 0 0 0 0 0 0 0 0 127 0" result="hardAlpha"/><feMorphology radius="2.872" operator="dilate" in="SourceAlpha" result="effect1_dropShadow_229_126"/><feOffset dx="-9.572" dy="9.572"/><feGaussianBlur stdDeviation="10.529"/><feComposite in2="hardAlpha" operator="out"/><feColorMatrix values="0 0 0 0 0.0666667 0 0 0 0 0.0784314 0 0 0 0 0.0823529 0 0 0 0.53 0"/><feBlend in2="BackgroundImageFix" result="effect1_dropShadow_229_126"/><feBlend in="SourceGraphic" in2="effect1_dropShadow_229_126" result="shape"/></filter><linearGradient id="paint0_linear_229_126" x1="89" y1="34.599" x2="88.92" y2="116.927" gradientUnits="userSpaceOnUse"><stop stop-color="#57C7FF" stop-opacity=".4"/><stop offset=".857" stop-color="#57C7FF" stop-opacity="0"/></linearGradient></defs></svg>