<svg width="557" height="292" fill="none" xmlns="http://www.w3.org/2000/svg"><rect width="557" height="292" rx="28" fill="#57C7FF"/><path d="M133.324 85.852c2.075.017 3.831.133 5.268.346 1.454.212 2.669.7 3.645 1.463.975.745 1.463 1.862 1.463 3.352 0 2.5-1.038 4.248-3.113 5.241-2.075.993-4.496 1.534-7.263 1.623v3.033h-3.166v-3.086c-2.625-.213-4.922-.843-6.89-1.89-1.951-1.063-2.927-2.775-2.927-5.134l4.683-.08c0 2.075 1.711 3.273 5.134 3.592v-5.135c-2.039-.035-3.751-.177-5.134-.425-1.384-.266-2.51-.79-3.379-1.57-.869-.798-1.304-1.96-1.304-3.485 0-2.36.967-4.018 2.9-4.975 1.951-.958 4.257-1.508 6.917-1.65v-3.06h3.166v3.034c2.661.106 5.055.682 7.183 1.729 2.129 1.029 3.193 2.811 3.193 5.347h-4.656c0-1.135-.594-1.96-1.782-2.474-1.189-.532-2.501-.869-3.938-1.01v5.214zm-8.407-2.235c0 1.312 1.747 2.048 5.241 2.208v-5.161c-1.419.142-2.651.443-3.698.904-1.029.444-1.543 1.127-1.543 2.049zm14.207 7.476c0-.745-.55-1.242-1.65-1.49-1.099-.248-2.483-.39-4.15-.426v5.188c1.632-.053 2.998-.337 4.097-.851 1.118-.515 1.685-1.313 1.703-2.395v-.026zm31.001-.32c-.018 2.466-1.136 4.266-3.353 5.401-2.217 1.135-5.108 1.703-8.673 1.703-2.625 0-4.868-.328-6.731-.984-1.862-.657-3.281-1.606-4.256-2.847-.958-1.242-1.437-2.723-1.437-4.443h4.363c0 1.667.781 2.89 2.341 3.671 1.561.78 3.468 1.17 5.72 1.17 2.058.019 3.814-.265 5.268-.85 1.454-.603 2.19-1.552 2.208-2.847-.018-.55-.159-.958-.426-1.224-.248-.284-.798-.488-1.649-.612-.851-.142-2.173-.213-3.964-.213h-4.922V85.4h4.922c1.241 0 2.252-.044 3.033-.133.798-.106 1.445-.319 1.942-.638.497-.32.745-.807.745-1.463 0-.905-.692-1.579-2.075-2.022-1.384-.444-3.077-.683-5.082-.719-2.252-.017-4.159.23-5.72.745-1.56.497-2.341 1.304-2.341 2.421h-4.363c0-2.554 1.286-4.283 3.858-5.188 2.589-.922 5.445-1.383 8.566-1.383 1.898 0 3.663.124 5.295.372 1.649.231 3.095.78 4.336 1.65 1.242.869 1.862 2.155 1.862 3.858 0 1.88-.807 3.165-2.421 3.857 1.898.692 2.883 2.013 2.954 3.964v.053zm2.127 6.519v-4.124h4.55v4.124l-2.155 2.607h-2.395l2.155-2.607h-2.155zm30.733-3.592v3.592h-24.236v-1.73c0-2.305.417-4.061 1.25-5.267.834-1.224 1.854-2.058 3.06-2.501 1.223-.444 2.855-.834 4.895-1.17.621-.09 1.694-.231 3.219-.426 1.543-.178 2.758-.346 3.645-.506.904-.16 1.649-.408 2.235-.745.603-.355.904-.834.904-1.437 0-1.1-.727-1.906-2.181-2.42-1.437-.515-3.202-.763-5.295-.745-2.004 0-3.707.31-5.108.93-1.401.604-2.102 1.561-2.102 2.874l-4.522-.027c0-1.809.638-3.237 1.915-4.283 1.295-1.064 2.829-1.8 4.603-2.208a23.107 23.107 0 015.188-.612c3.086 0 5.862.434 8.327 1.304 2.483.851 3.725 2.58 3.725 5.188 0 1.4-.586 2.51-1.756 3.325-1.153.816-2.457 1.392-3.911 1.73-1.437.336-3.14.638-5.108.904a28.22 28.22 0 00-1.756.24c-1.419.141-2.661.434-3.725.877-1.046.444-1.853.95-2.421 1.517-.55.55-.825 1.082-.825 1.596h19.98zm26.194-2.927c-.018 2.466-1.135 4.266-3.352 5.401-2.217 1.135-5.108 1.703-8.673 1.703-2.625 0-4.869-.328-6.731-.984-1.862-.657-3.281-1.606-4.257-2.847-.957-1.242-1.436-2.723-1.436-4.443h4.363c0 1.667.78 2.89 2.341 3.671 1.561.78 3.467 1.17 5.72 1.17 2.057.019 3.813-.265 5.268-.85 1.454-.603 2.19-1.552 2.208-2.847-.018-.55-.16-.958-.426-1.224-.248-.284-.798-.488-1.649-.612-.852-.142-2.173-.213-3.964-.213h-4.922V85.4h4.922c1.241 0 2.252-.044 3.032-.133.799-.106 1.446-.319 1.943-.638.496-.32.745-.807.745-1.463 0-.905-.692-1.579-2.076-2.022-1.383-.444-3.077-.683-5.081-.719-2.253-.017-4.159.23-5.72.745-1.561.497-2.341 1.304-2.341 2.421h-4.363c0-2.554 1.286-4.283 3.857-5.188 2.59-.922 5.445-1.383 8.567-1.383 1.898 0 3.662.124 5.294.372 1.65.231 3.095.78 4.337 1.65 1.241.869 1.862 2.155 1.862 3.858 0 1.88-.807 3.165-2.421 3.857 1.898.692 2.882 2.013 2.953 3.964v.053zm24.289-.345c-.071 2.802-1.232 4.744-3.485 5.826-2.252 1.064-4.78 1.596-7.582 1.596-1.49 0-3.051-.221-4.682-.665-1.632-.443-3.033-1.197-4.204-2.261-1.153-1.064-1.729-2.457-1.729-4.177l4.363-.027c0 1.224.585 2.146 1.756 2.767 1.17.62 2.598.976 4.283 1.064 1.862.053 3.441-.248 4.736-.904 1.312-.674 1.968-1.765 1.968-3.273-.017-1.383-.541-2.447-1.569-3.192-1.029-.745-2.696-1.118-5.002-1.118-.975 0-1.951.125-2.926.373-.958.248-1.756.612-2.395 1.09-.621.48-.931 1.065-.931 1.757v.133l-4.203.08V77.603h20.671v3.06h-16.468v4.629c1.579-1.295 4.283-1.942 8.114-1.942 1.81 0 3.415.284 4.816.851 1.401.55 2.492 1.357 3.272 2.421.798 1.064 1.197 2.324 1.197 3.778v.027zm1.845 6.864v-4.124h4.55v4.124l-2.155 2.607h-2.395l2.155-2.607h-2.155zm18.761-19.741c4.896-.018 8.177.976 9.844 2.98 1.667 2.004 2.501 4.336 2.501 6.997 0 2.59-.843 4.957-2.528 7.103-1.685 2.129-4.957 3.193-9.817 3.193-3.405 0-6.039-.577-7.901-1.73-1.845-1.152-3.069-2.492-3.672-4.017-.603-1.543-.878-3.06-.824-4.55 0-2.571.842-4.877 2.527-6.916 1.703-2.04 4.993-3.06 9.87-3.06zm.027 16.974c1.933 0 3.503-.328 4.709-.985 1.206-.674 2.066-1.543 2.581-2.607.514-1.064.744-2.217.691-3.459.053-1.188-.177-2.287-.691-3.298-.515-1.011-1.375-1.827-2.581-2.448-1.206-.638-2.776-.958-4.709-.958-1.916 0-3.476.32-4.682.958-1.189.62-2.04 1.437-2.554 2.448-.497 1.01-.728 2.11-.692 3.299-.036 1.241.195 2.394.692 3.458.514 1.064 1.365 1.933 2.554 2.607 1.206.657 2.766.985 4.682.985zm38.659-3.752c-.018 2.466-1.135 4.266-3.352 5.401-2.218 1.135-5.109 1.703-8.674 1.703-2.625 0-4.868-.328-6.73-.984-1.863-.657-3.282-1.606-4.257-2.847-.958-1.242-1.437-2.723-1.437-4.443h4.363c0 1.667.781 2.89 2.342 3.671 1.56.78 3.467 1.17 5.719 1.17 2.058.019 3.814-.265 5.268-.85 1.455-.603 2.191-1.552 2.208-2.847-.017-.55-.159-.958-.425-1.224-.249-.284-.798-.488-1.65-.612-.851-.142-2.173-.213-3.964-.213h-4.922V85.4h4.922c1.242 0 2.253-.044 3.033-.133.798-.106 1.446-.319 1.942-.638.497-.32.745-.807.745-1.463 0-.905-.692-1.579-2.075-2.022-1.384-.444-3.077-.683-5.082-.719-2.252-.017-4.159.23-5.719.745-1.561.497-2.342 1.304-2.342 2.421h-4.363c0-2.554 1.286-4.283 3.858-5.188 2.589-.922 5.445-1.383 8.566-1.383 1.898 0 3.663.124 5.295.372 1.649.231 3.095.78 4.336 1.65 1.242.869 1.863 2.155 1.863 3.858 0 1.88-.807 3.165-2.421 3.857 1.897.692 2.882 2.013 2.953 3.964v.053zm20.564 0h2.794v3.539h-2.794v2.98h-4.363v-2.98h-13.994v-3.538l13.994-13.17h4.363v13.17zm-4.363-8.912l-8.912 8.912h8.912v-8.912zm9.101 11.307h4.576v4.124h-4.576v-4.124zm18.787-15.617c4.896-.018 8.177.976 9.844 2.98 1.667 2.004 2.501 4.336 2.501 6.997 0 2.59-.843 4.957-2.527 7.103-1.685 2.129-4.958 3.193-9.818 3.193-3.405 0-6.039-.577-7.901-1.73-1.845-1.152-3.068-2.492-3.671-4.017-.603-1.543-.878-3.06-.825-4.55 0-2.571.842-4.877 2.527-6.916 1.703-2.04 4.993-3.06 9.87-3.06zm.027 16.974c1.933 0 3.503-.328 4.709-.985 1.206-.674 2.066-1.543 2.581-2.607.514-1.064.745-2.217.691-3.459.054-1.188-.177-2.287-.691-3.298-.515-1.011-1.375-1.827-2.581-2.448-1.206-.638-2.776-.958-4.709-.958-1.915 0-3.476.32-4.682.958-1.189.62-2.04 1.437-2.554 2.448-.497 1.01-.728 2.11-.692 3.299-.036 1.241.195 2.394.692 3.458.514 1.064 1.365 1.933 2.554 2.607 1.206.657 2.767.985 4.682.985zm26.474-16.974c4.895-.018 8.176.976 9.844 2.98 1.667 2.004 2.5 4.336 2.5 6.997 0 2.59-.842 4.957-2.527 7.103-1.685 2.129-4.957 3.193-9.817 3.193-3.405 0-6.039-.577-7.902-1.73-1.844-1.152-3.068-2.492-3.671-4.017-.603-1.543-.878-3.06-.825-4.55 0-2.571.843-4.877 2.528-6.916 1.702-2.04 4.993-3.06 9.87-3.06zm.027 16.974c1.933 0 3.503-.328 4.709-.985 1.206-.674 2.066-1.543 2.58-2.607.515-1.064.745-2.217.692-3.459.053-1.188-.177-2.287-.692-3.298-.514-1.011-1.374-1.827-2.58-2.448-1.206-.638-2.776-.958-4.709-.958-1.916 0-3.477.32-4.683.958-1.188.62-2.039 1.437-2.554 2.448-.496 1.01-.727 2.11-.692 3.299-.035 1.241.196 2.394.692 3.458.515 1.064 1.366 1.933 2.554 2.607 1.206.657 2.767.985 4.683.985zM129.512 165.05c1.505.013 2.779.096 3.822.251 1.055.154 1.936.508 2.644 1.061.708.541 1.061 1.351 1.061 2.432 0 1.814-.752 3.082-2.258 3.802-1.505.721-3.262 1.114-5.269 1.178v2.2h-2.297v-2.239c-1.904-.154-3.571-.611-4.999-1.37-1.415-.772-2.123-2.014-2.123-3.725l3.397-.058c0 1.505 1.242 2.374 3.725 2.605v-3.725c-1.48-.025-2.721-.128-3.725-.309-1.004-.193-1.821-.572-2.451-1.138-.631-.579-.946-1.422-.946-2.529 0-1.711.701-2.914 2.104-3.609 1.415-.695 3.088-1.094 5.018-1.197v-2.219h2.297v2.2c1.93.077 3.667.495 5.211 1.255 1.544.746 2.316 2.039 2.316 3.879h-3.377c0-.823-.431-1.422-1.294-1.795-.862-.386-1.814-.63-2.856-.733v3.783zm-6.099-1.622c0 .953 1.267 1.487 3.802 1.602v-3.744c-1.029.103-1.924.322-2.683.656-.746.322-1.119.817-1.119 1.486zm10.307 5.424c0-.54-.399-.901-1.197-1.081-.798-.18-1.802-.283-3.011-.309v3.764c1.184-.039 2.174-.244 2.972-.618.811-.373 1.223-.952 1.236-1.737v-.019zm11.16-9.786v14.283h-3.165v-9.824h-3.223v-2.027c1.196 0 2.078-.148 2.644-.444.579-.296.933-.611 1.061-.945a2.74 2.74 0 00.213-1.043h2.47zm19.492 9.554c-.013 1.789-.824 3.095-2.432 3.919-1.609.823-3.706 1.235-6.292 1.235-1.905 0-3.533-.238-4.884-.714-1.351-.476-2.38-1.165-3.088-2.066-.695-.9-1.042-1.975-1.042-3.223h3.165c0 1.21.566 2.098 1.699 2.664 1.132.566 2.515.849 4.15.849 1.492.013 2.766-.193 3.821-.618 1.055-.437 1.589-1.126 1.602-2.065-.013-.399-.116-.695-.309-.888-.18-.206-.579-.354-1.196-.444-.618-.103-1.577-.154-2.876-.154h-3.571v-2.393h3.571c.901 0 1.634-.033 2.2-.097.579-.077 1.049-.232 1.409-.463.36-.232.541-.586.541-1.062 0-.656-.502-1.145-1.506-1.467-1.004-.321-2.232-.495-3.686-.521-1.635-.013-3.018.167-4.15.541-1.133.36-1.699.945-1.699 1.756h-3.165c0-1.853.933-3.107 2.799-3.764 1.878-.669 3.95-1.003 6.215-1.003 1.376 0 2.657.09 3.841.27 1.196.167 2.245.566 3.146 1.197.9.63 1.351 1.563 1.351 2.798 0 1.364-.586 2.297-1.757 2.799 1.377.502 2.091 1.46 2.143 2.876v.038zm1.543 4.729v-2.992h3.301v2.992l-1.563 1.892h-1.738l1.564-1.892h-1.564zm11.122-14.283v14.283h-3.166v-9.824h-3.223v-2.027c1.197 0 2.078-.148 2.644-.444.579-.296.933-.611 1.062-.945.141-.348.212-.695.212-1.043h2.471zm15.09 9.554h2.027v2.567h-2.027v2.162h-3.165v-2.162h-10.153v-2.567l10.153-9.554h3.165v9.554zm-3.165-6.466l-6.466 6.466h6.466v-6.466zm24.244 8.59v2.605h-17.584v-1.254c0-1.673.303-2.947.907-3.822.605-.888 1.345-1.493 2.22-1.814.888-.322 2.072-.605 3.551-.85.451-.064 1.229-.167 2.336-.308a44.394 44.394 0 002.644-.367c.656-.116 1.197-.296 1.621-.541.438-.257.657-.604.657-1.042 0-.798-.528-1.383-1.583-1.756-1.042-.373-2.323-.554-3.841-.541-1.454 0-2.689.225-3.706.676-1.016.437-1.525 1.132-1.525 2.084l-3.281-.019c0-1.312.463-2.348 1.39-3.107.939-.772 2.052-1.306 3.339-1.602a16.763 16.763 0 013.764-.444c2.239 0 4.252.315 6.041.945 1.801.618 2.702 1.873 2.702 3.764 0 1.017-.424 1.821-1.274 2.413a7.958 7.958 0 01-2.837 1.254c-1.042.245-2.278.464-3.706.657a21.28 21.28 0 00-1.274.173c-1.029.103-1.93.316-2.702.637-.759.322-1.345.689-1.756 1.1-.399.399-.599.785-.599 1.159h14.496zm68.795-5.694c1.505.013 2.779.096 3.821.251 1.056.154 1.937.508 2.645 1.061.707.541 1.061 1.351 1.061 2.432 0 1.814-.753 3.082-2.258 3.802-1.505.721-3.262 1.114-5.269 1.178v2.2h-2.297v-2.239c-1.904-.154-3.571-.611-4.999-1.37-1.416-.772-2.123-2.014-2.123-3.725l3.397-.058c0 1.505 1.241 2.374 3.725 2.605v-3.725c-1.48-.025-2.722-.128-3.725-.309-1.004-.193-1.821-.572-2.451-1.138-.631-.579-.946-1.422-.946-2.529 0-1.711.701-2.914 2.104-3.609 1.415-.695 3.088-1.094 5.018-1.197v-2.219h2.297v2.2c1.93.077 3.667.495 5.211 1.255 1.544.746 2.316 2.039 2.316 3.879h-3.377c0-.823-.432-1.422-1.294-1.795-.862-.386-1.814-.63-2.856-.733v3.783zm-6.099-1.622c0 .953 1.267 1.487 3.802 1.602v-3.744c-1.029.103-1.924.322-2.683.656-.746.322-1.119.817-1.119 1.486zm10.306 5.424c0-.54-.398-.901-1.196-1.081-.798-.18-1.802-.283-3.011-.309v3.764c1.184-.039 2.174-.244 2.972-.618.811-.373 1.223-.952 1.235-1.737v-.019zm20.793-.483c-.052 2.034-.895 3.443-2.529 4.227-1.634.772-3.468 1.159-5.501 1.159-1.081 0-2.213-.161-3.397-.483-1.184-.322-2.2-.869-3.049-1.641-.837-.772-1.255-1.782-1.255-3.03l3.165-.019c0 .888.425 1.557 1.274 2.007.85.45 1.885.708 3.108.772 1.351.039 2.496-.18 3.435-.656.953-.489 1.429-1.28 1.429-2.374-.013-1.004-.393-1.776-1.139-2.316-.746-.541-1.956-.811-3.629-.811-.707 0-1.415.09-2.123.27-.695.18-1.274.444-1.737.792-.45.347-.675.772-.675 1.274v.096l-3.05.058v-8.628h14.997v2.22h-11.947v3.358c1.145-.939 3.107-1.409 5.886-1.409 1.313 0 2.477.206 3.494.618 1.017.399 1.808.984 2.374 1.756.579.772.869 1.686.869 2.741v.019zm1.338 4.98v-2.992h3.301v2.992l-1.564 1.892h-1.737l1.563-1.892h-1.563zm18.359-14.283l-7.72 14.283h-3.127l6.389-11.831h-9.362v-2.452h13.82zm17.494 9.554c-.013 1.789-.824 3.095-2.432 3.919-1.609.823-3.706 1.235-6.293 1.235-1.904 0-3.532-.238-4.883-.714s-2.38-1.165-3.088-2.066c-.695-.9-1.042-1.975-1.042-3.223h3.165c0 1.21.566 2.098 1.699 2.664 1.132.566 2.515.849 4.149.849 1.493.013 2.767-.193 3.822-.618 1.055-.437 1.589-1.126 1.602-2.065-.013-.399-.116-.695-.309-.888-.18-.206-.579-.354-1.196-.444-.618-.103-1.577-.154-2.876-.154h-3.571v-2.393h3.571c.9 0 1.634-.033 2.2-.097.579-.077 1.049-.232 1.409-.463.36-.232.54-.586.54-1.062 0-.656-.501-1.145-1.505-1.467-1.004-.321-2.233-.495-3.687-.521-1.634-.013-3.017.167-4.149.541-1.133.36-1.699.945-1.699 1.756h-3.165c0-1.853.933-3.107 2.798-3.764 1.879-.669 3.951-1.003 6.215-1.003 1.377 0 2.658.09 3.841.27 1.197.167 2.246.566 3.146 1.197.901.63 1.352 1.563 1.352 2.798 0 1.364-.586 2.297-1.757 2.799 1.377.502 2.091 1.46 2.143 2.876v.038zm16.579-3.107c.888.257 1.557.669 2.007 1.235.463.553.695 1.306.695 2.258 0 1.905-.83 3.185-2.49 3.841-1.66.657-3.596.985-5.809.985h-.618c-1.467 0-2.825-.097-4.073-.29a7.257 7.257 0 01-3.3-1.332c-.965-.707-1.448-1.769-1.448-3.184-.013-1.017.2-1.802.637-2.355.45-.566 1.132-.972 2.046-1.216-1.428-.463-2.142-1.403-2.142-2.818 0-1.222.54-2.123 1.621-2.702 1.094-.592 2.194-.952 3.3-1.081a28.591 28.591 0 013.301-.232c1.119 0 2.265.071 3.436.213a8.876 8.876 0 013.377 1.081c1.081.579 1.622 1.479 1.622 2.702 0 1.492-.721 2.457-2.162 2.895zm-6.292-4.806c-1.416-.013-2.619.135-3.61.444-.978.309-1.467.804-1.467 1.486 0 .695.502 1.197 1.506 1.506 1.004.295 2.22.431 3.648.405 1.454.026 2.683-.11 3.686-.405 1.017-.309 1.525-.811 1.525-1.506 0-.682-.514-1.177-1.544-1.486-1.029-.309-2.277-.457-3.744-.444zm.038 10.751c1.634.025 3.018-.155 4.15-.541 1.132-.399 1.699-1.036 1.699-1.911 0-.887-.567-1.524-1.699-1.91-1.132-.399-2.509-.586-4.13-.56-1.622-.026-2.992.161-4.112.56-1.119.386-1.679 1.023-1.679 1.91 0 .875.56 1.512 1.679 1.911 1.12.386 2.484.566 4.092.541zM129.114 36.607c.701.142 1.231.388 1.59.739.359.342.539.835.539 1.477v.05c0 .727-.184 1.277-.551 1.653-.359.375-.856.626-1.49.751-.626.117-1.456.184-2.491.2h-.614l-5.984-.012V32.2h7.173c.969.009 1.741.209 2.317.601.576.392.864.948.864 1.665v.05c0 .543-.113.985-.339 1.328-.225.342-.563.596-1.014.763zm-.726-1.803c0-.35-.075-.6-.225-.75a.965.965 0 00-.589-.289 6.63 6.63 0 00-1.051-.062h-4.37v2.203l3.243.038h-.125 1.252c.467 0 .814-.013 1.039-.038.234-.033.43-.13.588-.288.159-.167.238-.438.238-.814zm-1.465 5.07c.543 0 .948-.02 1.215-.062.275-.041.492-.15.651-.325.158-.184.238-.48.238-.89 0-.391-.08-.675-.238-.85-.159-.176-.376-.28-.651-.313-.267-.042-.672-.063-1.215-.063h-4.77v2.479c1.953 0 3.356.008 4.207.025h.563zm9.573-5.533c1.101 0 2.086.2 2.954.601.877.4 1.315 1.106 1.315 2.116v4.407h-1.828l-.188-1.19c-.133.25-.384.476-.751.677-.367.2-.806.358-1.315.475a7.481 7.481 0 01-1.565.163c-.642 0-1.318-.133-2.028-.4-.709-.276-1.064-.864-1.064-1.766 0-.851.288-1.414.864-1.69a3.978 3.978 0 011.778-.426c1.36 0 2.299-.008 2.817-.025.525-.025.868-.07 1.026-.137a.408.408 0 00.263-.376v-.125c-.008-.3-.242-.551-.701-.751-.459-.2-.989-.3-1.59-.3-.659-.01-1.219.091-1.678.3-.459.2-.688.526-.688.976h-2.016c0-.642.234-1.152.701-1.527.476-.376 1.044-.635 1.703-.777a9.048 9.048 0 011.991-.225zm-.439 5.722c1.002 0 1.703-.209 2.104-.626.4-.418.601-.906.601-1.465-.409.242-1.136.363-2.179.363-.617 0-1.102.02-1.452.063-.342.041-.597.12-.764.237a.573.573 0 00-.263.489c.017.3.171.534.463.7.293.16.789.239 1.49.239zm7.683 1.402h-2.003V32.2h2.003v9.265zm5.459-7.124c1.101 0 2.086.2 2.954.601.877.4 1.315 1.106 1.315 2.116v4.407h-1.828l-.188-1.19c-.133.25-.384.476-.751.677-.367.2-.805.358-1.315.475a7.481 7.481 0 01-1.565.163c-.642 0-1.318-.133-2.028-.4-.709-.276-1.064-.864-1.064-1.766 0-.851.288-1.414.864-1.69a3.978 3.978 0 011.778-.426c1.36 0 2.299-.008 2.817-.025.526-.025.868-.07 1.026-.137a.408.408 0 00.263-.376v-.125c-.008-.3-.242-.551-.701-.751-.459-.2-.989-.3-1.59-.3-.659-.01-1.218.091-1.677.3-.46.2-.689.526-.689.976h-2.016c0-.642.234-1.152.701-1.527.476-.376 1.044-.635 1.703-.777a9.048 9.048 0 011.991-.225zm-.439 5.722c1.002 0 1.703-.209 2.104-.626.4-.418.601-.906.601-1.465-.409.242-1.135.363-2.179.363-.617 0-1.101.02-1.452.063-.342.041-.597.12-.764.237a.573.573 0 00-.263.489c.017.3.172.534.464.7.292.16.788.239 1.489.239zm10.7-5.647c.952 0 1.694.326 2.229.977.534.642.801 1.728.801 3.255v2.817h-2.003v-2.78c0-.534-.042-1.001-.125-1.402a1.896 1.896 0 00-.564-1.014c-.284-.283-.713-.425-1.289-.425-.593 0-1.044.142-1.352.425a1.932 1.932 0 00-.589 1.027 7.315 7.315 0 00-.125 1.44v2.729h-2.003v-6.823h2.003v.901c.659-.751 1.665-1.127 3.017-1.127zm3.754 3.656c0-.701.2-1.331.601-1.89.4-.568.947-1.01 1.64-1.328.693-.317 1.461-.475 2.303-.475 1.219 0 2.179.263 2.88.788.709.518 1.202 1.227 1.477 2.129H170.1c-.109-.434-.376-.801-.802-1.102-.417-.309-.918-.463-1.502-.463-.793.008-1.415.23-1.865.663-.451.434-.676.994-.676 1.678 0 .392.091.772.275 1.14.192.358.48.65.864.876.384.225.851.334 1.402.325.593 0 1.098-.15 1.515-.45.417-.31.676-.677.776-1.102h2.016c-.075.5-.317.976-.726 1.427-.409.442-.935.801-1.578 1.077-.634.267-1.314.4-2.041.4a5.381 5.381 0 01-2.266-.475c-.692-.326-1.247-.768-1.665-1.327a3.159 3.159 0 01-.613-1.89zm18.476.138h-6.948c.025.4.138.772.338 1.114.2.334.488.605.864.814.375.209.83.313 1.364.313.443 0 .848-.08 1.215-.238.367-.159.655-.363.864-.614.208-.258.313-.53.313-.813h1.99c0 .509-.175.989-.526 1.44-.342.442-.847.8-1.514 1.076-.668.276-1.457.413-2.367.413a5.62 5.62 0 01-2.291-.463c-.692-.309-1.248-.743-1.665-1.302a3.235 3.235 0 01-.613-1.94c0-.735.2-1.382.601-1.941.4-.568.947-1.002 1.64-1.302.701-.309 1.477-.463 2.328-.463.877 0 1.645.15 2.304.45.659.3 1.173.727 1.54 1.277.367.543.555 1.181.563 1.916v.263zm-4.382-2.642c-.659 0-1.185.146-1.577.438a2.313 2.313 0 00-.839 1.152h4.708a1.997 1.997 0 00-.727-1.152c-.367-.292-.889-.438-1.565-.438zm15.832-3.355h2.003v9.214h-1.74l-.163-.788c-.718.642-1.845.96-3.38.951-.643 0-1.215-.159-1.716-.476a3.36 3.36 0 01-1.176-1.327 4.356 4.356 0 01-.426-1.878v-.05c.008-.6.146-1.168.413-1.702a3.344 3.344 0 011.164-1.29c.501-.325 1.081-.488 1.741-.488 1.435 0 2.529.346 3.28 1.039v-3.205zm-2.216 8.088c.434 0 .818-.109 1.152-.326.334-.217.592-.5.776-.851.192-.35.288-.718.288-1.102v-.012c0-.434-.092-.827-.276-1.177a2.009 2.009 0 00-.788-.84 2.128 2.128 0 00-1.152-.312c-.493 0-.914.113-1.265.338-.35.225-.613.509-.788.851a2.395 2.395 0 00-.263 1.027c.008.4.096.784.263 1.152.175.367.434.667.776.901.35.234.776.35 1.277.35zm9.54-5.96c1.101 0 2.086.2 2.954.601.877.4 1.315 1.106 1.315 2.116v4.407h-1.828l-.188-1.19c-.133.25-.384.476-.751.677-.367.2-.806.358-1.315.475a7.481 7.481 0 01-1.565.163c-.642 0-1.318-.133-2.028-.4-.709-.276-1.064-.864-1.064-1.766 0-.851.288-1.414.864-1.69a3.978 3.978 0 011.778-.426c1.36 0 2.299-.008 2.817-.025.525-.025.868-.07 1.026-.137a.408.408 0 00.263-.376v-.125c-.008-.3-.242-.551-.701-.751-.459-.2-.989-.3-1.59-.3-.659-.01-1.219.091-1.678.3-.459.2-.688.526-.688.976h-2.016c0-.642.234-1.152.701-1.527.476-.376 1.044-.635 1.703-.777a9.048 9.048 0 011.991-.225zm-.439 5.722c1.002 0 1.703-.209 2.104-.626.4-.418.601-.906.601-1.465-.409.242-1.135.363-2.179.363-.617 0-1.102.02-1.452.063-.342.041-.597.12-.764.237a.573.573 0 00-.263.489c.017.3.171.534.464.7.292.16.788.239 1.489.239zm8.985-5.421h1.302v1.527h-1.302v5.296h-2.003v-5.296h-1.365v-1.527h1.365v-1.478L209.01 32v2.642zm4.224 6.823h-2.003V32.2h2.003v9.265zm5.459-7.124c1.102 0 2.087.2 2.955.601.876.4 1.314 1.106 1.314 2.116v4.407h-1.828l-.187-1.19c-.134.25-.384.476-.752.677-.367.2-.805.358-1.314.475a7.488 7.488 0 01-1.565.163c-.643 0-1.319-.133-2.028-.4-.71-.276-1.065-.864-1.065-1.766 0-.851.288-1.414.864-1.69a3.981 3.981 0 011.778-.426c1.361 0 2.3-.008 2.817-.025.526-.025.868-.07 1.027-.137a.41.41 0 00.263-.376v-.125c-.009-.3-.242-.551-.702-.751-.459-.2-.989-.3-1.59-.3-.659-.01-1.218.091-1.677.3-.459.2-.689.526-.689.976h-2.015c0-.642.233-1.152.701-1.527.475-.376 1.043-.635 1.702-.777a9.055 9.055 0 011.991-.225zm-.438 5.722c1.001 0 1.702-.209 2.103-.626.401-.418.601-.906.601-1.465-.409.242-1.135.363-2.178.363a12.7 12.7 0 00-1.453.063c-.342.041-.596.12-.763.237a.571.571 0 00-.263.489c.016.3.171.534.463.7.292.16.789.239 1.49.239zm5.491-1.991c0-.701.201-1.331.601-1.89.401-.568.948-1.01 1.64-1.328.693-.317 1.461-.475 2.304-.475 1.219 0 2.178.263 2.879.788.71.518 1.202 1.227 1.478 2.129h-2.016c-.108-.434-.375-.801-.801-1.102-.417-.309-.918-.463-1.502-.463-.793.008-1.415.23-1.866.663-.451.434-.676.994-.676 1.678 0 .392.092.772.275 1.14.192.358.48.65.864.876.384.225.852.334 1.403.325.592 0 1.097-.15 1.514-.45.418-.31.676-.677.777-1.102h2.015c-.075.5-.317.976-.726 1.427-.409.442-.935.801-1.577 1.077a5.21 5.21 0 01-2.041.4 5.378 5.378 0 01-2.266-.475c-.693-.326-1.248-.768-1.665-1.327a3.16 3.16 0 01-.614-1.89zm18.477.138h-6.949c.025.4.138.772.338 1.114.201.334.489.605.864.814.376.209.831.313 1.365.313.442 0 .847-.08 1.214-.238.368-.159.655-.363.864-.614.209-.258.313-.53.313-.813h1.991c0 .509-.175.989-.526 1.44-.342.442-.847.8-1.515 1.076-.668.276-1.456.413-2.366.413a5.62 5.62 0 01-2.291-.463c-.693-.309-1.248-.743-1.665-1.302a3.236 3.236 0 01-.614-1.94c0-.735.2-1.382.601-1.941.401-.568.947-1.002 1.64-1.302.701-.309 1.477-.463 2.329-.463.876 0 1.644.15 2.303.45.66.3 1.173.727 1.54 1.277.368.543.555 1.181.564 1.916v.263zm-4.382-2.642c-.66 0-1.185.146-1.578.438a2.306 2.306 0 00-.838 1.152h4.707a2 2 0 00-.726-1.152c-.367-.292-.889-.438-1.565-.438zm-106.335 89.483c-.009 1.16-.535 2.007-1.578 2.541-1.043.535-2.404.802-4.081.802-1.219 0-2.271-.163-3.155-.489-.877-.325-1.544-.78-2.003-1.364-.459-.584-.689-1.265-.689-2.041h1.615c0 .86.409 1.494 1.227 1.903.826.401 1.828.601 3.005.601 1.101.008 2.036-.146 2.804-.463.776-.317 1.169-.818 1.177-1.503 0-.267-.063-.467-.188-.601-.125-.141-.421-.246-.889-.313-.467-.075-1.21-.112-2.228-.112h-2.316v-1.427h2.954a10.9 10.9 0 001.29-.063c.342-.05.622-.159.839-.326.225-.167.338-.417.338-.751 0-.484-.368-.847-1.102-1.089-.735-.242-1.628-.371-2.679-.388-1.177-.017-2.179.113-3.005.388-.818.267-1.227.705-1.227 1.315H120c0-1.202.605-2.016 1.815-2.442 1.219-.434 2.563-.651 4.032-.651.893 0 1.723.059 2.491.175.776.109 1.457.368 2.041.777.584.409.876 1.014.876 1.815 0 .893-.325 1.519-.976 1.878.809.342 1.218.943 1.227 1.803v.025zm1.135 3.067v-1.753h1.865v1.753l-.939 1.127h-.939l.939-1.127h-.926zm12.951-3.23c-.033 1.327-.547 2.241-1.54 2.742-.993.501-2.132.751-3.418.751a8.03 8.03 0 01-2.153-.313 4.56 4.56 0 01-1.916-1.064c-.534-.501-.801-1.156-.801-1.966l1.628-.012c0 .651.3 1.143.901 1.477.609.334 1.348.522 2.216.564.96.025 1.774-.138 2.441-.489.677-.35 1.015-.914 1.015-1.69-.009-.693-.276-1.231-.802-1.615-.526-.384-1.381-.576-2.566-.576a6.14 6.14 0 00-1.465.188c-.501.125-.922.313-1.265.563-.342.242-.513.535-.513.877v.075l-1.552.05v-5.596h9.352v1.227h-7.8v2.441c.392-.367.914-.618 1.565-.751.659-.142 1.427-.213 2.304-.213.851 0 1.606.133 2.266.401.659.258 1.172.638 1.54 1.139.375.501.563 1.093.563 1.778v.012zm6.77-6.009c2.287-.009 3.823.459 4.608 1.402.793.943 1.189 2.036 1.189 3.28 0 1.219-.401 2.333-1.202 3.343-.793 1.001-2.324 1.502-4.595 1.502-1.594 0-2.825-.267-3.693-.801-.86-.543-1.427-1.177-1.703-1.903a5.46 5.46 0 01-.375-2.141c0-1.21.388-2.291 1.164-3.243.785-.959 2.32-1.439 4.607-1.439zm.013 8.338c1.001 0 1.811-.175 2.429-.526.626-.351 1.072-.801 1.339-1.352a3.81 3.81 0 00.363-1.816 3.42 3.42 0 00-.363-1.715c-.267-.534-.713-.964-1.339-1.289-.618-.334-1.428-.501-2.429-.501-.993 0-1.803.167-2.429.501-.618.325-1.06.755-1.327 1.289a3.5 3.5 0 00-.351 1.715 3.9 3.9 0 00.351 1.816c.267.551.709 1.001 1.327 1.352.626.351 1.436.526 2.429.526zm17.977-4.67c.008.134.013.325.013.576 0 2.003-.576 3.384-1.728 4.144-1.144.751-2.525 1.127-4.144 1.127-1.528 0-2.759-.242-3.694-.726-.934-.493-1.402-1.219-1.402-2.179l1.64.05c0 .568.33.985.989 1.252.668.259 1.482.384 2.442.376a5.994 5.994 0 001.953-.263c.609-.2 1.114-.53 1.515-.989.409-.468.638-1.077.688-1.828-.475.342-1.047.592-1.715.751a9.92 9.92 0 01-1.728.276c-.484.025-.997.037-1.54.037-.926 0-1.727-.129-2.403-.388-.676-.267-1.19-.634-1.54-1.102a2.76 2.76 0 01-.539-1.64v-.025c0-.751.238-1.377.714-1.878.476-.501 1.114-.868 1.916-1.102.801-.242 1.702-.363 2.704-.363 1.786 0 3.163.313 4.131.939.977.618 1.553 1.603 1.728 2.955zm-5.459 1.44a8.97 8.97 0 002.404-.313c.76-.217 1.144-.685 1.152-1.402 0-.685-.25-1.182-.751-1.49-.501-.317-1.002-.505-1.503-.564a16.672 16.672 0 00-1.727-.1c-1.002.008-1.853.159-2.554.451-.701.292-1.052.743-1.052 1.352 0 .609.171 1.064.513 1.365.351.292.806.484 1.365.576.559.083 1.277.125 2.153.125zm14.744 1.352h1.314v1.377h-1.314v1.402h-1.628v-1.402h-6.585v-1.377l6.585-6.485h1.628v6.485zm-1.628-4.733l-4.507 4.733h4.507v-4.733zm12.44-1.752l-5.008 9.264h-1.565l4.294-7.95h-6.222v-1.314h8.501zm5.708.025c2.287-.009 3.823.459 4.607 1.402a4.944 4.944 0 011.19 3.28c0 1.219-.401 2.333-1.202 3.343-.793 1.001-2.325 1.502-4.595 1.502-1.594 0-2.825-.267-3.693-.801-.86-.543-1.428-1.177-1.703-1.903a5.46 5.46 0 01-.376-2.141c0-1.21.388-2.291 1.165-3.243.784-.959 2.32-1.439 4.607-1.439zm.013 8.338c1.001 0 1.811-.175 2.428-.526.626-.351 1.073-.801 1.34-1.352a3.81 3.81 0 00.363-1.816 3.42 3.42 0 00-.363-1.715c-.267-.534-.714-.964-1.34-1.289-.617-.334-1.427-.501-2.428-.501-.994 0-1.803.167-2.429.501-.618.325-1.06.755-1.327 1.289a3.5 3.5 0 00-.351 1.715 3.9 3.9 0 00.351 1.816c.267.551.709 1.001 1.327 1.352.626.351 1.435.526 2.429.526zm16.099-4.132c.751.134 1.302.38 1.652.739.359.351.539.872.539 1.565 0 1.21-.522 2.02-1.565 2.429-1.035.409-2.266.613-3.694.613h-.513c-.993 0-1.886-.054-2.679-.163a4.719 4.719 0 01-2.116-.826c-.626-.442-.939-1.122-.939-2.041-.008-.742.159-1.289.501-1.64.35-.35.926-.584 1.728-.701-.585-.1-1.044-.304-1.378-.613-.333-.309-.5-.756-.5-1.34 0-.784.371-1.364 1.114-1.74.751-.376 1.44-.597 2.066-.664a30.023 30.023 0 012.153-.137c.701 0 1.423.037 2.166.112.751.075 1.49.301 2.216.676.726.376 1.089.956 1.089 1.741 0 .609-.163 1.072-.488 1.389-.326.309-.776.509-1.352.601zm-3.644-3.38c-1.026-.008-1.903.1-2.629.325-.717.226-1.076.585-1.076 1.077 0 .509.363.877 1.089 1.102.734.225 1.627.325 2.679.3 1.052.025 1.945-.075 2.679-.3.743-.225 1.115-.593 1.115-1.102 0-.492-.376-.851-1.127-1.077-.751-.225-1.661-.333-2.73-.325zm.026 7.437c1.168.016 2.157-.113 2.967-.388.809-.284 1.214-.739 1.214-1.365 0-.634-.405-1.089-1.214-1.365-.802-.283-1.782-.417-2.942-.4-1.161-.017-2.146.117-2.955.4-.801.276-1.202.731-1.202 1.365 0 .626.401 1.081 1.202 1.365.801.275 1.778.404 2.93.388zm15.249-8.288l-5.008 9.264h-1.565l4.294-7.95h-6.222v-1.314h8.501zm11.204 6.197c0 .751-.238 1.377-.713 1.878-.476.501-1.115.872-1.916 1.114-.801.234-1.703.351-2.704.351-1.786 0-3.168-.309-4.144-.927-.968-.626-1.54-1.615-1.715-2.967a9.29 9.29 0 01-.013-.576c0-2.003.572-3.38 1.715-4.131 1.152-.76 2.538-1.14 4.157-1.14 1.527 0 2.758.247 3.693.739.935.484 1.402 1.206 1.402 2.166l-1.64-.05c0-.568-.334-.981-1.001-1.24-.66-.267-1.469-.396-2.429-.388a5.763 5.763 0 00-1.953.276 3.308 3.308 0 00-1.528.989c-.4.459-.626 1.064-.676 1.815.476-.342 1.048-.592 1.716-.751a9.897 9.897 0 011.727-.276 29.96 29.96 0 011.54-.037c.927 0 1.728.133 2.404.401.676.258 1.189.626 1.54 1.101.351.468.53 1.01.538 1.628v.025zm-5.308 1.878c1.002-.008 1.853-.159 2.554-.451.701-.292 1.052-.743 1.052-1.352 0-.609-.176-1.06-.526-1.352-.342-.301-.793-.493-1.352-.576-.56-.092-1.277-.138-2.154-.138-.851 0-1.656.109-2.416.326-.751.208-1.131.672-1.139 1.389 0 .685.25 1.186.751 1.503.501.309.997.492 1.49.551.5.058 1.081.092 1.74.1zm19.63-3.668c.702.141 1.232.388 1.59.738.359.342.539.835.539 1.478v.05c0 .776-.184 1.348-.551 1.715-.359.367-.843.605-1.452.713-.601.101-1.444.159-2.529.176h-.626l-5.597-.013v-9.264h6.799c.968.008 1.74.208 2.316.601.576.392.864.947.864 1.665v.05c0 .542-.113.985-.338 1.327-.226.342-.564.597-1.015.764zm-.25-1.878c0-.384-.083-.664-.25-.839a1.044 1.044 0 00-.626-.326 7.617 7.617 0 00-1.115-.062h-4.77v2.454c.384.008.764.012 1.14.012.375 0 .73.004 1.064.013.784 0 1.202.004 1.252.012h1.314c.51 0 .881-.017 1.115-.05.242-.033.446-.138.613-.313.175-.184.263-.484.263-.901zm-6.761 1.389h.025l-.025-.012v.012zm5.171 4.007c.576 0 1.006-.021 1.29-.063.283-.05.509-.175.676-.376.175-.208.263-.542.263-1.001 0-.443-.088-.76-.263-.952a1.047 1.047 0 00-.676-.363c-.284-.05-.714-.075-1.29-.075h-5.171v2.805c2.095 0 3.61.008 4.545.025h.626zm4.409-6.523v-1.402h10.279l-10.279 1.402zm10.279-1.402v1.439h-4.294v7.825h-1.628v-7.825h-4.357v-1.439h10.279zm.185 4.644c0-.926.247-1.761.739-2.503.501-.743 1.181-1.323 2.041-1.741.86-.425 1.815-.638 2.867-.638 1.26 0 2.366.313 3.318.939.959.626 1.652 1.515 2.078 2.666l-1.703.025a2.757 2.757 0 00-.889-1.201 4.397 4.397 0 00-1.389-.752 4.273 4.273 0 00-1.403-.263c-.651 0-1.289.138-1.915.414a3.764 3.764 0 00-1.528 1.189c-.392.526-.588 1.148-.588 1.865 0 .735.184 1.361.551 1.878.367.518.855.91 1.465 1.177a5.02 5.02 0 002.015.401c.426 0 .873-.079 1.34-.238a4.571 4.571 0 001.315-.739 3.64 3.64 0 00.976-1.189h1.765c-.467 1.169-1.172 2.057-2.115 2.667-.935.609-2.033.914-3.293.914-1.043 0-1.999-.213-2.867-.639-.86-.426-1.54-1.01-2.041-1.753a4.39 4.39 0 01-.739-2.479zm-140.941 70.105h-1.424v-8.107h1.424v8.107zm5.214-6.168c.804 0 1.432.281 1.885.844.46.562.69 1.515.69 2.859v2.465h-1.369v-2.432c0-.753-.125-1.381-.373-1.885-.248-.511-.763-.766-1.545-.766-.803 0-1.336.259-1.599.777-.256.512-.383 1.162-.383 1.95v2.356h-1.37v-5.971h1.37v.822c.598-.679 1.497-1.019 2.694-1.019zm3.346 3.188c0-.614.168-1.165.504-1.654a3.431 3.431 0 011.402-1.161 4.68 4.68 0 011.994-.417c1.052 0 1.866.219 2.443.658.577.438 1.004 1.051 1.282 1.84h-1.381a1.727 1.727 0 00-.416-.745 2.261 2.261 0 00-.811-.559 2.77 2.77 0 00-1.084-.208c-.541 0-1.001.099-1.38.296-.38.197-.669.467-.866.811-.19.336-.285.715-.285 1.139 0 .365.092.723.274 1.073.183.351.464.64.844.866.38.219.851.321 1.413.307.402 0 .767-.07 1.095-.208a2.35 2.35 0 00.8-.559 1.64 1.64 0 00.405-.734h1.381c-.051.409-.26.807-.625 1.194-.358.38-.814.69-1.369.931a4.227 4.227 0 01-1.72.362c-.694 0-1.34-.139-1.939-.417a3.672 3.672 0 01-1.435-1.172 2.781 2.781 0 01-.526-1.643zm12.191-3.243c.716 0 1.359.139 1.928.417a3.228 3.228 0 011.348 1.161c.328.489.493 1.041.493 1.654 0 .606-.165 1.158-.493 1.654a3.262 3.262 0 01-1.348 1.15c-.569.278-1.212.417-1.928.417a4.597 4.597 0 01-1.939-.417 3.7 3.7 0 01-1.435-1.161 2.745 2.745 0 01-.537-1.643c0-.606.179-1.154.537-1.643a3.58 3.58 0 011.435-1.161 4.454 4.454 0 011.939-.428zm.011 5.467c.672 0 1.238-.179 1.698-.537.46-.365.69-.931.69-1.698 0-.767-.23-1.333-.69-1.698-.46-.365-1.026-.548-1.698-.548a3.28 3.28 0 00-1.216.23 2.15 2.15 0 00-.953.734c-.241.336-.361.763-.361 1.282 0 .518.12.946.361 1.282.248.328.563.569.942.723.387.153.796.23 1.227.23zm14.02-5.412c.591 0 1.073.121 1.446.362.379.241.66.631.843 1.172.19.54.285 1.263.285 2.169v2.465h-1.359v-2.432c0-.694-.149-1.311-.449-1.852-.299-.54-.818-.81-1.555-.81-.533 0-.942.117-1.227.35a1.65 1.65 0 00-.559.898c-.095.373-.142.833-.142 1.381v2.465h-1.381v-2.432c0-.716-.135-1.337-.405-1.863-.263-.533-.756-.799-1.479-.799-.65 0-1.124.131-1.424.394-.292.256-.475.599-.548 1.03-.073.431-.109 1.051-.109 1.862v1.808h-1.381v-5.971h1.019l.362.855v.055c.628-.738 1.559-1.107 2.793-1.107.563 0 1.015.11 1.359.329.35.219.62.573.81 1.062.263-.496.647-.85 1.151-1.062.503-.219 1.153-.329 1.95-.329zm10.928 3.265h-6.222c.022.372.128.723.318 1.051.19.322.471.585.843.789.373.204.826.307 1.359.307.46 0 .865-.081 1.216-.241.358-.168.631-.373.821-.614.197-.248.296-.485.296-.712h1.369c0 .38-.146.767-.438 1.161-.292.395-.719.723-1.281.986-.563.263-1.231.395-2.005.395a4.57 4.57 0 01-1.928-.406 3.546 3.546 0 01-1.413-1.15 2.85 2.85 0 01-.526-1.687c0-.643.168-1.209.504-1.698a3.297 3.297 0 011.391-1.139 4.697 4.697 0 011.972-.406c.737 0 1.384.132 1.939.395.562.263.997.635 1.303 1.117.314.475.475 1.034.482 1.676v.176zm-3.702-2.378c-.628 0-1.136.139-1.523.417a2.3 2.3 0 00-.833 1.095h4.601a1.993 1.993 0 00-.734-1.095c-.357-.278-.861-.417-1.511-.417zm116.243 1.666h-5.762v2.399l6.682-.044v1.26h-8.106v-8.107h8.106l.011 1.26h-6.693v1.972h5.762v1.26zm7.797-2.356h1.709l-2.695 3.013 2.695 2.958h-1.709l-2.279-2.465-2.279 2.465H281.3l2.705-2.958-2.705-3.013h1.708l2.279 2.498 2.279-2.498zm9.476 3.122a3.524 3.524 0 01-.372 1.49c-.234.46-.57.836-1.008 1.129-.431.284-.939.427-1.523.427-1.263 0-2.227-.314-2.892-.942v2.826h-1.369v-8.052h1.139l.175.877c.687-.672 1.669-1.008 2.947-1.008.562 0 1.059.139 1.49.416a2.89 2.89 0 011.03 1.139c.248.482.376 1.023.383 1.622v.076zm-3.67 2.082c.475 0 .877-.11 1.205-.329.336-.226.588-.504.756-.832.175-.336.267-.661.274-.975a2.542 2.542 0 00-.252-1.063 1.946 1.946 0 00-.734-.844c-.329-.226-.745-.339-1.249-.339-.416 0-.785.106-1.106.318a2.186 2.186 0 00-1.019 1.851c0 .402.088.77.263 1.106.175.336.423.607.745.811.328.197.701.296 1.117.296zm11.978-2.136h-6.222c.021.372.127.723.317 1.051.19.322.471.585.844.789.372.204.825.307 1.358.307a2.9 2.9 0 001.216-.241c.358-.168.632-.373.822-.614.197-.248.296-.485.296-.712h1.369c0 .38-.146.767-.438 1.161-.292.395-.72.723-1.282.986s-1.231.395-2.005.395a4.574 4.574 0 01-1.928-.406 3.56 3.56 0 01-1.413-1.15 2.857 2.857 0 01-.526-1.687c0-.643.168-1.209.504-1.698a3.297 3.297 0 011.391-1.139 4.697 4.697 0 011.972-.406c.738 0 1.384.132 1.939.395.563.263.997.635 1.304 1.117.314.475.475 1.034.482 1.676v.176zm-3.703-2.378c-.628 0-1.135.139-1.523.417a2.297 2.297 0 00-.832 1.095h4.601a1.998 1.998 0 00-.734-1.095c-.358-.278-.862-.417-1.512-.417zm8.588-.887c.803 0 1.431.281 1.884.844.46.562.69 1.515.69 2.859v2.465h-1.369v-2.432c0-.753-.124-1.381-.372-1.885-.249-.511-.764-.766-1.545-.766-.803 0-1.337.259-1.6.777-.255.512-.383 1.162-.383 1.95v2.356h-1.369v-5.971h1.369v.822c.599-.679 1.497-1.019 2.695-1.019zm7.563 2.728c.533 0 .993.036 1.38.109.388.073.709.234.965.482.262.241.394.599.394 1.074 0 .599-.19 1.048-.57 1.347-.38.3-.814.486-1.303.559a9.878 9.878 0 01-1.611.121c-.905 0-1.738-.15-2.497-.45-.76-.306-1.14-.891-1.14-1.752l1.37.022c0 .401.23.697.69.887.467.183.993.274 1.577.274.811 0 1.377-.073 1.698-.219.322-.146.482-.376.482-.69 0-.322-.171-.53-.515-.625-.343-.102-.77-.153-1.281-.153h-.482c-.964-.008-1.797-.15-2.498-.427-.694-.278-1.041-.771-1.041-1.479 0-.76.362-1.257 1.085-1.49.723-.241 1.559-.362 2.508-.362.906 0 1.72.15 2.443.449.723.3 1.085.88 1.085 1.742l-1.369-.022c0-.474-.252-.788-.756-.942a4.619 4.619 0 00-1.414-.241c-.635 0-1.164.055-1.588.165-.416.109-.624.339-.624.69 0 .314.175.551.525.712.358.153.913.23 1.666.23l.821-.011zm10.991.537h-6.222c.022.372.128.723.318 1.051.189.322.471.585.843.789.373.204.825.307 1.359.307.46 0 .865-.081 1.216-.241.357-.168.631-.373.821-.614.197-.248.296-.485.296-.712h1.369c0 .38-.146.767-.438 1.161-.292.395-.719.723-1.282.986-.562.263-1.23.395-2.004.395a4.57 4.57 0 01-1.928-.406 3.556 3.556 0 01-1.414-1.15 2.856 2.856 0 01-.525-1.687c0-.643.168-1.209.504-1.698a3.291 3.291 0 011.391-1.139 4.693 4.693 0 011.972-.406c.737 0 1.384.132 1.939.395.562.263.997.635 1.303 1.117.314.475.475 1.034.482 1.676v.176zm-3.702-2.378c-.629 0-1.136.139-1.523.417a2.3 2.3 0 00-.833 1.095h4.601a1.998 1.998 0 00-.734-1.095c-.358-.278-.861-.417-1.511-.417z" fill="#111415"/><rect x="301.126" y="221.238" width="134.32" height="38.933" rx="3.893" stroke="#111415" stroke-width="1.298"/><path d="M357.125 239.408c1 0 1.832.044 2.496.132.672.088 1.239.304 1.703.648.472.336.708.851.708 1.547 0 1.224-.532 2.048-1.596 2.472-1.063.424-2.259.636-3.587.636-.736 0-1.504-.08-2.304-.24a4.962 4.962 0 01-2.123-.936c-.616-.48-.924-1.156-.924-2.028l2.112-.036c0 .504.196.88.587 1.128.392.24.82.388 1.284.444.464.056.964.084 1.5.084.816 0 1.516-.112 2.1-.336.584-.232.88-.612.888-1.14v-.012c0-.256-.164-.448-.492-.576a3.423 3.423 0 00-1.068-.228 21.78 21.78 0 00-1.428-.06h-.264c-1.136 0-2.052-.044-2.747-.132-.696-.088-1.284-.307-1.764-.659-.472-.36-.708-.92-.708-1.68 0-1.24.552-2.052 1.656-2.436 1.111-.384 2.343-.576 3.695-.576.72 0 1.464.08 2.232.24a4.609 4.609 0 012.051.948c.6.472.9 1.144.9 2.016h-2.099c0-.512-.296-.896-.888-1.152-.592-.264-1.312-.412-2.16-.444-.928 0-1.716.112-2.364.336-.639.216-.959.56-.959 1.032 0 .416.304.688.911.816.616.128 1.344.192 2.184.192h.468zm14.198 2.039h-6.659c.024.384.132.74.324 1.068.191.32.467.58.827.78.36.2.796.3 1.308.3.424 0 .812-.076 1.164-.228.352-.152.628-.348.828-.588.2-.248.3-.508.3-.78h1.908c0 .488-.168.948-.504 1.38-.328.424-.812.768-1.452 1.032-.64.264-1.396.396-2.268.396a5.379 5.379 0 01-2.195-.444c-.664-.296-1.196-.712-1.596-1.248a3.101 3.101 0 01-.588-1.86c0-.704.192-1.323.576-1.859.384-.544.908-.96 1.572-1.248.671-.296 1.415-.444 2.231-.444.84 0 1.576.144 2.208.432.632.288 1.124.696 1.476 1.224.352.52.532 1.132.54 1.835v.252zm-4.2-2.531c-.632 0-1.136.14-1.512.42-.376.272-.643.64-.803 1.104h4.511a1.916 1.916 0 00-.696-1.104c-.352-.28-.852-.42-1.5-.42zm9.774-1.104c.912 0 1.624.312 2.136.936.512.616.768 1.656.768 3.119v2.7h-1.92v-2.664c0-.512-.04-.96-.12-1.344a1.812 1.812 0 00-.54-.971c-.272-.272-.684-.408-1.236-.408-.568 0-1 .136-1.296.408a1.858 1.858 0 00-.563.983c-.08.392-.12.852-.12 1.38v2.616h-1.92v-6.539h1.92v.864c.631-.72 1.595-1.08 2.891-1.08zm6.945.216h1.248v1.464h-1.248v5.075h-1.92v-5.075h-1.308v-1.464h1.308v-1.416l1.92-1.116v2.532z" fill="#111415"/><rect x="122.681" y="220.589" width="164.169" height="40.231" rx="4.542" fill="#111415"/><path d="M178.978 244.543l-2.46-2.868h-3.18v2.868h-1.991v-8.879h6.275c.744 0 1.4.124 1.967.372.576.248 1.02.596 1.332 1.044.32.44.48.952.48 1.536v.048c0 .76-.224 1.388-.672 1.884-.44.495-1.052.827-1.835.995l2.579 3h-2.495zm.383-5.831c0-.456-.088-.788-.263-.996a1.049 1.049 0 00-.648-.384c-.264-.048-.636-.072-1.116-.072-.216 0-.4.004-.552.012-1.08.024-2.228.036-3.444.036v2.772h3.996c.48 0 .852-.02 1.116-.06.264-.048.48-.168.648-.36.175-.2.263-.516.263-.948zm10.832 2.735h-6.659c.024.384.132.74.324 1.068.192.32.468.58.828.78.36.2.796.3 1.308.3.424 0 .812-.076 1.164-.228.352-.152.628-.348.828-.588.2-.248.3-.508.3-.78h1.907c0 .488-.168.948-.504 1.38-.328.424-.812.768-1.451 1.032-.64.264-1.396.396-2.268.396a5.387 5.387 0 01-2.196-.444c-.664-.296-1.196-.712-1.596-1.248a3.107 3.107 0 01-.587-1.86c0-.703.192-1.323.575-1.859.384-.544.908-.96 1.572-1.248.672-.296 1.416-.444 2.232-.444.84 0 1.576.144 2.208.432.631.288 1.123.696 1.475 1.224.352.52.532 1.132.54 1.835v.252zm-4.199-2.531c-.632 0-1.136.14-1.512.42-.376.272-.644.64-.804 1.104h4.512a1.916 1.916 0 00-.696-1.104c-.352-.28-.852-.42-1.5-.42zm4.783 2.399c0-.671.192-1.275.576-1.811.383-.544.907-.968 1.571-1.272.664-.304 1.4-.456 2.208-.456 1.168 0 2.088.252 2.759.756.68.496 1.152 1.176 1.416 2.04h-1.931c-.104-.416-.36-.768-.768-1.056-.4-.296-.88-.444-1.44-.444-.76.008-1.356.22-1.788.636-.432.416-.648.952-.648 1.607 0 .376.088.74.264 1.092.184.344.46.624.828.84.368.216.816.32 1.344.312.568 0 1.052-.144 1.452-.432.4-.296.648-.648.744-1.056h1.931c-.072.48-.304.936-.696 1.368-.392.424-.896.768-1.511 1.032a4.988 4.988 0 01-1.956.384 5.155 5.155 0 01-2.172-.456c-.664-.312-1.196-.736-1.595-1.272a3.028 3.028 0 01-.588-1.812zm17.706.132h-6.659c.024.384.132.74.324 1.068.192.32.468.58.828.78.36.2.796.3 1.308.3.424 0 .812-.076 1.164-.228.352-.152.628-.348.828-.588.2-.248.3-.508.3-.78h1.907c0 .488-.168.948-.504 1.38-.328.424-.812.768-1.451 1.032-.64.264-1.396.396-2.268.396a5.387 5.387 0 01-2.196-.444c-.664-.296-1.196-.712-1.595-1.248a3.101 3.101 0 01-.588-1.86c0-.703.192-1.323.576-1.859.383-.544.907-.96 1.571-1.248.672-.296 1.416-.444 2.232-.444.84 0 1.576.144 2.208.432.631.288 1.123.696 1.475 1.224.352.52.532 1.132.54 1.835v.252zm-4.199-2.531c-.632 0-1.136.14-1.512.42-.376.272-.644.64-.804 1.104h4.512a1.916 1.916 0 00-.696-1.104c-.352-.28-.852-.42-1.5-.42zm6.882-3.228h-1.919v1.452h1.919v-1.452zm0 8.879h-1.919v-7.079h1.919v7.079zm5.103-1.548l2.16-4.991 2.183-.012-3.215 6.551h-2.268l-3.203-6.539h2.183l2.16 4.991zm12.684-1.572h-6.659c.024.384.132.74.324 1.068.192.32.468.58.828.78.359.2.795.3 1.307.3.424 0 .812-.076 1.164-.228.352-.152.628-.348.828-.588.2-.248.3-.508.3-.78h1.908c0 .488-.168.948-.504 1.38-.328.424-.812.768-1.452 1.032-.64.264-1.396.396-2.268.396a5.382 5.382 0 01-2.195-.444c-.664-.296-1.196-.712-1.596-1.248a3.101 3.101 0 01-.588-1.86c0-.703.192-1.323.576-1.859.384-.544.908-.96 1.572-1.248.672-.296 1.415-.444 2.231-.444.84 0 1.576.144 2.208.432.632.288 1.124.696 1.476 1.224.352.52.532 1.132.54 1.835v.252zm-4.2-2.531c-.632 0-1.136.14-1.511.42-.376.272-.644.64-.804 1.104h4.511a1.916 1.916 0 00-.696-1.104c-.352-.28-.852-.42-1.5-.42zm11.118-3.216h1.92v8.831h-1.668l-.156-.756c-.688.616-1.768.92-3.239.912a3.007 3.007 0 01-1.644-.456 3.223 3.223 0 01-1.128-1.272 4.187 4.187 0 01-.408-1.8v-.048c.008-.575.14-1.119.396-1.631a3.196 3.196 0 011.116-1.236c.48-.312 1.036-.468 1.668-.468 1.375 0 2.423.332 3.143.996V235.7zm-2.124 7.751a1.98 1.98 0 001.104-.312c.32-.208.568-.48.744-.816.184-.336.276-.688.276-1.056v-.012a2.39 2.39 0 00-.264-1.127 1.93 1.93 0 00-.756-.804c-.32-.2-.688-.3-1.104-.3-.472 0-.875.108-1.211.324a2.105 2.105 0 00-.756.816c-.16.32-.244.647-.252.983.008.384.092.752.252 1.104.168.352.416.64.744.864.336.224.743.336 1.223.336z" fill="#EFEFEF"/></svg>