<svg width="558" height="292" fill="none" xmlns="http://www.w3.org/2000/svg"><path d="M0 28C0 12.536 12.536 0 28 0h502c15.464 0 28 12.536 28 28v236c0 15.464-12.536 28-28 28H28c-15.464 0-28-12.536-28-28V28z" fill="#111415"/><path d="M0 27C0 12.088 12.088 0 27 0h504c14.912 0 27 12.088 27 27H0z" fill="#57C7FF"/><circle cx="45.382" cy="14.034" r="4.912" fill="#EFEFEF"/><circle cx="71.344" cy="14.034" r="4.912" fill="#EFEFEF"/><circle cx="95.903" cy="14.034" r="4.912" fill="#EFEFEF"/><path fill="#EFEFEF" d="M222.76 9.122h294.703v9.122H222.76z"/><rect x="166" y="89" width="226" height="30.374" rx="15.187" fill="#EFEFEF"/><rect x="166" y="139.966" width="226" height="30.374" rx="15.187" fill="#EFEFEF"/><rect x="206.155" y="199.902" width="149.294" height="30.374" rx="15.187" fill="#57C7FF"/><g clip-path="url(#clip0_54_382)"><path d="M193.92 154.586a1.455 1.455 0 00-1.069-.44h-.503v-3.018c0-1.929-.691-3.585-2.075-4.968-1.383-1.384-3.039-2.076-4.968-2.076-1.929 0-3.585.692-4.968 2.075-1.384 1.384-2.075 3.04-2.075 4.969v3.018h-.503c-.419 0-.776.147-1.069.44-.294.294-.441.65-.441 1.07v9.056c0 .419.147.775.441 1.069.293.293.65.44 1.069.44h15.093c.419 0 .775-.147 1.069-.44.293-.294.44-.65.44-1.069v-9.056c0-.42-.147-.776-.441-1.07zm-4.59-.44h-8.05v-3.018c0-1.111.393-2.06 1.18-2.846.786-.786 1.734-1.179 2.845-1.179 1.111 0 2.06.393 2.846 1.179a3.879 3.879 0 011.179 2.846v3.018z" fill="#111415"/></g><path d="M207.336 97.425v8.733h7.382v2.02h-9.838V97.425h2.456zm13.652 2.499c.979 0 1.86.184 2.645.552.794.369 1.414.882 1.86 1.541a3.79 3.79 0 01.668 2.194c0 .804-.223 1.535-.668 2.194-.446.649-1.066 1.158-1.86 1.526-.785.368-1.666.552-2.645.552a6.405 6.405 0 01-2.644-.552c-.824-.378-1.483-.892-1.977-1.541a3.548 3.548 0 01-.741-2.179c0-.804.247-1.531.741-2.18.494-.659 1.148-1.172 1.962-1.54a6.296 6.296 0 012.659-.567zm.015 6.99c.794 0 1.467-.223 2.02-.669.552-.445.828-1.124.828-2.034 0-.911-.276-1.589-.828-2.034-.553-.456-1.226-.683-2.02-.683-.504 0-.988.096-1.453.29a2.706 2.706 0 00-1.134.901c-.29.407-.436.916-.436 1.526s.146 1.119.436 1.526c.301.406.678.707 1.134.9.465.185.949.277 1.453.277zm15.874-6.656v7.92c-.029.765-.286 1.38-.77 1.845a3.873 3.873 0 01-1.73.974 7.679 7.679 0 01-2.048.276c-1.047 0-1.894-.039-2.543-.116a3.58 3.58 0 01-1.744-.654c-.504-.368-.756-.955-.756-1.759h2.383c.01.649.688.974 2.035.974l.625-.015c.513 0 1.007-.111 1.482-.334.484-.223.726-.668.726-1.337v-.741c-.833.766-2.087 1.148-3.763 1.148a3.646 3.646 0 01-2.005-.566 4.224 4.224 0 01-1.381-1.512 4.39 4.39 0 01-.523-1.961v-.102c.01-.794.179-1.511.509-2.151a3.78 3.78 0 011.38-1.511c.591-.368 1.264-.552 2.02-.552 1.714-.048 2.974.31 3.778 1.075l.261-.901h2.064zm-4.897 6.67c.775 0 1.395-.232 1.86-.697.465-.475.697-1.168.697-2.078v-.044a2.58 2.58 0 00-.305-1.22 2.504 2.504 0 00-.857-.945 2.25 2.25 0 00-1.264-.363c-.582 0-1.08.121-1.497.363a2.476 2.476 0 00-.959.988 2.989 2.989 0 00-.334 1.351c.019.775.261 1.41.726 1.904.465.494 1.109.741 1.933.741zm8.397-9.503h-2.325v1.758h2.325v-1.758zm0 10.753h-2.325v-8.573h2.325v8.573zm6.964-8.181c1.105 0 1.967.378 2.587 1.133.62.746.93 2.006.93 3.778v3.27h-2.325v-3.226c0-.62-.049-1.163-.145-1.628a2.196 2.196 0 00-.654-1.177c-.33-.329-.829-.494-1.497-.494-.688 0-1.211.165-1.569.494a2.24 2.24 0 00-.683 1.192 8.437 8.437 0 00-.146 1.671v3.168h-2.325v-7.92h2.325v1.047c.766-.872 1.933-1.308 3.502-1.308z" fill="#111415"/><path d="M257.125 212.96c1.28 0 2.345.056 3.195.169.861.112 1.588.389 2.182.829.604.43.906 1.091.906 1.982 0 1.567-.681 2.621-2.043 3.164-1.362.543-2.893.814-4.593.814-.942 0-1.925-.102-2.949-.307a6.356 6.356 0 01-2.719-1.198c-.789-.615-1.183-1.48-1.183-2.596l2.703-.046c0 .645.251 1.126.753 1.444.502.307 1.05.496 1.644.568.594.072 1.234.108 1.92.108 1.045 0 1.941-.144 2.688-.431.748-.297 1.127-.783 1.137-1.459v-.015c0-.328-.21-.574-.63-.738a4.386 4.386 0 00-1.367-.291 27.675 27.675 0 00-1.828-.077h-.338c-1.454 0-2.627-.057-3.518-.169-.891-.113-1.643-.394-2.258-.845-.604-.461-.906-1.178-.906-2.151 0-1.587.707-2.626 2.12-3.118 1.423-.491 3-.737 4.731-.737.922 0 1.874.102 2.857.307a5.912 5.912 0 012.627 1.213c.768.605 1.152 1.465 1.152 2.581h-2.688c0-.655-.379-1.147-1.137-1.475-.758-.337-1.679-.527-2.765-.568-1.188 0-2.197.144-3.026.43-.819.277-1.229.717-1.229 1.321 0 .533.389.881 1.167 1.045.789.164 1.721.246 2.796.246h.599zm9.852-4.762h-2.458v1.858h2.458v-1.858zm0 11.367h-2.458v-9.063h2.458v9.063zm11.555-8.372v8.372c-.03.809-.302 1.459-.814 1.951a4.098 4.098 0 01-1.828 1.029 8.098 8.098 0 01-2.166.292c-1.106 0-2.002-.041-2.688-.123a3.786 3.786 0 01-1.843-.691c-.533-.389-.799-1.009-.799-1.859h2.519c.011.686.727 1.029 2.151 1.029l.66-.015c.543 0 1.065-.118 1.567-.353.512-.236.768-.707.768-1.414v-.783c-.88.809-2.207 1.213-3.978 1.213-.789 0-1.495-.199-2.12-.599a4.46 4.46 0 01-1.459-1.597 4.631 4.631 0 01-.553-2.074v-.107c.01-.84.189-1.598.537-2.274a3.995 3.995 0 011.46-1.597c.624-.39 1.336-.584 2.135-.584 1.812-.051 3.144.327 3.994 1.137l.276-.953h2.181zm-5.176 7.051c.819 0 1.474-.246 1.966-.737.492-.502.737-1.234.737-2.197v-.046c0-.451-.107-.881-.322-1.291a2.652 2.652 0 00-.907-.998 2.374 2.374 0 00-1.336-.384c-.614 0-1.142.128-1.582.384a2.613 2.613 0 00-1.014 1.045c-.225.43-.343.906-.353 1.428.02.819.276 1.49.768 2.012.491.523 1.172.784 2.043.784zm12.579-7.327c1.167 0 2.079.399 2.734 1.198.655.788.983 2.12.983 3.994v3.456h-2.458v-3.41c0-.656-.051-1.229-.153-1.721a2.327 2.327 0 00-.691-1.244c-.349-.348-.876-.522-1.583-.522-.727 0-1.28.174-1.659.522a2.378 2.378 0 00-.722 1.26 8.951 8.951 0 00-.153 1.766v3.349h-2.458v-8.372h2.458v1.106c.809-.922 2.043-1.382 3.702-1.382zm12.484-2.719h-2.458v1.858h2.458v-1.858zm0 11.367h-2.458v-9.063h2.458v9.063zm7.362-8.648c1.168 0 2.079.399 2.735 1.198.655.788.983 2.12.983 3.994v3.456h-2.458v-3.41c0-.656-.051-1.229-.154-1.721a2.32 2.32 0 00-.691-1.244c-.348-.348-.876-.522-1.582-.522-.727 0-1.28.174-1.659.522-.369.338-.61.758-.722 1.26a8.87 8.87 0 00-.154 1.766v3.349h-2.458v-8.372h2.458v1.106c.809-.922 2.043-1.382 3.702-1.382z" fill="#EFEFEF"/><g clip-path="url(#clip1_54_382)" fill="#111415"><path d="M188.747 106.309h-6.883a6.376 6.376 0 00-6.378 6.377 2.568 2.568 0 002.568 2.568h14.502a2.568 2.568 0 002.568-2.568 6.376 6.376 0 00-6.377-6.377zm-3.442-1.82a5.686 5.686 0 100-11.373 5.686 5.686 0 000 11.373z"/></g><circle cx="208.472" cy="155.153" r="3.346" fill="#111415"/><circle cx="222.886" cy="155.153" r="3.346" fill="#111415"/><circle cx="237.301" cy="155.153" r="3.346" fill="#111415"/><circle cx="251.715" cy="155.153" r="3.346" fill="#111415"/><circle cx="266.13" cy="155.153" r="3.346" fill="#111415"/><circle cx="280.544" cy="155.153" r="3.346" fill="#111415"/><circle cx="294.959" cy="155.153" r="3.346" fill="#111415"/><defs><clipPath id="clip0_54_382"><path fill="#fff" transform="translate(174.237 144.084)" d="M0 0h22.137v22.137H0z"/></clipPath><clipPath id="clip1_54_382"><path fill="#fff" transform="translate(174.237 93.118)" d="M0 0h22.137v22.137H0z"/></clipPath></defs></svg>