<svg width="558" height="292" fill="none" xmlns="http://www.w3.org/2000/svg"><rect width="558" height="292" rx="28" fill="#111415"/><path d="M5 278l130.879-102.24 64.442 12.969 67.439-12.969 60.446-29.927 62.444 24.441 68.438-53.87 57.448-14.963L557 77" stroke="#57C7FF" stroke-width="2" stroke-linecap="round" stroke-linejoin="round"/><path d="M328.176 250.499l51.431-30.5L472.5 214l85.5-35v85c0 15.464-12.536 28-28 28l-496.5-.001 86.954-54 84.886-1.5 56.924-16.5 65.912 30.5z" fill="#57C7FF"/><path d="M30.527 132.906v-1.905H41.85l-11.323 1.905zm11.323-1.905v1.946h-4.486V141h-2.283v-8.053h-4.554v-1.946H41.85zm3.74 2.324c.91 0 1.73.171 2.46.513.738.343 1.315.82 1.729 1.433a3.52 3.52 0 01.621 2.04c0 .748-.207 1.428-.621 2.041-.415.603-.991 1.076-1.73 1.418-.73.343-1.55.514-2.459.514a5.946 5.946 0 01-2.46-.514c-.765-.351-1.378-.828-1.837-1.432a3.302 3.302 0 01-.69-2.027c0-.748.23-1.423.69-2.027.46-.612 1.068-1.09 1.824-1.432a5.863 5.863 0 012.473-.527zm.013 6.499c.74 0 1.365-.207 1.879-.621.513-.414.77-1.045.77-1.892s-.257-1.477-.77-1.892c-.514-.423-1.14-.635-1.879-.635-.468 0-.918.09-1.35.271-.424.18-.776.459-1.055.837-.27.379-.405.852-.405 1.419 0 .568.135 1.041.405 1.419.28.378.63.658 1.054.838.433.171.883.256 1.351.256zm8.813-6.188h1.405v1.648h-1.405V141h-2.162v-5.716H50.78v-1.648h1.473v-1.595l2.162-1.256v2.851zm7.086-.325c1.19 0 2.252.217 3.189.649.946.432 1.419 1.194 1.419 2.284V141h-1.973l-.203-1.284c-.144.271-.414.514-.81.73-.397.216-.87.387-1.42.514a8.088 8.088 0 01-1.688.175c-.694 0-1.424-.144-2.19-.432-.765-.297-1.148-.933-1.148-1.905 0-.919.31-1.527.932-1.825a4.297 4.297 0 011.92-.459c1.468 0 2.48-.009 3.04-.027.567-.027.936-.077 1.108-.149a.441.441 0 00.283-.405v-.135c-.009-.325-.261-.595-.756-.811-.496-.216-1.068-.324-1.717-.324-.711-.009-1.315.099-1.81.324-.496.216-.743.568-.743 1.054h-2.176c0-.694.252-1.243.757-1.649.513-.405 1.126-.684 1.837-.837a9.772 9.772 0 012.149-.244zm-.473 6.176c1.081 0 1.838-.226 2.27-.676.432-.45.649-.977.649-1.581-.442.261-1.225.392-2.352.392-.666 0-1.189.022-1.567.068-.37.045-.644.13-.824.256a.618.618 0 00-.284.527c.018.325.185.577.5.757.315.171.851.257 1.608.257zM69.32 141h-2.16v-9.999h2.162V141zm7.931-9.999H75.09v1.635h2.162v-1.635zm0 9.999H75.09v-7.972h2.162V141zm6.477-7.607c1.027 0 1.828.351 2.405 1.053.576.694.865 1.865.865 3.514V141h-2.162v-3c0-.576-.045-1.081-.135-1.513a2.042 2.042 0 00-.608-1.095c-.307-.306-.77-.459-1.392-.459-.64 0-1.126.153-1.46.459a2.09 2.09 0 00-.635 1.108 7.87 7.87 0 00-.135 1.554V141H78.31v-7.364h2.162v.973c.712-.811 1.797-1.216 3.257-1.216zm8.085 5.864l2.432-5.621 2.46-.014L93.082 141h-2.554l-3.608-7.364h2.46l2.432 5.621zm14.285-1.77h-7.5c.027.432.149.833.365 1.202.216.361.527.654.932.879.406.225.897.338 1.473.338.478 0 .915-.086 1.311-.257.396-.171.707-.392.932-.662.225-.28.338-.572.338-.879h2.149c0 .55-.19 1.068-.568 1.554-.369.478-.914.865-1.635 1.162-.721.298-1.572.446-2.554.446a6.053 6.053 0 01-2.473-.5c-.747-.333-1.346-.801-1.797-1.405a3.494 3.494 0 01-.662-2.094c0-.793.216-1.491.649-2.095.432-.612 1.022-1.081 1.77-1.405.757-.333 1.594-.5 2.513-.5.946 0 1.775.162 2.486.486.712.325 1.266.784 1.663 1.379.396.585.599 1.274.608 2.067v.284zm-4.73-2.851c-.711 0-1.279.157-1.702.473a2.49 2.49 0 00-.906 1.243h5.081c-.126-.523-.387-.937-.784-1.243-.396-.316-.959-.473-1.689-.473zm10.94 2.067a9.86 9.86 0 011.743.135c.505.09.924.288 1.257.595.333.297.5.738.5 1.324 0 1.063-.446 1.757-1.338 2.081-.892.315-1.941.473-3.148.473-1.171 0-2.243-.185-3.216-.554-.973-.379-1.459-1.099-1.459-2.162l2.175.013c0 .469.252.807.757 1.014.504.198 1.085.297 1.743.297.865 0 1.477-.086 1.838-.257.36-.171.54-.441.54-.81 0-.379-.207-.617-.622-.717-.405-.099-.923-.148-1.553-.148h-.338c-1.261-.009-2.333-.167-3.216-.473-.883-.306-1.324-.915-1.324-1.824 0-.973.463-1.608 1.391-1.906.937-.297 2.018-.446 3.243-.446 1.162 0 2.207.185 3.135.554.928.37 1.392 1.086 1.392 2.149l-2.162-.027c0-.523-.279-.869-.838-1.041-.558-.18-1.072-.27-1.54-.27-.658 0-1.23.063-1.716.189-.487.118-.73.374-.73.771 0 .702.802 1.054 2.405 1.054l1.081-.014zm7.902-3.067h1.406v1.648h-1.406V141h-2.162v-5.716h-1.473v-1.648h1.473v-1.595l2.162-1.256v2.851zm11.747-.311c.91 0 1.729.171 2.459.513.739.343 1.315.82 1.73 1.433a3.52 3.52 0 01.621 2.04c0 .748-.207 1.428-.621 2.041-.415.603-.991 1.076-1.73 1.418-.73.343-1.549.514-2.459.514a5.95 5.95 0 01-2.46-.514c-.765-.351-1.378-.828-1.837-1.432a3.298 3.298 0 01-.689-2.027c0-.748.229-1.423.689-2.027.459-.612 1.067-1.09 1.824-1.432a5.864 5.864 0 012.473-.527zm.013 6.499c.739 0 1.365-.207 1.879-.621.513-.414.77-1.045.77-1.892s-.257-1.477-.77-1.892c-.514-.423-1.14-.635-1.879-.635-.468 0-.919.09-1.351.271-.423.18-.775.459-1.054.837-.27.379-.405.852-.405 1.419 0 .568.135 1.041.405 1.419.279.378.631.658 1.054.838a3.64 3.64 0 001.351.256zm10.515-5.486v1.649h-1.621V141h-2.162v-5.013h-1.554v-1.649h1.554v-.81c0-1.072.297-1.802.892-2.189a3.688 3.688 0 012.04-.581c.261 0 .495.018.703.054v1.932c-.451 0-.775.036-.973.108-.189.063-.32.203-.392.419-.063.207-.099.563-.108 1.067h1.621zm5.348 3c0-.757.216-1.437.649-2.04.432-.613 1.022-1.09 1.77-1.433.748-.342 1.576-.513 2.486-.513 1.316 0 2.352.284 3.108.851.766.559 1.297 1.324 1.595 2.297h-2.176c-.117-.468-.405-.864-.865-1.189-.45-.333-.991-.5-1.621-.5-.856.009-1.527.248-2.014.716-.486.469-.729 1.072-.729 1.811 0 .424.099.833.297 1.23.207.387.518.702.932.946.415.243.919.36 1.514.351.639 0 1.184-.162 1.635-.486.45-.334.73-.73.838-1.19h2.175c-.081.541-.342 1.054-.784 1.541-.441.477-1.008.865-1.702 1.162a5.624 5.624 0 01-2.203.432 5.803 5.803 0 01-2.445-.513c-.748-.351-1.347-.829-1.798-1.432a3.414 3.414 0 01-.662-2.041zm12.591-2.527c.676-.711 1.743-1.139 3.203-1.283v1.864h-1.581c-.487 0-.847.122-1.081.365-.226.234-.37.523-.433.865a8.678 8.678 0 00-.081 1.311V141h-2.162v-7.364h1.878l.257 1.175zm14.577-1.175l-4.392 9.026c-.243.469-.689.775-1.337.919-.64.144-1.392.216-2.257.216v-1.932c.451 0 .761-.041.933-.122.18-.072.27-.175.27-.311a.737.737 0 00-.068-.27 7.459 7.459 0 00-.094-.202l-3.797-7.324h2.378l3.094 6.526 2.892-6.526h2.378zm9.99 3.851a4.225 4.225 0 01-.473 1.838 3.621 3.621 0 01-1.243 1.391c-.532.352-1.153.527-1.865.527-1.55 0-2.73-.374-3.54-1.121v3.445h-2.162v-9.931h1.878l.203 1.04c.828-.811 2.035-1.211 3.621-1.202.694 0 1.306.171 1.838.513.54.342.964.811 1.27 1.405.306.595.464 1.262.473 2v.095zm-4.73 2.351c.532 0 .982-.122 1.352-.365.378-.243.662-.549.851-.919.189-.378.288-.756.297-1.135a3.049 3.049 0 00-.284-1.243 2.14 2.14 0 00-.824-.946c-.369-.243-.833-.365-1.392-.365-.468 0-.882.117-1.243.352-.36.225-.644.527-.851.905a2.53 2.53 0 00-.297 1.189v.014c0 .468.099.896.297 1.283.198.379.477.68.838.906a2.44 2.44 0 001.256.324zm8.805-6.202h1.406v1.648h-1.406V141h-2.162v-5.716h-1.473v-1.648h1.473v-1.595l2.162-1.256v2.851zm6.666-.311c.91 0 1.73.171 2.46.513.738.343 1.315.82 1.729 1.433.415.603.622 1.283.622 2.04a3.56 3.56 0 01-.622 2.041c-.414.603-.991 1.076-1.729 1.418-.73.343-1.55.514-2.46.514a5.945 5.945 0 01-2.459-.514c-.766-.351-1.378-.828-1.838-1.432a3.304 3.304 0 01-.689-2.027c0-.748.23-1.423.689-2.027.46-.612 1.068-1.09 1.824-1.432a5.864 5.864 0 012.473-.527zm.014 6.499c.738 0 1.365-.207 1.878-.621.513-.414.77-1.045.77-1.892s-.257-1.477-.77-1.892c-.513-.423-1.14-.635-1.878-.635-.469 0-.919.09-1.351.271-.424.18-.775.459-1.054.837-.271.379-.406.852-.406 1.419 0 .568.135 1.041.406 1.419.279.378.63.658 1.054.838.432.171.882.256 1.351.256zM30.624 37.416V35.16h13.408l-13.408 2.256zm13.408-2.256v2.304H38.72V47h-2.704v-9.536h-5.392V35.16h13.408zm4.428 2.752c1.077 0 2.048.203 2.912.608.874.405 1.557.97 2.048 1.696.49.715.736 1.52.736 2.416 0 .885-.245 1.69-.736 2.416-.49.715-1.174 1.275-2.048 1.68-.864.405-1.835.608-2.912.608a7.053 7.053 0 01-2.912-.608c-.907-.416-1.632-.981-2.176-1.696-.544-.725-.816-1.525-.816-2.4 0-.885.272-1.685.816-2.4.544-.725 1.264-1.29 2.16-1.696a6.936 6.936 0 012.928-.624zm.016 7.696c.874 0 1.616-.245 2.224-.736.608-.49.912-1.237.912-2.24 0-1.003-.304-1.75-.912-2.24-.608-.501-1.35-.752-2.224-.752-.555 0-1.088.107-1.6.32a2.976 2.976 0 00-1.248.992c-.32.448-.48 1.008-.48 1.68 0 .672.16 1.232.48 1.68.33.448.746.779 1.248.992a4.31 4.31 0 001.6.304zm14.903-10.432h2.56v11.776h-2.224l-.208-1.008c-.917.821-2.357 1.227-4.32 1.216-.822 0-1.552-.203-2.192-.608a4.298 4.298 0 01-1.504-1.696 5.583 5.583 0 01-.544-2.4v-.064c.01-.768.186-1.493.528-2.176a4.26 4.26 0 011.488-1.648c.64-.416 1.381-.624 2.224-.624 1.835 0 3.232.443 4.192 1.328v-4.096zm-2.832 10.336c.555 0 1.045-.139 1.472-.416.427-.277.757-.64.992-1.088.245-.448.368-.917.368-1.408v-.016c0-.555-.117-1.056-.352-1.504a2.573 2.573 0 00-1.008-1.072c-.427-.267-.917-.4-1.472-.4-.63 0-1.168.144-1.616.432-.448.288-.784.65-1.008 1.088a3.067 3.067 0 00-.336 1.312c.01.512.122 1.003.336 1.472.224.47.554.853.992 1.152.448.299.992.448 1.632.448zm12.192-7.616c1.407 0 2.666.256 3.775.768 1.12.512 1.68 1.413 1.68 2.704V47H75.86l-.24-1.52c-.171.32-.491.608-.96.864-.47.256-1.03.459-1.68.608a9.573 9.573 0 01-2 .208c-.822 0-1.686-.17-2.593-.512-.906-.352-1.36-1.104-1.36-2.256 0-1.088.368-1.808 1.105-2.16a5.083 5.083 0 012.272-.544c1.738 0 2.938-.01 3.6-.032.671-.032 1.109-.09 1.311-.176a.523.523 0 00.337-.48v-.16c-.011-.384-.31-.704-.897-.96-.586-.256-1.264-.384-2.032-.384-.842-.01-1.557.117-2.143.384-.587.256-.88.672-.88 1.248h-2.576c0-.821.298-1.472.895-1.952.608-.48 1.334-.81 2.177-.992a11.56 11.56 0 012.544-.288zm-.56 7.312c1.28 0 2.175-.267 2.688-.8.511-.533.767-1.157.767-1.872-.522.31-1.45.464-2.784.464-.789 0-1.407.027-1.855.08-.438.053-.763.155-.977.304-.213.139-.325.347-.335.624.02.384.218.683.591.896.374.203 1.008.304 1.904.304zm18.608-6.928l-5.2 10.688c-.288.555-.816.917-1.584 1.088-.757.17-1.648.256-2.672.256v-2.288c.534 0 .902-.048 1.104-.144.214-.085.32-.208.32-.368a.871.871 0 00-.08-.32 8.706 8.706 0 00-.112-.24l-4.496-8.672h2.816l3.664 7.728 3.424-7.728h2.816z" fill="#EFEFEF" fill-opacity=".6"/><path d="M151.32 43.592l4.224-8.432h2.88L152.488 47h-2.88l-2.736-7.856-2.64 7.856h-2.88l-6.128-11.84h2.992l4.288 8.448 2.896-8.448h3.008l2.912 8.432zm17.052-.752h-8.88c.032.512.176.987.432 1.424.256.427.624.773 1.104 1.04.48.267 1.061.4 1.744.4.565 0 1.082-.101 1.552-.304.469-.203.837-.464 1.104-.784.266-.33.4-.677.4-1.04h2.544c0 .65-.224 1.264-.672 1.84-.438.565-1.083 1.024-1.936 1.376-.854.352-1.862.528-3.024.528-1.056 0-2.032-.197-2.928-.592-.886-.395-1.595-.95-2.128-1.664-.523-.725-.784-1.552-.784-2.48 0-.939.256-1.765.768-2.48.512-.725 1.21-1.28 2.096-1.664.896-.395 1.888-.592 2.976-.592 1.12 0 2.101.192 2.944.576.842.384 1.498.928 1.968 1.632.469.693.709 1.51.72 2.448v.336zm-5.6-3.376c-.843 0-1.515.187-2.016.56a2.947 2.947 0 00-1.072 1.472h6.016c-.15-.619-.459-1.11-.928-1.472-.47-.373-1.136-.56-2-.56zm17.85 3.376h-8.88c.032.512.176.987.432 1.424.256.427.624.773 1.104 1.04.48.267 1.061.4 1.744.4.565 0 1.082-.101 1.552-.304.469-.203.837-.464 1.104-.784.266-.33.4-.677.4-1.04h2.544c0 .65-.224 1.264-.672 1.84-.438.565-1.083 1.024-1.936 1.376-.854.352-1.862.528-3.024.528-1.056 0-2.032-.197-2.928-.592-.886-.395-1.595-.95-2.128-1.664-.523-.725-.784-1.552-.784-2.48 0-.939.256-1.765.768-2.48.512-.725 1.21-1.28 2.096-1.664.896-.395 1.888-.592 2.976-.592 1.12 0 2.101.192 2.944.576.842.384 1.498.928 1.968 1.632.469.693.709 1.51.72 2.448v.336zm-5.6-3.376c-.843 0-1.515.187-2.016.56a2.947 2.947 0 00-1.072 1.472h6.016c-.15-.619-.459-1.11-.928-1.472-.47-.373-1.136-.56-2-.56zm11.77 2.72L192.136 47h-3.232l-4.832-4.272V47h-2.56V35.16h2.56v6.48l4.144-3.36h3.312l-4.736 3.904z" fill="#EFEFEF"/><path d="M244.464 35.16V47h-2.704v-7.408L238.144 47h-2.704l-3.872-7.52V47h-2.704V35.16h3.264l4.64 9.12 4.448-9.12h3.248zm6.777 2.752c1.077 0 2.048.203 2.912.608.875.405 1.557.97 2.048 1.696.491.715.736 1.52.736 2.416 0 .885-.245 1.69-.736 2.416-.491.715-1.173 1.275-2.048 1.68-.864.405-1.835.608-2.912.608a7.054 7.054 0 01-2.912-.608c-.907-.416-1.632-.981-2.176-1.696-.544-.725-.816-1.525-.816-2.4 0-.885.272-1.685.816-2.4.544-.725 1.264-1.29 2.16-1.696a6.939 6.939 0 012.928-.624zm.016 7.696c.875 0 1.616-.245 2.224-.736.608-.49.912-1.237.912-2.24 0-1.003-.304-1.75-.912-2.24-.608-.501-1.349-.752-2.224-.752-.555 0-1.088.107-1.6.32a2.98 2.98 0 00-1.248.992c-.32.448-.48 1.008-.48 1.68 0 .672.16 1.232.48 1.68.331.448.747.779 1.248.992a4.309 4.309 0 001.6.304zm13.111-7.616c1.216 0 2.165.416 2.848 1.248.683.821 1.024 2.208 1.024 4.16V47h-2.56v-3.552c0-.683-.053-1.28-.16-1.792a2.42 2.42 0 00-.72-1.296c-.363-.363-.912-.544-1.648-.544-.757 0-1.333.181-1.728.544a2.47 2.47 0 00-.752 1.312c-.107.523-.16 1.136-.16 1.84V47h-2.56v-8.72h2.56v1.152c.843-.96 2.128-1.44 3.856-1.44zm9.261.288h1.664v1.952h-1.664V47h-2.56v-6.768h-1.744V38.28h1.744v-1.888l2.56-1.488v3.376zm9.175-.288c.682 0 1.322.176 1.92.528.597.341 1.082.917 1.456 1.728.384.8.576 1.85.576 3.152V47h-2.56v-3.552c0-.683-.054-1.28-.16-1.792a2.42 2.42 0 00-.72-1.296c-.363-.363-.912-.544-1.648-.544-.758 0-1.334.181-1.728.544a2.553 2.553 0 00-.752 1.328 9.18 9.18 0 00-.16 1.824V47h-2.56V35.16h2.56v4.24c.832-.939 2.09-1.408 3.776-1.408z" fill="#EFEFEF" fill-opacity=".4"/><path d="M43.277 87.063c1.984.017 3.663.127 5.036.33 1.39.204 2.552.67 3.485 1.4.933.712 1.4 1.78 1.4 3.204 0 2.391-.993 4.061-2.977 5.011-1.984.95-4.298 1.467-6.944 1.552v2.899h-3.026v-2.95c-2.51-.204-4.706-.806-6.588-1.806-1.866-1.017-2.798-2.654-2.798-4.91l4.476-.075c0 1.983 1.637 3.128 4.91 3.433v-4.909c-1.95-.034-3.587-.17-4.91-.407-1.322-.254-2.399-.754-3.23-1.5-.83-.763-1.246-1.874-1.246-3.332 0-2.256.924-3.841 2.772-4.757 1.865-.915 4.07-1.441 6.614-1.577v-2.925h3.026v2.9c2.544.102 4.833.653 6.868 1.653 2.035.984 3.052 2.688 3.052 5.113h-4.451c0-1.086-.568-1.874-1.704-2.366-1.136-.509-2.391-.83-3.765-.966v4.985zm-8.037-2.137c0 1.255 1.67 1.959 5.01 2.111v-4.934c-1.356.136-2.535.424-3.535.865-.984.424-1.475 1.077-1.475 1.958zm13.582 7.148c0-.712-.526-1.187-1.577-1.425-1.051-.237-2.374-.373-3.968-.407v4.96c1.56-.05 2.866-.322 3.917-.814 1.069-.492 1.611-1.255 1.628-2.289v-.025zm27.4-.636c-.068 2.679-1.178 4.536-3.332 5.57-2.153 1.017-4.57 1.526-7.249 1.526-1.424 0-2.917-.212-4.477-.636-1.56-.424-2.9-1.144-4.018-2.162-1.102-1.017-1.654-2.348-1.654-3.993l4.172-.025c0 1.17.56 2.051 1.678 2.645 1.12.593 2.485.933 4.096 1.017 1.78.051 3.29-.237 4.527-.865 1.255-.644 1.882-1.687 1.882-3.128-.017-1.323-.517-2.34-1.5-3.052-.984-.712-2.578-1.069-4.782-1.069-.933 0-1.865.12-2.798.356-.916.238-1.679.585-2.29 1.043-.593.458-.89 1.018-.89 1.679v.127l-4.018.076v-11.37h19.763v2.926H59.588v4.426c1.509-1.238 4.095-1.857 7.757-1.857 1.73 0 3.264.271 4.604.814 1.34.526 2.383 1.297 3.129 2.314.763 1.018 1.144 2.222 1.144 3.612v.026zM97.8 87.673c1.17.34 2.052.882 2.645 1.628.611.73.916 1.721.916 2.976 0 2.51-1.094 4.197-3.281 5.062-2.188.865-4.74 1.297-7.656 1.297h-.814c-1.933 0-3.722-.127-5.367-.382-1.628-.237-3.078-.822-4.35-1.755-1.271-.932-1.907-2.331-1.907-4.196-.017-1.34.263-2.374.84-3.103.593-.747 1.492-1.28 2.696-1.603-1.883-.61-2.824-1.848-2.824-3.713 0-1.611.712-2.798 2.137-3.561 1.441-.78 2.89-1.255 4.35-1.425a37.774 37.774 0 014.349-.305c1.475 0 2.984.093 4.527.28 1.56.17 3.044.644 4.451 1.424 1.425.763 2.137 1.95 2.137 3.561 0 1.967-.95 3.239-2.849 3.815zm-8.292-6.333c-1.865-.017-3.45.178-4.756.585-1.289.407-1.933 1.06-1.933 1.959 0 .915.661 1.576 1.984 1.983 1.322.39 2.925.569 4.807.535 1.916.034 3.535-.145 4.858-.535 1.34-.407 2.01-1.068 2.01-1.984 0-.898-.679-1.551-2.035-1.958-1.357-.407-3.002-.602-4.935-.585zm.051 14.167c2.154.034 3.977-.203 5.469-.712 1.492-.525 2.238-1.365 2.238-2.518 0-1.17-.746-2.01-2.238-2.518-1.493-.526-3.307-.772-5.443-.738-2.137-.034-3.943.212-5.418.738-1.475.509-2.213 1.348-2.213 2.518 0 1.153.738 1.993 2.213 2.518 1.475.509 3.272.746 5.392.712zm36.886-.941V98h-23.171v-1.653c0-2.205.398-3.883 1.195-5.036.797-1.17 1.772-1.967 2.925-2.391 1.17-.424 2.73-.797 4.68-1.12a258.9 258.9 0 013.078-.406c1.475-.17 2.637-.331 3.485-.484.864-.152 1.577-.39 2.136-.712.577-.34.865-.797.865-1.373 0-1.052-.695-1.823-2.086-2.315-1.373-.492-3.061-.73-5.061-.712-1.917 0-3.544.296-4.884.89-1.34.576-2.009 1.492-2.009 2.747l-4.324-.025c0-1.73.61-3.095 1.831-4.096 1.238-1.017 2.705-1.72 4.4-2.11a22.09 22.09 0 014.96-.586c2.951 0 5.604.416 7.961 1.247 2.374.814 3.561 2.467 3.561 4.96 0 1.34-.559 2.399-1.678 3.179a10.516 10.516 0 01-3.739 1.653c-1.374.323-3.002.61-4.884.865a27.77 27.77 0 00-1.679.229c-1.356.136-2.543.415-3.561.84-1 .423-1.772.907-2.314 1.45-.526.525-.789 1.034-.789 1.525h19.102zm1.591-.508h4.375V98h-4.375v-3.942zm29.612-2.29c-.017 2.357-1.085 4.079-3.205 5.164-2.119 1.085-4.883 1.628-8.292 1.628-2.509 0-4.654-.314-6.435-.941-1.78-.628-3.137-1.535-4.07-2.722-.915-1.187-1.373-2.603-1.373-4.248h4.171c0 1.594.746 2.764 2.239 3.51 1.492.746 3.315 1.12 5.468 1.12 1.967.017 3.646-.255 5.036-.814 1.391-.577 2.095-1.484 2.112-2.722-.017-.526-.153-.916-.407-1.17-.238-.271-.763-.466-1.577-.585-.814-.136-2.078-.204-3.79-.204h-4.706V86.63h4.706c1.187 0 2.153-.042 2.899-.127.763-.101 1.382-.305 1.857-.61.475-.305.712-.772.712-1.4 0-.864-.661-1.508-1.984-1.932-1.322-.424-2.942-.653-4.858-.687-2.153-.017-3.976.22-5.468.712-1.493.475-2.239 1.247-2.239 2.315h-4.171c0-2.442 1.229-4.095 3.688-4.96 2.476-.882 5.206-1.323 8.19-1.323 1.815 0 3.502.119 5.062.356 1.577.22 2.959.746 4.146 1.577 1.187.831 1.78 2.06 1.78 3.689 0 1.797-.771 3.026-2.314 3.688 1.814.661 2.755 1.924 2.823 3.79v.05zm10.301-1.424L176.444 98h-5.138l-7.681-6.791V98h-4.07V79.178h4.07v10.301l6.587-5.341h5.266l-7.529 6.206z" fill="#EFEFEF"/><path d="M348 84h-38a3 3 0 00-3 3v19.5a3 3 0 003 3h13.708c1.104 0 2.118.606 2.642 1.578l1.77 3.287a1 1 0 001.76 0l1.77-3.287a3.001 3.001 0 012.642-1.578H348a3 3 0 003-3V87a3 3 0 00-3-3z" fill="#57C7FF"/><path d="M324.116 97.945h.881v1.116h-.881V100h-1.376v-.94h-4.413v-1.115l4.413-4.153h1.376v4.153zm-1.376-2.81l-2.81 2.81h2.81v-2.81zm10.605 2.81c-.006.777-.358 1.345-1.057 1.703-.699.358-1.611.537-2.735.537-.828 0-1.536-.104-2.123-.31-.587-.208-1.034-.507-1.342-.898-.302-.392-.453-.859-.453-1.401h1.376c0 .525.246.911.738 1.157s1.093.37 1.804.37c.648.005 1.202-.084 1.661-.269.458-.19.691-.49.696-.898-.005-.173-.05-.302-.134-.386-.078-.09-.252-.153-.52-.192-.269-.045-.685-.068-1.25-.068h-1.552v-1.04h1.552c.391 0 .71-.014.956-.042.252-.033.456-.1.613-.201.156-.1.234-.255.234-.462 0-.285-.218-.497-.654-.637-.436-.14-.97-.216-1.602-.227-.711-.005-1.312.073-1.804.235-.492.157-.738.411-.738.764h-1.376c0-.806.405-1.351 1.216-1.636.817-.291 1.717-.437 2.702-.437.598 0 1.155.04 1.669.118.52.073.976.246 1.368.52.391.274.587.68.587 1.216 0 .593-.255.999-.764 1.217.599.218.909.635.932 1.25v.017zm2.046 2.055h-1.426l5.453-5.872h1.427L335.391 100zm.37-3.154c-.241 0-.465-.059-.672-.177a1.333 1.333 0 01-.671-1.166c0-.24.059-.464.177-.67.123-.208.288-.37.494-.487.207-.123.431-.185.672-.185.24 0 .464.062.671.185.207.117.369.28.486.486.123.207.185.43.185.671 0 .24-.062.465-.185.672a1.327 1.327 0 01-.486.495 1.338 1.338 0 01-.671.176zm0-.806a.515.515 0 00.377-.16.517.517 0 00.16-.377.518.518 0 00-.16-.377.515.515 0 00-.377-.16.516.516 0 00-.378.16.517.517 0 00-.159.377c0 .146.053.272.159.378.106.106.232.16.378.16zm3.288 3.91c-.24 0-.464-.059-.671-.176a1.398 1.398 0 01-.495-.495 1.341 1.341 0 01-.176-.671c0-.241.059-.465.176-.672.123-.207.288-.369.495-.486.207-.123.431-.185.671-.185.241 0 .464.062.671.185.207.117.37.28.487.486.123.207.185.431.185.671 0 .241-.062.465-.185.672a1.33 1.33 0 01-.487.495 1.34 1.34 0 01-.671.176zm0-.814a.487.487 0 00.369-.16.505.505 0 000-.738.506.506 0 00-.738 0 .507.507 0 000 .738c.106.107.229.16.369.16z" fill="#111415"/></svg>