<svg width="25" height="24" fill="none" xmlns="http://www.w3.org/2000/svg"><path d="M7.596 6.16c-.522 1.592-.73 3.398-.835 5.309h5.217v-5.31H7.596zm-1.879 6.37H.5a12.96 12.96 0 001.46 5.31h4.488c-.418-1.593-.626-3.399-.73-5.31zM7.91 5.097h4.07V.425c-1.67.318-3.131 2.124-4.07 4.672zM13.022.425v4.672h4.07c-.94-2.548-2.4-4.354-4.07-4.672zm4.382 5.734h-4.382v5.31h5.217c-.104-1.911-.313-3.717-.835-5.31zm1.879 6.372c0 1.912-.313 3.717-.73 5.31h4.486a12.961 12.961 0 001.461-5.31h-5.217zm-12.522 0c.104 1.912.313 3.717.835 5.31h4.382v-5.31H6.761zm-4.8-6.372A12.96 12.96 0 00.5 11.47h5.217c.105-1.911.313-3.717.73-5.31H1.962zm5.948 12.744c.939 2.548 2.4 4.354 4.07 4.672v-4.672h-4.07zm-1.148 0H2.587C4.361 21.45 6.97 23.363 10.1 24c-1.357-.956-2.504-2.761-3.34-5.097zm11.374 0c-.73 2.336-1.879 4.141-3.34 5.097 3.131-.637 5.844-2.442 7.514-5.097h-4.174zM14.9 0c1.356.956 2.504 2.761 3.34 5.097h4.173C20.639 2.55 18.03.637 14.9 0zM2.691 5.097h4.174C7.595 2.761 8.743.956 10.205 0 7.073.637 4.36 2.442 2.69 5.097zm10.33 13.806v4.672c1.67-.318 3.131-2.124 4.07-4.672h-4.07zm0-6.372v5.31h4.383c.522-1.593.73-3.399.835-5.31h-5.217zM23.04 6.159h-4.487c.418 1.593.626 3.399.73 5.31H24.5a12.962 12.962 0 00-1.46-5.31z" fill="#EFEFEF"/></svg>