<svg width="14" height="14" fill="none" xmlns="http://www.w3.org/2000/svg"><path fill-rule="evenodd" clip-rule="evenodd" d="M10.904 14a.66.66 0 01-.318-.082L7 11.944l-3.586 1.973a.658.658 0 01-.719-.056.711.711 0 01-.23-.309.746.746 0 01-.042-.39l.684-4.176-2.9-2.958a.747.747 0 01-.172-.733.718.718 0 01.208-.326.67.67 0 01.343-.161l4.008-.61 1.793-3.8a.705.705 0 01.253-.29.662.662 0 01.722 0c.109.07.196.171.253.29l1.793 3.8 4.008.61a.67.67 0 01.342.162.72.72 0 01.21.326.745.745 0 01.013.392.723.723 0 01-.186.34l-2.9 2.959.683 4.177a.748.748 0 01-.15.581.688.688 0 01-.235.188.659.659 0 01-.288.067z" fill="#FFC205"/></svg>